<?xml version="1.0" encoding="UTF-8" standalone="no"?>
<!-- Created with Inkscape (http://www.inkscape.org/) -->

<svg
   xmlns:dc="http://purl.org/dc/elements/1.1/"
   xmlns:cc="http://creativecommons.org/ns#"
   xmlns:rdf="http://www.w3.org/1999/02/22-rdf-syntax-ns#"
   xmlns:svg="http://www.w3.org/2000/svg"
   xmlns="http://www.w3.org/2000/svg"
   xmlns:sodipodi="http://sodipodi.sourceforge.net/DTD/sodipodi-0.dtd"
   xmlns:inkscape="http://www.inkscape.org/namespaces/inkscape"
   width="720"
   height="380"
   viewBox="0 0 720.00001 380.00001"
   id="svg2"
   version="1.1"
   inkscape:version="0.91 r13725"
   sodipodi:docname="struktur-direktori-maven.svg">
  <defs
     id="defs4" />
  <sodipodi:namedview
     id="base"
     pagecolor="#ffffff"
     bordercolor="#666666"
     borderopacity="1.0"
     inkscape:pageopacity="0.0"
     inkscape:pageshadow="2"
     inkscape:zoom="0.98994949"
     inkscape:cx="478.01767"
     inkscape:cy="173.35617"
     inkscape:document-units="px"
     inkscape:current-layer="layer1"
     showgrid="false"
     units="px"
     inkscape:window-width="1335"
     inkscape:window-height="742"
     inkscape:window-x="31"
     inkscape:window-y="0"
     inkscape:window-maximized="1" />
  <metadata
     id="metadata7">
    <rdf:RDF>
      <cc:Work
         rdf:about="">
        <dc:format>image/svg+xml</dc:format>
        <dc:type
           rdf:resource="http://purl.org/dc/dcmitype/StillImage" />
        <dc:title></dc:title>
      </cc:Work>
    </rdf:RDF>
  </metadata>
  <g
     inkscape:label="Layer 1"
     inkscape:groupmode="layer"
     id="layer1"
     transform="translate(0,-672.36216)">
    <g
       style="fill:none;stroke:none;stroke-linecap:square;stroke-miterlimit:10"
       id="g4214"
       transform="matrix(0.47271781,0,0,0.47271781,21.713471,697.27851)">
      <path
         id="path4138"
         d="m 0,0.4292798 144,0 0,48.0000002 -144,0 z"
         inkscape:connector-curvature="0"
         style="fill:#f4cccc;fill-rule:nonzero;stroke:#660000;stroke-width:2;stroke-linecap:butt;stroke-linejoin:round" />
      <path
         id="path4140"
         d="m 19.3125,34.71053 0,-13.640626 1.53125,0 0,1.28125 q 0.53125,-0.75 1.210938,-1.125 0.679687,-0.375 1.632812,-0.375 1.265625,0 2.234375,0.648438 0.96875,0.648438 1.460937,1.835938 0.492188,1.1875 0.492188,2.59375 0,1.515624 -0.546875,2.726562 -0.546875,1.210938 -1.578125,1.851562 -1.03125,0.640626 -2.171875,0.640626 -0.84375,0 -1.507813,-0.351563 -0.664062,-0.351563 -1.085937,-0.882813 l 0,4.796876 -1.671875,0 z m 1.515625,-8.65625 q 0,1.90625 0.773437,2.8125 0.773438,0.90625 1.867188,0.90625 1.109375,0 1.898438,-0.9375 0.789062,-0.9375 0.789062,-2.921876 0,-1.875 -0.773438,-2.8125 -0.773437,-0.9375 -1.851562,-0.9375 -1.0625,0 -1.882812,1 -0.820313,1 -0.820313,2.890626 z m 8.84375,4.875 0,-9.859376 1.5,0 0,1.5 q 0.578125,-1.046874 1.0625,-1.382812 0.484375,-0.335938 1.078125,-0.335938 0.84375,0 1.71875,0.546876 l -0.578125,1.546874 Q 33.84375,22.58553 33.21875,22.58553 q -0.546875,0 -0.976562,0.328124 Q 31.8125,23.24178 31.625,23.819904 31.34375,24.71053 31.34375,25.77303 l 0,5.15625 -1.671875,0 z m 5.609375,-4.921876 q 0,-2.734374 1.53125,-4.0625 1.265625,-1.09375 3.09375,-1.09375 2.03125,0 3.320312,1.335938 1.289063,1.335938 1.289063,3.679688 0,1.90625 -0.570313,2.992187 -0.570312,1.085937 -1.65625,1.6875 -1.085937,0.601563 -2.382812,0.601563 -2.0625,0 -3.34375,-1.328126 -1.28125,-1.328124 -1.28125,-3.8125 z m 1.71875,0 q 0,1.890626 0.828125,2.828126 0.828125,0.9375 2.078125,0.9375 1.25,0 2.070312,-0.945313 0.820313,-0.945313 0.820313,-2.882813 0,-1.828124 -0.828125,-2.765624 -0.828125,-0.9375 -2.0625,-0.9375 -1.25,0 -2.078125,0.9375 Q 37,24.11678 37,26.007404 Z m 9.28125,-6.734374 0,-1.9375 1.65625,0 0,1.9375 -1.65625,0 z m -2.125,15.484374 0.3125,-1.421874 q 0.5,0.125 0.796875,0.125 0.515625,0 0.765625,-0.33594 0.25,-0.335936 0.25,-1.69531 l 0,-10.359376 1.65625,0 0,10.390626 q 0,1.828124 -0.46875,2.546874 -0.59375,0.921876 -2,0.921876 -0.671875,0 -1.3125,-0.171876 z m 13.015625,-7 1.71875,0.21875 q -0.40625,1.5 -1.507813,2.335938 -1.101562,0.835938 -2.820312,0.835938 -2.15625,0 -3.421875,-1.328126 Q 49.875,28.49178 49.875,26.08553 q 0,-2.484376 1.273438,-3.859376 1.273437,-1.375 3.320312,-1.375 1.984375,0 3.234375,1.34375 1.25,1.34375 1.25,3.796876 0,0.140624 -0.01563,0.4375 l -7.34375,0 q 0.09375,1.625 0.921875,2.484374 0.828125,0.859376 2.0625,0.859376 0.90625,0 1.554687,-0.476563 0.648438,-0.476563 1.039063,-1.539063 z M 51.6875,25.05428 l 5.5,0 q -0.109375,-1.234376 -0.625,-1.859376 -0.796875,-0.96875 -2.078125,-0.96875 -1.140625,0 -1.929687,0.773438 -0.789063,0.773438 -0.867188,2.054688 z m 15.546875,2.265624 1.640625,0.21875 q -0.265625,1.6875 -1.375,2.648438 -1.109375,0.960938 -2.734375,0.960938 -2.015625,0 -3.242187,-1.320313 -1.226563,-1.320313 -1.226563,-3.789063 0,-1.59375 0.523437,-2.789062 0.523438,-1.195312 1.609376,-1.796875 1.085937,-0.601563 2.351562,-0.601563 1.609375,0 2.625,0.8125 1.015625,0.8125 1.3125,2.3125 l -1.625,0.25 q -0.234375,-1 -0.828125,-1.5 -0.59375,-0.5 -1.421875,-0.5 -1.265625,0 -2.054688,0.90625 Q 62,24.038654 62,25.99178 q 0,1.984374 0.765625,2.882812 0.765625,0.898438 1.984375,0.898438 0.984375,0 1.640625,-0.601563 0.65625,-0.601563 0.84375,-1.851563 z m 6.546875,2.109376 0.234375,1.484374 Q 73.3125,31.05428 72.75,31.05428 q -0.90625,0 -1.40625,-0.289063 -0.5,-0.289063 -0.703125,-0.75 Q 70.4375,29.55428 70.4375,28.038654 l 0,-5.65625 -1.234375,0 0,-1.3125 1.234375,0 0,-2.4375 1.65625,-1 0,3.4375 1.6875,0 0,1.3125 -1.6875,0 0,5.75 q 0,0.71875 0.08594,0.921876 0.08594,0.203124 0.28906,0.328124 0.203125,0.125 0.578125,0.125 0.265625,0 0.734375,-0.07812 z m 6.71875,1.5 0,-13.59375 1.671875,0 0,4.875 q 1.171875,-1.359376 2.953125,-1.359376 1.09375,0 1.89844,0.429688 0.804685,0.429688 1.15625,1.195312 0.35156,0.765626 0.35156,2.203126 l 0,6.25 -1.671875,0 0,-6.25 q 0,-1.25 -0.546875,-1.820313 -0.546875,-0.570313 -1.53125,-0.570313 -0.75,0 -1.39844,0.382813 -0.648435,0.382813 -0.929685,1.046875 -0.28125,0.664062 -0.28125,1.820312 l 0,5.390626 -1.671875,0 z m 9.75,-4.921876 q 0,-2.734374 1.53125,-4.0625 1.265625,-1.09375 3.09375,-1.09375 2.03125,0 3.32031,1.335938 1.289065,1.335938 1.289065,3.679688 0,1.90625 -0.570315,2.992187 -0.57031,1.085937 -1.65625,1.6875 -1.085935,0.601563 -2.38281,0.601563 -2.0625,0 -3.34375,-1.328126 Q 90.25,28.49178 90.25,26.007404 Z m 1.71875,0 q 0,1.890626 0.828125,2.828126 0.828125,0.9375 2.078125,0.9375 1.25,0 2.07031,-0.945313 0.820315,-0.945313 0.820315,-2.882813 0,-1.828124 -0.828125,-2.765624 -0.828125,-0.9375 -2.0625,-0.9375 -1.25,0 -2.078125,0.9375 -0.828125,0.9375 -0.828125,2.828124 z m 9.28125,4.921876 0,-9.859376 1.5,0 0,1.390626 q 0.45313,-0.71875 1.22656,-1.164063 0.77344,-0.445313 1.75782,-0.445313 1.09375,0 1.79687,0.453126 0.70313,0.453124 0.98438,1.28125 1.17187,-1.734376 3.04687,-1.734376 1.46875,0 2.25781,0.8125 0.78907,0.8125 0.78907,2.5 l 0,6.765626 -1.67188,0 0,-6.203126 q 0,-1 -0.15625,-1.445312 -0.15625,-0.445312 -0.58594,-0.710938 -0.42968,-0.265624 -1.00781,-0.265624 -1.03125,0 -1.71875,0.6875 -0.6875,0.6875 -0.6875,2.21875 l 0,5.71875 -1.67187,0 0,-6.40625 q 0,-1.109376 -0.40625,-1.664063 -0.40625,-0.554687 -1.34375,-0.554687 -0.70313,0 -1.30469,0.367187 -0.60156,0.367187 -0.86719,1.085937 -0.26562,0.71875 -0.26562,2.0625 l 0,5.109376 -1.67188,0 z m 22.29688,-3.171876 1.71875,0.21875 q -0.40625,1.5 -1.50782,2.335938 -1.10156,0.835938 -2.82031,0.835938 -2.15625,0 -3.42187,-1.328126 Q 116.25,28.49178 116.25,26.08553 q 0,-2.484376 1.27344,-3.859376 1.27344,-1.375 3.32031,-1.375 1.98438,0 3.23438,1.34375 1.25,1.34375 1.25,3.796876 0,0.140624 -0.0156,0.4375 l -7.34375,0 q 0.0937,1.625 0.92188,2.484374 0.82812,0.859376 2.0625,0.859376 0.90625,0 1.55468,-0.476563 0.64844,-0.476563 1.03907,-1.539063 z m -5.48438,-2.703124 5.5,0 q -0.10937,-1.234376 -0.625,-1.859376 -0.79687,-0.96875 -2.07812,-0.96875 -1.14063,0 -1.92969,0.773438 -0.78906,0.773438 -0.86719,2.054688 z"
         inkscape:connector-curvature="0"
         style="fill:#000000;fill-rule:nonzero" />
      <path
         id="path4142"
         d="m 288.2362,182.32721 -0.50393,110.74014"
         inkscape:connector-curvature="0"
         style="fill-rule:nonzero;stroke:#000000;stroke-width:2;stroke-linecap:butt;stroke-linejoin:round" />
      <path
         id="path4144"
         d="m 322.26254,202.64352 160.06299,0 0,48 -160.06299,0 z"
         inkscape:connector-curvature="0"
         style="fill-rule:nonzero;stroke:#bf9000;stroke-width:2;stroke-linecap:butt;stroke-linejoin:round" />
      <path
         id="path4146"
         d="m 375.02817,217.5029 0,-3.26563 2.8125,0 0,3.26563 -2.8125,0 z m -3.5625,26.07812 0.53125,-2.39062 q 0.84375,0.21875 1.32812,0.21875 0.85938,0 1.28126,-0.57031 0.42187,-0.57032 0.42187,-2.85157 l 0,-17.4375 2.8125,0 0,17.5 q 0,3.0625 -0.79687,4.26563 -1.01563,1.5625 -3.375,1.5625 -1.14063,0 -2.20313,-0.29688 z m 21.51563,-8.48437 q -1.5625,1.32812 -3.00782,1.875 -1.44531,0.54687 -3.10156,0.54687 -2.73438,0 -4.20312,-1.33593 -1.46876,-1.33594 -1.46876,-3.41407 0,-1.21875 0.55469,-2.22656 0.55469,-1.00781 1.45313,-1.61719 0.89844,-0.60937 2.02344,-0.92187 0.82812,-0.21875 2.5,-0.42188 3.40624,-0.40625 5.01562,-0.96875 0.0156,-0.57812 0.0156,-0.73437 0,-1.71875 -0.79687,-2.42188 -1.07813,-0.95312 -3.20313,-0.95312 -1.98437,0 -2.92968,0.69531 -0.94532,0.69531 -1.39844,2.46094 l -2.75,-0.375 q 0.375,-1.76563 1.23438,-2.85156 0.85937,-1.08594 2.48437,-1.67188 1.625,-0.58594 3.76563,-0.58594 2.125,0 3.45312,0.5 1.32812,0.5 1.95312,1.25782 0.625,0.75781 0.875,1.91406 0.14063,0.71875 0.14063,2.59375 l 0,3.75 q 0,3.92187 0.17969,4.96094 0.17968,1.03906 0.71094,1.99218 l -2.9375,0 q -0.4375,-0.875 -0.5625,-2.04687 z m -0.23438,-6.28125 q -1.53125,0.625 -4.59375,1.0625 -1.73437,0.25 -2.45313,0.5625 -0.71874,0.3125 -1.10937,0.91406 -0.39063,0.60156 -0.39063,1.33594 0,1.125 0.85156,1.875 0.85157,0.75 2.4922,0.75 1.625,0 2.89062,-0.71094 1.26562,-0.71094 1.85938,-1.94531 0.45312,-0.95313 0.45312,-2.8125 l 0,-1.03125 z m 11.8125,8.32812 -6.3125,-16.59375 2.96875,0 3.5625,9.9375 q 0.57813,1.60938 1.0625,3.34375 0.375,-1.3125 1.04687,-3.15625 l 3.6875,-10.125 2.89063,0 -6.28125,16.59375 -2.625,0 z m 22.21875,-2.04687 q -1.5625,1.32812 -3.00781,1.875 -1.44532,0.54687 -3.10156,0.54687 -2.73438,0 -4.20313,-1.33593 -1.46875,-1.33594 -1.46875,-3.41407 0,-1.21875 0.55468,-2.22656 0.5547,-1.00781 1.45313,-1.61719 0.89844,-0.60937 2.02344,-0.92187 0.82813,-0.21875 2.5,-0.42188 3.40625,-0.40625 5.01563,-0.96875 0.0156,-0.57812 0.0156,-0.73437 0,-1.71875 -0.79688,-2.42188 -1.07812,-0.95312 -3.20312,-0.95312 -1.98438,0 -2.92969,0.69531 -0.94531,0.69531 -1.39843,2.46094 l -2.75,-0.375 q 0.375,-1.76563 1.23437,-2.85156 0.85937,-1.08594 2.48437,-1.67188 1.625,-0.58594 3.76563,-0.58594 2.125,0 3.45313,0.5 1.32812,0.5 1.95312,1.25782 0.625,0.75781 0.875,1.91406 0.14062,0.71875 0.14062,2.59375 l 0,3.75 q 0,3.92187 0.17969,4.96094 0.17969,1.03906 0.71094,1.99218 l -2.9375,0 q -0.4375,-0.875 -0.5625,-2.04687 z m -0.23437,-6.28125 q -1.53126,0.625 -4.59376,1.0625 -1.73437,0.25 -2.45312,0.5625 -0.71875,0.3125 -1.10938,0.91406 -0.39062,0.60156 -0.39062,1.33594 0,1.125 0.85156,1.875 0.85156,0.75 2.49219,0.75 1.625,0 2.89063,-0.71094 1.26562,-0.71094 1.85937,-1.94531 0.45313,-0.95313 0.45313,-2.8125 l 0,-1.03125 z"
         inkscape:connector-curvature="0"
         style="fill:#000000;fill-rule:nonzero" />
      <path
         id="path4148"
         d="m 288,226.64352 34.2362,0"
         inkscape:connector-curvature="0"
         style="fill-rule:nonzero;stroke:#000000;stroke-width:2;stroke-linecap:butt;stroke-linejoin:round" />
      <path
         id="path4150"
         d="m 322.26254,270.04828 160.06299,0 0,48 -160.06299,0 z"
         inkscape:connector-curvature="0"
         style="fill-rule:nonzero;stroke:#bf9000;stroke-width:2;stroke-linecap:butt;stroke-linejoin:round" />
      <path
         id="path4152"
         d="m 334.12192,304.54828 0,-16.59375 2.53125,0 0,2.51562 q 0.96875,-1.76562 1.78906,-2.32812 0.82031,-0.5625 1.80469,-0.5625 1.42188,0 2.89062,0.90625 l -0.96874,2.60937 q -1.03126,-0.60937 -2.0625,-0.60937 -0.92188,0 -1.65626,0.55469 -0.73437,0.55468 -1.04687,1.53906 -0.46875,1.5 -0.46875,3.28125 l 0,8.6875 -2.8125,0 z m 22.04688,-5.34375 2.90624,0.35937 q -0.6875,2.54688 -2.54687,3.95313 -1.85937,1.40625 -4.75,1.40625 -3.64063,0 -5.77344,-2.24218 -2.13281,-2.2422 -2.13281,-6.28907 0,-4.1875 2.15625,-6.5 2.15625,-2.3125 5.59375,-2.3125 3.32812,0 5.4375,2.26562 2.10938,2.26563 2.10938,6.375 0,0.25 -0.0156,0.75 l -12.375,0 q 0.15625,2.73438 1.54687,4.1875 1.39063,1.45313 3.46876,1.45313 1.54687,0 2.64062,-0.8125 1.09375,-0.8125 1.73438,-2.59375 z m -9.23438,-4.54688 9.26562,0 q -0.1875,-2.09375 -1.0625,-3.14062 -1.34374,-1.625 -3.48437,-1.625 -1.9375,0 -3.25781,1.29687 -1.32032,1.29688 -1.46094,3.46875 z m 14.54688,4.9375 2.78124,-0.4375 q 0.23438,1.67188 1.30469,2.5625 1.07031,0.89063 2.99219,0.89063 1.9375,0 2.875,-0.78906 0.9375,-0.78907 0.9375,-1.85157 0,-0.95312 -0.82812,-1.5 -0.57813,-0.375 -2.875,-0.95312 -3.09376,-0.78125 -4.28907,-1.35156 -1.19531,-0.57032 -1.8125,-1.57813 -0.61719,-1.00781 -0.61719,-2.22656 0,-1.10938 0.50782,-2.05468 0.50781,-0.94532 1.38281,-1.57032 0.65625,-0.48438 1.78906,-0.82031 1.13281,-0.33594 2.42969,-0.33594 1.95312,0 3.42968,0.5625 1.47657,0.5625 2.1797,1.52344 0.70312,0.96093 0.96874,2.57031 l -2.75,0.375 q -0.1875,-1.28125 -1.08594,-2 -0.89843,-0.71875 -2.53906,-0.71875 -1.9375,0 -2.76562,0.64062 -0.82812,0.64063 -0.82812,1.5 0,0.54688 0.34374,0.98438 0.34376,0.45312 1.07813,0.75 0.42187,0.15625 2.48437,0.71875 2.98438,0.79687 4.16406,1.30469 1.1797,0.50781 1.85157,1.47656 0.67187,0.96875 0.67187,2.40625 0,1.40625 -0.82031,2.64844 -0.82031,1.24218 -2.36719,1.92188 -1.54687,0.67968 -3.5,0.67968 -3.23437,0 -4.92968,-1.34375 -1.69532,-1.34375 -2.16406,-3.98438 z m 16.07812,-3.34375 q 0,-4.60937 2.5625,-6.82812 2.14062,-1.84375 5.21875,-1.84375 3.42187,0 5.59375,2.24219 2.17188,2.24218 2.17188,6.19531 0,3.20312 -0.96094,5.03907 -0.96094,1.83593 -2.79688,2.85155 -1.83594,1.01563 -4.00781,1.01563 -3.48437,0 -5.63281,-2.23438 -2.14844,-2.23437 -2.14844,-6.4375 z m 2.89062,0 q 0,3.1875 1.39063,4.77344 1.39063,1.58594 3.5,1.58594 2.09375,0 3.48437,-1.59375 1.39063,-1.59375 1.39063,-4.85938 0,-3.07812 -1.39844,-4.66405 -1.39843,-1.58595 -3.47656,-1.58595 -2.10937,0 -3.5,1.57813 -1.39063,1.57812 -1.39063,4.76562 z m 26.82813,8.29688 0,-2.4375 q -1.9375,2.8125 -5.26563,2.8125 -1.46874,0 -2.74218,-0.5625 -1.27344,-0.5625 -1.89063,-1.41406 -0.61719,-0.85157 -0.86719,-2.08594 -0.17187,-0.82813 -0.17187,-2.625 l 0,-10.28125 2.8125,0 0,9.20312 q 0,2.20313 0.17187,2.96875 0.26563,1.10938 1.125,1.7422 0.85938,0.6328 2.125,0.6328 1.26563,0 2.375,-0.64843 1.10938,-0.64844 1.57032,-1.76563 0.46094,-1.11719 0.46094,-3.24219 l 0,-8.89062 2.8125,0 0,16.59375 -2.51563,0 z m 6.89063,0 0,-16.59375 2.53124,0 0,2.51562 q 0.96876,-1.76562 1.78906,-2.32812 0.82032,-0.5625 1.8047,-0.5625 1.42187,0 2.89062,0.90625 l -0.96875,2.60937 q -1.03125,-0.60937 -2.0625,-0.60937 -0.92187,0 -1.65625,0.55469 -0.73438,0.55468 -1.04688,1.53906 -0.46874,1.5 -0.46874,3.28125 l 0,8.6875 -2.8125,0 z m 21.51562,-6.07813 2.76562,0.35938 q -0.45312,2.85937 -2.32031,4.47657 -1.86719,1.61718 -4.58593,1.61718 -3.40626,0 -5.47657,-2.22656 -2.07031,-2.22657 -2.07031,-6.38282 0,-2.6875 0.89062,-4.70312 0.89063,-2.01563 2.71094,-3.02344 1.82032,-1.00781 3.96094,-1.00781 2.70312,0 4.42188,1.36719 1.71874,1.36718 2.20312,3.88281 l -2.73438,0.42187 q -0.39062,-1.67187 -1.38281,-2.51562 -0.99219,-0.84375 -2.39843,-0.84375 -2.125,0 -3.45313,1.52344 -1.32813,1.52343 -1.32813,4.82031 0,3.34375 1.28126,4.85937 1.28124,1.51563 3.34374,1.51563 1.65626,0 2.76563,-1.01563 1.10937,-1.01562 1.40625,-3.125 z m 16.53125,0.73438 2.90625,0.35937 q -0.6875,2.54688 -2.54688,3.95313 -1.85937,1.40625 -4.75,1.40625 -3.64062,0 -5.77344,-2.24218 -2.1328,-2.2422 -2.1328,-6.28907 0,-4.1875 2.15624,-6.5 2.15626,-2.3125 5.59376,-2.3125 3.32812,0 5.4375,2.26562 2.10937,2.26563 2.10937,6.375 0,0.25 -0.0156,0.75 l -12.375,0 q 0.15626,2.73438 1.54688,4.1875 1.39062,1.45313 3.46875,1.45313 1.54687,0 2.64063,-0.8125 1.09374,-0.8125 1.73437,-2.59375 z m -9.23437,-4.54688 9.26562,0 q -0.1875,-2.09375 -1.0625,-3.14062 -1.34375,-1.625 -3.48438,-1.625 -1.9375,0 -3.25781,1.29687 -1.32031,1.29688 -1.46093,3.46875 z m 14.54687,4.9375 2.78125,-0.4375 q 0.23438,1.67188 1.30468,2.5625 1.07032,0.89063 2.9922,0.89063 1.9375,0 2.875,-0.78906 0.9375,-0.78907 0.9375,-1.85157 0,-0.95312 -0.82813,-1.5 -0.57813,-0.375 -2.875,-0.95312 -3.09375,-0.78125 -4.28907,-1.35156 -1.1953,-0.57032 -1.8125,-1.57813 -0.61718,-1.00781 -0.61718,-2.22656 0,-1.10938 0.50781,-2.05468 0.50781,-0.94532 1.38281,-1.57032 0.65626,-0.48438 1.78906,-0.82031 1.13282,-0.33594 2.4297,-0.33594 1.95312,0 3.42968,0.5625 1.47656,0.5625 2.17969,1.52344 0.70313,0.96093 0.96875,2.57031 l -2.75,0.375 q -0.1875,-1.28125 -1.08594,-2 -0.89844,-0.71875 -2.53906,-0.71875 -1.9375,0 -2.76562,0.64062 -0.82813,0.64063 -0.82813,1.5 0,0.54688 0.34375,0.98438 0.34375,0.45312 1.07812,0.75 0.42188,0.15625 2.48438,0.71875 2.98438,0.79687 4.16406,1.30469 1.17969,0.50781 1.85156,1.47656 0.67188,0.96875 0.67188,2.40625 0,1.40625 -0.82032,2.64844 -0.8203,1.24218 -2.36718,1.92188 -1.54688,0.67968 -3.5,0.67968 -3.23438,0 -4.92969,-1.34375 -1.69531,-1.34375 -2.16406,-3.98438 z"
         inkscape:connector-curvature="0"
         style="fill:#000000;fill-rule:nonzero" />
      <path
         id="path4154"
         d="m 286.5013,294.04828 34.23622,0"
         inkscape:connector-curvature="0"
         style="fill-rule:nonzero;stroke:#000000;stroke-width:2;stroke-linecap:butt;stroke-linejoin:round" />
      <path
         id="path4156"
         d="m 215.98425,337.45303 144,0 0,48 -144,0 z"
         inkscape:connector-curvature="0"
         style="fill-rule:nonzero;stroke:#bf9000;stroke-width:2;stroke-linecap:butt;stroke-linejoin:round" />
      <path
         id="path4158"
         d="m 270.43738,369.4374 0.40625,2.48438 q -1.1875,0.25 -2.125,0.25 -1.53125,0 -2.375,-0.48438 -0.84375,-0.48437 -1.1875,-1.27343 -0.34375,-0.78907 -0.34375,-3.32031 l 0,-9.54688 -2.0625,0 0,-2.1875 2.0625,0 0,-4.10938 2.79687,-1.6875 0,5.79688 2.82813,0 0,2.1875 -2.82813,0 0,9.70312 q 0,1.20313 0.14845,1.54688 0.14843,0.34375 0.48437,0.54688 0.33593,0.20312 0.96093,0.20312 0.46875,0 1.23438,-0.10938 z m 14.10937,-2.82812 2.90625,0.35938 q -0.6875,2.54687 -2.54687,3.95312 -1.85938,1.40625 -4.75,1.40625 -3.64063,0 -5.77343,-2.24218 -2.13282,-2.24219 -2.13282,-6.28907 0,-4.1875 2.15625,-6.5 2.15625,-2.3125 5.59375,-2.3125 3.32812,0 5.4375,2.26562 2.10937,2.26563 2.10937,6.375 0,0.25 -0.0156,0.75 l -12.375,0 q 0.15625,2.73438 1.54687,4.1875 1.39063,1.45313 3.46875,1.45313 1.54688,0 2.64063,-0.8125 1.09375,-0.8125 1.73437,-2.59375 z m -9.23437,-4.54688 9.26562,0 q -0.1875,-2.09374 -1.0625,-3.14062 -1.34375,-1.625 -3.48437,-1.625 -1.9375,0 -3.25781,1.29688 -1.32032,1.29687 -1.46094,3.46874 z m 14.54687,4.9375 2.78125,-0.4375 q 0.23438,1.67188 1.3047,2.5625 1.0703,0.89063 2.99218,0.89063 1.9375,0 2.875,-0.78906 0.9375,-0.78907 0.9375,-1.85157 0,-0.95312 -0.82813,-1.5 -0.57812,-0.375 -2.875,-0.95312 -3.09375,-0.78125 -4.28905,-1.35156 -1.19532,-0.57032 -1.8125,-1.57812 -0.6172,-1.00782 -0.6172,-2.22657 0,-1.10937 0.50782,-2.05468 0.50781,-0.94532 1.38281,-1.57032 0.65625,-0.48437 1.78907,-0.82031 1.1328,-0.33594 2.42968,-0.33594 1.95312,0 3.42969,0.5625 1.47656,0.5625 2.17968,1.52344 0.70313,0.96094 0.96875,2.57031 l -2.75,0.375 q -0.1875,-1.28125 -1.08593,-2 -0.89844,-0.71875 -2.53907,-0.71875 -1.9375,0 -2.76562,0.64062 -0.82813,0.64063 -0.82813,1.5 0,0.54688 0.34375,0.98438 0.34375,0.45312 1.07813,0.75 0.42187,0.15625 2.48437,0.71875 2.98438,0.79687 4.16407,1.30469 1.17968,0.50781 1.85156,1.47656 0.67187,0.96875 0.67187,2.40625 0,1.40625 -0.8203,2.64844 -0.82032,1.24219 -2.3672,1.92188 -1.54687,0.67968 -3.5,0.67968 -3.23437,0 -4.92968,-1.34375 -1.69532,-1.34375 -2.16407,-3.98438 z m 23.26563,2.4375 0.40625,2.48438 q -1.1875,0.25 -2.125,0.25 -1.53125,0 -2.375,-0.48438 -0.84375,-0.48437 -1.1875,-1.27343 -0.34375,-0.78907 -0.34375,-3.32031 l 0,-9.54688 -2.0625,0 0,-2.1875 2.0625,0 0,-4.10938 2.79687,-1.6875 0,5.79688 2.82813,0 0,2.1875 -2.82813,0 0,9.70312 q 0,1.20313 0.14845,1.54688 0.14843,0.34375 0.48437,0.54688 0.33593,0.20312 0.96093,0.20312 0.46875,0 1.23438,-0.10938 z"
         inkscape:connector-curvature="0"
         style="fill:#000000;fill-rule:nonzero" />
      <path
         id="path4160"
         d="m 182.73254,361.45303 34.23623,0"
         inkscape:connector-curvature="0"
         style="fill-rule:nonzero;stroke:#000000;stroke-width:2;stroke-linecap:butt;stroke-linejoin:round" />
      <path
         id="path4162"
         d="m 288.2362,385.45303 -0.50393,110.74015"
         inkscape:connector-curvature="0"
         style="fill-rule:nonzero;stroke:#000000;stroke-width:2;stroke-linecap:butt;stroke-linejoin:round" />
      <path
         id="path4164"
         d="m 322.26254,404.8578 160.06299,0 0,48 -160.06299,0 z"
         inkscape:connector-curvature="0"
         style="fill-rule:nonzero;stroke:#bf9000;stroke-width:2;stroke-linecap:butt;stroke-linejoin:round" />
      <path
         id="path4166"
         d="m 375.02817,419.71716 0,-3.26562 2.8125,0 0,3.26562 -2.8125,0 z m -3.5625,26.07814 0.53125,-2.39064 q 0.84375,0.21874 1.32812,0.21874 0.85938,0 1.28126,-0.5703 0.42187,-0.5703 0.42187,-2.85156 l 0,-17.4375 2.8125,0 0,17.5 q 0,3.0625 -0.79687,4.26562 -1.01563,1.5625 -3.375,1.5625 -1.14063,0 -2.20313,-0.29686 z m 21.51563,-8.4844 q -1.5625,1.32814 -3.00782,1.875 -1.44531,0.5469 -3.10156,0.5469 -2.73438,0 -4.20312,-1.33595 -1.46876,-1.33595 -1.46876,-3.41405 0,-1.21876 0.55469,-2.22657 0.55469,-1.00783 1.45313,-1.61719 0.89844,-0.60938 2.02344,-0.92188 0.82812,-0.21876 2.5,-0.42186 3.40624,-0.40626 5.01562,-0.96876 0.0156,-0.57814 0.0156,-0.73438 0,-1.71876 -0.79687,-2.42186 -1.07813,-0.95314 -3.20313,-0.95314 -1.98437,0 -2.92968,0.69532 -0.94532,0.69532 -1.39844,2.46092 l -2.75,-0.375 q 0.375,-1.7656 1.23438,-2.85155 0.85937,-1.08595 2.48437,-1.67187 1.625,-0.58594 3.76563,-0.58594 2.125,0 3.45312,0.5 1.32812,0.5 1.95312,1.25781 0.625,0.75781 0.875,1.91405 0.14063,0.71876 0.14063,2.59376 l 0,3.75 q 0,3.92188 0.17969,4.96094 0.17968,1.03906 0.71094,1.9922 l -2.9375,0 q -0.4375,-0.875 -0.5625,-2.0469 z m -0.23438,-6.28124 q -1.53125,0.625 -4.59375,1.0625 -1.73437,0.25 -2.45313,0.5625 -0.71874,0.3125 -1.10937,0.91407 -0.39063,0.60157 -0.39063,1.33593 0,1.125 0.85156,1.875 0.85157,0.75 2.4922,0.75 1.625,0 2.89062,-0.71093 1.26562,-0.71093 1.85938,-1.94533 0.45312,-0.9531 0.45312,-2.8125 l 0,-1.03124 z m 11.8125,8.32814 -6.3125,-16.59376 2.96875,0 3.5625,9.9375 q 0.57813,1.60936 1.0625,3.34376 0.375,-1.3125 1.04687,-3.15626 l 3.6875,-10.125 2.89063,0 -6.28125,16.59376 -2.625,0 z m 22.21875,-2.0469 q -1.5625,1.32814 -3.00781,1.875 -1.44532,0.5469 -3.10156,0.5469 -2.73438,0 -4.20313,-1.33595 -1.46875,-1.33595 -1.46875,-3.41405 0,-1.21876 0.55468,-2.22657 0.5547,-1.00783 1.45313,-1.61719 0.89844,-0.60938 2.02344,-0.92188 0.82813,-0.21876 2.5,-0.42186 3.40625,-0.40626 5.01563,-0.96876 0.0156,-0.57814 0.0156,-0.73438 0,-1.71876 -0.79688,-2.42186 -1.07812,-0.95314 -3.20312,-0.95314 -1.98438,0 -2.92969,0.69532 -0.94531,0.69532 -1.39843,2.46092 l -2.75,-0.375 q 0.375,-1.7656 1.23437,-2.85155 0.85937,-1.08595 2.48437,-1.67187 1.625,-0.58594 3.76563,-0.58594 2.125,0 3.45313,0.5 1.32812,0.5 1.95312,1.25781 0.625,0.75781 0.875,1.91405 0.14062,0.71876 0.14062,2.59376 l 0,3.75 q 0,3.92188 0.17969,4.96094 0.17969,1.03906 0.71094,1.9922 l -2.9375,0 q -0.4375,-0.875 -0.5625,-2.0469 z m -0.23437,-6.28124 q -1.53126,0.625 -4.59376,1.0625 -1.73437,0.25 -2.45312,0.5625 -0.71875,0.3125 -1.10938,0.91407 -0.39062,0.60157 -0.39062,1.33593 0,1.125 0.85156,1.875 0.85156,0.75 2.49219,0.75 1.625,0 2.89063,-0.71093 1.26562,-0.71093 1.85937,-1.94533 0.45313,-0.9531 0.45313,-2.8125 l 0,-1.03124 z"
         inkscape:connector-curvature="0"
         style="fill:#000000;fill-rule:nonzero" />
      <path
         id="path4168"
         d="m 288,428.8578 34.2362,0"
         inkscape:connector-curvature="0"
         style="fill-rule:nonzero;stroke:#000000;stroke-width:2;stroke-linecap:butt;stroke-linejoin:round" />
      <path
         id="path4170"
         d="m 322.26254,472.26254 160.06299,0 0,47.99996 -160.06299,0 z"
         inkscape:connector-curvature="0"
         style="fill-rule:nonzero;stroke:#bf9000;stroke-width:2;stroke-linecap:butt;stroke-linejoin:round" />
      <path
         id="path4172"
         d="m 334.12192,506.76254 0,-16.59374 2.53125,0 0,2.51562 q 0.96875,-1.76562 1.78906,-2.32812 0.82031,-0.5625 1.80469,-0.5625 1.42188,0 2.89062,0.90624 l -0.96874,2.60938 q -1.03126,-0.60938 -2.0625,-0.60938 -0.92188,0 -1.65626,0.55469 -0.73437,0.55469 -1.04687,1.53907 -0.46875,1.5 -0.46875,3.28124 l 0,8.6875 -2.8125,0 z m 22.04688,-5.34374 2.90624,0.35937 q -0.6875,2.54687 -2.54687,3.95313 -1.85937,1.40624 -4.75,1.40624 -3.64063,0 -5.77344,-2.24218 -2.13281,-2.24219 -2.13281,-6.28906 0,-4.1875 2.15625,-6.5 2.15625,-2.3125 5.59375,-2.3125 3.32812,0 5.4375,2.26562 2.10938,2.26562 2.10938,6.375 0,0.25 -0.0156,0.75 l -12.375,0 q 0.15625,2.73438 1.54687,4.1875 1.39063,1.45312 3.46876,1.45312 1.54687,0 2.64062,-0.8125 1.09375,-0.8125 1.73438,-2.59374 z m -9.23438,-4.54688 9.26562,0 q -0.1875,-2.09375 -1.0625,-3.14062 -1.34374,-1.625 -3.48437,-1.625 -1.9375,0 -3.25781,1.29687 -1.32032,1.29687 -1.46094,3.46875 z m 14.54688,4.9375 2.78124,-0.4375 q 0.23438,1.67188 1.30469,2.5625 1.07031,0.89062 2.99219,0.89062 1.9375,0 2.875,-0.78906 0.9375,-0.78906 0.9375,-1.85156 0,-0.95312 -0.82812,-1.5 -0.57813,-0.375 -2.875,-0.95312 -3.09376,-0.78126 -4.28907,-1.35157 -1.19531,-0.57031 -1.8125,-1.57813 -0.61719,-1.0078 -0.61719,-2.22656 0,-1.10937 0.50782,-2.05468 0.50781,-0.94532 1.38281,-1.57032 0.65625,-0.48437 1.78906,-0.82031 1.13281,-0.33593 2.42969,-0.33593 1.95312,0 3.42968,0.5625 1.47657,0.5625 2.1797,1.52343 0.70312,0.96094 0.96874,2.57031 l -2.75,0.375 q -0.1875,-1.28124 -1.08594,-2 -0.89843,-0.71874 -2.53906,-0.71874 -1.9375,0 -2.76562,0.64062 -0.82812,0.64062 -0.82812,1.5 0,0.54688 0.34374,0.98438 0.34376,0.45312 1.07813,0.75 0.42187,0.15624 2.48437,0.71874 2.98438,0.79688 4.16406,1.30469 1.1797,0.50781 1.85157,1.47657 0.67187,0.96874 0.67187,2.40624 0,1.40626 -0.82031,2.64844 -0.82031,1.24219 -2.36719,1.92188 -1.54687,0.67968 -3.5,0.67968 -3.23437,0 -4.92968,-1.34374 -1.69532,-1.34376 -2.16406,-3.98438 z m 16.07812,-3.34375 q 0,-4.60937 2.5625,-6.82813 2.14062,-1.84374 5.21875,-1.84374 3.42187,0 5.59375,2.24218 2.17188,2.24219 2.17188,6.19532 0,3.20312 -0.96094,5.03906 -0.96094,1.83594 -2.79688,2.85156 -1.83594,1.01562 -4.00781,1.01562 -3.48437,0 -5.63281,-2.23437 -2.14844,-2.23437 -2.14844,-6.4375 z m 2.89062,0 q 0,3.1875 1.39063,4.77343 1.39063,1.58594 3.5,1.58594 2.09375,0 3.48437,-1.59374 1.39063,-1.59376 1.39063,-4.85938 0,-3.07812 -1.39844,-4.66406 -1.39843,-1.58594 -3.47656,-1.58594 -2.10937,0 -3.5,1.57812 -1.39063,1.57813 -1.39063,4.76563 z m 26.82813,8.29687 0,-2.4375 q -1.9375,2.8125 -5.26563,2.8125 -1.46874,0 -2.74218,-0.5625 -1.27344,-0.5625 -1.89063,-1.41406 -0.61719,-0.85156 -0.86719,-2.08594 -0.17187,-0.82812 -0.17187,-2.625 l 0,-10.28124 2.8125,0 0,9.20312 q 0,2.20312 0.17187,2.96875 0.26563,1.10937 1.125,1.74219 0.85938,0.63281 2.125,0.63281 1.26563,0 2.375,-0.64844 1.10938,-0.64843 1.57032,-1.76563 0.46094,-1.11718 0.46094,-3.24218 l 0,-8.89062 2.8125,0 0,16.59374 -2.51563,0 z m 6.89063,0 0,-16.59374 2.53124,0 0,2.51562 q 0.96876,-1.76562 1.78906,-2.32812 0.82032,-0.5625 1.8047,-0.5625 1.42187,0 2.89062,0.90624 l -0.96875,2.60938 q -1.03125,-0.60938 -2.0625,-0.60938 -0.92187,0 -1.65625,0.55469 -0.73438,0.55469 -1.04688,1.53907 -0.46874,1.5 -0.46874,3.28124 l 0,8.6875 -2.8125,0 z m 21.51562,-6.07812 2.76562,0.35938 q -0.45312,2.85937 -2.32031,4.47656 -1.86719,1.61718 -4.58593,1.61718 -3.40626,0 -5.47657,-2.22656 -2.07031,-2.22656 -2.07031,-6.38281 0,-2.6875 0.89062,-4.70313 0.89063,-2.01562 2.71094,-3.02344 1.82032,-1.0078 3.96094,-1.0078 2.70312,0 4.42188,1.36718 1.71874,1.36719 2.20312,3.88282 l -2.73438,0.42187 q -0.39062,-1.67187 -1.38281,-2.51563 -0.99219,-0.84374 -2.39843,-0.84374 -2.125,0 -3.45313,1.52343 -1.32813,1.52344 -1.32813,4.82031 0,3.34376 1.28126,4.85938 1.28124,1.51562 3.34374,1.51562 1.65626,0 2.76563,-1.01562 1.10937,-1.01562 1.40625,-3.125 z m 16.53125,0.73438 2.90625,0.35937 q -0.6875,2.54687 -2.54688,3.95313 -1.85937,1.40624 -4.75,1.40624 -3.64062,0 -5.77344,-2.24218 -2.1328,-2.24219 -2.1328,-6.28906 0,-4.1875 2.15624,-6.5 2.15626,-2.3125 5.59376,-2.3125 3.32812,0 5.4375,2.26562 2.10937,2.26562 2.10937,6.375 0,0.25 -0.0156,0.75 l -12.375,0 q 0.15626,2.73438 1.54688,4.1875 1.39062,1.45312 3.46875,1.45312 1.54687,0 2.64063,-0.8125 1.09374,-0.8125 1.73437,-2.59374 z m -9.23437,-4.54688 9.26562,0 q -0.1875,-2.09375 -1.0625,-3.14062 -1.34375,-1.625 -3.48438,-1.625 -1.9375,0 -3.25781,1.29687 -1.32031,1.29687 -1.46093,3.46875 z m 14.54687,4.9375 2.78125,-0.4375 q 0.23438,1.67188 1.30468,2.5625 1.07032,0.89062 2.9922,0.89062 1.9375,0 2.875,-0.78906 0.9375,-0.78906 0.9375,-1.85156 0,-0.95312 -0.82813,-1.5 -0.57813,-0.375 -2.875,-0.95312 -3.09375,-0.78126 -4.28907,-1.35157 -1.1953,-0.57031 -1.8125,-1.57813 -0.61718,-1.0078 -0.61718,-2.22656 0,-1.10937 0.50781,-2.05468 0.50781,-0.94532 1.38281,-1.57032 0.65626,-0.48437 1.78906,-0.82031 1.13282,-0.33593 2.4297,-0.33593 1.95312,0 3.42968,0.5625 1.47656,0.5625 2.17969,1.52343 0.70313,0.96094 0.96875,2.57031 l -2.75,0.375 q -0.1875,-1.28124 -1.08594,-2 -0.89844,-0.71874 -2.53906,-0.71874 -1.9375,0 -2.76562,0.64062 -0.82813,0.64062 -0.82813,1.5 0,0.54688 0.34375,0.98438 0.34375,0.45312 1.07812,0.75 0.42188,0.15624 2.48438,0.71874 2.98438,0.79688 4.16406,1.30469 1.17969,0.50781 1.85156,1.47657 0.67188,0.96874 0.67188,2.40624 0,1.40626 -0.82032,2.64844 -0.8203,1.24219 -2.36718,1.92188 -1.54688,0.67968 -3.5,0.67968 -3.23438,0 -4.92969,-1.34374 -1.69531,-1.34376 -2.16406,-3.98438 z"
         inkscape:connector-curvature="0"
         style="fill:#000000;fill-rule:nonzero" />
      <path
         id="path4174"
         d="m 286.5013,496.26254 34.23622,0"
         inkscape:connector-curvature="0"
         style="fill-rule:nonzero;stroke:#000000;stroke-width:2;stroke-linecap:butt;stroke-linejoin:round" />
      <path
         id="path4176"
         d="m 181.142,114.81052 0.50394,248.22046"
         inkscape:connector-curvature="0"
         style="fill-rule:nonzero;stroke:#000000;stroke-width:2;stroke-linecap:butt;stroke-linejoin:round" />
      <path
         id="path4178"
         d="m 215.98425,135.23878 144,0 0,48 -144,0 z"
         inkscape:connector-curvature="0"
         style="fill-rule:nonzero;stroke:#bf9000;stroke-width:2;stroke-linecap:butt;stroke-linejoin:round" />
      <path
         id="path4180"
         d="m 255.40613,169.73878 0,-16.59375 2.51562,0 0,2.32813 q 0.78125,-1.21875 2.07813,-1.96094 1.29687,-0.74219 2.95312,-0.74219 1.84375,0 3.02344,0.76563 1.17969,0.76562 1.66406,2.14062 1.96875,-2.90625 5.125,-2.90625 2.46875,0 3.79688,1.36719 1.32812,1.36719 1.32812,4.21094 l 0,11.39062 -2.79687,0 0,-10.45312 q 0,-1.6875 -0.27343,-2.42969 -0.27345,-0.74219 -0.9922,-1.19531 -0.71875,-0.45313 -1.6875,-0.45313 -1.75,0 -2.90625,1.16407 -1.15625,1.16406 -1.15625,3.72656 l 0,9.64062 -2.8125,0 0,-10.78125 q 0,-1.875 -0.6875,-2.8125 -0.6875,-0.9375 -2.25,-0.9375 -1.1875,0 -2.1953,0.625 -1.00782,0.625 -1.46095,1.82813 -0.45312,1.20312 -0.45312,3.46875 l 0,8.60937 -2.8125,0 z m 37.48437,-2.04687 q -1.5625,1.32812 -3.0078,1.875 -1.44532,0.54687 -3.10157,0.54687 -2.73438,0 -4.20313,-1.33593 -1.46875,-1.33594 -1.46875,-3.41407 0,-1.21875 0.55469,-2.22656 0.55469,-1.00781 1.45313,-1.61719 0.89843,-0.60937 2.02343,-0.92187 0.82813,-0.21875 2.5,-0.42188 3.40625,-0.40625 5.01563,-0.96875 0.0156,-0.57812 0.0156,-0.73437 0,-1.71875 -0.79687,-2.42188 -1.07813,-0.95312 -3.20313,-0.95312 -1.98437,0 -2.92968,0.69531 -0.94532,0.69531 -1.39844,2.46094 l -2.75,-0.375 q 0.375,-1.76563 1.23437,-2.85156 0.85938,-1.08594 2.48438,-1.67188 1.625,-0.58594 3.76562,-0.58594 2.125,0 3.45313,0.5 1.32812,0.5 1.95312,1.25782 0.625,0.75781 0.875,1.91406 0.14063,0.71875 0.14063,2.59375 l 0,3.75 q 0,3.92187 0.17969,4.96094 0.17968,1.03906 0.71093,1.99218 l -2.9375,0 q -0.4375,-0.875 -0.5625,-2.04687 z m -0.23437,-6.28125 q -1.53125,0.625 -4.59375,1.0625 -1.73438,0.25 -2.45313,0.5625 -0.71875,0.3125 -1.10937,0.91406 -0.39063,0.60156 -0.39063,1.33594 0,1.125 0.85157,1.875 0.85156,0.75 2.49218,0.75 1.625,0 2.89063,-0.71094 1.26562,-0.71094 1.85937,-1.94531 0.45313,-0.95313 0.45313,-2.8125 l 0,-1.03125 z m 7.21875,-11.34375 0,-3.23438 2.8125,0 0,3.23438 -2.8125,0 z m 0,19.67187 0,-16.59375 2.8125,0 0,16.59375 -2.8125,0 z m 7.09375,0 0,-16.59375 2.53125,0 0,2.35938 q 1.82812,-2.73438 5.28125,-2.73438 1.5,0 2.75781,0.53907 1.25781,0.53906 1.88281,1.41406 0.625,0.875 0.875,2.07812 0.15625,0.78125 0.15625,2.73438 l 0,10.20312 -2.8125,0 0,-10.09375 q 0,-1.71875 -0.32812,-2.57031 -0.32813,-0.85156 -1.16406,-1.35937 -0.83594,-0.50782 -1.96094,-0.50782 -1.79688,0 -3.10156,1.14063 -1.30469,1.14062 -1.30469,4.32812 l 0,9.0625 -2.8125,0 z"
         inkscape:connector-curvature="0"
         style="fill:#000000;fill-rule:nonzero" />
      <path
         id="path4182"
         d="m 182.73254,159.23878 34.23623,0"
         inkscape:connector-curvature="0"
         style="fill-rule:nonzero;stroke:#000000;stroke-width:2;stroke-linecap:butt;stroke-linejoin:round" />
      <path
         id="path4184"
         d="M 73.74803,48.42928 70.25197,630.16156"
         inkscape:connector-curvature="0"
         style="fill-rule:nonzero;stroke:#000000;stroke-width:2;stroke-linecap:butt;stroke-linejoin:round" />
      <path
         id="path4186"
         d="m 109.39396,67.83403 144.00001,0 0,48 -144.00001,0 z"
         inkscape:connector-curvature="0"
         style="fill-rule:nonzero;stroke:#073763;stroke-width:2;stroke-linecap:butt;stroke-linejoin:round" />
      <path
         id="path4188"
         d="m 161.05022,97.380905 2.78125,-0.4375 q 0.23437,1.671875 1.30468,2.5625 1.07032,0.890625 2.99219,0.890625 1.9375,0 2.875,-0.78906 0.9375,-0.789065 0.9375,-1.851565 0,-0.953125 -0.82812,-1.5 -0.57813,-0.375 -2.875,-0.953125 -3.09375,-0.78125 -4.28907,-1.35156 -1.19531,-0.570315 -1.8125,-1.57813 -0.61718,-1.00781 -0.61718,-2.22656 0,-1.109375 0.50781,-2.05469 0.50781,-0.94531 1.38281,-1.57031 0.65625,-0.484375 1.78906,-0.82031 1.13282,-0.33594 2.42969,-0.33594 1.95313,0 3.42969,0.5625 1.47656,0.5625 2.17969,1.52344 0.70312,0.960935 0.96875,2.57031 l -2.75,0.375 q -0.1875,-1.28125 -1.08594,-2 -0.89844,-0.71875 -2.53906,-0.71875 -1.9375,0 -2.76563,0.640625 -0.82812,0.640625 -0.82812,1.5 0,0.546875 0.34375,0.984375 0.34375,0.453125 1.07812,0.75 0.42188,0.15625 2.48438,0.71875 2.98437,0.796875 4.16406,1.30469 1.17969,0.50781 1.85156,1.47656 0.67188,0.96875 0.67188,2.40625 0,1.40625 -0.82032,2.64844 -0.82031,1.24219 -2.36718,1.92187 -1.54688,0.67969 -3.5,0.67969 -3.23438,0 -4.92969,-1.34375 -1.69531,-1.34375 -2.16406,-3.984375 z m 17.09375,4.953125 0,-16.59375 2.53125,0 0,2.515625 q 0.96875,-1.765625 1.78906,-2.328125 0.82031,-0.5625 1.80469,-0.5625 1.42187,0 2.89062,0.90625 l -0.96875,2.609375 q -1.03125,-0.609375 -2.0625,-0.609375 -0.92187,0 -1.65625,0.55469 -0.73437,0.554685 -1.04687,1.53906 -0.46875,1.5 -0.46875,3.28125 l 0,8.6875 -2.8125,0 z m 21.51562,-6.078125 2.76563,0.359375 q -0.45313,2.859375 -2.32032,4.47656 -1.86718,1.61719 -4.58593,1.61719 -3.40625,0 -5.47657,-2.22656 -2.07031,-2.226565 -2.07031,-6.382815 0,-2.6875 0.89063,-4.703125 0.89062,-2.015625 2.71093,-3.02344 1.82032,-1.00781 3.96094,-1.00781 2.70313,0 4.42188,1.36719 1.71875,1.367185 2.20312,3.88281 l -2.73437,0.421875 q -0.39063,-1.671875 -1.38282,-2.515625 -0.99218,-0.84375 -2.39843,-0.84375 -2.125,0 -3.45313,1.52344 -1.32812,1.523435 -1.32812,4.82031 0,3.34375 1.28125,4.859375 1.28125,1.515625 3.34375,1.515625 1.65625,0 2.76562,-1.015625 1.10938,-1.015625 1.40625,-3.125 z"
         inkscape:connector-curvature="0"
         style="fill:#000000;fill-rule:nonzero" />
      <path
         id="path4190"
         d="m 73.74803,91.519066 34.36221,0.629928"
         inkscape:connector-curvature="0"
         style="fill-rule:nonzero;stroke:#000000;stroke-width:2;stroke-linecap:butt;stroke-linejoin:round" />
      <path
         id="path4192"
         d="m 105.8979,539.6673 144,0 0,48 -144,0 z"
         inkscape:connector-curvature="0"
         style="fill-rule:nonzero;stroke:#073763;stroke-width:2;stroke-linecap:butt;stroke-linejoin:round" />
      <path
         id="path4194"
         d="m 145.22603,571.6517 0.40625,2.48435 q -1.1875,0.25 -2.125,0.25 -1.53125,0 -2.375,-0.48435 -0.84375,-0.4844 -1.1875,-1.27347 -0.34375,-0.78903 -0.34375,-3.32033 l 0,-9.54685 -2.0625,0 0,-2.1875 2.0625,0 0,-4.10935 2.79687,-1.6875 0,5.79685 2.82813,0 0,2.1875 -2.82813,0 0,9.70315 q 0,1.2031 0.14844,1.54685 0.14844,0.34375 0.48438,0.54685 0.33593,0.20315 0.96093,0.20315 0.46875,0 1.23438,-0.10935 z m 13.57812,0.4687 q -1.5625,1.32815 -3.00781,1.875 -1.44531,0.5469 -3.10156,0.5469 -2.73438,0 -4.20313,-1.33594 -1.46875,-1.33596 -1.46875,-3.41406 0,-1.21875 0.55469,-2.22657 0.55469,-1.00783 1.45313,-1.61718 0.89843,-0.60935 2.02343,-0.92185 0.82813,-0.2188 2.5,-0.4219 3.40625,-0.40625 5.01563,-0.96875 0.0156,-0.57815 0.0156,-0.73435 0,-1.7188 -0.79687,-2.4219 -1.07813,-0.9531 -3.20313,-0.9531 -1.98437,0 -2.92968,0.6953 -0.94532,0.6953 -1.39844,2.4609 l -2.75,-0.375 q 0.375,-1.7656 1.23437,-2.85154 0.85938,-1.08596 2.48438,-1.67186 1.625,-0.58595 3.76562,-0.58595 2.125,0 3.45313,0.5 1.32812,0.5 1.95312,1.25781 0.625,0.75784 0.875,1.91404 0.14063,0.7188 0.14063,2.5938 l 0,3.75 q 0,3.92185 0.17969,4.9609 0.17968,1.0391 0.71093,1.9922 l -2.9375,0 q -0.4375,-0.875 -0.5625,-2.0469 z m -0.23437,-6.2812 q -1.53125,0.625 -4.59375,1.0625 -1.73438,0.25 -2.45313,0.5625 -0.71875,0.3125 -1.10937,0.91403 -0.39063,0.60157 -0.39063,1.33597 0,1.125 0.85157,1.875 0.85156,0.75 2.49218,0.75 1.625,0 2.89063,-0.71097 1.26562,-0.71093 1.85937,-1.94533 0.45313,-0.9531 0.45313,-2.8125 l 0,-1.0312 z m 7.17187,8.3281 0,-16.59375 2.53125,0 0,2.51565 q 0.96875,-1.76565 1.78907,-2.32815 0.82031,-0.5625 1.80468,-0.5625 1.42188,0 2.89063,0.90625 l -0.96875,2.6094 q -1.03125,-0.6094 -2.0625,-0.6094 -0.92188,0 -1.65625,0.5547 -0.73438,0.5547 -1.04688,1.53905 -0.46875,1.5 -0.46875,3.28125 l 0,8.6875 -2.8125,0 z m 10.17188,1.375 2.73437,0.40625 q 0.17188,1.26565 0.95313,1.84375 1.04687,0.78125 2.85937,0.78125 1.95313,0 3.01563,-0.78125 1.0625,-0.78125 1.4375,-2.1875 0.21875,-0.8594 0.20312,-3.6094 -1.84375,2.1719 -4.59375,2.1719 -3.42187,0 -5.29687,-2.46875 -1.875,-2.46875 -1.875,-5.92185 0,-2.375 0.85937,-4.38284 0.85938,-2.00781 2.49219,-3.10156 1.63281,-1.09375 3.83594,-1.09375 2.9375,0 4.84375,2.375 l 0,-2 2.59375,0 0,14.34375 q 0,3.875 -0.78906,5.4922 -0.78907,1.6172 -2.5,2.5547 -1.71094,0.9375 -4.21094,0.9375 -2.96875,0 -4.79688,-1.33597 -1.82812,-1.33593 -1.76562,-4.02343 z m 2.32812,-9.96875 q 0,3.26565 1.29688,4.76565 1.29687,1.5 3.25,1.5 1.9375,0 3.25,-1.4922 1.3125,-1.4922 1.3125,-4.6797 0,-3.0469 -1.35156,-4.59375 -1.35157,-1.54685 -3.25782,-1.54685 -1.875,0 -3.1875,1.5234 -1.3125,1.52345 -1.3125,4.52345 z m 27.34375,3.25 2.90625,0.35935 q -0.6875,2.5469 -2.54687,3.95315 -1.85938,1.40625 -4.75,1.40625 -3.64063,0 -5.77344,-2.2422 -2.13281,-2.2422 -2.13281,-6.28905 0,-4.1875 2.15625,-6.5 2.15625,-2.3125 5.59375,-2.3125 3.32812,0 5.4375,2.26565 2.10937,2.2656 2.10937,6.375 0,0.25 -0.0156,0.75 l -12.375,0 q 0.15625,2.73435 1.54687,4.1875 1.39063,1.4531 3.46875,1.4531 1.54688,0 2.64063,-0.8125 1.09375,-0.8125 1.73437,-2.59375 z m -9.23437,-4.54685 9.26562,0 q -0.1875,-2.0938 -1.0625,-3.14065 -1.34375,-1.625 -3.48437,-1.625 -1.9375,0 -3.25781,1.29685 -1.32032,1.2969 -1.46094,3.4688 z m 21.8125,7.375 0.40625,2.48435 q -1.1875,0.25 -2.125,0.25 -1.53125,0 -2.375,-0.48435 -0.84375,-0.4844 -1.1875,-1.27347 -0.34375,-0.78903 -0.34375,-3.32033 l 0,-9.54685 -2.0625,0 0,-2.1875 2.0625,0 0,-4.10935 2.79687,-1.6875 0,5.79685 2.82813,0 0,2.1875 -2.82813,0 0,9.70315 q 0,1.2031 0.14844,1.54685 0.14844,0.34375 0.48438,0.54685 0.33593,0.20315 0.96093,0.20315 0.46875,0 1.23438,-0.10935 z"
         inkscape:connector-curvature="0"
         style="fill:#000000;fill-rule:nonzero" />
      <path
         id="path4196"
         d="m 70.25197,563.3523 34.3622,0.62994"
         inkscape:connector-curvature="0"
         style="fill-rule:nonzero;stroke:#000000;stroke-width:2;stroke-linecap:butt;stroke-linejoin:round" />
      <path
         id="path4198"
         d="m 105.8979,607.072 144,0 0,48 -144,0 z"
         inkscape:connector-curvature="0"
         style="fill-rule:nonzero;stroke:#073763;stroke-width:2;stroke-linecap:butt;stroke-linejoin:round" />
      <path
         id="path4200"
         d="m 119.55415,647.9314 0,-22.9531 2.5625,0 0,2.1562 q 0.90625,-1.2656 2.04687,-1.8984 1.14063,-0.6328 2.76563,-0.6328 2.125,0 3.75,1.0937 1.625,1.0938 2.45313,3.08596 0.82812,1.99219 0.82812,4.36719 0,2.54685 -0.91406,4.58595 -0.91406,2.03905 -2.65625,3.125 -1.74219,1.0859 -3.66407,1.0859 -1.40625,0 -2.52344,-0.5937 -1.11718,-0.5938 -1.83593,-1.5 l 0,8.0781 -2.8125,0 z m 2.54687,-14.5625 q 0,3.2031 1.29688,4.7344 1.29687,1.5312 3.14062,1.5312 1.87501,0 3.21095,-1.5859 1.33593,-1.58595 1.33593,-4.9141 0,-3.17185 -1.30468,-4.75 -1.30469,-1.5781 -3.1172,-1.5781 -1.79687,0 -3.17969,1.6797 -1.38281,1.6797 -1.38281,4.8828 z m 14.20313,-0.0937 q 0,-4.60935 2.5625,-6.82815 2.14063,-1.8437 5.21875,-1.8437 3.42188,0 5.59375,2.24216 2.17188,2.24219 2.17188,6.19534 0,3.2031 -0.96094,5.03903 -0.96094,1.83597 -2.79687,2.85157 -1.83594,1.0156 -4.00782,1.0156 -3.48437,0 -5.63281,-2.23435 -2.14844,-2.23435 -2.14844,-6.4375 z m 2.89063,0 q 0,3.1875 1.39062,4.77345 1.39063,1.5859 3.5,1.5859 2.09375,0 3.48438,-1.5937 1.39062,-1.5938 1.39062,-4.8594 0,-3.0781 -1.39843,-4.66407 -1.39844,-1.58593 -3.47657,-1.58593 -2.10937,0 -3.5,1.5781 -1.39062,1.57815 -1.39062,4.76565 z m 15.95312,8.29685 0,-16.5937 2.51563,0 0,2.3281 q 0.78125,-1.21875 2.07812,-1.96094 1.29688,-0.74216 2.95313,-0.74216 1.84375,0 3.02344,0.7656 1.17968,0.7656 1.66406,2.1406 1.96875,-2.9062 5.125,-2.9062 2.46875,0 3.79687,1.36716 1.32813,1.36719 1.32813,4.21094 l 0,11.3906 -2.79688,0 0,-10.4531 q 0,-1.6875 -0.27343,-2.4297 -0.27344,-0.7422 -0.99219,-1.1953 -0.71875,-0.4531 -1.6875,-0.4531 -1.75,0 -2.90625,1.16403 -1.15625,1.16407 -1.15625,3.72657 l 0,9.6406 -2.8125,0 0,-10.7812 q 0,-1.875 -0.6875,-2.8125 -0.6875,-0.9375 -2.25,-0.9375 -1.1875,0 -2.19531,0.625 -1.00782,0.625 -1.46094,1.8281 -0.45313,1.2031 -0.45313,3.46875 l 0,8.60935 -2.8125,0 z m 27.45313,0 0,-3.2031 3.20312,0 0,3.2031 -3.20312,0 z m 6.21875,0 6.0625,-8.625 -5.60938,-7.9687 3.51563,0 2.54687,3.8906 q 0.71875,1.1094 1.15625,1.8594 0.6875,-1.0313 1.26563,-1.82815 l 2.79687,-3.92185 3.35938,0 -5.73438,7.8125 6.17188,8.7812 -3.45313,0 -3.40625,-5.1562 -0.90625,-1.39065 -4.35937,6.54685 -3.40625,0 z m 17.875,0 0,-16.5937 2.51562,0 0,2.3281 q 0.78125,-1.21875 2.07813,-1.96094 1.29687,-0.74216 2.95312,-0.74216 1.84375,0 3.02344,0.7656 1.17969,0.7656 1.66406,2.1406 1.96875,-2.9062 5.125,-2.9062 2.46875,0 3.79688,1.36716 1.32812,1.36719 1.32812,4.21094 l 0,11.3906 -2.79687,0 0,-10.4531 q 0,-1.6875 -0.27344,-2.4297 -0.27344,-0.7422 -0.99219,-1.1953 -0.71875,-0.4531 -1.6875,-0.4531 -1.75,0 -2.90625,1.16403 -1.15625,1.16407 -1.15625,3.72657 l 0,9.6406 -2.8125,0 0,-10.7812 q 0,-1.875 -0.6875,-2.8125 -0.6875,-0.9375 -2.25,-0.9375 -1.1875,0 -2.19531,0.625 -1.00781,0.625 -1.46094,1.8281 -0.45312,1.2031 -0.45312,3.46875 l 0,8.60935 -2.8125,0 z m 26.59375,0 0,-22.9062 2.8125,0 0,22.9062 -2.8125,0 z"
         inkscape:connector-curvature="0"
         style="fill:#000000;fill-rule:nonzero" />
      <path
         id="path4202"
         d="m 70.25197,630.7571 34.3622,0.6299"
         inkscape:connector-curvature="0"
         style="fill-rule:nonzero;stroke:#000000;stroke-width:2;stroke-linecap:butt;stroke-linejoin:round" />
      <path
         id="path4204"
         d="m 0,0.42927954 205.10236,0 0,48.00000046 -205.10236,0 z"
         inkscape:connector-curvature="0"
         style="fill:#f4cccc;fill-rule:nonzero;stroke:#660000;stroke-width:2;stroke-linecap:butt;stroke-linejoin:round" />
      <path
         id="path4206"
         d="m 12.15625,41.288654 0,-22.953124 2.5625,0 0,2.15625 q 0.90625,-1.265626 2.046875,-1.898438 1.140625,-0.632812 2.765625,-0.632812 2.125,0 3.75,1.09375 1.625,1.09375 2.453125,3.085937 0.828125,1.992187 0.828125,4.367187 0,2.546876 -0.914062,4.585938 -0.914063,2.039062 -2.65625,3.124998 -1.742188,1.08594 -3.664063,1.08594 -1.40625,0 -2.523437,-0.59375 -1.117188,-0.59375 -1.835938,-1.5 l 0,8.078124 -2.8125,0 z m 2.546875,-14.5625 q 0,3.203126 1.296875,4.734376 1.296875,1.53125 3.140625,1.53125 1.875,0 3.210937,-1.585938 1.335938,-1.585938 1.335938,-4.914062 0,-3.171876 -1.304688,-4.75 -1.304687,-1.578126 -3.117187,-1.578126 -1.796875,0 -3.179687,1.679688 -1.382813,1.679688 -1.382813,4.882812 z m 15.21875,8.203126 0,-16.59375 2.53125,0 0,2.515624 q 0.96875,-1.765624 1.789063,-2.328124 0.820312,-0.5625 1.804687,-0.5625 1.421875,0 2.890625,0.90625 l -0.96875,2.609374 q -1.03125,-0.609374 -2.0625,-0.609374 -0.921875,0 -1.65625,0.554687 -0.734375,0.554687 -1.046875,1.539063 -0.46875,1.5 -0.46875,3.28125 l 0,8.6875 -2.8125,0 z M 39.5625,26.632404 q 0,-4.609374 2.5625,-6.828124 2.140625,-1.84375 5.21875,-1.84375 3.421875,0 5.59375,2.242187 2.171875,2.242187 2.171875,6.195313 0,3.203124 -0.960937,5.039062 -0.960938,1.835938 -2.796876,2.851562 -1.835937,1.015626 -4.007812,1.015626 -3.484375,0 -5.632812,-2.234376 Q 39.5625,30.83553 39.5625,26.632404 Z m 2.890625,0 q 0,3.1875 1.390625,4.773438 1.390625,1.585938 3.5,1.585938 2.09375,0 3.484375,-1.59375 1.390625,-1.59375 1.390625,-4.859376 0,-3.078124 -1.398438,-4.664062 -1.398437,-1.585938 -3.476562,-1.585938 -2.109375,0 -3.5,1.578126 -1.390625,1.578124 -1.390625,4.765624 z m 15.9375,-11.34375 0,-3.265625 2.8125,0 0,3.265625 -2.8125,0 z m -3.5625,26.078126 0.53125,-2.390626 q 0.84375,0.21875 1.328125,0.21875 0.859375,0 1.28125,-0.570314 0.421875,-0.57031 0.421875,-2.85156 l 0,-17.4375 2.8125,0 0,17.5 q 0,3.0625 -0.796875,4.265624 -1.015625,1.5625 -3.375,1.5625 -1.140625,0 -2.203125,-0.296874 z M 76.875,29.58553 l 2.90625,0.359374 q -0.6875,2.546876 -2.546875,3.953126 -1.859375,1.40625 -4.75,1.40625 -3.640625,0 -5.773435,-2.24219 -2.132815,-2.242186 -2.132815,-6.28906 0,-4.1875 2.15625,-6.5 2.15625,-2.3125 5.59375,-2.3125 3.328125,0 5.4375,2.265624 2.109375,2.265626 2.109375,6.375 0,0.25 -0.01563,0.75 l -12.375,0 q 0.15625,2.734376 1.546875,4.1875 1.390625,1.453126 3.46875,1.453126 1.546875,0 2.640625,-0.8125 1.09375,-0.8125 1.734375,-2.59375 z m -9.234375,-4.546876 9.265625,0 q -0.1875,-2.09375 -1.0625,-3.140624 -1.34375,-1.625 -3.484375,-1.625 -1.9375,0 -3.257815,1.296874 -1.32031,1.296876 -1.460935,3.46875 z m 26.5,3.8125 2.765625,0.359376 q -0.453125,2.859374 -2.32031,4.47656 -1.86719,1.61719 -4.58594,1.61719 -3.40625,0 -5.47656,-2.226563 -2.070315,-2.226563 -2.070315,-6.382813 0,-2.6875 0.890625,-4.703124 0.890625,-2.015626 2.71094,-3.023438 1.82031,-1.007812 3.960935,-1.007812 2.703125,0 4.421875,1.367187 1.71875,1.367187 2.203125,3.882813 L 93.90625,23.632404 Q 93.515625,21.96053 92.52344,21.11678 91.53125,20.27303 90.125,20.27303 q -2.125,0 -3.453125,1.523437 -1.328125,1.523437 -1.328125,4.820313 0,3.34375 1.28125,4.859374 1.28125,1.515626 3.34375,1.515626 1.65625,0 2.765625,-1.015626 1.109375,-1.015624 1.40625,-3.125 z m 11.312505,3.5625 0.40625,2.484376 q -1.1875,0.25 -2.125,0.25 -1.53125,0 -2.375,-0.484376 -0.84375,-0.484374 -1.1875,-1.273437 -0.343755,-0.789063 -0.343755,-3.320313 l 0,-9.546874 -2.0625,0 0,-2.1875 2.0625,0 0,-4.109376 2.796875,-1.6875 0,5.796876 2.82813,0 0,2.1875 -2.82813,0 0,9.703124 q 0,1.203126 0.14844,1.546876 0.14844,0.34375 0.48437,0.546874 0.33594,0.203126 0.96094,0.203126 0.46875,0 1.23438,-0.109376 z m 11.64062,2.515626 0,-22.906251 2.8125,0 0,8.218751 q 1.96875,-2.28125 4.96875,-2.28125 1.84375,0 3.20312,0.726562 1.35938,0.726562 1.94532,2.007812 0.58594,1.28125 0.58594,3.71875 l 0,10.515626 -2.8125,0 0,-10.515626 q 0,-2.109374 -0.91407,-3.070312 -0.91406,-0.960938 -2.58593,-0.960938 -1.25,0 -2.35157,0.648438 -1.10156,0.648438 -1.57031,1.757812 -0.46875,1.109376 -0.46875,3.0625 l 0,9.078126 -2.8125,0 z m 16.75,-8.296876 q 0,-4.609374 2.5625,-6.828124 2.14063,-1.84375 5.21875,-1.84375 3.42188,0 5.59375,2.242187 2.17187,2.242187 2.17187,6.195313 0,3.203124 -0.96093,5.039062 -0.96094,1.835938 -2.79688,2.851562 -1.83593,1.015626 -4.00781,1.015626 -3.48438,0 -5.63281,-2.234376 -2.14844,-2.234374 -2.14844,-6.4375 z m 2.89063,0 q 0,3.1875 1.39062,4.773438 1.39062,1.585938 3.5,1.585938 2.09375,0 3.48438,-1.59375 1.39062,-1.59375 1.39062,-4.859376 0,-3.078124 -1.39844,-4.664062 -1.39844,-1.585938 -3.47656,-1.585938 -2.10938,0 -3.5,1.578126 -1.39062,1.578124 -1.39062,4.765624 z m 15.95312,8.296876 0,-16.59375 2.51562,0 0,2.328124 q 0.78126,-1.21875 2.07813,-1.960937 1.29687,-0.742187 2.95313,-0.742187 1.84374,0 3.02343,0.765624 1.17969,0.765626 1.66407,2.140626 1.96874,-2.90625 5.125,-2.90625 2.46874,0 3.79687,1.367187 1.32813,1.367187 1.32813,4.210937 l 0,11.390626 -2.79688,0 0,-10.453126 q 0,-1.6875 -0.27344,-2.429687 -0.27344,-0.742187 -0.99218,-1.195313 -0.71876,-0.453124 -1.6875,-0.453124 -1.75,0 -2.90626,1.164062 -1.15624,1.164062 -1.15624,3.726562 l 0,9.640626 -2.8125,0 0,-10.78125 q 0,-1.875 -0.6875,-2.8125 -0.6875,-0.9375 -2.25,-0.9375 -1.1875,0 -2.19532,0.625 -1.00781,0.625 -1.46094,1.828124 Q 155.5,24.05428 155.5,26.319904 l 0,8.609376 -2.8125,0 z m 38.01562,-5.34375 2.90626,0.359374 q -0.6875,2.546876 -2.54688,3.953126 -1.85938,1.40625 -4.75,1.40625 -3.64062,0 -5.77344,-2.24219 -2.13281,-2.242186 -2.13281,-6.28906 0,-4.1875 2.15625,-6.5 2.15625,-2.3125 5.59375,-2.3125 3.32813,0 5.4375,2.265624 2.10937,2.265626 2.10937,6.375 0,0.25 -0.0156,0.75 l -12.375,0 q 0.15625,2.734376 1.54688,4.1875 1.39062,1.453126 3.46874,1.453126 1.54688,0 2.64063,-0.8125 1.09375,-0.8125 1.73437,-2.59375 z m -9.23437,-4.546876 9.26563,0 q -0.1875,-2.09375 -1.0625,-3.140624 -1.34376,-1.625 -3.48438,-1.625 -1.9375,0 -3.25781,1.296874 -1.32031,1.296876 -1.46094,3.46875 z"
         inkscape:connector-curvature="0"
         style="fill:#000000;fill-rule:nonzero" />
    </g>
    <text
       xml:space="preserve"
       style="font-style:normal;font-weight:normal;font-size:29.46858025px;line-height:125%;font-family:sans-serif;letter-spacing:0px;word-spacing:0px;fill:#b3b3b3;fill-opacity:1;stroke:none;stroke-width:1px;stroke-linecap:butt;stroke-linejoin:miter;stroke-opacity:1"
       x="236.64542"
       y="745.27692"
       id="text4255"
       sodipodi:linespacing="125%"><tspan
         sodipodi:role="line"
         id="tspan4257"
         x="236.64542"
         y="745.27692">Source Code</tspan></text>
    <text
       xml:space="preserve"
       style="font-style:normal;font-weight:normal;font-size:21.94620514px;line-height:125%;font-family:sans-serif;letter-spacing:0px;word-spacing:0px;fill:#b3b3b3;fill-opacity:1;stroke:none;stroke-width:1px;stroke-linecap:butt;stroke-linejoin:miter;stroke-opacity:1"
       x="222.58229"
       y="980.49078"
       id="text4259"
       sodipodi:linespacing="125%"><tspan
         sodipodi:role="line"
         id="tspan4261"
         x="222.58229"
         y="980.49078">Hasil kompilasi</tspan></text>
    <text
       xml:space="preserve"
       style="font-style:normal;font-weight:normal;font-size:22.18812561px;line-height:125%;font-family:sans-serif;letter-spacing:0px;word-spacing:0px;fill:#b3b3b3;fill-opacity:1;stroke:none;stroke-width:1px;stroke-linecap:butt;stroke-linejoin:miter;stroke-opacity:1"
       x="211.48055"
       y="1024.7524"
       id="text4263"
       sodipodi:linespacing="125%"><tspan
         sodipodi:role="line"
         id="tspan4265"
         x="211.48055"
         y="1024.7524">Konfigurasi Porject</tspan></text>
    <path
       style="fill:none;fill-rule:evenodd;stroke:#cccccc;stroke-width:0.99696988px;stroke-linecap:butt;stroke-linejoin:miter;stroke-opacity:1"
       d="m 210.75139,969.71097 -63.44677,-5.03546"
       id="path4267"
       inkscape:connector-curvature="0" />
    <path
       style="fill:none;fill-rule:evenodd;stroke:#cccccc;stroke-width:0.99696988px;stroke-linecap:butt;stroke-linejoin:miter;stroke-opacity:1"
       d="M 203.70175,1018.0514 146.29752,998.91663"
       id="path4269"
       inkscape:connector-curvature="0" />
    <path
       style="fill:none;fill-rule:evenodd;stroke:#cccccc;stroke-width:0.99696988px;stroke-linecap:butt;stroke-linejoin:miter;stroke-opacity:1"
       d="m 230.89323,737.07279 -70.49642,10e-6"
       id="path4271"
       inkscape:connector-curvature="0"
       sodipodi:nodetypes="cc" />
    <text
       sodipodi:linespacing="125%"
       id="text4414"
       y="809.64331"
       x="337.89001"
       style="font-style:normal;font-weight:normal;font-size:21.11825752px;line-height:125%;font-family:sans-serif;letter-spacing:0px;word-spacing:0px;fill:#b3b3b3;fill-opacity:1;stroke:none;stroke-width:1px;stroke-linecap:butt;stroke-linejoin:miter;stroke-opacity:1"
       xml:space="preserve"><tspan
         y="809.64331"
         x="337.89001"
         id="tspan4416"
         sodipodi:role="line">Kode program</tspan></text>
    <path
       sodipodi:nodetypes="cc"
       inkscape:connector-curvature="0"
       id="path4418"
       d="m 331.90848,803.74286 -70.49642,1e-5"
       style="fill:none;fill-rule:evenodd;stroke:#cccccc;stroke-width:0.99696988px;stroke-linecap:butt;stroke-linejoin:miter;stroke-opacity:1" />
    <text
       xml:space="preserve"
       style="font-style:normal;font-weight:normal;font-size:21.11825752px;line-height:125%;font-family:sans-serif;letter-spacing:0px;word-spacing:0px;fill:#b3b3b3;fill-opacity:1;stroke:none;stroke-width:1px;stroke-linecap:butt;stroke-linejoin:miter;stroke-opacity:1"
       x="337.89001"
       y="841.9682"
       id="text4420"
       sodipodi:linespacing="125%"><tspan
         sodipodi:role="line"
         id="tspan4422"
         x="337.89001"
         y="841.9682">File-file lain</tspan></text>
    <path
       style="fill:none;fill-rule:evenodd;stroke:#cccccc;stroke-width:0.99696988px;stroke-linecap:butt;stroke-linejoin:miter;stroke-opacity:1"
       d="m 331.90848,836.06774 -70.49642,1e-5"
       id="path4424"
       inkscape:connector-curvature="0"
       sodipodi:nodetypes="cc" />
    <text
       xml:space="preserve"
       style="font-style:normal;font-weight:normal;font-size:21.11825752px;line-height:125%;font-family:sans-serif;letter-spacing:0px;word-spacing:0px;fill:#b3b3b3;fill-opacity:1;stroke:none;stroke-width:1px;stroke-linecap:butt;stroke-linejoin:miter;stroke-opacity:1"
       x="337.89001"
       y="903.58752"
       id="text4426"
       sodipodi:linespacing="125%"><tspan
         sodipodi:role="line"
         id="tspan4428"
         x="337.89001"
         y="903.58752">Kode program untuk testing</tspan></text>
    <path
       style="fill:none;fill-rule:evenodd;stroke:#cccccc;stroke-width:0.99696988px;stroke-linecap:butt;stroke-linejoin:miter;stroke-opacity:1"
       d="m 331.90848,897.68704 -70.49642,10e-6"
       id="path4430"
       inkscape:connector-curvature="0"
       sodipodi:nodetypes="cc" />
    <text
       sodipodi:linespacing="125%"
       id="text4432"
       y="935.91241"
       x="337.89001"
       style="font-style:normal;font-weight:normal;font-size:21.11825752px;line-height:125%;font-family:sans-serif;letter-spacing:0px;word-spacing:0px;fill:#b3b3b3;fill-opacity:1;stroke:none;stroke-width:1px;stroke-linecap:butt;stroke-linejoin:miter;stroke-opacity:1"
       xml:space="preserve"><tspan
         y="935.91241"
         x="337.89001"
         id="tspan4434"
         sodipodi:role="line">File-file lain</tspan></text>
    <path
       sodipodi:nodetypes="cc"
       inkscape:connector-curvature="0"
       id="path4436"
       d="m 331.90848,930.01192 -70.49642,10e-6"
       style="fill:none;fill-rule:evenodd;stroke:#cccccc;stroke-width:0.99696988px;stroke-linecap:butt;stroke-linejoin:miter;stroke-opacity:1" />
  </g>
</svg>
