<?xml version="1.0" encoding="UTF-8" standalone="no"?>
<svg
   xmlns:dc="http://purl.org/dc/elements/1.1/"
   xmlns:cc="http://creativecommons.org/ns#"
   xmlns:rdf="http://www.w3.org/1999/02/22-rdf-syntax-ns#"
   xmlns:svg="http://www.w3.org/2000/svg"
   xmlns="http://www.w3.org/2000/svg"
   version="1.1"
   id="Tumblr_w_x2F__circle"
   x="0px"
   y="0px"
   viewBox="0 0 20 20"
   enable-background="new 0 0 20 20"
   xml:space="preserve"><metadata
     id="metadata9"><rdf:RDF><cc:Work
         rdf:about=""><dc:format>image/svg+xml</dc:format><dc:type
           rdf:resource="http://purl.org/dc/dcmitype/StillImage" /><dc:title></dc:title></cc:Work></rdf:RDF></metadata><defs
     id="defs7" /><path
     d="m 10,0.4 c -5.302,0 -9.6,4.298 -9.6,9.6 0,5.302 4.298,9.6 9.6,9.6 5.302,0 9.6,-4.298 9.6,-9.6 0,-5.302 -4.298,-9.6 -9.6,-9.6 z"
     id="path3"
     style="fill:#ff6600;fill-opacity:1" /><path
     id="path4138"
     d="m 6.0023098,4.6457632 0,1.4564124 c 4.3600082,0 7.8942842,3.5355066 7.8942842,7.8955134 l 1.457644,0 c 0,-5.1648174 -4.18711,-9.3519258 -9.3519282,-9.3519258 z m 0,2.9146705 0,1.4576429 c 2.7497704,0 4.9796132,2.2292264 4.9796132,4.9802284 l 1.457028,0 c 0,-3.555197 -2.8820602,-6.4378713 -6.4366412,-6.4378713 z m 1.396113,3.6437993 c -0.7715848,0 -1.3967283,0.626374 -1.3967283,1.397344 0,0.770968 0.6251435,1.396728 1.3967283,1.396728 0.7715848,0 1.396113,-0.625144 1.396113,-1.396728 0,-0.771586 -0.6245282,-1.397344 -1.396113,-1.397344 z"
     style="fill:#ffffff" /></svg>