<?xml version="1.0" encoding="UTF-8" standalone="no"?>
<svg
   xmlns:dc="http://purl.org/dc/elements/1.1/"
   xmlns:cc="http://creativecommons.org/ns#"
   xmlns:rdf="http://www.w3.org/1999/02/22-rdf-syntax-ns#"
   xmlns:svg="http://www.w3.org/2000/svg"
   xmlns="http://www.w3.org/2000/svg"
   xml:space="preserve"
   enable-background="new 0 0 20 20"
   viewBox="0 0 20 20"
   y="0px"
   x="0px"
   id="Tumblr_w_x2F__circle"
   version="1.1"><metadata
     id="metadata9"><rdf:RDF><cc:Work
         rdf:about=""><dc:format>image/svg+xml</dc:format><dc:type
           rdf:resource="http://purl.org/dc/dcmitype/StillImage" /><dc:title></dc:title></cc:Work></rdf:RDF></metadata><defs
     id="defs7" /><path
     style="fill:#ff6600;fill-opacity:1"
     id="path3"
     d="m 10,0.4 c -5.302,0 -9.6,4.298 -9.6,9.6 0,5.302 4.298,9.6 9.6,9.6 5.302,0 9.6,-4.298 9.6,-9.6 0,-5.302 -4.298,-9.6 -9.6,-9.6 z" /><path
     style="fill:#ffffff"
     d="m 4.6464665,4.6457632 0,1.6675632 c 4.9921225,0 9.0387985,4.0480846 9.0387985,9.0402056 l 1.668973,0 c 0,-5.9136131 -4.794158,-10.7077688 -10.7077715,-10.7077688 z m 0,3.3372396 0,1.6689721 c 3.1484324,0 5.7015585,2.5524201 5.7015585,5.7022621 l 1.668268,0 c 0,-4.070629 -3.2999021,-7.3712342 -7.3698265,-7.3712342 z M 6.2449881,12.15508 c -0.8834492,0 -1.5992261,0.717186 -1.5992261,1.599931 0,0.882744 0.7157769,1.599226 1.5992261,1.599226 0.8834492,0 1.5985216,-0.715777 1.5985216,-1.599226 0,-0.88345 -0.7150724,-1.599931 -1.5985216,-1.599931 z"
     id="path4138" /></svg>