<?xml version="1.0" encoding="UTF-8" standalone="no"?>
<svg
   xmlns:dc="http://purl.org/dc/elements/1.1/"
   xmlns:cc="http://creativecommons.org/ns#"
   xmlns:rdf="http://www.w3.org/1999/02/22-rdf-syntax-ns#"
   xmlns:svg="http://www.w3.org/2000/svg"
   xmlns="http://www.w3.org/2000/svg"
   xml:space="preserve"
   enable-background="new 0 0 20 20"
   viewBox="0 0 20 20"
   y="0px"
   x="0px"
   id="Tumblr_w_x2F__circle"
   version="1.1"><metadata
     id="metadata9"><rdf:RDF><cc:Work
         rdf:about=""><dc:format>image/svg+xml</dc:format><dc:type
           rdf:resource="http://purl.org/dc/dcmitype/StillImage" /><dc:title></dc:title></cc:Work></rdf:RDF></metadata><defs
     id="defs7"><clipPath
       clipPathUnits="userSpaceOnUse"
       id="clipPath4233"><path
         d="m 22.739,259.049 c 0,-129.493 104.975,-234.467 234.467,-234.467 l 0,0 c 129.493,0 234.468,104.974 234.468,234.467 l 0,0 c 0,129.493 -104.975,234.467 -234.468,234.467 l 0,0 C 127.714,493.516 22.739,388.542 22.739,259.049"
         id="path4235" /></clipPath><linearGradient
       x1="0"
       y1="0"
       x2="1"
       y2="0"
       gradientUnits="userSpaceOnUse"
       gradientTransform="matrix(0,-467.22317,-467.22317,0,257.2063,493.51587)"
       spreadMethod="pad"
       id="linearGradient4241"><stop
         style="stop-opacity:1;stop-color:#42bce8"
         offset="0"
         id="stop4243" /><stop
         style="stop-opacity:1;stop-color:#23a7dc"
         offset="1"
         id="stop4245" /></linearGradient><clipPath
       clipPathUnits="userSpaceOnUse"
       id="clipPath4253"><path
         d="M 0,512 512,512 512,0 0,0 0,512 Z"
         id="path4255" /></clipPath></defs><g
     id="g4227"
     transform="matrix(0.04135825,0,0,-0.04135825,-0.63761073,20.713813)"><g
       id="g4229"><g
         id="g4231"
         clip-path="url(#clipPath4233)"><g
           id="g4237"><g
             id="g4239"><path
               d="m 22.739,259.049 c 0,-129.493 104.975,-234.467 234.467,-234.467 l 0,0 c 129.493,0 234.468,104.974 234.468,234.467 l 0,0 c 0,129.493 -104.975,234.467 -234.468,234.467 l 0,0 C 127.714,493.516 22.739,388.542 22.739,259.049"
               style="fill:url(#linearGradient4241);stroke:none"
               id="path4247" /></g></g></g></g><g
       id="g4249"><g
         id="g4251"
         clip-path="url(#clipPath4253)"><g
           id="g4257"
           transform="translate(371.2939,358.6405)"><path
             d="m 0,0 -41.878,-211.144 c 0,0 -5.857,-14.641 -21.963,-7.613 l -96.64,74.091 -35.142,16.984 -59.155,19.915 c 0,0 -9.078,3.221 -9.957,10.249 -0.878,7.028 10.25,10.836 10.25,10.836 L -19.328,5.565 C -19.328,5.565 0,14.057 0,0"
             style="fill:#ffffff;fill-opacity:1;fill-rule:nonzero;stroke:none"
             id="path4259" /></g><g
           id="g4261"
           transform="translate(203.3848,149.8684)"><path
             d="M 0,0 C 0,0 -2.821,0.264 -6.336,11.394 -9.85,22.521 -27.714,81.09 -27.714,81.09 l 142.032,90.198 c 0,0 8.199,4.978 7.907,0 0,0 1.464,-0.878 -2.928,-4.979 C 114.904,162.209 7.721,65.863 7.721,65.863"
             style="fill:#d2e5f1;fill-opacity:1;fill-rule:nonzero;stroke:none"
             id="path4263" /></g><g
           id="g4265"
           transform="translate(247.8671,185.5662)"><path
             d="m 0,0 -38.225,-34.852 c 0,0 -2.989,-2.266 -6.257,-0.846 l 7.319,64.736"
             style="fill:#b5cfe4;fill-opacity:1;fill-rule:nonzero;stroke:none"
             id="path4267" /></g></g></g></g></svg>