<?xml version="1.0" encoding="UTF-8" standalone="no"?>
<svg
   xmlns:dc="http://purl.org/dc/elements/1.1/"
   xmlns:cc="http://creativecommons.org/ns#"
   xmlns:rdf="http://www.w3.org/1999/02/22-rdf-syntax-ns#"
   xmlns:svg="http://www.w3.org/2000/svg"
   xmlns="http://www.w3.org/2000/svg"
   xmlns:sodipodi="http://sodipodi.sourceforge.net/DTD/sodipodi-0.dtd"
   xmlns:inkscape="http://www.inkscape.org/namespaces/inkscape"
   version="1.1"
   viewBox="0.0 0.0 484.0 246.0"
   fill="none"
   stroke="none"
   stroke-linecap="square"
   stroke-miterlimit="10"
   id="svg2"
   inkscape:version="0.91 r13725"
   sodipodi:docname="insert.svg">
  <metadata
     id="metadata87">
    <rdf:RDF>
      <cc:Work
         rdf:about="">
        <dc:format>image/svg+xml</dc:format>
        <dc:type
           rdf:resource="http://purl.org/dc/dcmitype/StillImage" />
      </cc:Work>
    </rdf:RDF>
  </metadata>
  <defs
     id="defs85" />
  <sodipodi:namedview
     pagecolor="#ffffff"
     bordercolor="#666666"
     borderopacity="1"
     objecttolerance="10"
     gridtolerance="10"
     guidetolerance="10"
     inkscape:pageopacity="0"
     inkscape:pageshadow="2"
     inkscape:window-width="1366"
     inkscape:window-height="719"
     id="namedview83"
     showgrid="false"
     inkscape:zoom="1.2644628"
     inkscape:cx="249.31298"
     inkscape:cy="116.11136"
     inkscape:window-x="0"
     inkscape:window-y="0"
     inkscape:window-maximized="1"
     inkscape:current-layer="g7" />
  <clipPath
     id="p.0">
    <path
       d="m0 0l484.0 0l0 246.0l-484.0 0l0 -246.0z"
       clip-rule="nonzero"
       id="path5" />
  </clipPath>
  <g
     clip-path="url(#p.0)"
     id="g7">
    <path
       fill="#000000"
       fill-opacity="0.0"
       d="m0 0l484.0 0l0 246.0l-484.0 0z"
       fill-rule="evenodd"
       id="path9" />
    <path
       fill="#000000"
       fill-opacity="0.0"
       d="m104.98688 185.79265l0 0c-8.366898 0 -15.149605 -0.5652008 -15.149605 -1.2624207l0 -41.56964l0 0c0 -0.3348236 1.5961151 -0.6559143 4.4372177 -0.8926697c2.8411026 -0.23675537 6.694458 -0.36975098 10.712387 -0.36975098z"
       fill-rule="evenodd"
       id="path11" />
    <path
       fill="#000000"
       fill-opacity="0.0"
       d="m104.98688 185.79265l0 0c-8.366898 0 -15.149605 -0.5652008 -15.149605 -1.2624207l0 -41.56964l0 0c0 -0.3348236 1.5961151 -0.6559143 4.4372177 -0.8926697c2.8411026 -0.23675537 6.694458 -0.36975098 10.712387 -0.36975098"
       fill-rule="evenodd"
       id="path13" />
    <path
       stroke="#000000"
       stroke-width="1.0"
       stroke-linejoin="round"
       stroke-linecap="butt"
       d="m104.98688 185.79265l0 0c-8.366898 0 -15.149605 -0.5652008 -15.149605 -1.2624207l0 -41.56964l0 0c0 -0.3348236 1.5961151 -0.6559143 4.4372177 -0.8926697c2.8411026 -0.23675537 6.694458 -0.36975098 10.712387 -0.36975098"
       fill-rule="evenodd"
       id="path15" />
    <path
       fill="#000000"
       fill-opacity="0.0"
       d="m395.46625 185.79265l0 0c8.366913 0 15.149628 -0.5652008 15.149628 -1.2624207l0 -41.56964l0 0c0 -0.3348236 -1.5961304 -0.6559143 -4.4372253 -0.8926697c-2.841095 -0.23675537 -6.694458 -0.36975098 -10.712402 -0.36975098z"
       fill-rule="evenodd"
       id="path17" />
    <path
       fill="#000000"
       fill-opacity="0.0"
       d="m395.46625 185.79265l0 0c8.366913 0 15.149628 -0.5652008 15.149628 -1.2624207l0 -41.56964l0 0c0 -0.3348236 -1.5961304 -0.6559143 -4.4372253 -0.8926697c-2.841095 -0.23675537 -6.694458 -0.36975098 -10.712402 -0.36975098"
       fill-rule="evenodd"
       id="path19" />
    <path
       stroke="#000000"
       stroke-width="1.0"
       stroke-linejoin="round"
       stroke-linecap="butt"
       d="m395.46625 185.79265l0 0c8.366913 0 15.149628 -0.5652008 15.149628 -1.2624207l0 -41.56964l0 0c0 -0.3348236 -1.5961304 -0.6559143 -4.4372253 -0.8926697c-2.841095 -0.23675537 -6.694458 -0.36975098 -10.712402 -0.36975098"
       fill-rule="evenodd"
       id="path21" />
    <path
       fill="#000000"
       fill-opacity="0.0"
       d="m131.54855 43.07349l296.8189 0l0 37.98425l-296.8189 0z"
       fill-rule="evenodd"
       id="path23" />
    <path
       fill="#000000"
       d="m148.93918 69.99349l-0.96875 0.015625l-1.71875 -5.015625l-1.703125 5.015625l-0.96875 -0.015625l-1.609375 -7.250004l-0.375 0q-0.28125 0 -0.40625 -0.109375q-0.125 -0.109375 -0.125 -0.28125q0 -0.171875 0.125 -0.28125q0.125 -0.109375 0.40625 -0.109375l2.140625 0q0.265625 0 0.390625 0.109375q0.125 0.109375 0.125 0.28125q0 0.171875 -0.125 0.28125q-0.125 0.109375 -0.390625 0.109375l-1.0 0l1.390625 6.187504l1.65625 -4.937504l0.921875 0l1.71875 4.937504l1.3125 -6.187504l-0.984375 0q-0.265625 0 -0.390625 -0.109375q-0.125 -0.109375 -0.125 -0.28125q0 -0.171875 0.109375 -0.28125q0.125 -0.109375 0.40625 -0.109375l2.140625 0q0.28125 0 0.40625 0.109375q0.125 0.109375 0.125 0.28125q0 0.171875 -0.125 0.28125q-0.125 0.109375 -0.40625 0.109375l-0.375 0l-1.578125 7.250004zm10.94873 0l0 -1.125q-1.6875 1.4375 -3.625 1.4375q-1.40625 0 -2.1875 -0.703125q-0.78125 -0.71875 -0.78125 -1.75q0 -1.140625 1.03125 -1.984375q1.046875 -0.84375 3.03125 -0.84375q0.546875 0 1.171875 0.078125q0.625 0.0625 1.359375 0.21875l0 -1.265625q0 -0.6406288 -0.59375 -1.1093788q-0.59375 -0.484375 -1.78125 -0.484375q-0.90625 0 -2.546875 0.53125q-0.296875 0.09375 -0.375 0.09375q-0.15625 0 -0.265625 -0.109375q-0.109375 -0.109375 -0.109375 -0.28125q0 -0.15625 0.09375 -0.25q0.140625 -0.140625 1.0625 -0.375q1.4375 -0.390625 2.1875 -0.390625q1.46875 0 2.296875 0.734375q0.828125 0.71875 0.828125 1.6406288l0 5.15625l1.03125 0q0.296875 0 0.40625 0.109375q0.125 0.109375 0.125 0.28125q0 0.171875 -0.125 0.28125q-0.109375 0.109375 -0.40625 0.109375l-1.828125 0zm0 -3.875q-0.546875 -0.15625 -1.15625 -0.234375q-0.609375 -0.078125 -1.28125 -0.078125q-1.703125 0 -2.65625 0.734375q-0.734375 0.546875 -0.734375 1.3125q0 0.703125 0.546875 1.1875q0.5625 0.484375 1.625 0.484375q1.0 0 1.859375 -0.40625q0.875 -0.40625 1.796875 -1.28125l0 -1.71875zm8.22998 -4.156254l0 1.96875q1.53125 -1.375 2.28125 -1.765625q0.75 -0.40625 1.390625 -0.40625q0.703125 0 1.296875 0.46875q0.59375 0.46875 0.59375 0.71875q0 0.171875 -0.109375 0.296875q-0.109375 0.109375 -0.296875 0.109375q-0.09375 0 -0.15625 -0.03125q-0.0625 -0.03125 -0.234375 -0.21875q-0.328125 -0.3125 -0.578125 -0.4375q-0.234375 -0.125 -0.46875 -0.125q-0.5 0 -1.21875 0.40625q-0.71875 0.40625 -2.5 2.0000038l0 4.265625l3.453125 0q0.28125 0 0.40625 0.109375q0.125 0.109375 0.125 0.28125q0 0.171875 -0.125 0.28125q-0.125 0.109375 -0.40625 0.109375l-6.109375 0q-0.28125 0 -0.40625 -0.109375q-0.109375 -0.109375 -0.109375 -0.265625q0 -0.15625 0.109375 -0.265625q0.109375 -0.109375 0.40625 -0.109375l1.875 0l0 -6.500004l-1.4375 0q-0.28125 0 -0.40625 -0.109375q-0.109375 -0.109375 -0.109375 -0.28125q0 -0.171875 0.109375 -0.28125q0.125 -0.109375 0.40625 -0.109375l2.21875 0zm9.82373 0l0 1.171875q0.8125 -0.828125 1.46875 -1.140625q0.65625 -0.3125 1.484375 -0.3125q0.890625 0 1.625 0.375q0.515625 0.28125 0.9375 0.9375q0.421875 0.640625 0.421875 1.3125038l0 4.90625l0.65625 0q0.28125 0 0.40625 0.109375q0.125 0.109375 0.125 0.28125q0 0.171875 -0.125 0.28125q-0.125 0.109375 -0.40625 0.109375l-2.078125 0q-0.296875 0 -0.421875 -0.109375q-0.109375 -0.109375 -0.109375 -0.28125q0 -0.171875 0.109375 -0.28125q0.125 -0.109375 0.421875 -0.109375l0.640625 0l0 -4.78125q0 -0.8281288 -0.609375 -1.3906288q-0.59375 -0.578125 -1.609375 -0.578125q-0.765625 0 -1.328125 0.3125q-0.5625 0.3125 -1.609375 1.5468788l0 4.890625l0.875 0q0.28125 0 0.390625 0.109375q0.125 0.109375 0.125 0.28125q0 0.171875 -0.125 0.28125q-0.109375 0.109375 -0.390625 0.109375l-2.546875 0q-0.265625 0 -0.390625 -0.109375q-0.125 -0.109375 -0.125 -0.28125q0 -0.171875 0.125 -0.28125q0.125 -0.109375 0.390625 -0.109375l0.890625 0l0 -6.468754l-0.65625 0q-0.28125 0 -0.40625 -0.109375q-0.125 -0.109375 -0.125 -0.28125q0 -0.171875 0.125 -0.28125q0.125 -0.109375 0.40625 -0.109375l1.4375 0zm16.151855 8.031254l0 -1.125q-1.6875 1.4375 -3.625 1.4375q-1.40625 0 -2.1875 -0.703125q-0.78125 -0.71875 -0.78125 -1.75q0 -1.140625 1.03125 -1.984375q1.046875 -0.84375 3.03125 -0.84375q0.546875 0 1.171875 0.078125q0.625 0.0625 1.359375 0.21875l0 -1.265625q0 -0.6406288 -0.59375 -1.1093788q-0.59375 -0.484375 -1.78125 -0.484375q-0.90625 0 -2.546875 0.53125q-0.296875 0.09375 -0.375 0.09375q-0.15625 0 -0.265625 -0.109375q-0.109375 -0.109375 -0.109375 -0.28125q0 -0.15625 0.09375 -0.25q0.140625 -0.140625 1.0625 -0.375q1.4375 -0.390625 2.1875 -0.390625q1.46875 0 2.296875 0.734375q0.828125 0.71875 0.828125 1.6406288l0 5.15625l1.03125 0q0.296875 0 0.40625 0.109375q0.125 0.109375 0.125 0.28125q0 0.171875 -0.125 0.28125q-0.109375 0.109375 -0.40625 0.109375l-1.828125 0zm0 -3.875q-0.546875 -0.15625 -1.15625 -0.234375q-0.609375 -0.078125 -1.28125 -0.078125q-1.703125 0 -2.65625 0.734375q-0.734375 0.546875 -0.734375 1.3125q0 0.703125 0.546875 1.1875q0.5625 0.484375 1.625 0.484375q1.0 0 1.859375 -0.40625q0.875 -0.40625 1.796875 -1.28125l0 -1.71875z"
       fill-rule="nonzero"
       id="path25" />
    <path
       fill="#6fa8dc"
       d="m203.08908 67.75912l0.34375 0q0.515625 0 0.890625 0.375q0.375 0.359375 0.375 0.875q0 0.53125 -0.375 0.90625q-0.375 0.359375 -0.890625 0.359375l-0.34375 0q-0.515625 0 -0.890625 -0.359375q-0.359375 -0.375 -0.359375 -0.890625q0 -0.546875 0.375 -0.90625q0.375 -0.359375 0.875 -0.359375z"
       fill-rule="nonzero"
       id="path27" />
    <path
       fill="#000000"
       d="m215.05344 57.96224l0 2.015625l-1.15625 0l0 -2.015625l1.15625 0zm0.015625 4.0l0 7.250004l3.0625 0q0.296875 0 0.40625 0.109375q0.125 0.109375 0.125 0.28125q0 0.171875 -0.125 0.28125q-0.109375 0.109375 -0.40625 0.109375l-6.90625 0q-0.265625 0 -0.390625 -0.109375q-0.125 -0.109375 -0.125 -0.28125q0 -0.171875 0.125 -0.28125q0.125 -0.109375 0.390625 -0.109375l3.0625 0l0 -6.468754l-2.265625 0q-0.28125 0 -0.40625 -0.109375q-0.125 -0.109375 -0.125 -0.28125q0 -0.171875 0.125 -0.28125q0.125 -0.109375 0.40625 -0.109375l3.046875 0zm8.47998 0l0 1.171875q0.8125 -0.828125 1.46875 -1.140625q0.65625 -0.3125 1.484375 -0.3125q0.890625 0 1.625 0.375q0.515625 0.28125 0.9375 0.9375q0.421875 0.640625 0.421875 1.3125038l0 4.90625l0.65625 0q0.28125 0 0.40625 0.109375q0.125 0.109375 0.125 0.28125q0 0.171875 -0.125 0.28125q-0.125 0.109375 -0.40625 0.109375l-2.078125 0q-0.296875 0 -0.421875 -0.109375q-0.109375 -0.109375 -0.109375 -0.28125q0 -0.171875 0.109375 -0.28125q0.125 -0.109375 0.421875 -0.109375l0.640625 0l0 -4.78125q0 -0.8281288 -0.609375 -1.3906288q-0.59375 -0.578125 -1.609375 -0.578125q-0.765625 0 -1.328125 0.3125q-0.5625 0.3125 -1.609375 1.5468788l0 4.890625l0.875 0q0.28125 0 0.390625 0.109375q0.125 0.109375 0.125 0.28125q0 0.171875 -0.125 0.28125q-0.109375 0.109375 -0.390625 0.109375l-2.546875 0q-0.265625 0 -0.390625 -0.109375q-0.125 -0.109375 -0.125 -0.28125q0 -0.171875 0.125 -0.28125q0.125 -0.109375 0.390625 -0.109375l0.890625 0l0 -6.468754l-0.65625 0q-0.28125 0 -0.40625 -0.109375q-0.125 -0.109375 -0.125 -0.28125q0 -0.171875 0.125 -0.28125q0.125 -0.109375 0.40625 -0.109375l1.4375 0zm16.495605 0.5q0 -0.265625 0.109375 -0.375q0.109375 -0.125 0.28125 -0.125q0.171875 0 0.28125 0.125q0.109375 0.109375 0.109375 0.40625l0 1.328125q0 0.2812538 -0.109375 0.4062538q-0.109375 0.109375 -0.28125 0.109375q-0.171875 0 -0.28125 -0.09375q-0.09375 -0.109375 -0.109375 -0.3437538q-0.0625 -0.546875 -0.578125 -0.90625q-0.765625 -0.53125 -2.015625 -0.53125q-1.3125 0 -2.03125 0.53125q-0.546875 0.40625 -0.546875 0.890625q0 0.5625038 0.640625 0.9375038q0.453125 0.25 1.703125 0.390625q1.609375 0.171875 2.25 0.40625q0.890625 0.328125 1.328125 0.90625q0.453125 0.5625 0.453125 1.234375q0 0.984375 -0.953125 1.765625q-0.953125 0.78125 -2.8125 0.78125q-1.84375 0 -3.015625 -0.9375q0 0.3125 -0.046875 0.40625q-0.03125 0.09375 -0.125 0.15625q-0.09375 0.0625 -0.21875 0.0625q-0.171875 0 -0.28125 -0.109375q-0.109375 -0.125 -0.109375 -0.40625l0 -1.609375q0 -0.28125 0.109375 -0.390625q0.109375 -0.125 0.28125 -0.125q0.171875 0 0.28125 0.125q0.109375 0.109375 0.109375 0.296875q0 0.421875 0.21875 0.71875q0.328125 0.4375 1.03125 0.734375q0.71875 0.296875 1.75 0.296875q1.515625 0 2.25 -0.5625q0.75 -0.578125 0.75 -1.203125q0 -0.71875 -0.75 -1.15625q-0.765625 -0.4375 -2.21875 -0.578125q-1.453125 -0.15625 -2.078125 -0.390625q-0.625 -0.25 -0.984375 -0.734375q-0.359375 -0.484375 -0.359375 -1.0312538q0 -1.015625 0.984375 -1.59375q0.984375 -0.59375 2.359375 -0.59375q1.609375 0 2.625 0.78125zm13.04248 3.7031288l-7.953125 0q0.21875 1.515625 1.28125 2.4375q1.0625 0.921875 2.625 0.921875q0.875 0 1.828125 -0.28125q0.953125 -0.296875 1.5625 -0.765625q0.171875 -0.140625 0.296875 -0.140625q0.15625 0 0.265625 0.125q0.109375 0.109375 0.109375 0.265625q0 0.15625 -0.15625 0.296875q-0.4375 0.46875 -1.578125 0.875q-1.140625 0.40625 -2.328125 0.40625q-2.0 0 -3.34375 -1.3125q-1.34375 -1.3125 -1.34375 -3.1875q0 -1.6875 1.25 -2.9062538q1.265625 -1.21875 3.125 -1.21875q1.90625 0 3.140625 1.25q1.234375 1.2500038 1.21875 3.2343788zm-0.796875 -0.796875q-0.234375 -1.28125 -1.21875 -2.0937538q-0.984375 -0.8125 -2.34375 -0.8125q-1.375 0 -2.359375 0.8125q-0.96875 0.7968788 -1.21875 2.0937538l7.140625 0zm7.0424805 -3.4062538l0 1.96875q1.53125 -1.375 2.28125 -1.765625q0.75 -0.40625 1.390625 -0.40625q0.703125 0 1.296875 0.46875q0.59375 0.46875 0.59375 0.71875q0 0.171875 -0.109375 0.296875q-0.109375 0.109375 -0.296875 0.109375q-0.09375 0 -0.15625 -0.03125q-0.0625 -0.03125 -0.234375 -0.21875q-0.328125 -0.3125 -0.578125 -0.4375q-0.234375 -0.125 -0.46875 -0.125q-0.5 0 -1.21875 0.40625q-0.71875 0.40625 -2.5 2.0000038l0 4.265625l3.453125 0q0.28125 0 0.40625 0.109375q0.125 0.109375 0.125 0.28125q0 0.171875 -0.125 0.28125q-0.125 0.109375 -0.40625 0.109375l-6.109375 0q-0.28125 0 -0.40625 -0.109375q-0.109375 -0.109375 -0.109375 -0.265625q0 -0.15625 0.109375 -0.265625q0.109375 -0.109375 0.40625 -0.109375l1.875 0l0 -6.500004l-1.4375 0q-0.28125 0 -0.40625 -0.109375q-0.109375 -0.109375 -0.109375 -0.28125q0 -0.171875 0.109375 -0.28125q0.125 -0.109375 0.40625 -0.109375l2.21875 0zm10.72998 0l4.234375 0q0.28125 0 0.390625 0.109375q0.125 0.109375 0.125 0.28125q0 0.171875 -0.125 0.28125q-0.109375 0.109375 -0.390625 0.109375l-4.234375 0l0 5.187504q0 0.6875 0.546875 1.140625q0.546875 0.453125 1.59375 0.453125q0.78125 0 1.703125 -0.234375q0.921875 -0.25 1.4375 -0.546875q0.1875 -0.109375 0.296875 -0.109375q0.15625 0 0.265625 0.125q0.109375 0.109375 0.109375 0.265625q0 0.140625 -0.125 0.25q-0.296875 0.3125 -1.4375 0.671875q-1.140625 0.359375 -2.1875 0.359375q-1.375 0 -2.1875 -0.640625q-0.796875 -0.640625 -0.796875 -1.734375l0 -5.187504l-1.4375 0q-0.28125 0 -0.40625 -0.109375q-0.109375 -0.109375 -0.109375 -0.28125q0 -0.171875 0.109375 -0.28125q0.125 -0.109375 0.40625 -0.109375l1.4375 0l0 -2.296875q0 -0.28125 0.109375 -0.40625q0.109375 -0.125 0.28125 -0.125q0.171875 0 0.28125 0.125q0.109375 0.125 0.109375 0.40625l0 2.296875zm12.91748 3.4062538q0 -1.0625 0.28125 -2.2500038q0.28125 -1.203125 1.0625 -2.765625q0.796875 -1.578125 1.15625 -1.90625q0.109375 -0.09375 0.234375 -0.09375q0.171875 0 0.28125 0.109375q0.125 0.109375 0.125 0.265625q0 0.09375 -0.0625 0.203125q-1.03125 1.875 -1.46875 3.40625q-0.421875 1.515625 -0.421875 3.0312538q0 1.53125 0.421875 3.0625q0.4375 1.515625 1.46875 3.375q0.0625 0.125 0.0625 0.203125q0 0.171875 -0.125 0.28125q-0.109375 0.109375 -0.28125 0.109375q-0.125 0 -0.234375 -0.09375q-0.34375 -0.3125 -1.125 -1.84375q-0.78125 -1.53125 -1.078125 -2.703125q-0.296875 -1.1875 -0.296875 -2.390625z"
       fill-rule="nonzero"
       id="path29" />
    <path
       fill="#000000"
       d="m304.33078 67.19662l2.53125 0l-2.75 5.109375q-0.25 0.46875 -0.609375 0.46875q-0.234375 0 -0.390625 -0.171875q-0.15625 -0.15625 -0.15625 -0.375q0 -0.09375 0.015625 -0.21875l1.359375 -4.8125z"
       fill-rule="nonzero"
       id="path33" />
    <path
       fill="#a64d79"
       d="m315.23264 58.290363l2.25 0l-2.859375 4.578125q-0.234375 0.375 -0.5 0.375q-0.25 0 -0.4375 -0.15625q-0.171875 -0.171875 -0.171875 -0.359375q0 -0.15625 0.078125 -0.375l1.640625 -4.0625zm3.984375 0l2.265625 0l-2.859375 4.578125q-0.25 0.375 -0.515625 0.375q-0.234375 0 -0.421875 -0.15625q-0.1875 -0.171875 -0.1875 -0.359375q0 -0.15625 0.078125 -0.375l1.640625 -4.0625zm7.289337 -0.328125l0 4.046875q0.59375 -0.34375 1.203125 -0.515625q0.609375 -0.171875 1.234375 -0.171875q0.984375 0 1.75 0.34375q0.765625 0.328125 1.265625 1.046875q0.515625 0.71875 0.515625 1.8125038l0 3.5625q0.71875 0 0.953125 0.140625q0.4375 0.296875 0.4375 0.8125q0 0.421875 -0.296875 0.6875q-0.28125 0.265625 -0.96875 0.265625l-2.171875 0q-0.671875 0 -0.96875 -0.265625q-0.28125 -0.265625 -0.28125 -0.6875q0 -0.515625 0.4375 -0.8125q0.234375 -0.140625 0.953125 -0.140625l0 -3.4375q0 -0.7343788 -0.34375 -1.0312538q-0.4375 -0.390625 -1.28125 -0.390625q-0.640625 0 -1.125 0.25q-0.484375 0.234375 -1.3125 1.0468788l0 3.5625q0.734375 0 0.953125 0.140625q0.453125 0.296875 0.453125 0.8125q0 0.421875 -0.296875 0.6875q-0.28125 0.265625 -0.96875 0.265625l-2.171875 0q-0.6875 0 -0.984375 -0.265625q-0.28125 -0.265625 -0.28125 -0.6875q0 -0.515625 0.453125 -0.8125q0.21875 -0.140625 0.953125 -0.140625l0 -8.218754l-0.328125 0q-0.6875 0 -0.984375 -0.265625q-0.296875 -0.265625 -0.296875 -0.703125q0 -0.40625 0.296875 -0.671875q0.296875 -0.265625 0.984375 -0.265625l2.21875 0zm13.851807 0l0 2.015625l-2.265625 0l0 -2.015625l2.265625 0zm0.25 3.609375l0 6.515629l2.28125 0q0.6875 0 0.984375 0.265625q0.296875 0.265625 0.296875 0.6875q0 0.421875 -0.296875 0.6875q-0.296875 0.265625 -0.984375 0.265625l-6.46875 0q-0.6875 0 -0.984375 -0.265625q-0.28125 -0.265625 -0.28125 -0.6875q0 -0.421875 0.28125 -0.6875q0.296875 -0.265625 0.984375 -0.265625l2.28125 0l0 -4.609379l-1.53125 0q-0.671875 0 -0.96875 -0.265625q-0.296875 -0.265625 -0.296875 -0.703125q0 -0.40625 0.296875 -0.671875q0.296875 -0.265625 0.96875 -0.265625l3.4375 0zm12.164337 -3.609375l0 2.015625l-2.265625 0l0 -2.015625l2.265625 0zm-0.765625 5.515625l-3.890625 0q-0.6875 0 -0.984375 -0.265625q-0.28125 -0.265625 -0.28125 -0.703125q0 -0.40625 0.28125 -0.671875q0.296875 -0.265625 0.984375 -0.265625l5.78125 0l0 8.828129q0 1.0 -0.421875 1.734375q-0.421875 0.75 -1.296875 1.28125q-0.859375 0.546875 -1.953125 0.546875l-2.15625 0q-0.6875 0 -0.984375 -0.265625q-0.28125 -0.265625 -0.28125 -0.671875q0 -0.4375 0.28125 -0.703125q0.296875 -0.265625 0.984375 -0.265625l2.09375 0q0.875 0 1.359375 -0.46875q0.484375 -0.46875 0.484375 -1.1875l0 -6.921879zm11.758057 6.515629l0 -0.453125q-0.703125 0.390625 -1.578125 0.578125q-0.859375 0.1875 -1.5625 0.1875q-1.53125 0 -2.484375 -0.8125q-0.953125 -0.8125 -0.953125 -1.796875q0 -1.1875 1.21875 -2.203125q1.21875 -1.03125 3.375 -1.03125q0.859375 0 1.984375 0.171875l0 -0.453125q0 -0.4218788 -0.359375 -0.6875038q-0.359375 -0.265625 -1.390625 -0.265625q-0.84375 0 -2.203125 0.328125q-0.5 0.125 -0.765625 0.125q-0.390625 0 -0.65625 -0.265625q-0.265625 -0.28125 -0.265625 -0.71875q0 -0.234375 0.09375 -0.40625q0.09375 -0.1875 0.265625 -0.28125q0.171875 -0.109375 0.703125 -0.265625q0.703125 -0.1875 1.421875 -0.296875q0.734375 -0.125 1.328125 -0.125q1.78125 0 2.75 0.765625q0.984375 0.765625 0.984375 2.0937538l0 3.90625l0.328125 0q0.6875 0 0.96875 0.265625q0.296875 0.265625 0.296875 0.6875q0 0.421875 -0.296875 0.6875q-0.28125 0.265625 -0.96875 0.265625l-2.234375 0zm0 -3.40625q-1.140625 -0.21875 -2.09375 -0.21875q-1.171875 0 -2.0 0.5625q-0.515625 0.359375 -0.515625 0.734375q0 0.265625 0.25 0.4375q0.453125 0.296875 1.265625 0.296875q0.6875 0 1.546875 -0.265625q0.875 -0.265625 1.546875 -0.734375l0 -0.8125zm13.523712 -5.015629l0 6.515629q0.609375 0 0.890625 0.28125q0.296875 0.265625 0.296875 0.671875q0 0.421875 -0.296875 0.6875q-0.296875 0.265625 -0.96875 0.265625l-1.8125 0l0 -0.4375q-0.828125 0.375 -1.578125 0.5625q-0.734375 0.1875 -1.390625 0.1875q-0.9375 0 -1.625 -0.390625q-0.6875 -0.40625 -1.09375 -1.09375q-0.28125 -0.5 -0.28125 -1.265625l0 -4.078129l-0.328125 0q-0.6875 0 -0.984375 -0.265625q-0.28125 -0.265625 -0.28125 -0.703125q0 -0.40625 0.28125 -0.671875q0.296875 -0.265625 0.984375 -0.265625l2.234375 0l0 5.656254q0 0.609375 0.28125 0.890625q0.296875 0.28125 0.90625 0.28125q0.5625 0 1.21875 -0.21875q0.671875 -0.234375 1.65625 -0.828125l0 -3.8750038l-0.6875 0q-0.6875 0 -0.984375 -0.265625q-0.296875 -0.265625 -0.296875 -0.703125q0 -0.40625 0.296875 -0.671875q0.296875 -0.265625 0.984375 -0.265625l2.578125 0zm5.1174316 -3.28125l2.25 0l-2.859375 4.578125q-0.234375 0.375 -0.5 0.375q-0.25 0 -0.4375 -0.15625q-0.171875 -0.171875 -0.171875 -0.359375q0 -0.15625 0.078125 -0.375l1.640625 -4.0625zm3.984375 0l2.265625 0l-2.859375 4.578125q-0.25 0.375 -0.515625 0.375q-0.234375 0 -0.421875 -0.15625q-0.1875 -0.171875 -0.1875 -0.359375q0 -0.15625 0.078125 -0.375l1.640625 -4.0625z"
       fill-rule="nonzero"
       id="path35" />
    <path
       fill="#000000"
       d="m395.86728 65.38412q0 1.0625 -0.28125 2.265625q-0.265625 1.1875 -1.0625 2.75q-0.78125 1.578125 -1.140625 1.890625q-0.109375 0.109375 -0.25 0.109375q-0.15625 0 -0.28125 -0.109375q-0.109375 -0.109375 -0.109375 -0.28125q0 -0.078125 0.0625 -0.203125q1.015625 -1.859375 1.453125 -3.375q0.4375 -1.53125 0.4375 -3.046875q0 -1.5312538 -0.4375 -3.0468788q-0.4375 -1.53125 -1.453125 -3.40625q-0.0625 -0.109375 -0.0625 -0.203125q0 -0.15625 0.109375 -0.265625q0.125 -0.109375 0.28125 -0.109375q0.140625 0 0.25 0.09375q0.34375 0.328125 1.109375 1.859375q0.78125 1.515625 1.078125 2.703125q0.296875 1.1718788 0.296875 2.3750038z"
       fill-rule="nonzero"
       id="path37" />
    <path
       fill="#000000"
       fill-opacity="0.0"
       d="m259.35434 93.72441l-10.803162 45.417328"
       fill-rule="evenodd"
       id="path39" />
    <path
       stroke="#000000"
       stroke-width="1.0"
       stroke-linejoin="round"
       stroke-linecap="butt"
       d="m259.35434 93.72441l-9.414703 39.580185"
       fill-rule="evenodd"
       id="path41" />
    <path
       fill="#000000"
       stroke="#000000"
       stroke-width="1.0"
       stroke-linecap="butt"
       d="m248.33273 132.92236l0.55674744 4.7971497l2.6570435 -4.0326996z"
       fill-rule="evenodd"
       id="path43" />
    <path
       fill="#ffe599"
       d="m103.55643 149.90205l97.291336 0l0 24.913376l-97.291336 0z"
       fill-rule="evenodd"
       id="path45" />
    <path
       stroke="#000000"
       stroke-width="1.0"
       stroke-linejoin="round"
       stroke-linecap="butt"
       d="m103.55643 149.90205l97.291336 0l0 24.913376l-97.291336 0z"
       fill-rule="evenodd"
       id="path47" />
    <path
       fill="#000000"
       d="m135.03543 159.55186l0 1.109375l-1.03125 0l0 -0.875q0 -0.71875 0.171875 -1.046875q0.21875 -0.421875 0.703125 -0.65625l0.234375 0.390625q-0.296875 0.109375 -0.4375 0.359375q-0.125 0.25 -0.140625 0.71875l0.5 0zm1.65625 0l0 1.109375l-1.03125 0l0 -0.875q0 -0.71875 0.171875 -1.046875q0.234375 -0.421875 0.71875 -0.65625l0.234375 0.390625q-0.296875 0.109375 -0.4375 0.359375q-0.140625 0.25 -0.15625 0.71875l0.5 0zm1.2204895 6.546875l0 -7.875l1.578125 0l1.859375 5.578125q0.25 0.78125 0.375 1.15625q0.140625 -0.421875 0.421875 -1.25l1.875 -5.484375l1.40625 0l0 7.875l-1.0 0l0 -6.59375l-2.296875 6.59375l-0.9375 0l-2.265625 -6.703125l0 6.703125l-1.015625 0zm12.6892395 -1.84375l1.0 0.125q-0.234375 0.875 -0.875 1.359375q-0.640625 0.484375 -1.625 0.484375q-1.25 0 -1.984375 -0.765625q-0.734375 -0.765625 -0.734375 -2.15625q0 -1.453125 0.734375 -2.234375q0.75 -0.796875 1.921875 -0.796875q1.15625 0 1.875 0.78125q0.71875 0.765625 0.71875 2.1875q0 0.078125 0 0.25l-4.25 0q0.046875 0.9375 0.515625 1.4375q0.484375 0.5 1.203125 0.5q0.53125 0 0.90625 -0.265625q0.375 -0.28125 0.59375 -0.90625zm-3.171875 -1.5625l3.1875 0q-0.0625 -0.71875 -0.359375 -1.078125q-0.46875 -0.546875 -1.203125 -0.546875q-0.671875 0 -1.125 0.453125q-0.453125 0.4375 -0.5 1.171875zm5.1921234 3.40625l0 -5.703125l0.859375 0l0 0.859375q0.34375 -0.609375 0.625 -0.796875q0.28125 -0.1875 0.609375 -0.1875q0.5 0 1.0 0.3125l-0.328125 0.890625q-0.359375 -0.203125 -0.71875 -0.203125q-0.3125 0 -0.5625 0.1875q-0.25 0.1875 -0.359375 0.53125q-0.15625 0.515625 -0.15625 1.125l0 2.984375l-0.96875 0zm7.2829895 -0.703125q-0.546875 0.453125 -1.046875 0.640625q-0.484375 0.1875 -1.0625 0.1875q-0.9375 0 -1.453125 -0.453125q-0.5 -0.46875 -0.5 -1.171875q0 -0.421875 0.1875 -0.765625q0.203125 -0.34375 0.5 -0.546875q0.3125 -0.21875 0.703125 -0.328125q0.28125 -0.078125 0.859375 -0.140625q1.171875 -0.140625 1.71875 -0.34375q0.015625 -0.1875 0.015625 -0.25q0 -0.59375 -0.28125 -0.828125q-0.359375 -0.328125 -1.09375 -0.328125q-0.6875 0 -1.015625 0.234375q-0.3125 0.234375 -0.46875 0.84375l-0.953125 -0.125q0.125 -0.609375 0.421875 -0.984375q0.296875 -0.375 0.859375 -0.5625q0.5625 -0.203125 1.296875 -0.203125q0.734375 0 1.1875 0.171875q0.453125 0.171875 0.65625 0.4375q0.21875 0.25 0.3125 0.640625q0.046875 0.25 0.046875 0.90625l0 1.28125q0 1.34375 0.0625 1.703125q0.0625 0.359375 0.25 0.6875l-1.015625 0q-0.15625 -0.296875 -0.1875 -0.703125zm-0.09375 -2.15625q-0.515625 0.21875 -1.578125 0.359375q-0.59375 0.09375 -0.84375 0.203125q-0.234375 0.09375 -0.375 0.3125q-0.140625 0.203125 -0.140625 0.453125q0 0.390625 0.296875 0.65625q0.296875 0.25 0.859375 0.25q0.5625 0 0.984375 -0.25q0.4375 -0.25 0.65625 -0.671875q0.140625 -0.328125 0.140625 -0.96875l0 -0.34375zm2.2858734 2.859375l0 -7.875l0.96875 0l0 2.828125q0.6875 -0.78125 1.71875 -0.78125q0.625 0 1.09375 0.25q0.46875 0.25 0.671875 0.6875q0.203125 0.4375 0.203125 1.28125l0 3.609375l-0.96875 0l0 -3.609375q0 -0.734375 -0.3125 -1.0625q-0.3125 -0.328125 -0.890625 -0.328125q-0.4375 0 -0.8125 0.21875q-0.375 0.21875 -0.546875 0.609375q-0.15625 0.375 -0.15625 1.046875l0 3.125l-0.96875 0zm5.6764984 -6.828125l0 -1.125l1.03125 0l0 0.890625q0 0.71875 -0.15625 1.03125q-0.234375 0.4375 -0.71875 0.65625l-0.25 -0.390625q0.296875 -0.109375 0.4375 -0.359375q0.140625 -0.265625 0.15625 -0.703125l-0.5 0zm1.65625 0l0 -1.125l1.046875 0l0 0.890625q0 0.71875 -0.171875 1.03125q-0.234375 0.4375 -0.71875 0.65625l-0.234375 -0.390625q0.296875 -0.109375 0.4375 -0.359375q0.140625 -0.265625 0.15625 -0.703125l-0.515625 0z"
       fill-rule="nonzero"
       id="path49" />
    <path
       fill="#b6d7a8"
       d="m200.85957 149.90205l97.291336 0l0 24.913376l-97.291336 0z"
       fill-rule="evenodd"
       id="path51" />
    <path
       stroke="#000000"
       stroke-width="1.0"
       stroke-linejoin="round"
       stroke-linecap="butt"
       d="m200.85957 149.90205l97.291336 0l0 24.913376l-97.291336 0z"
       fill-rule="evenodd"
       id="path53" />
    <path
       fill="#000000"
       d="m235.29922 159.55186l0 1.109375l-1.03125 0l0 -0.875q0 -0.71875 0.171875 -1.046875q0.21875 -0.421875 0.703125 -0.65625l0.234375 0.390625q-0.296875 0.109375 -0.4375 0.359375q-0.125 0.25 -0.140625 0.71875l0.5 0zm1.65625 0l0 1.109375l-1.03125 0l0 -0.875q0 -0.71875 0.171875 -1.046875q0.234375 -0.421875 0.71875 -0.65625l0.234375 0.390625q-0.296875 0.109375 -0.4375 0.359375q-0.140625 0.25 -0.15625 0.71875l0.5 0zm1.2829895 6.546875l0 -7.875l1.046875 0l0 3.234375l4.09375 0l0 -3.234375l1.046875 0l0 7.875l-1.046875 0l0 -3.71875l-4.09375 0l0 3.71875l-1.046875 0zm7.5549774 -6.765625l0 -1.109375l0.96875 0l0 1.109375l-0.96875 0zm0 6.765625l0 -5.703125l0.96875 0l0 5.703125l-0.96875 0zm2.3518524 -6.75l0 -1.125l0.96875 0l0 1.125l-0.96875 0zm-1.21875 8.96875l0.171875 -0.828125q0.296875 0.078125 0.46875 0.078125q0.296875 0 0.4375 -0.203125q0.140625 -0.1875 0.140625 -0.96875l0 -6.0l0.96875 0l0 6.015625q0 1.046875 -0.28125 1.46875q-0.34375 0.53125 -1.15625 0.53125q-0.390625 0 -0.75 -0.09375zm7.3206024 -2.921875q-0.546875 0.453125 -1.046875 0.640625q-0.484375 0.1875 -1.0625 0.1875q-0.9375 0 -1.453125 -0.453125q-0.5 -0.46875 -0.5 -1.171875q0 -0.421875 0.1875 -0.765625q0.203125 -0.34375 0.5 -0.546875q0.3125 -0.21875 0.703125 -0.328125q0.28125 -0.078125 0.859375 -0.140625q1.171875 -0.140625 1.71875 -0.34375q0.015625 -0.1875 0.015625 -0.25q0 -0.59375 -0.28125 -0.828125q-0.359375 -0.328125 -1.09375 -0.328125q-0.6875 0 -1.015625 0.234375q-0.3125 0.234375 -0.46875 0.84375l-0.953125 -0.125q0.125 -0.609375 0.421875 -0.984375q0.296875 -0.375 0.859375 -0.5625q0.5625 -0.203125 1.296875 -0.203125q0.734375 0 1.1875 0.171875q0.453125 0.171875 0.65625 0.4375q0.21875 0.25 0.3125 0.640625q0.046875 0.25 0.046875 0.90625l0 1.28125q0 1.34375 0.0625 1.703125q0.0625 0.359375 0.25 0.6875l-1.015625 0q-0.15625 -0.296875 -0.1875 -0.703125zm-0.09375 -2.15625q-0.515625 0.21875 -1.578125 0.359375q-0.59375 0.09375 -0.84375 0.203125q-0.234375 0.09375 -0.375 0.3125q-0.140625 0.203125 -0.140625 0.453125q0 0.390625 0.296875 0.65625q0.296875 0.25 0.859375 0.25q0.5625 0 0.984375 -0.25q0.4375 -0.25 0.65625 -0.671875q0.140625 -0.328125 0.140625 -0.96875l0 -0.34375zm6.0358734 2.859375l0 -0.84375q-0.671875 0.96875 -1.8125 0.96875q-0.5 0 -0.953125 -0.1875q-0.4375 -0.203125 -0.65625 -0.484375q-0.203125 -0.296875 -0.28125 -0.71875q-0.0625 -0.28125 -0.0625 -0.90625l0 -3.53125l0.96875 0l0 3.15625q0 0.765625 0.0625 1.03125q0.09375 0.375 0.375 0.59375q0.296875 0.21875 0.734375 0.21875q0.4375 0 0.8125 -0.21875q0.390625 -0.234375 0.546875 -0.609375q0.15625 -0.390625 0.15625 -1.109375l0 -3.0625l0.96875 0l0 5.703125l-0.859375 0zm1.9265137 -6.828125l0 -1.125l1.03125 0l0 0.890625q0 0.71875 -0.15625 1.03125q-0.234375 0.4375 -0.71875 0.65625l-0.25 -0.390625q0.296875 -0.109375 0.4375 -0.359375q0.140625 -0.265625 0.15625 -0.703125l-0.5 0zm1.65625 0l0 -1.125l1.046875 0l0 0.890625q0 0.71875 -0.171875 1.03125q-0.234375 0.4375 -0.71875 0.65625l-0.234375 -0.390625q0.296875 -0.109375 0.4375 -0.359375q0.140625 -0.265625 0.15625 -0.703125l-0.515625 0z"
       fill-rule="nonzero"
       id="path55" />
    <path
       fill="#ffe599"
       d="m298.16272 149.90205l97.29135 0l0 24.913376l-97.29135 0z"
       fill-rule="evenodd"
       id="path57" />
    <path
       stroke="#000000"
       stroke-width="1.0"
       stroke-linejoin="round"
       stroke-linecap="butt"
       d="m298.16272 149.90205l97.29135 0l0 24.913376l-97.29135 0z"
       fill-rule="evenodd"
       id="path59" />
    <path
       fill="#000000"
       d="m328.1536 159.55186l0 1.109375l-1.03125 0l0 -0.875q0 -0.71875 0.171875 -1.046875q0.21875 -0.421875 0.703125 -0.65625l0.234375 0.390625q-0.296875 0.109375 -0.4375 0.359375q-0.125 0.25 -0.140625 0.71875l0.5 0zm1.65625 0l0 1.109375l-1.03125 0l0 -0.875q0 -0.71875 0.171875 -1.046875q0.234375 -0.421875 0.71875 -0.65625l0.234375 0.390625q-0.296875 0.109375 -0.4375 0.359375q-0.140625 0.25 -0.15625 0.71875l0.5 0zm1.2204895 6.546875l0 -7.875l1.03125 0l0 3.90625l3.921875 -3.90625l1.40625 0l-3.296875 3.1875l3.4375 4.6875l-1.375 0l-2.796875 -3.984375l-1.296875 1.25l0 2.734375l-1.03125 0zm10.7638855 0l0 -0.84375q-0.671875 0.96875 -1.8125 0.96875q-0.5 0 -0.953125 -0.1875q-0.4375 -0.203125 -0.65625 -0.484375q-0.203125 -0.296875 -0.28125 -0.71875q-0.0625 -0.28125 -0.0625 -0.90625l0 -3.53125l0.96875 0l0 3.15625q0 0.765625 0.0625 1.03125q0.09375 0.375 0.375 0.59375q0.296875 0.21875 0.734375 0.21875q0.4375 0 0.8125 -0.21875q0.390625 -0.234375 0.546875 -0.609375q0.15625 -0.390625 0.15625 -1.109375l0 -3.0625l0.96875 0l0 5.703125l-0.859375 0zm2.1765137 0l0 -5.703125l0.875 0l0 0.8125q0.625 -0.9375 1.8125 -0.9375q0.515625 0 0.953125 0.1875q0.4375 0.171875 0.640625 0.484375q0.21875 0.296875 0.3125 0.703125q0.046875 0.28125 0.046875 0.953125l0 3.5l-0.96875 0l0 -3.46875q0 -0.59375 -0.109375 -0.875q-0.109375 -0.296875 -0.40625 -0.46875q-0.28125 -0.1875 -0.671875 -0.1875q-0.609375 0 -1.0625 0.390625q-0.453125 0.390625 -0.453125 1.5l0 3.109375l-0.96875 0zm5.942108 -6.765625l0 -1.109375l0.96875 0l0 1.109375l-0.96875 0zm0 6.765625l0 -5.703125l0.96875 0l0 5.703125l-0.96875 0zm2.3518677 0l0 -5.703125l0.875 0l0 0.8125q0.625 -0.9375 1.8125 -0.9375q0.515625 0 0.953125 0.1875q0.4375 0.171875 0.640625 0.484375q0.21875 0.296875 0.3125 0.703125q0.046875 0.28125 0.046875 0.953125l0 3.5l-0.96875 0l0 -3.46875q0 -0.59375 -0.109375 -0.875q-0.109375 -0.296875 -0.40625 -0.46875q-0.28125 -0.1875 -0.671875 -0.1875q-0.609375 0 -1.0625 0.390625q-0.453125 0.390625 -0.453125 1.5l0 3.109375l-0.96875 0zm5.754608 0.46875l0.9375 0.140625q0.0625 0.4375 0.328125 0.640625q0.359375 0.265625 0.984375 0.265625q0.671875 0 1.03125 -0.265625q0.375 -0.265625 0.5 -0.75q0.078125 -0.296875 0.078125 -1.25q-0.640625 0.75 -1.59375 0.75q-1.171875 0 -1.8125 -0.84375q-0.640625 -0.859375 -0.640625 -2.046875q0 -0.8125 0.296875 -1.5q0.296875 -0.6875 0.84375 -1.0625q0.5625 -0.375 1.328125 -0.375q1.0 0 1.65625 0.8125l0 -0.6875l0.890625 0l0 4.921875q0 1.34375 -0.265625 1.890625q-0.265625 0.5625 -0.859375 0.875q-0.59375 0.328125 -1.453125 0.328125q-1.015625 0 -1.640625 -0.46875q-0.625 -0.453125 -0.609375 -1.375zm0.796875 -3.421875q0 1.125 0.4375 1.640625q0.453125 0.515625 1.125 0.515625q0.671875 0 1.125 -0.515625q0.453125 -0.515625 0.453125 -1.609375q0 -1.046875 -0.46875 -1.578125q-0.46875 -0.53125 -1.125 -0.53125q-0.640625 0 -1.09375 0.53125q-0.453125 0.515625 -0.453125 1.546875zm5.0515137 -3.875l0 -1.125l1.03125 0l0 0.890625q0 0.71875 -0.15625 1.03125q-0.234375 0.4375 -0.71875 0.65625l-0.25 -0.390625q0.296875 -0.109375 0.4375 -0.359375q0.140625 -0.265625 0.15625 -0.703125l-0.5 0zm1.65625 0l0 -1.125l1.046875 0l0 0.890625q0 0.71875 -0.171875 1.03125q-0.234375 0.4375 -0.71875 0.65625l-0.234375 -0.390625q0.296875 -0.109375 0.4375 -0.359375q0.140625 -0.265625 0.15625 -0.703125l-0.515625 0z"
       fill-rule="nonzero"
       id="path61" />
    <path
       fill="#000000"
       fill-opacity="0.0"
       d="m32.040684 153.09128l59.937008 0l0 18.519684l-59.937008 0z"
       fill-rule="evenodd"
       id="path63" />
    <path
       fill="#000000"
       d="m38.821934 168.33128l-1.75 -5.703125l1.0 0l0.90625 3.296875l0.34375 1.21875q0.015625 -0.09375 0.296875 -1.171875l0.90625 -3.34375l0.984375 0l0.859375 3.3125l0.28125 1.078125l0.328125 -1.09375l0.984375 -3.296875l0.9375 0l-1.78125 5.703125l-1.0 0l-0.921875 -3.421875l-0.21875 -0.96875l-1.15625 4.390625l-1.0 0zm10.367477 -0.703125q-0.546875 0.453125 -1.046875 0.640625q-0.484375 0.1875 -1.0625 0.1875q-0.9375 0 -1.453125 -0.453125q-0.5 -0.46875 -0.5 -1.171875q0 -0.421875 0.1875 -0.765625q0.203125 -0.34375 0.5 -0.546875q0.3125 -0.21875 0.703125 -0.328125q0.28125 -0.078125 0.859375 -0.140625q1.171875 -0.140625 1.71875 -0.34375q0.015625 -0.1875 0.015625 -0.25q0 -0.59375 -0.28125 -0.828125q-0.359375 -0.328125 -1.09375 -0.328125q-0.6875 0 -1.015625 0.234375q-0.3125 0.234375 -0.46875 0.84375l-0.953125 -0.125q0.125 -0.609375 0.421875 -0.984375q0.296875 -0.375 0.859375 -0.5625q0.5625 -0.203125 1.296875 -0.203125q0.734375 0 1.1875 0.171875q0.453125 0.171875 0.65625 0.4375q0.21875 0.25 0.3125 0.640625q0.046875 0.25 0.046875 0.90625l0 1.28125q0 1.34375 0.0625 1.703125q0.0625 0.359375 0.25 0.6875l-1.015625 0q-0.15625 -0.296875 -0.1875 -0.703125zm-0.09375 -2.15625q-0.515625 0.21875 -1.578125 0.359375q-0.59375 0.09375 -0.84375 0.203125q-0.234375 0.09375 -0.375 0.3125q-0.140625 0.203125 -0.140625 0.453125q0 0.390625 0.296875 0.65625q0.296875 0.25 0.859375 0.25q0.5625 0 0.984375 -0.25q0.4375 -0.25 0.65625 -0.671875q0.140625 -0.328125 0.140625 -0.96875l0 -0.34375zm2.2858734 2.859375l0 -5.703125l0.859375 0l0 0.859375q0.34375 -0.609375 0.625 -0.796875q0.28125 -0.1875 0.609375 -0.1875q0.5 0 1.0 0.3125l-0.328125 0.890625q-0.359375 -0.203125 -0.71875 -0.203125q-0.3125 0 -0.5625 0.1875q-0.25 0.1875 -0.359375 0.53125q-0.15625 0.515625 -0.15625 1.125l0 2.984375l-0.96875 0zm3.5486145 0l0 -5.703125l0.875 0l0 0.8125q0.625 -0.9375 1.8125 -0.9375q0.515625 0 0.953125 0.1875q0.4375 0.171875 0.640625 0.484375q0.21875 0.296875 0.3125 0.703125q0.046875 0.28125 0.046875 0.953125l0 3.5l-0.96875 0l0 -3.46875q0 -0.59375 -0.109375 -0.875q-0.109375 -0.296875 -0.40625 -0.46875q-0.28125 -0.1875 -0.671875 -0.1875q-0.609375 0 -1.0625 0.390625q-0.453125 0.390625 -0.453125 1.5l0 3.109375l-0.96875 0zm9.66087 -0.703125q-0.546875 0.453125 -1.0468712 0.640625q-0.484375 0.1875 -1.0625 0.1875q-0.9375 0 -1.453125 -0.453125q-0.5 -0.46875 -0.5 -1.171875q0 -0.421875 0.1875 -0.765625q0.203125 -0.34375 0.5 -0.546875q0.3125 -0.21875 0.703125 -0.328125q0.28125 -0.078125 0.859375 -0.140625q1.171875 -0.140625 1.7187462 -0.34375q0.015625 -0.1875 0.015625 -0.25q0 -0.59375 -0.28125 -0.828125q-0.3593712 -0.328125 -1.0937462 -0.328125q-0.6875 0 -1.015625 0.234375q-0.3125 0.234375 -0.46875 0.84375l-0.953125 -0.125q0.125 -0.609375 0.421875 -0.984375q0.296875 -0.375 0.859375 -0.5625q0.5625 -0.203125 1.296875 -0.203125q0.7343712 0 1.1874962 0.171875q0.453125 0.171875 0.65625 0.4375q0.21875 0.25 0.3125 0.640625q0.046875 0.25 0.046875 0.90625l0 1.28125q0 1.34375 0.0625 1.703125q0.0625 0.359375 0.25 0.6875l-1.015625 0q-0.15625 -0.296875 -0.1875 -0.703125zm-0.09375 -2.15625q-0.5156212 0.21875 -1.5781212 0.359375q-0.59375 0.09375 -0.84375 0.203125q-0.234375 0.09375 -0.375 0.3125q-0.140625 0.203125 -0.140625 0.453125q0 0.390625 0.296875 0.65625q0.296875 0.25 0.859375 0.25q0.5625 0 0.984375 -0.25q0.4374962 -0.25 0.6562462 -0.671875q0.140625 -0.328125 0.140625 -0.96875l0 -0.34375zm10.340271 -1.765625l-5.203125 0l0 -0.90625l5.203125 0l0 0.90625zm0 2.390625l-5.203125 0l0 -0.90625l5.203125 0l0 0.90625z"
       fill-rule="nonzero"
       id="path65" />
    <path
       fill="#000000"
       fill-opacity="0.0"
       d="m140.91864 178.86325l19.685028 0l0 18.519684l-19.685028 0z"
       fill-rule="evenodd"
       id="path67" />
    <path
       fill="#000000"
       d="m146.37177 190.21262q0 -1.390625 0.28125 -2.234375q0.296875 -0.859375 0.859375 -1.3125q0.578125 -0.46875 1.4375 -0.46875q0.625 0 1.09375 0.265625q0.484375 0.25 0.796875 0.734375q0.3125 0.46875 0.484375 1.171875q0.1875 0.6875 0.1875 1.84375q0 1.390625 -0.296875 2.25q-0.28125 0.84375 -0.84375 1.3125q-0.5625 0.46875 -1.421875 0.46875q-1.140625 0 -1.796875 -0.828125q-0.78125 -0.984375 -0.78125 -3.203125zm1.0 0q0 1.953125 0.453125 2.59375q0.453125 0.640625 1.125 0.640625q0.65625 0 1.109375 -0.640625q0.453125 -0.65625 0.453125 -2.59375q0 -1.9375 -0.453125 -2.578125q-0.453125 -0.640625 -1.125 -0.640625q-0.671875 0 -1.0625 0.5625q-0.5 0.71875 -0.5 2.65625z"
       fill-rule="nonzero"
       id="path69" />
    <path
       fill="#000000"
       fill-opacity="0.0"
       d="m239.66864 178.86325l19.685028 0l0 18.519684l-19.685028 0z"
       fill-rule="evenodd"
       id="path71" />
    <path
       fill="#000000"
       d="m248.76239 194.10324l-0.96875 0l0 -6.15625q-0.34375 0.328125 -0.90625 0.671875q-0.5625 0.328125 -1.015625 0.484375l0 -0.9375q0.8125 -0.375 1.40625 -0.90625q0.609375 -0.546875 0.859375 -1.0625l0.625 0l0 7.90625z"
       fill-rule="nonzero"
       id="path73" />
    <path
       fill="#000000"
       fill-opacity="0.0"
       d="m338.41864 178.86325l19.685028 0l0 18.519684l-19.685028 0z"
       fill-rule="evenodd"
       id="path75" />
    <path
       fill="#000000"
       d="m348.9499 193.18137l0 0.921875l-5.203125 0q0 -0.34375 0.125 -0.671875q0.1875 -0.53125 0.625 -1.046875q0.4375 -0.515625 1.265625 -1.1875q1.28125 -1.0625 1.734375 -1.671875q0.453125 -0.609375 0.453125 -1.15625q0 -0.578125 -0.40625 -0.96875q-0.40625 -0.40625 -1.078125 -0.40625q-0.6875 0 -1.109375 0.421875q-0.421875 0.421875 -0.421875 1.15625l-1.0 -0.09375q0.109375 -1.109375 0.765625 -1.6875q0.671875 -0.59375 1.796875 -0.59375q1.125 0 1.78125 0.625q0.671875 0.625 0.671875 1.5625q0 0.46875 -0.203125 0.9375q-0.1875 0.453125 -0.640625 0.953125q-0.4375 0.5 -1.484375 1.390625q-0.875 0.71875 -1.125 0.984375q-0.234375 0.265625 -0.40625 0.53125l3.859375 0z"
       fill-rule="nonzero"
       id="path77" />
    <path
       fill="#000000"
       fill-opacity="0.0"
       d="m186.58267 201.43045l125.85828 0l0 31.905502l-125.85828 0z"
       fill-rule="evenodd"
       id="path79" />
    <path
       fill="#d9d9d9"
       d="m202.56705 214.48419l-1.28125 4.90625l-0.765625 0l-1.25 -3.78125l-1.25 3.78125l-0.765625 0l-1.296875 -4.90625l0.859375 0l0.90625 3.796875l1.21875 -3.796875l0.6875 0l1.25 3.796875l0.859375 -3.796875l0.828125 0zm7.6337585 0l-1.28125 4.90625l-0.765625 0l-1.25 -3.78125l-1.25 3.78125l-0.765625 0l-1.296875 -4.90625l0.859375 0l0.90625 3.796875l1.21875 -3.796875l0.6875 0l1.25 3.796875l0.859375 -3.796875l0.828125 0zm7.6337585 0l-1.28125 4.90625l-0.765625 0l-1.25 -3.78125l-1.25 3.78125l-0.765625 0l-1.296875 -4.90625l0.859375 0l0.90625 3.796875l1.21875 -3.796875l0.6875 0l1.25 3.796875l0.859375 -3.796875l0.828125 0zm2.8056335 4.90625l-1.046875 0l0 -1.25l1.046875 0l0 1.25zm6.3776703 -2.515625q0 0.59375 -0.171875 1.09375q-0.171875 0.5 -0.484375 0.84375q-0.296875 0.3125 -0.6875 0.5q-0.390625 0.171875 -0.828125 0.171875q-0.390625 0 -0.703125 -0.09375q-0.3125 -0.078125 -0.625 -0.25l0 2.0625l-0.828125 0l0 -6.71875l0.828125 0l0 0.515625q0.328125 -0.28125 0.734375 -0.46875q0.421875 -0.1875 0.875 -0.1875q0.890625 0 1.390625 0.671875q0.5 0.671875 0.5 1.859375zm-0.859375 0.03125q0 -0.890625 -0.3125 -1.328125q-0.296875 -0.453125 -0.921875 -0.453125q-0.359375 0 -0.71875 0.15625q-0.359375 0.15625 -0.6875 0.40625l0 2.78125q0.34375 0.15625 0.59375 0.21875q0.265625 0.0625 0.578125 0.0625q0.6875 0 1.078125 -0.46875q0.390625 -0.46875 0.390625 -1.375zm6.452484 0.109375l-3.609375 0q0 0.453125 0.125 0.796875q0.140625 0.328125 0.375 0.546875q0.234375 0.21875 0.546875 0.328125q0.3125 0.09375 0.6875 0.09375q0.5 0 1.0 -0.1875q0.515625 -0.203125 0.734375 -0.40625l0.046875 0l0 0.90625q-0.421875 0.171875 -0.859375 0.296875q-0.4375 0.109375 -0.90625 0.109375q-1.21875 0 -1.90625 -0.65625q-0.6875 -0.65625 -0.6875 -1.875q0 -1.203125 0.65625 -1.90625q0.65625 -0.71875 1.734375 -0.71875q0.984375 0 1.515625 0.578125q0.546875 0.578125 0.546875 1.65625l0 0.4375zm-0.796875 -0.625q-0.015625 -0.65625 -0.34375 -1.0q-0.3125 -0.359375 -0.96875 -0.359375q-0.671875 0 -1.0625 0.390625q-0.390625 0.390625 -0.4375 0.96875l2.8125 0zm4.791168 2.953125q-0.234375 0.0625 -0.515625 0.09375q-0.265625 0.046875 -0.484375 0.046875q-0.75 0 -1.140625 -0.40625q-0.390625 -0.40625 -0.390625 -1.296875l0 -2.609375l-0.5625 0l0 -0.6875l0.5625 0l0 -1.40625l0.828125 0l0 1.40625l1.703125 0l0 0.6875l-1.703125 0l0 2.234375q0 0.390625 0.015625 0.609375q0.015625 0.21875 0.125 0.40625q0.09375 0.171875 0.265625 0.265625q0.171875 0.078125 0.515625 0.078125q0.203125 0 0.421875 -0.0625q0.21875 -0.0625 0.3125 -0.09375l0.046875 0l0 0.734375zm4.9413147 0.046875l-0.8125 0l0 -0.515625q-0.109375 0.0625 -0.296875 0.203125q-0.1875 0.125 -0.375 0.21875q-0.203125 0.09375 -0.46875 0.15625q-0.265625 0.078125 -0.625 0.078125q-0.671875 0 -1.140625 -0.4375q-0.453125 -0.453125 -0.453125 -1.125q0 -0.5625 0.234375 -0.90625q0.25 -0.34375 0.6875 -0.546875q0.453125 -0.1875 1.078125 -0.25q0.625 -0.078125 1.359375 -0.125l0 -0.125q0 -0.28125 -0.109375 -0.453125q-0.09375 -0.1875 -0.28125 -0.296875q-0.171875 -0.109375 -0.421875 -0.140625q-0.25 -0.03125 -0.515625 -0.03125q-0.328125 0 -0.734375 0.09375q-0.390625 0.078125 -0.8125 0.234375l-0.046875 0l0 -0.828125q0.25 -0.078125 0.703125 -0.15625q0.453125 -0.078125 0.890625 -0.078125q0.53125 0 0.90625 0.09375q0.390625 0.078125 0.671875 0.28125q0.28125 0.203125 0.421875 0.53125q0.140625 0.3125 0.140625 0.796875l0 3.328125zm-0.8125 -1.203125l0 -1.375q-0.390625 0.03125 -0.90625 0.078125q-0.5 0.03125 -0.796875 0.125q-0.359375 0.09375 -0.578125 0.3125q-0.21875 0.203125 -0.21875 0.578125q0 0.421875 0.25 0.640625q0.25 0.203125 0.78125 0.203125q0.4375 0 0.796875 -0.15625q0.359375 -0.171875 0.671875 -0.40625zm6.7117157 1.203125l-0.828125 0l0 -2.796875q0 -0.34375 -0.046875 -0.640625q-0.03125 -0.296875 -0.140625 -0.453125q-0.109375 -0.1875 -0.3125 -0.28125q-0.203125 -0.09375 -0.546875 -0.09375q-0.328125 0 -0.703125 0.171875q-0.359375 0.171875 -0.703125 0.421875l0 3.671875l-0.828125 0l0 -4.90625l0.828125 0l0 0.546875q0.390625 -0.328125 0.796875 -0.5q0.421875 -0.1875 0.84375 -0.1875q0.796875 0 1.21875 0.484375q0.421875 0.46875 0.421875 1.375l0 3.1875zm2.684204 -5.734375l-0.9375 0l0 -0.859375l0.9375 0l0 0.859375zm-0.0625 5.734375l-0.8125 0l0 -4.90625l0.8125 0l0 4.90625zm6.184784 0l-1.0937653 0l-1.96875 -2.15625l-0.53125 0.515625l0 1.640625l-0.828125 0l0 -6.84375l0.828125 0l0 4.390625l2.390625 -2.453125l1.0468903 0l-2.2812653 2.265625l2.4375153 2.640625zm5.25473 -2.453125q0 1.203125 -0.625 1.90625q-0.609375 0.6875 -1.640625 0.6875q-1.046875 0 -1.65625 -0.6875q-0.609375 -0.703125 -0.609375 -1.90625q0 -1.203125 0.609375 -1.890625q0.609375 -0.703125 1.65625 -0.703125q1.03125 0 1.640625 0.703125q0.625 0.6875 0.625 1.890625zm-0.859375 0q0 -0.953125 -0.375 -1.40625q-0.375 -0.46875 -1.03125 -0.46875q-0.671875 0 -1.046875 0.46875q-0.375 0.453125 -0.375 1.40625q0 0.921875 0.375 1.40625q0.375 0.46875 1.046875 0.46875q0.65625 0 1.03125 -0.46875q0.375 -0.46875 0.375 -1.40625zm6.31781 2.453125l-0.828125 0l0 -0.515625q-0.359375 0.3125 -0.75 0.484375q-0.375 0.171875 -0.828125 0.171875q-0.890625 0 -1.40625 -0.671875q-0.515625 -0.6875 -0.515625 -1.890625q0 -0.625 0.171875 -1.109375q0.1875 -0.484375 0.5 -0.828125q0.296875 -0.328125 0.6875 -0.5q0.40625 -0.1875 0.828125 -0.1875q0.390625 0 0.6875 0.09375q0.296875 0.078125 0.625 0.234375l0 -2.125l0.828125 0l0 6.84375zm-0.828125 -1.203125l0 -2.828125q-0.328125 -0.140625 -0.59375 -0.203125q-0.265625 -0.0625 -0.578125 -0.0625q-0.703125 0 -1.09375 0.484375q-0.375 0.484375 -0.375 1.375q0 0.875 0.296875 1.328125q0.296875 0.453125 0.953125 0.453125q0.359375 0 0.71875 -0.15625q0.359375 -0.15625 0.671875 -0.390625zm6.764984 -1.171875l-3.609375 0q0 0.453125 0.125 0.796875q0.140625 0.328125 0.375 0.546875q0.234375 0.21875 0.546875 0.328125q0.3125 0.09375 0.6875 0.09375q0.5 0 1.0 -0.1875q0.515625 -0.203125 0.734375 -0.40625l0.046875 0l0 0.90625q-0.421875 0.171875 -0.859375 0.296875q-0.4375 0.109375 -0.90625 0.109375q-1.21875 0 -1.90625 -0.65625q-0.6875 -0.65625 -0.6875 -1.875q0 -1.203125 0.65625 -1.90625q0.65625 -0.71875 1.734375 -0.71875q0.984375 0 1.515625 0.578125q0.546875 0.578125 0.546875 1.65625l0 0.4375zm-0.796875 -0.625q-0.015625 -0.65625 -0.34375 -1.0q-0.3125 -0.359375 -0.96875 -0.359375q-0.671875 0 -1.0625 0.390625q-0.390625 0.390625 -0.4375 0.96875l2.8125 0zm3.5880432 3.0l-1.046875 0l0 -1.25l1.046875 0l0 1.25zm5.67453 -0.3125q-0.40625 0.203125 -0.78125 0.3125q-0.375 0.109375 -0.78125 0.109375q-0.53125 0 -0.984375 -0.15625q-0.4375 -0.15625 -0.75 -0.46875q-0.328125 -0.3125 -0.5 -0.796875q-0.171875 -0.484375 -0.171875 -1.140625q0 -1.203125 0.65625 -1.875q0.65625 -0.6875 1.75 -0.6875q0.421875 0 0.828125 0.125q0.40625 0.109375 0.734375 0.28125l0 0.90625l-0.03125 0q-0.390625 -0.28125 -0.796875 -0.4375q-0.390625 -0.171875 -0.78125 -0.171875q-0.703125 0 -1.109375 0.484375q-0.40625 0.46875 -0.40625 1.375q0 0.890625 0.390625 1.375q0.40625 0.46875 1.125 0.46875q0.25 0 0.515625 -0.0625q0.265625 -0.0625 0.46875 -0.171875q0.171875 -0.09375 0.328125 -0.1875q0.171875 -0.109375 0.265625 -0.1875l0.03125 0l0 0.90625zm5.4224243 -2.140625q0 1.203125 -0.625 1.90625q-0.609375 0.6875 -1.640625 0.6875q-1.046875 0 -1.65625 -0.6875q-0.609375 -0.703125 -0.609375 -1.90625q0 -1.203125 0.609375 -1.890625q0.609375 -0.703125 1.65625 -0.703125q1.03125 0 1.640625 0.703125q0.625 0.6875 0.625 1.890625zm-0.859375 0q0 -0.953125 -0.375 -1.40625q-0.375 -0.46875 -1.03125 -0.46875q-0.671875 0 -1.046875 0.46875q-0.375 0.453125 -0.375 1.40625q0 0.921875 0.375 1.40625q0.375 0.46875 1.046875 0.46875q0.65625 0 1.03125 -0.46875q0.375 -0.46875 0.375 -1.40625zm9.489685 2.453125l-0.8125 0l0 -2.796875q0 -0.3125 -0.03125 -0.609375q-0.03125 -0.296875 -0.125 -0.46875q-0.09375 -0.1875 -0.296875 -0.28125q-0.1875 -0.109375 -0.53125 -0.109375q-0.359375 0 -0.703125 0.1875q-0.34375 0.171875 -0.6875 0.4375q0.015625 0.09375 0.015625 0.234375q0.015625 0.125 0.015625 0.265625l0 3.140625l-0.828125 0l0 -2.796875q0 -0.328125 -0.03125 -0.609375q-0.03125 -0.296875 -0.125 -0.46875q-0.09375 -0.1875 -0.28125 -0.28125q-0.1875 -0.109375 -0.546875 -0.109375q-0.34375 0 -0.6875 0.171875q-0.328125 0.171875 -0.671875 0.421875l0 3.671875l-0.828125 0l0 -4.90625l0.828125 0l0 0.546875q0.390625 -0.328125 0.765625 -0.5q0.390625 -0.1875 0.828125 -0.1875q0.5 0 0.84375 0.21875q0.359375 0.203125 0.515625 0.578125q0.515625 -0.421875 0.921875 -0.609375q0.40625 -0.1875 0.890625 -0.1875q0.796875 0 1.171875 0.5q0.390625 0.484375 0.390625 1.359375l0 3.1875z"
       fill-rule="nonzero"
       id="path81" />
    <text
       xml:space="preserve"
       style="font-style:normal;font-weight:normal;font-size:16.87901306px;line-height:125%;font-family:sans-serif;letter-spacing:0px;word-spacing:0px;fill:#00b8d4;fill-opacity:1;stroke:none;stroke-width:1px;stroke-linecap:butt;stroke-linejoin:miter;stroke-opacity:1"
       x="289.94727"
       y="70.632576"
       id="text4215"
       sodipodi:linespacing="125%"><tspan
         sodipodi:role="line"
         id="tspan4217"
         x="289.94727"
         y="70.632576">1</tspan></text>
  </g>
</svg>
