<?xml version="1.0" standalone="yes"?>

<svg version="1.1" viewBox="0.0 0.0 484.0 246.0" fill="none" stroke="none" stroke-linecap="square" stroke-miterlimit="10" xmlns="http://www.w3.org/2000/svg" xmlns:xlink="http://www.w3.org/1999/xlink"><clipPath id="p.0"><path d="m0 0l484.0 0l0 246.0l-484.0 0l0 -246.0z" clip-rule="nonzero"></path></clipPath><g clip-path="url(#p.0)"><path fill="#000000" fill-opacity="0.0" d="m0 0l484.0 0l0 246.0l-484.0 0z" fill-rule="evenodd"></path><path fill="#000000" fill-opacity="0.0" d="m348.04987 211.66667l125.85828 0l0 31.905502l-125.85828 0z" fill-rule="evenodd"></path><path fill="#d9d9d9" d="m364.03424 224.72041l-1.28125 4.90625l-0.765625 0l-1.25 -3.78125l-1.25 3.78125l-0.765625 0l-1.296875 -4.90625l0.859375 0l0.90625 3.796875l1.21875 -3.796875l0.6875 0l1.25 3.796875l0.859375 -3.796875l0.828125 0zm7.6337585 0l-1.28125 4.90625l-0.765625 0l-1.25 -3.78125l-1.25 3.78125l-0.765625 0l-1.296875 -4.90625l0.859375 0l0.90625 3.796875l1.21875 -3.796875l0.6875 0l1.25 3.796875l0.859375 -3.796875l0.828125 0zm7.6337585 0l-1.28125 4.90625l-0.765625 0l-1.25 -3.78125l-1.25 3.78125l-0.765625 0l-1.296875 -4.90625l0.859375 0l0.90625 3.796875l1.21875 -3.796875l0.6875 0l1.25 3.796875l0.859375 -3.796875l0.828125 0zm2.8056335 4.90625l-1.046875 0l0 -1.25l1.046875 0l0 1.25zm6.3776855 -2.515625q0 0.59375 -0.171875 1.09375q-0.171875 0.5 -0.484375 0.84375q-0.296875 0.3125 -0.6875 0.5q-0.390625 0.171875 -0.828125 0.171875q-0.390625 0 -0.703125 -0.09375q-0.3125 -0.078125 -0.625 -0.25l0 2.0625l-0.828125 0l0 -6.71875l0.828125 0l0 0.515625q0.328125 -0.28125 0.734375 -0.46875q0.421875 -0.1875 0.875 -0.1875q0.890625 0 1.390625 0.671875q0.5 0.671875 0.5 1.859375zm-0.859375 0.03125q0 -0.890625 -0.3125 -1.328125q-0.296875 -0.453125 -0.921875 -0.453125q-0.359375 0 -0.71875 0.15625q-0.359375 0.15625 -0.6875 0.40625l0 2.78125q0.34375 0.15625 0.59375 0.21875q0.265625 0.0625 0.578125 0.0625q0.6875 0 1.078125 -0.46875q0.390625 -0.46875 0.390625 -1.375zm6.452484 0.109375l-3.609375 0q0 0.453125 0.125 0.796875q0.140625 0.328125 0.375 0.546875q0.234375 0.21875 0.546875 0.328125q0.3125 0.09375 0.6875 0.09375q0.5 0 1.0 -0.1875q0.515625 -0.203125 0.734375 -0.40625l0.046875 0l0 0.90625q-0.421875 0.171875 -0.859375 0.296875q-0.4375 0.109375 -0.90625 0.109375q-1.21875 0 -1.90625 -0.65625q-0.6875 -0.65625 -0.6875 -1.875q0 -1.203125 0.65625 -1.90625q0.65625 -0.71875 1.734375 -0.71875q0.984375 0 1.515625 0.578125q0.546875 0.578125 0.546875 1.65625l0 0.4375zm-0.796875 -0.625q-0.015625 -0.65625 -0.34375 -1.0q-0.3125 -0.359375 -0.96875 -0.359375q-0.671875 0 -1.0625 0.390625q-0.390625 0.390625 -0.4375 0.96875l2.8125 0zm4.791168 2.953125q-0.234375 0.0625 -0.515625 0.09375q-0.265625 0.046875 -0.484375 0.046875q-0.75 0 -1.140625 -0.40625q-0.390625 -0.40625 -0.390625 -1.296875l0 -2.609375l-0.5625 0l0 -0.6875l0.5625 0l0 -1.40625l0.828125 0l0 1.40625l1.703125 0l0 0.6875l-1.703125 0l0 2.234375q0 0.390625 0.015625 0.609375q0.015625 0.21875 0.125 0.40625q0.09375 0.171875 0.265625 0.265625q0.171875 0.078125 0.515625 0.078125q0.203125 0 0.421875 -0.0625q0.21875 -0.0625 0.3125 -0.09375l0.046875 0l0 0.734375zm4.9413147 0.046875l-0.8125 0l0 -0.515625q-0.109375 0.0625 -0.296875 0.203125q-0.1875 0.125 -0.375 0.21875q-0.203125 0.09375 -0.46875 0.15625q-0.265625 0.078125 -0.625 0.078125q-0.671875 0 -1.140625 -0.4375q-0.453125 -0.453125 -0.453125 -1.125q0 -0.5625 0.234375 -0.90625q0.25 -0.34375 0.6875 -0.546875q0.453125 -0.1875 1.078125 -0.25q0.625 -0.078125 1.359375 -0.125l0 -0.125q0 -0.28125 -0.109375 -0.453125q-0.09375 -0.1875 -0.28125 -0.296875q-0.171875 -0.109375 -0.421875 -0.140625q-0.25 -0.03125 -0.515625 -0.03125q-0.328125 0 -0.734375 0.09375q-0.390625 0.078125 -0.8125 0.234375l-0.046875 0l0 -0.828125q0.25 -0.078125 0.703125 -0.15625q0.453125 -0.078125 0.890625 -0.078125q0.53125 0 0.90625 0.09375q0.390625 0.078125 0.671875 0.28125q0.28125 0.203125 0.421875 0.53125q0.140625 0.3125 0.140625 0.796875l0 3.328125zm-0.8125 -1.203125l0 -1.375q-0.390625 0.03125 -0.90625 0.078125q-0.5 0.03125 -0.796875 0.125q-0.359375 0.09375 -0.578125 0.3125q-0.21875 0.203125 -0.21875 0.578125q0 0.421875 0.25 0.640625q0.25 0.203125 0.78125 0.203125q0.4375 0 0.796875 -0.15625q0.359375 -0.171875 0.671875 -0.40625zm6.7117004 1.203125l-0.828125 0l0 -2.796875q0 -0.34375 -0.046875 -0.640625q-0.03125 -0.296875 -0.140625 -0.453125q-0.109375 -0.1875 -0.3125 -0.28125q-0.203125 -0.09375 -0.546875 -0.09375q-0.328125 0 -0.703125 0.171875q-0.359375 0.171875 -0.703125 0.421875l0 3.671875l-0.828125 0l0 -4.90625l0.828125 0l0 0.546875q0.390625 -0.328125 0.796875 -0.5q0.421875 -0.1875 0.84375 -0.1875q0.796875 0 1.21875 0.484375q0.421875 0.46875 0.421875 1.375l0 3.1875zm2.684204 -5.734375l-0.9375 0l0 -0.859375l0.9375 0l0 0.859375zm-0.0625 5.734375l-0.8125 0l0 -4.90625l0.8125 0l0 4.90625zm6.184784 0l-1.09375 0l-1.96875 -2.15625l-0.53125 0.515625l0 1.640625l-0.828125 0l0 -6.84375l0.828125 0l0 4.390625l2.390625 -2.453125l1.046875 0l-2.28125 2.265625l2.4375 2.640625zm5.25473 -2.453125q0 1.203125 -0.625 1.90625q-0.609375 0.6875 -1.640625 0.6875q-1.046875 0 -1.65625 -0.6875q-0.609375 -0.703125 -0.609375 -1.90625q0 -1.203125 0.609375 -1.890625q0.609375 -0.703125 1.65625 -0.703125q1.03125 0 1.640625 0.703125q0.625 0.6875 0.625 1.890625zm-0.859375 0q0 -0.953125 -0.375 -1.40625q-0.375 -0.46875 -1.03125 -0.46875q-0.671875 0 -1.046875 0.46875q-0.375 0.453125 -0.375 1.40625q0 0.921875 0.375 1.40625q0.375 0.46875 1.046875 0.46875q0.65625 0 1.03125 -0.46875q0.375 -0.46875 0.375 -1.40625zm6.31781 2.453125l-0.828125 0l0 -0.515625q-0.359375 0.3125 -0.75 0.484375q-0.375 0.171875 -0.828125 0.171875q-0.890625 0 -1.40625 -0.671875q-0.515625 -0.6875 -0.515625 -1.890625q0 -0.625 0.171875 -1.109375q0.1875 -0.484375 0.5 -0.828125q0.296875 -0.328125 0.6875 -0.5q0.40625 -0.1875 0.828125 -0.1875q0.390625 0 0.6875 0.09375q0.296875 0.078125 0.625 0.234375l0 -2.125l0.828125 0l0 6.84375zm-0.828125 -1.203125l0 -2.828125q-0.328125 -0.140625 -0.59375 -0.203125q-0.265625 -0.0625 -0.578125 -0.0625q-0.703125 0 -1.09375 0.484375q-0.375 0.484375 -0.375 1.375q0 0.875 0.296875 1.328125q0.296875 0.453125 0.953125 0.453125q0.359375 0 0.71875 -0.15625q0.359375 -0.15625 0.671875 -0.390625zm6.764984 -1.171875l-3.609375 0q0 0.453125 0.125 0.796875q0.140625 0.328125 0.375 0.546875q0.234375 0.21875 0.546875 0.328125q0.3125 0.09375 0.6875 0.09375q0.5 0 1.0 -0.1875q0.515625 -0.203125 0.734375 -0.40625l0.046875 0l0 0.90625q-0.421875 0.171875 -0.859375 0.296875q-0.4375 0.109375 -0.90625 0.109375q-1.21875 0 -1.90625 -0.65625q-0.6875 -0.65625 -0.6875 -1.875q0 -1.203125 0.65625 -1.90625q0.65625 -0.71875 1.734375 -0.71875q0.984375 0 1.515625 0.578125q0.546875 0.578125 0.546875 1.65625l0 0.4375zm-0.796875 -0.625q-0.015625 -0.65625 -0.34375 -1.0q-0.3125 -0.359375 -0.96875 -0.359375q-0.671875 0 -1.0625 0.390625q-0.390625 0.390625 -0.4375 0.96875l2.8125 0zm3.5880432 3.0l-1.046875 0l0 -1.25l1.046875 0l0 1.25zm5.67453 -0.3125q-0.40625 0.203125 -0.78125 0.3125q-0.375 0.109375 -0.78125 0.109375q-0.53125 0 -0.984375 -0.15625q-0.4375 -0.15625 -0.75 -0.46875q-0.328125 -0.3125 -0.5 -0.796875q-0.171875 -0.484375 -0.171875 -1.140625q0 -1.203125 0.65625 -1.875q0.65625 -0.6875 1.75 -0.6875q0.421875 0 0.828125 0.125q0.40625 0.109375 0.734375 0.28125l0 0.90625l-0.03125 0q-0.390625 -0.28125 -0.796875 -0.4375q-0.390625 -0.171875 -0.78125 -0.171875q-0.703125 0 -1.109375 0.484375q-0.40625 0.46875 -0.40625 1.375q0 0.890625 0.390625 1.375q0.40625 0.46875 1.125 0.46875q0.25 0 0.515625 -0.0625q0.265625 -0.0625 0.46875 -0.171875q0.171875 -0.09375 0.328125 -0.1875q0.171875 -0.109375 0.265625 -0.1875l0.03125 0l0 0.90625zm5.4224243 -2.140625q0 1.203125 -0.625 1.90625q-0.609375 0.6875 -1.640625 0.6875q-1.046875 0 -1.65625 -0.6875q-0.609375 -0.703125 -0.609375 -1.90625q0 -1.203125 0.609375 -1.890625q0.609375 -0.703125 1.65625 -0.703125q1.03125 0 1.640625 0.703125q0.625 0.6875 0.625 1.890625zm-0.859375 0q0 -0.953125 -0.375 -1.40625q-0.375 -0.46875 -1.03125 -0.46875q-0.671875 0 -1.046875 0.46875q-0.375 0.453125 -0.375 1.40625q0 0.921875 0.375 1.40625q0.375 0.46875 1.046875 0.46875q0.65625 0 1.03125 -0.46875q0.375 -0.46875 0.375 -1.40625zm9.489685 2.453125l-0.8125 0l0 -2.796875q0 -0.3125 -0.03125 -0.609375q-0.03125 -0.296875 -0.125 -0.46875q-0.09375 -0.1875 -0.296875 -0.28125q-0.1875 -0.109375 -0.53125 -0.109375q-0.359375 0 -0.703125 0.1875q-0.34375 0.171875 -0.6875 0.4375q0.015625 0.09375 0.015625 0.234375q0.015625 0.125 0.015625 0.265625l0 3.140625l-0.828125 0l0 -2.796875q0 -0.328125 -0.03125 -0.609375q-0.03125 -0.296875 -0.125 -0.46875q-0.09375 -0.1875 -0.28125 -0.28125q-0.1875 -0.109375 -0.546875 -0.109375q-0.34375 0 -0.6875 0.171875q-0.328125 0.171875 -0.671875 0.421875l0 3.671875l-0.828125 0l0 -4.90625l0.828125 0l0 0.546875q0.390625 -0.328125 0.765625 -0.5q0.390625 -0.1875 0.828125 -0.1875q0.5 0 0.84375 0.21875q0.359375 0.203125 0.515625 0.578125q0.515625 -0.421875 0.921875 -0.609375q0.40625 -0.1875 0.890625 -0.1875q0.796875 0 1.171875 0.5q0.390625 0.484375 0.390625 1.359375l0 3.1875z" fill-rule="nonzero"></path><path shape-rendering="crispEdges" fill="#fff2cc" d="m137.9895 28.440945l47.33333 0l0 41.19685l-47.33333 0l0 -41.19685z" fill-rule="nonzero"></path><path shape-rendering="crispEdges" fill="#fff2cc" d="m185.32283 28.440945l47.333344 0l0 41.19685l-47.333344 0l0 -41.19685z" fill-rule="nonzero"></path><path shape-rendering="crispEdges" fill="#fff2cc" d="m232.65617 28.440945l47.33333 0l0 41.19685l-47.33333 0l0 -41.19685z" fill-rule="nonzero"></path><path shape-rendering="crispEdges" fill="#fff2cc" d="m279.9895 28.440945l47.333344 0l0 41.19685l-47.333344 0l0 -41.19685z" fill-rule="nonzero"></path><path shape-rendering="crispEdges" fill="#fff2cc" d="m327.32285 28.440945l47.333313 0l0 41.19685l-47.333313 0l0 -41.19685z" fill-rule="nonzero"></path><path shape-rendering="crispEdges" fill="#fff2cc" d="m374.65616 28.440945l47.333344 0l0 41.19685l-47.333344 0l0 -41.19685z" fill-rule="nonzero"></path><path stroke="#9fc5e8" stroke-width="1.0" stroke-linecap="butt" d="m137.9895 27.942257l0 42.194225" fill-rule="nonzero"></path><path stroke="#9fc5e8" stroke-width="1.0" stroke-linecap="butt" d="m185.32283 27.942257l0 42.194225" fill-rule="nonzero"></path><path stroke="#9fc5e8" stroke-width="1.0" stroke-linecap="butt" d="m232.65617 27.942257l0 42.194225" fill-rule="nonzero"></path><path stroke="#9fc5e8" stroke-width="1.0" stroke-linecap="butt" d="m279.9895 27.942257l0 42.194225" fill-rule="nonzero"></path><path stroke="#9fc5e8" stroke-width="1.0" stroke-linecap="butt" d="m327.32285 27.942257l0 42.194225" fill-rule="nonzero"></path><path stroke="#9fc5e8" stroke-width="1.0" stroke-linecap="butt" d="m374.65616 27.942257l0 42.194225" fill-rule="nonzero"></path><path stroke="#9fc5e8" stroke-width="1.0" stroke-linecap="butt" d="m421.9895 27.942257l0 42.194225" fill-rule="nonzero"></path><path stroke="#9fc5e8" stroke-width="1.0" stroke-linecap="butt" d="m137.49081 28.440945l284.99738 0" fill-rule="nonzero"></path><path stroke="#9fc5e8" stroke-width="1.0" stroke-linecap="butt" d="m137.49081 69.637794l284.99738 0" fill-rule="nonzero"></path><path fill="#000000" d="m149.552 44.048443l0 1.9375l-1.796875 0l0 -1.53125q0 -1.25 0.296875 -1.796875q0.390625 -0.75 1.234375 -1.125l0.40625 0.640625q-0.5 0.21875 -0.75 0.640625q-0.234375 0.421875 -0.265625 1.234375l0.875 0zm2.875 0l0 1.9375l-1.796875 0l0 -1.53125q0 -1.25 0.296875 -1.796875q0.390625 -0.75 1.234375 -1.125l0.40625 0.640625q-0.5 0.21875 -0.75 0.640625q-0.234375 0.421875 -0.265625 1.234375l0.875 0zm8.462677 10.09375q-0.9375 0.796875 -1.796875 1.125q-0.859375 0.3125 -1.84375 0.3125q-1.609375 0 -2.484375 -0.78125q-0.875 -0.796875 -0.875 -2.03125q0 -0.734375 0.328125 -1.328125q0.328125 -0.59375 0.859375 -0.953125q0.53125 -0.359375 1.203125 -0.546875q0.5 -0.140625 1.484375 -0.25q2.03125 -0.25 2.984375 -0.578125q0 -0.34375 0 -0.4375q0 -1.015625 -0.46875 -1.4375q-0.640625 -0.5625 -1.90625 -0.5625q-1.171875 0 -1.734375 0.40625q-0.5625 0.40625 -0.828125 1.46875l-1.640625 -0.234375q0.234375 -1.046875 0.734375 -1.6875q0.515625 -0.640625 1.46875 -0.984375q0.96875 -0.359375 2.25 -0.359375q1.265625 0 2.046875 0.296875q0.78125 0.296875 1.15625 0.75q0.375 0.453125 0.515625 1.140625q0.09375 0.421875 0.09375 1.53125l0 2.234375q0 2.328125 0.09375 2.953125q0.109375 0.609375 0.4375 1.171875l-1.75 0q-0.265625 -0.515625 -0.328125 -1.21875zm-0.140625 -3.71875q-0.90625 0.359375 -2.734375 0.625q-1.03125 0.140625 -1.453125 0.328125q-0.421875 0.1875 -0.65625 0.546875q-0.234375 0.359375 -0.234375 0.796875q0 0.671875 0.5 1.125q0.515625 0.4375 1.484375 0.4375q0.96875 0 1.71875 -0.421875q0.75 -0.4375 1.109375 -1.15625q0.265625 -0.578125 0.265625 -1.671875l0 -0.609375zm3.6413422 -6.859375l0 -1.9375l1.78125 0l0 1.53125q0 1.234375 -0.28125 1.78125q-0.40625 0.75 -1.25 1.140625l-0.40625 -0.671875q0.5 -0.203125 0.75 -0.640625q0.25 -0.4375 0.265625 -1.203125l-0.859375 0zm2.875 0l0 -1.9375l1.78125 0l0 1.53125q0 1.234375 -0.28125 1.78125q-0.40625 0.75 -1.25 1.140625l-0.40625 -0.671875q0.5 -0.203125 0.75 -0.640625q0.25 -0.4375 0.28125 -1.203125l-0.875 0z" fill-rule="nonzero"></path><path fill="#000000" d="m196.88533 44.048443l0 1.9375l-1.796875 0l0 -1.53125q0 -1.25 0.296875 -1.796875q0.390625 -0.75 1.234375 -1.125l0.40625 0.640625q-0.5 0.21875 -0.75 0.640625q-0.234375 0.421875 -0.265625 1.234375l0.875 0zm2.875 0l0 1.9375l-1.796875 0l0 -1.53125q0 -1.25 0.296875 -1.796875q0.390625 -0.75 1.234375 -1.125l0.40625 0.640625q-0.5 0.21875 -0.75 0.640625q-0.234375 0.421875 -0.265625 1.234375l0.875 0zm3.572052 11.3125l-1.546875 0l0 -13.59375l1.65625 0l0 4.84375q1.0625 -1.328125 2.703125 -1.328125q0.90625 0 1.71875 0.375q0.8125 0.359375 1.328125 1.03125q0.53125 0.65625 0.828125 1.59375q0.296875 0.9375 0.296875 2.0q0 2.53125 -1.25 3.921875q-1.25 1.375 -3.0 1.375q-1.75 0 -2.734375 -1.453125l0 1.234375zm-0.015625 -5.0q0 1.765625 0.46875 2.5625q0.796875 1.28125 2.140625 1.28125q1.09375 0 1.890625 -0.9375q0.796875 -0.953125 0.796875 -2.84375q0 -1.921875 -0.765625 -2.84375q-0.765625 -0.921875 -1.84375 -0.921875q-1.09375 0 -1.890625 0.953125q-0.796875 0.953125 -0.796875 2.75zm8.406967 -6.796875l0 -1.9375l1.78125 0l0 1.53125q0 1.234375 -0.28125 1.78125q-0.40625 0.75 -1.25 1.140625l-0.40625 -0.671875q0.5 -0.203125 0.75 -0.640625q0.25 -0.4375 0.265625 -1.203125l-0.859375 0zm2.875 0l0 -1.9375l1.78125 0l0 1.53125q0 1.234375 -0.28125 1.78125q-0.40625 0.75 -1.25 1.140625l-0.40625 -0.671875q0.5 -0.203125 0.75 -0.640625q0.25 -0.4375 0.28125 -1.203125l-0.875 0z" fill-rule="nonzero"></path><path fill="#000000" d="m244.21867 44.048443l0 1.9375l-1.796875 0l0 -1.53125q0 -1.25 0.296875 -1.796875q0.390625 -0.75 1.234375 -1.125l0.40625 0.640625q-0.5 0.21875 -0.75 0.640625q-0.234375 0.421875 -0.265625 1.234375l0.875 0zm2.875 0l0 1.9375l-1.796875 0l0 -1.53125q0 -1.25 0.296875 -1.796875q0.390625 -0.75 1.234375 -1.125l0.40625 0.640625q-0.5 0.21875 -0.75 0.640625q-0.234375 0.421875 -0.265625 1.234375l0.875 0zm8.462677 7.703125l1.6406097 0.21875q-0.265625 1.6875 -1.3749847 2.65625q-1.109375 0.953125 -2.734375 0.953125q-2.015625 0 -3.25 -1.3125q-1.21875 -1.328125 -1.21875 -3.796875q0 -1.59375 0.515625 -2.78125q0.53125 -1.203125 1.609375 -1.796875q1.09375 -0.609375 2.359375 -0.609375q1.609375 0 2.625 0.8125q1.0156097 0.8125 1.3124847 2.3125l-1.6249847 0.25q-0.234375 -1.0 -0.828125 -1.5q-0.59375 -0.5 -1.421875 -0.5q-1.265625 0 -2.0625 0.90625q-0.78125 0.90625 -0.78125 2.859375q0 1.984375 0.765625 2.890625q0.765625 0.890625 1.984375 0.890625q0.984375 0 1.640625 -0.59375q0.65625 -0.609375 0.84375 -1.859375zm2.4531097 -8.1875l0 -1.9375l1.78125 0l0 1.53125q0 1.234375 -0.28125 1.78125q-0.40625 0.75 -1.25 1.140625l-0.40625 -0.671875q0.5 -0.203125 0.75 -0.640625q0.25 -0.4375 0.265625 -1.203125l-0.859375 0zm2.875 0l0 -1.9375l1.78125 0l0 1.53125q0 1.234375 -0.28125 1.78125q-0.40625 0.75 -1.25 1.140625l-0.40625 -0.671875q0.5 -0.203125 0.75 -0.640625q0.25 -0.4375 0.28125 -1.203125l-0.875 0z" fill-rule="nonzero"></path><path fill="#000000" d="m291.552 44.048443l0 1.9375l-1.796875 0l0 -1.53125q0 -1.25 0.296875 -1.796875q0.390625 -0.75 1.234375 -1.125l0.40625 0.640625q-0.5 0.21875 -0.75 0.640625q-0.234375 0.421875 -0.265625 1.234375l0.875 0zm2.875 0l0 1.9375l-1.796875 0l0 -1.53125q0 -1.25 0.296875 -1.796875q0.390625 -0.75 1.234375 -1.125l0.40625 0.640625q-0.5 0.21875 -0.75 0.640625q-0.234375 0.421875 -0.265625 1.234375l0.875 0zm8.415802 11.3125l0 -1.25q-0.9375 1.46875 -2.75 1.46875q-1.171875 0 -2.171875 -0.640625q-0.984375 -0.65625 -1.53125 -1.8125q-0.53125 -1.171875 -0.53125 -2.6875q0 -1.46875 0.484375 -2.671875q0.5 -1.203125 1.46875 -1.84375q0.984375 -0.640625 2.203125 -0.640625q0.890625 0 1.578125 0.375q0.703125 0.375 1.140625 0.984375l0 -4.875l1.65625 0l0 13.59375l-1.546875 0zm-5.28125 -4.921875q0 1.890625 0.796875 2.828125q0.8125 0.9375 1.890625 0.9375q1.09375 0 1.859375 -0.890625q0.765625 -0.890625 0.765625 -2.734375q0 -2.015625 -0.78125 -2.953125q-0.78125 -0.953125 -1.921875 -0.953125q-1.109375 0 -1.859375 0.90625q-0.75 0.90625 -0.75 2.859375zm8.828827 -6.875l0 -1.9375l1.78125 0l0 1.53125q0 1.234375 -0.28125 1.78125q-0.40625 0.75 -1.25 1.140625l-0.40625 -0.671875q0.5 -0.203125 0.75 -0.640625q0.25 -0.4375 0.265625 -1.203125l-0.859375 0zm2.875 0l0 -1.9375l1.78125 0l0 1.53125q0 1.234375 -0.28125 1.78125q-0.40625 0.75 -1.25 1.140625l-0.40625 -0.671875q0.5 -0.203125 0.75 -0.640625q0.25 -0.4375 0.28125 -1.203125l-0.875 0z" fill-rule="nonzero"></path><path fill="#000000" d="m338.88535 44.048443l0 1.9375l-1.796875 0l0 -1.53125q0 -1.25 0.296875 -1.796875q0.390625 -0.75 1.234375 -1.125l0.40625 0.640625q-0.5 0.21875 -0.75 0.640625q-0.234375 0.421875 -0.265625 1.234375l0.875 0zm2.875 0l0 1.9375l-1.796875 0l0 -1.53125q0 -1.25 0.296875 -1.796875q0.390625 -0.75 1.234375 -1.125l0.40625 0.640625q-0.5 0.21875 -0.75 0.640625q-0.234375 0.421875 -0.265625 1.234375l0.875 0zm8.775177 8.140625l1.71875 0.21875q-0.40625 1.5 -1.515625 2.34375q-1.09375 0.828125 -2.8125 0.828125q-2.15625 0 -3.421875 -1.328125q-1.265625 -1.328125 -1.265625 -3.734375q0 -2.484375 1.265625 -3.859375q1.28125 -1.375 3.328125 -1.375q1.984375 0 3.234375 1.34375q1.25 1.34375 1.25 3.796875q0 0.140625 -0.015625 0.4375l-7.34375 0q0.09375 1.625 0.921875 2.484375q0.828125 0.859375 2.0625 0.859375q0.90625 0 1.546875 -0.46875q0.65625 -0.484375 1.046875 -1.546875zm-5.484375 -2.703125l5.5 0q-0.109375 -1.234375 -0.625 -1.859375q-0.796875 -0.96875 -2.078125 -0.96875q-1.140625 0 -1.9375 0.78125q-0.78125 0.765625 -0.859375 2.046875zm8.672577 -5.921875l0 -1.9375l1.78125 0l0 1.53125q0 1.234375 -0.28125 1.78125q-0.40625 0.75 -1.25 1.140625l-0.40625 -0.671875q0.5 -0.203125 0.75 -0.640625q0.25 -0.4375 0.265625 -1.203125l-0.859375 0zm2.875 0l0 -1.9375l1.78125 0l0 1.53125q0 1.234375 -0.28125 1.78125q-0.40625 0.75 -1.25 1.140625l-0.40625 -0.671875q0.5 -0.203125 0.75 -0.640625q0.25 -0.4375 0.28125 -1.203125l-0.875 0z" fill-rule="nonzero"></path><path fill="#000000" d="m386.21866 44.048443l0 1.9375l-1.796875 0l0 -1.53125q0 -1.25 0.296875 -1.796875q0.390625 -0.75 1.234375 -1.125l0.40625 0.640625q-0.5 0.21875 -0.75 0.640625q-0.234375 0.421875 -0.265625 1.234375l0.875 0zm2.875 0l0 1.9375l-1.796875 0l0 -1.53125q0 -1.25 0.296875 -1.796875q0.390625 -0.75 1.234375 -1.125l0.40625 0.640625q-0.5 0.21875 -0.75 0.640625q-0.234375 0.421875 -0.265625 1.234375l0.875 0zm2.431427 11.3125l0 -8.546875l-1.484375 0l0 -1.3125l1.484375 0l0 -1.046875q0 -0.984375 0.171875 -1.46875q0.234375 -0.65625 0.84375 -1.046875q0.609375 -0.40625 1.703125 -0.40625q0.703125 0 1.5625 0.15625l-0.25 1.46875q-0.515625 -0.09375 -0.984375 -0.09375q-0.765625 0 -1.078125 0.328125q-0.3125 0.3125 -0.3125 1.203125l0 0.90625l1.921875 0l0 1.3125l-1.921875 0l0 8.546875l-1.65625 0zm4.339569 -11.796875l0 -1.9375l1.78125 0l0 1.53125q0 1.234375 -0.28125 1.78125q-0.40625 0.75 -1.25 1.140625l-0.40625 -0.671875q0.5 -0.203125 0.75 -0.640625q0.25 -0.4375 0.265625 -1.203125l-0.859375 0zm2.875 0l0 -1.9375l1.78125 0l0 1.53125q0 1.234375 -0.28125 1.78125q-0.40625 0.75 -1.25 1.140625l-0.40625 -0.671875q0.5 -0.203125 0.75 -0.640625q0.25 -0.4375 0.28125 -1.203125l-0.875 0z" fill-rule="nonzero"></path><path fill="#000000" fill-opacity="0.0" d="m52.711285 33.086613l79.30708 0l0 31.905514l-79.30708 0z" fill-rule="evenodd"></path><path fill="#000000" d="m62.961285 60.00661l0 -13.59375l1.6718788 0l0 4.875q1.171875 -1.359375 2.953125 -1.359375q1.09375 0 1.890625 0.4375q0.8125 0.421875 1.15625 1.1875q0.359375 0.765625 0.359375 2.203125l0 6.25l-1.671875 0l0 -6.25q0 -1.25 -0.546875 -1.8125q-0.546875 -0.578125 -1.53125 -0.578125q-0.75 0 -1.40625 0.390625q-0.640625 0.375 -0.921875 1.046875q-0.28125 0.65625 -0.28125 1.8125l0 5.390625l-1.6718788 0zm16.828846 0l0 -1.453125q-1.140625 1.671875 -3.125 1.671875q-0.859375 0 -1.625 -0.328125q-0.75 -0.34375 -1.125 -0.84375q-0.359375 -0.5 -0.515625 -1.234375q-0.09375 -0.5 -0.09375 -1.5625l0 -6.109375l1.671875 0l0 5.46875q0 1.3125 0.09375 1.765625q0.15625 0.65625 0.671875 1.03125q0.515625 0.375 1.265625 0.375q0.75 0 1.40625 -0.375q0.65625 -0.390625 0.921875 -1.046875q0.28125 -0.671875 0.28125 -1.9375l0 -5.28125l1.671875 0l0 9.859375l-1.5 0zm3.9069672 0l0 -9.859375l1.5 0l0 1.5q0.578125 -1.046875 1.0625 -1.375q0.484375 -0.34375 1.078125 -0.34375q0.84375 0 1.71875 0.546875l-0.578125 1.546875q-0.609375 -0.359375 -1.234375 -0.359375q-0.546875 0 -0.984375 0.328125q-0.421875 0.328125 -0.609375 0.90625q-0.28125 0.890625 -0.28125 1.953125l0 5.15625l-1.671875 0zm12.681427 0l0 -1.453125q-1.140625 1.671875 -3.125 1.671875q-0.859375 0 -1.625 -0.328125q-0.75 -0.34375 -1.125 -0.84375q-0.359375 -0.5 -0.515625 -1.234375q-0.09375 -0.5 -0.09375 -1.5625l0 -6.109375l1.671875 0l0 5.46875q0 1.3125 0.09375 1.765625q0.15625 0.65625 0.671875 1.03125q0.515625 0.375 1.265625 0.375q0.75 0 1.40625 -0.375q0.65625 -0.390625 0.921875 -1.046875q0.28125 -0.671875 0.28125 -1.9375l0 -5.28125l1.671875 0l0 9.859375l-1.5 0zm4.328842 0l0 -8.546875l-1.484375 0l0 -1.3125l1.484375 0l0 -1.046875q0 -0.984375 0.171875 -1.46875q0.234375 -0.65625 0.84375 -1.046875q0.609375 -0.40625 1.703125 -0.40625q0.703125 0 1.5625 0.15625l-0.25 1.46875q-0.515625 -0.09375 -0.984375 -0.09375q-0.765625 0 -1.078125 0.328125q-0.3125 0.3125 -0.3125 1.203125l0 0.90625l1.921875 0l0 1.3125l-1.921875 0l0 8.546875l-1.65625 0zm18.741608 -8.0l-8.96875 0l0 -1.5625l8.96875 0l0 1.5625zm0 4.125l-8.96875 0l0 -1.546875l8.96875 0l0 1.546875z" fill-rule="nonzero"></path><path fill="#000000" fill-opacity="0.0" d="m206.38321 92.80052l147.21259 0l0 31.905518l-147.21259 0z" fill-rule="evenodd"></path><path fill="#000000" d="m218.52383 108.079895l0 4.796875q0.734375 -0.8125 1.40625 -1.140625q0.6875 -0.328125 1.546875 -0.328125q0.90625 0 1.53125 0.328125q0.640625 0.3125 1.0625 0.984375q0.4375 0.65625 0.4375 1.390625l0 4.828125l0.859375 0q0.296875 0 0.40625 0.109375q0.125 0.109375 0.125 0.28125q0 0.171875 -0.125 0.28125q-0.109375 0.109375 -0.40625 0.109375l-2.53125 0q-0.28125 0 -0.40625 -0.109375q-0.109375 -0.109375 -0.109375 -0.28125q0 -0.171875 0.109375 -0.28125q0.125 -0.109375 0.40625 -0.109375l0.875 0l0 -4.78125q0 -0.84375 -0.609375 -1.40625q-0.609375 -0.5625 -1.6875 -0.5625q-0.859375 0 -1.453125 0.421875q-0.4375 0.296875 -1.4375 1.390625l0 4.9375l0.875 0q0.28125 0 0.390625 0.109375q0.125 0.109375 0.125 0.28125q0 0.171875 -0.125 0.28125q-0.109375 0.109375 -0.390625 0.109375l-2.546875 0q-0.265625 0 -0.390625 -0.109375q-0.125 -0.109375 -0.125 -0.28125q0 -0.171875 0.125 -0.28125q0.125 -0.109375 0.390625 -0.109375l0.890625 0l0 -10.078125l-1.046875 0q-0.28125 0 -0.40625 -0.109375q-0.125 -0.109375 -0.125 -0.28125q0 -0.171875 0.125 -0.28125q0.125 -0.109375 0.40625 -0.109375l1.828125 0zm16.63623 11.640625l0 -1.140625q-1.609375 1.453125 -3.453125 1.453125q-1.140625 0 -1.734375 -0.625q-0.78125 -0.8125 -0.78125 -1.90625l0 -5.03125l-1.046875 0q-0.28125 0 -0.40625 -0.109375q-0.109375 -0.109375 -0.109375 -0.28125q0 -0.171875 0.109375 -0.28125q0.125 -0.109375 0.40625 -0.109375l1.828125 0l0 5.8125q0 0.765625 0.484375 1.265625q0.484375 0.484375 1.203125 0.484375q1.90625 0 3.5 -1.75l0 -5.03125l-1.4375 0q-0.28125 0 -0.40625 -0.109375q-0.125 -0.109375 -0.125 -0.28125q0 -0.171875 0.125 -0.28125q0.125 -0.109375 0.40625 -0.109375l2.203125 0l0 7.25l0.671875 0q0.265625 0 0.390625 0.109375q0.125 0.109375 0.125 0.28125q0 0.171875 -0.125 0.28125q-0.125 0.109375 -0.390625 0.109375l-1.4375 0zm7.7924805 -8.03125l0 1.96875q1.53125 -1.375 2.28125 -1.765625q0.75 -0.40625 1.390625 -0.40625q0.703125 0 1.296875 0.46875q0.59375 0.46875 0.59375 0.71875q0 0.171875 -0.109375 0.296875q-0.109375 0.109375 -0.296875 0.109375q-0.09375 0 -0.15625 -0.03125q-0.0625 -0.03125 -0.234375 -0.21875q-0.328125 -0.3125 -0.578125 -0.4375q-0.234375 -0.125 -0.46875 -0.125q-0.5 0 -1.21875 0.40625q-0.71875 0.40625 -2.5 2.0l0 4.265625l3.453125 0q0.28125 0 0.40625 0.109375q0.125 0.109375 0.125 0.28125q0 0.171875 -0.125 0.28125q-0.125 0.109375 -0.40625 0.109375l-6.109375 0q-0.28125 0 -0.40625 -0.109375q-0.109375 -0.109375 -0.109375 -0.265625q0 -0.15625 0.109375 -0.265625q0.109375 -0.109375 0.40625 -0.109375l1.875 0l0 -6.5l-1.4375 0q-0.28125 0 -0.40625 -0.109375q-0.109375 -0.109375 -0.109375 -0.28125q0 -0.171875 0.109375 -0.28125q0.125 -0.109375 0.40625 -0.109375l2.21875 0zm15.01123 8.03125l0 -1.140625q-1.609375 1.453125 -3.453125 1.453125q-1.140625 0 -1.734375 -0.625q-0.78125 -0.8125 -0.78125 -1.90625l0 -5.03125l-1.046875 0q-0.28125 0 -0.40625 -0.109375q-0.109375 -0.109375 -0.109375 -0.28125q0 -0.171875 0.109375 -0.28125q0.125 -0.109375 0.40625 -0.109375l1.828125 0l0 5.8125q0 0.765625 0.484375 1.265625q0.484375 0.484375 1.203125 0.484375q1.90625 0 3.5 -1.75l0 -5.03125l-1.4375 0q-0.28125 0 -0.40625 -0.109375q-0.125 -0.109375 -0.125 -0.28125q0 -0.171875 0.125 -0.28125q0.125 -0.109375 0.40625 -0.109375l2.203125 0l0 7.25l0.671875 0q0.265625 0 0.390625 0.109375q0.125 0.109375 0.125 0.28125q0 0.171875 -0.125 0.28125q-0.125 0.109375 -0.390625 0.109375l-1.4375 0zm8.214355 -7.25l0 6.46875l3.421875 0q0.28125 0 0.390625 0.109375q0.125 0.109375 0.125 0.28125q0 0.171875 -0.125 0.28125q-0.109375 0.109375 -0.390625 0.109375l-6.09375 0q-0.28125 0 -0.40625 -0.109375q-0.109375 -0.109375 -0.109375 -0.28125q0 -0.171875 0.109375 -0.28125q0.125 -0.109375 0.40625 -0.109375l1.875 0l0 -6.46875l-1.6875 0q-0.265625 0 -0.390625 -0.109375q-0.125 -0.109375 -0.125 -0.28125q0 -0.171875 0.125 -0.28125q0.125 -0.109375 0.390625 -0.109375l1.6875 0l0 -1.1875q0 -0.984375 0.796875 -1.703125q0.8125 -0.71875 2.125 -0.71875q1.109375 0 2.359375 0.203125q0.46875 0.078125 0.5625 0.1875q0.09375 0.09375 0.09375 0.25q0 0.171875 -0.109375 0.28125q-0.109375 0.109375 -0.296875 0.109375q-0.0625 0 -0.25 -0.03125q-1.390625 -0.21875 -2.359375 -0.21875q-1.015625 0 -1.578125 0.5q-0.546875 0.5 -0.546875 1.140625l0 1.1875l3.640625 0q0.28125 0 0.40625 0.109375q0.125 0.109375 0.125 0.28125q0 0.171875 -0.125 0.28125q-0.125 0.109375 -0.40625 0.109375l-3.640625 0zm12.308105 -3.609375l0 12.484375l1.890625 0q0.28125 0 0.390625 0.109375q0.125 0.109375 0.125 0.28125q0 0.171875 -0.125 0.28125q-0.109375 0.109375 -0.390625 0.109375l-2.671875 0l0 -14.046875l2.671875 0q0.28125 0 0.390625 0.109375q0.125 0.109375 0.125 0.28125q0 0.171875 -0.125 0.28125q-0.109375 0.109375 -0.390625 0.109375l-1.890625 0zm11.401855 -0.9375l0 11.015625l2.671875 0q0.265625 0 0.390625 0.109375q0.125 0.109375 0.125 0.28125q0 0.171875 -0.125 0.28125q-0.125 0.109375 -0.390625 0.109375l-6.125 0q-0.28125 0 -0.40625 -0.109375q-0.125 -0.109375 -0.125 -0.28125q0 -0.171875 0.125 -0.28125q0.125 -0.109375 0.40625 -0.109375l2.671875 0l0 -9.9375l-2.546875 0.796875q-0.1875 0.046875 -0.265625 0.046875q-0.140625 0 -0.265625 -0.109375q-0.109375 -0.125 -0.109375 -0.28125q0 -0.140625 0.09375 -0.25q0.078125 -0.078125 0.3125 -0.15625l3.5625 -1.125zm10.839355 3.765625l0.34375 0q0.515625 0 0.890625 0.375q0.375 0.359375 0.375 0.875q0 0.546875 -0.375 0.90625q-0.375 0.359375 -0.890625 0.359375l-0.34375 0q-0.515625 0 -0.890625 -0.359375q-0.359375 -0.375 -0.359375 -0.890625q0 -0.546875 0.375 -0.90625q0.375 -0.359375 0.875 -0.359375zm0 5.796875l0.34375 0q0.515625 0 0.890625 0.375q0.375 0.359375 0.375 0.875q0 0.53125 -0.375 0.90625q-0.375 0.359375 -0.890625 0.359375l-0.34375 0q-0.515625 0 -0.890625 -0.359375q-0.359375 -0.375 -0.359375 -0.890625q0 -0.546875 0.375 -0.90625q0.375 -0.359375 0.875 -0.359375zm9.41748 -8.625l0 3.8125q0.6875 -0.28125 1.3125 -0.421875q0.640625 -0.140625 1.203125 -0.140625q1.46875 0 2.453125 1.03125q1.0 1.015625 1.0 2.703125q0 1.859375 -1.125 3.015625q-1.109375 1.140625 -2.78125 1.140625q-1.09375 0 -2.125 -0.5q-0.71875 -0.34375 -1.3125 -0.84375q-0.359375 -0.3125 -0.359375 -0.515625q0 -0.171875 0.109375 -0.28125q0.125 -0.109375 0.265625 -0.109375q0.15625 0 0.34375 0.15625q1.390625 1.3125 3.046875 1.3125q1.359375 0 2.25 -0.921875q0.890625 -0.9375 0.890625 -2.5q0 -1.3125 -0.765625 -2.109375q-0.765625 -0.8125 -1.953125 -0.8125q-1.21875 0 -2.4375 0.640625q-0.296875 0.15625 -0.421875 0.15625q-0.15625 0 -0.265625 -0.109375q-0.09375 -0.109375 -0.09375 -0.3125l0 -5.171875l5.421875 0q0.28125 0 0.40625 0.109375q0.125 0.109375 0.125 0.28125q0 0.171875 -0.125 0.28125q-0.125 0.109375 -0.40625 0.109375l-4.65625 0zm13.183105 12.484375l0 -12.484375l-1.875 0q-0.28125 0 -0.40625 -0.109375q-0.109375 -0.109375 -0.109375 -0.28125q0 -0.171875 0.109375 -0.28125q0.125 -0.109375 0.40625 -0.109375l2.671875 0l0 14.046875l-2.671875 0q-0.28125 0 -0.40625 -0.109375q-0.109375 -0.109375 -0.109375 -0.28125q0 -0.171875 0.109375 -0.28125q0.125 -0.109375 0.40625 -0.109375l1.875 0z" fill-rule="nonzero"></path><path shape-rendering="crispEdges" fill="#ffffff" d="m134.51968 134.67455l47.33333 0l0 41.19684l-47.33333 0l0 -41.19684z" fill-rule="nonzero"></path><path shape-rendering="crispEdges" fill="#b6d7a8" d="m181.85301 134.67455l47.333344 0l0 41.19684l-47.333344 0l0 -41.19684z" fill-rule="nonzero"></path><path shape-rendering="crispEdges" fill="#b6d7a8" d="m229.18636 134.67455l47.33333 0l0 41.19684l-47.33333 0l0 -41.19684z" fill-rule="nonzero"></path><path shape-rendering="crispEdges" fill="#b6d7a8" d="m276.51968 134.67455l47.333344 0l0 41.19684l-47.333344 0l0 -41.19684z" fill-rule="nonzero"></path><path shape-rendering="crispEdges" fill="#b6d7a8" d="m323.85303 134.67455l47.333313 0l0 41.19684l-47.333313 0l0 -41.19684z" fill-rule="nonzero"></path><path shape-rendering="crispEdges" fill="#ffffff" d="m371.18634 134.67455l47.333344 0l0 41.19684l-47.333344 0l0 -41.19684z" fill-rule="nonzero"></path><path stroke="#9fc5e8" stroke-width="1.0" stroke-linecap="butt" d="m134.51968 134.17586l0 42.194214" fill-rule="nonzero"></path><path stroke="#c9daf8" stroke-width="1.0" stroke-linecap="butt" d="m181.85301 134.17586l0 42.194214" fill-rule="nonzero"></path><path stroke="#c9daf8" stroke-width="1.0" stroke-linecap="butt" d="m229.18636 134.17586l0 42.194214" fill-rule="nonzero"></path><path stroke="#c9daf8" stroke-width="1.0" stroke-linecap="butt" d="m276.51968 134.17586l0 42.194214" fill-rule="nonzero"></path><path stroke="#c9daf8" stroke-width="1.0" stroke-linecap="butt" d="m323.85303 134.17586l0 42.194214" fill-rule="nonzero"></path><path stroke="#c9daf8" stroke-width="1.0" stroke-linecap="butt" d="m371.18634 134.17586l0 42.194214" fill-rule="nonzero"></path><path stroke="#9fc5e8" stroke-width="1.0" stroke-linecap="butt" d="m418.51968 134.17586l0 42.194214" fill-rule="nonzero"></path><path stroke="#9fc5e8" stroke-width="1.0" stroke-linecap="butt" d="m134.021 134.67455l47.33333 0" fill-rule="nonzero"></path><path stroke="#c9daf8" stroke-width="1.0" stroke-linecap="butt" d="m181.35432 134.67455l189.33333 0" fill-rule="nonzero"></path><path stroke="#9fc5e8" stroke-width="1.0" stroke-linecap="butt" d="m370.68765 134.67455l48.33072 0" fill-rule="nonzero"></path><path stroke="#9fc5e8" stroke-width="1.0" stroke-linecap="butt" d="m134.021 175.87138l47.33333 0" fill-rule="nonzero"></path><path stroke="#c9daf8" stroke-width="1.0" stroke-linecap="butt" d="m181.35432 175.87138l189.33333 0" fill-rule="nonzero"></path><path stroke="#9fc5e8" stroke-width="1.0" stroke-linecap="butt" d="m370.68765 175.87138l48.33072 0" fill-rule="nonzero"></path><path fill="#000000" d="m146.08218 150.28204l0 1.9375l-1.796875 0l0 -1.53125q0 -1.25 0.296875 -1.796875q0.390625 -0.75 1.234375 -1.125l0.40625 0.640625q-0.5 0.21875 -0.75 0.640625q-0.234375 0.421875 -0.265625 1.234375l0.875 0zm2.875 0l0 1.9375l-1.796875 0l0 -1.53125q0 -1.25 0.296875 -1.796875q0.390625 -0.75 1.234375 -1.125l0.40625 0.640625q-0.5 0.21875 -0.75 0.640625q-0.234375 0.421875 -0.265625 1.234375l0.875 0zm8.462677 10.09375q-0.9375 0.796875 -1.796875 1.125q-0.859375 0.3125 -1.84375 0.3125q-1.609375 0 -2.484375 -0.78125q-0.875 -0.796875 -0.875 -2.03125q0 -0.734375 0.328125 -1.328125q0.328125 -0.59375 0.859375 -0.953125q0.53125 -0.359375 1.203125 -0.546875q0.5 -0.140625 1.484375 -0.25q2.03125 -0.25 2.984375 -0.578125q0 -0.34375 0 -0.4375q0 -1.015625 -0.46875 -1.4375q-0.640625 -0.5625 -1.90625 -0.5625q-1.171875 0 -1.734375 0.40625q-0.5625 0.40625 -0.828125 1.46875l-1.640625 -0.234375q0.234375 -1.046875 0.734375 -1.6875q0.515625 -0.640625 1.46875 -0.984375q0.96875 -0.359375 2.25 -0.359375q1.265625 0 2.046875 0.296875q0.78125 0.296875 1.15625 0.75q0.375 0.453125 0.515625 1.140625q0.09375 0.421875 0.09375 1.53125l0 2.234375q0 2.328125 0.09375 2.953125q0.109375 0.609375 0.4375 1.171875l-1.75 0q-0.265625 -0.515625 -0.328125 -1.21875zm-0.140625 -3.71875q-0.90625 0.359375 -2.734375 0.625q-1.03125 0.140625 -1.453125 0.328125q-0.421875 0.1875 -0.65625 0.546875q-0.234375 0.359375 -0.234375 0.796875q0 0.671875 0.5 1.125q0.515625 0.4375 1.484375 0.4375q0.96875 0 1.71875 -0.421875q0.75 -0.4375 1.109375 -1.15625q0.265625 -0.578125 0.265625 -1.671875l0 -0.609375zm3.6413422 -6.859375l0 -1.9375l1.78125 0l0 1.53125q0 1.234375 -0.28125 1.78125q-0.40625 0.75 -1.25 1.140625l-0.40625 -0.671875q0.5 -0.203125 0.75 -0.640625q0.25 -0.4375 0.265625 -1.203125l-0.859375 0zm2.875 0l0 -1.9375l1.78125 0l0 1.53125q0 1.234375 -0.28125 1.78125q-0.40625 0.75 -1.25 1.140625l-0.40625 -0.671875q0.5 -0.203125 0.75 -0.640625q0.25 -0.4375 0.28125 -1.203125l-0.875 0z" fill-rule="nonzero"></path><path fill="#000000" d="m193.41551 150.28204l0 1.9375l-1.796875 0l0 -1.53125q0 -1.25 0.296875 -1.796875q0.390625 -0.75 1.234375 -1.125l0.40625 0.640625q-0.5 0.21875 -0.75 0.640625q-0.234375 0.421875 -0.265625 1.234375l0.875 0zm2.875 0l0 1.9375l-1.796875 0l0 -1.53125q0 -1.25 0.296875 -1.796875q0.390625 -0.75 1.234375 -1.125l0.40625 0.640625q-0.5 0.21875 -0.75 0.640625q-0.234375 0.421875 -0.265625 1.234375l0.875 0zm3.572052 11.3125l-1.546875 0l0 -13.59375l1.65625 0l0 4.84375q1.0625 -1.328125 2.703125 -1.328125q0.90625 0 1.71875 0.375q0.8125 0.359375 1.328125 1.03125q0.53125 0.65625 0.828125 1.59375q0.296875 0.9375 0.296875 2.0q0 2.53125 -1.25 3.921875q-1.25 1.375 -3.0 1.375q-1.75 0 -2.734375 -1.453125l0 1.234375zm-0.015625 -5.0q0 1.765625 0.46875 2.5625q0.796875 1.28125 2.140625 1.28125q1.09375 0 1.890625 -0.9375q0.796875 -0.953125 0.796875 -2.84375q0 -1.921875 -0.765625 -2.84375q-0.765625 -0.921875 -1.84375 -0.921875q-1.09375 0 -1.890625 0.953125q-0.796875 0.953125 -0.796875 2.75zm8.406967 -6.796875l0 -1.9375l1.78125 0l0 1.53125q0 1.234375 -0.28125 1.78125q-0.40625 0.75 -1.25 1.140625l-0.40625 -0.671875q0.5 -0.203125 0.75 -0.640625q0.25 -0.4375 0.265625 -1.203125l-0.859375 0zm2.875 0l0 -1.9375l1.78125 0l0 1.53125q0 1.234375 -0.28125 1.78125q-0.40625 0.75 -1.25 1.140625l-0.40625 -0.671875q0.5 -0.203125 0.75 -0.640625q0.25 -0.4375 0.28125 -1.203125l-0.875 0z" fill-rule="nonzero"></path><path fill="#000000" d="m240.74886 150.28204l0 1.9375l-1.796875 0l0 -1.53125q0 -1.25 0.296875 -1.796875q0.390625 -0.75 1.234375 -1.125l0.40625 0.640625q-0.5 0.21875 -0.75 0.640625q-0.234375 0.421875 -0.265625 1.234375l0.875 0zm2.875 0l0 1.9375l-1.796875 0l0 -1.53125q0 -1.25 0.296875 -1.796875q0.390625 -0.75 1.234375 -1.125l0.40625 0.640625q-0.5 0.21875 -0.75 0.640625q-0.234375 0.421875 -0.265625 1.234375l0.875 0zm8.462677 7.703125l1.640625 0.21875q-0.265625 1.6875 -1.375 2.65625q-1.109375 0.953125 -2.734375 0.953125q-2.015625 0 -3.25 -1.3125q-1.21875 -1.328125 -1.21875 -3.796875q0 -1.59375 0.515625 -2.78125q0.53125 -1.203125 1.609375 -1.796875q1.09375 -0.609375 2.359375 -0.609375q1.609375 0 2.625 0.8125q1.015625 0.8125 1.3125 2.3125l-1.625 0.25q-0.234375 -1.0 -0.828125 -1.5q-0.59375 -0.5 -1.421875 -0.5q-1.265625 0 -2.0625 0.90625q-0.78125 0.90625 -0.78125 2.859375q0 1.984375 0.765625 2.890625q0.765625 0.890625 1.984375 0.890625q0.984375 0 1.640625 -0.59375q0.65625 -0.609375 0.84375 -1.859375zm2.453125 -8.1875l0 -1.9375l1.7812347 0l0 1.53125q0 1.234375 -0.28125 1.78125q-0.40623474 0.75 -1.2499847 1.140625l-0.40625 -0.671875q0.5 -0.203125 0.75 -0.640625q0.25 -0.4375 0.265625 -1.203125l-0.859375 0zm2.8749847 0l0 -1.9375l1.78125 0l0 1.53125q0 1.234375 -0.28125 1.78125q-0.40625 0.75 -1.25 1.140625l-0.40625 -0.671875q0.5 -0.203125 0.75 -0.640625q0.25 -0.4375 0.28125 -1.203125l-0.875 0z" fill-rule="nonzero"></path><path fill="#000000" d="m288.08218 150.28204l0 1.9375l-1.796875 0l0 -1.53125q0 -1.25 0.296875 -1.796875q0.390625 -0.75 1.234375 -1.125l0.40625 0.640625q-0.5 0.21875 -0.75 0.640625q-0.234375 0.421875 -0.265625 1.234375l0.875 0zm2.875 0l0 1.9375l-1.796875 0l0 -1.53125q0 -1.25 0.296875 -1.796875q0.390625 -0.75 1.234375 -1.125l0.40625 0.640625q-0.5 0.21875 -0.75 0.640625q-0.234375 0.421875 -0.265625 1.234375l0.875 0zm8.415802 11.3125l0 -1.25q-0.9375 1.46875 -2.75 1.46875q-1.171875 0 -2.171875 -0.640625q-0.984375 -0.65625 -1.53125 -1.8125q-0.53125 -1.171875 -0.53125 -2.6875q0 -1.46875 0.484375 -2.671875q0.5 -1.203125 1.46875 -1.84375q0.984375 -0.640625 2.203125 -0.640625q0.890625 0 1.578125 0.375q0.703125 0.375 1.140625 0.984375l0 -4.875l1.65625 0l0 13.59375l-1.546875 0zm-5.28125 -4.921875q0 1.890625 0.796875 2.828125q0.8125 0.9375 1.890625 0.9375q1.09375 0 1.859375 -0.890625q0.765625 -0.890625 0.765625 -2.734375q0 -2.015625 -0.78125 -2.953125q-0.78125 -0.953125 -1.921875 -0.953125q-1.109375 0 -1.859375 0.90625q-0.75 0.90625 -0.75 2.859375zm8.828857 -6.875l0 -1.9375l1.78125 0l0 1.53125q0 1.234375 -0.28125 1.78125q-0.40625 0.75 -1.25 1.140625l-0.40625 -0.671875q0.5 -0.203125 0.75 -0.640625q0.25 -0.4375 0.265625 -1.203125l-0.859375 0zm2.875 0l0 -1.9375l1.78125 0l0 1.53125q0 1.234375 -0.28125 1.78125q-0.40625 0.75 -1.25 1.140625l-0.40625 -0.671875q0.5 -0.203125 0.75 -0.640625q0.25 -0.4375 0.28125 -1.203125l-0.875 0z" fill-rule="nonzero"></path><path fill="#000000" d="m335.41553 150.28204l0 1.9375l-1.796875 0l0 -1.53125q0 -1.25 0.296875 -1.796875q0.390625 -0.75 1.234375 -1.125l0.40625 0.640625q-0.5 0.21875 -0.75 0.640625q-0.234375 0.421875 -0.265625 1.234375l0.875 0zm2.875 0l0 1.9375l-1.796875 0l0 -1.53125q0 -1.25 0.296875 -1.796875q0.390625 -0.75 1.234375 -1.125l0.40625 0.640625q-0.5 0.21875 -0.75 0.640625q-0.234375 0.421875 -0.265625 1.234375l0.875 0zm8.775177 8.140625l1.71875 0.21875q-0.40625 1.5 -1.515625 2.34375q-1.09375 0.828125 -2.8125 0.828125q-2.15625 0 -3.421875 -1.328125q-1.265625 -1.328125 -1.265625 -3.734375q0 -2.484375 1.265625 -3.859375q1.28125 -1.375 3.328125 -1.375q1.984375 0 3.234375 1.34375q1.25 1.34375 1.25 3.796875q0 0.140625 -0.015625 0.4375l-7.34375 0q0.09375 1.625 0.921875 2.484375q0.828125 0.859375 2.0625 0.859375q0.90625 0 1.546875 -0.46875q0.65625 -0.484375 1.046875 -1.546875zm-5.484375 -2.703125l5.5 0q-0.109375 -1.234375 -0.625 -1.859375q-0.796875 -0.96875 -2.078125 -0.96875q-1.140625 0 -1.9375 0.78125q-0.78125 0.765625 -0.859375 2.046875zm8.672577 -5.921875l0 -1.9375l1.78125 0l0 1.53125q0 1.234375 -0.28125 1.78125q-0.40625 0.75 -1.25 1.140625l-0.40625 -0.671875q0.5 -0.203125 0.75 -0.640625q0.25 -0.4375 0.265625 -1.203125l-0.859375 0zm2.875 0l0 -1.9375l1.78125 0l0 1.53125q0 1.234375 -0.28125 1.78125q-0.40625 0.75 -1.25 1.140625l-0.40625 -0.671875q0.5 -0.203125 0.75 -0.640625q0.25 -0.4375 0.28125 -1.203125l-0.875 0z" fill-rule="nonzero"></path><path fill="#000000" d="m382.74884 150.28204l0 1.9375l-1.796875 0l0 -1.53125q0 -1.25 0.296875 -1.796875q0.390625 -0.75 1.234375 -1.125l0.40625 0.640625q-0.5 0.21875 -0.75 0.640625q-0.234375 0.421875 -0.265625 1.234375l0.875 0zm2.875 0l0 1.9375l-1.796875 0l0 -1.53125q0 -1.25 0.296875 -1.796875q0.390625 -0.75 1.234375 -1.125l0.40625 0.640625q-0.5 0.21875 -0.75 0.640625q-0.234375 0.421875 -0.265625 1.234375l0.875 0zm2.431427 11.3125l0 -8.546875l-1.484375 0l0 -1.3125l1.484375 0l0 -1.046875q0 -0.984375 0.171875 -1.46875q0.234375 -0.65625 0.84375 -1.046875q0.609375 -0.40625 1.703125 -0.40625q0.703125 0 1.5625 0.15625l-0.25 1.46875q-0.515625 -0.09375 -0.984375 -0.09375q-0.765625 0 -1.078125 0.328125q-0.3125 0.3125 -0.3125 1.203125l0 0.90625l1.921875 0l0 1.3125l-1.921875 0l0 8.546875l-1.65625 0zm4.339569 -11.796875l0 -1.9375l1.78125 0l0 1.53125q0 1.234375 -0.28125 1.78125q-0.40625 0.75 -1.25 1.140625l-0.40625 -0.671875q0.5 -0.203125 0.75 -0.640625q0.25 -0.4375 0.265625 -1.203125l-0.859375 0zm2.875 0l0 -1.9375l1.78125 0l0 1.53125q0 1.234375 -0.28125 1.78125q-0.40625 0.75 -1.25 1.140625l-0.40625 -0.671875q0.5 -0.203125 0.75 -0.640625q0.25 -0.4375 0.28125 -1.203125l-0.875 0z" fill-rule="nonzero"></path><path fill="#000000" fill-opacity="0.0" d="m370.90027 100.20473l0.47244263 107.81102" fill-rule="evenodd"></path><path stroke="#000000" stroke-width="1.0" stroke-linejoin="round" stroke-linecap="butt" d="m370.90027 100.20473l0.47244263 107.81102" fill-rule="evenodd"></path><path fill="#000000" fill-opacity="0.0" d="m182.21523 103.855644l0.47244263 107.81103" fill-rule="evenodd"></path><path stroke="#000000" stroke-width="1.0" stroke-linejoin="round" stroke-linecap="butt" d="m182.21523 103.855644l0.47244263 107.81103" fill-rule="evenodd"></path></g></svg>

