<?xml version="1.0" encoding="utf-8"?>
<!-- Generator: Adobe Illustrator 22.0.1, SVG Export Plug-In . SVG Version: 6.00 Build 0)  -->
<svg version="1.1" xmlns="http://www.w3.org/2000/svg" xmlns:xlink="http://www.w3.org/1999/xlink" x="0px" y="0px"
	 viewBox="0 0 636 300" style="enable-background:new 0 0 636 300;" xml:space="preserve">
<style type="text/css">
	.st0{fill:#666666;}
	.st1{fill:#B4A0FF;}
	.st2{fill:#5C2D91;}
	.st3{fill:#8867C8;}
	.st4{fill:#724AAD;}
	.st5{fill:#FFFFFF;}
	.st6{fill:#C8C8C8;}
	.st7{fill:#A6A6A6;}
	.st8{fill:#BA6800;}
	.st9{fill:#FFA940;}
	.st10{fill:#939393;}
	.st11{fill:#F57800;}
	.st12{fill:#B2B2B2;}
	.st13{fill:none;stroke:#505050;stroke-width:2;stroke-miterlimit:10;}
	.st14{clip-path:url(#SVGID_2_);fill-rule:evenodd;clip-rule:evenodd;fill:#69AFE5;}
	.st15{clip-path:url(#SVGID_2_);fill-rule:evenodd;clip-rule:evenodd;fill:#2488D8;}
	.st16{clip-path:url(#SVGID_2_);fill-rule:evenodd;clip-rule:evenodd;fill:#0078D7;}
	.st17{clip-path:url(#SVGID_2_);}
	.st18{clip-path:url(#SVGID_4_);fill-rule:evenodd;clip-rule:evenodd;fill:#419AE1;}
	.st19{clip-path:url(#SVGID_4_);fill-rule:evenodd;clip-rule:evenodd;fill:#106EBE;}
	.st20{clip-path:url(#SVGID_2_);fill-rule:evenodd;clip-rule:evenodd;fill:#82BCEB;}
	.st21{clip-path:url(#SVGID_2_);fill-rule:evenodd;clip-rule:evenodd;fill:#419AE1;}
	.st22{clip-path:url(#SVGID_2_);fill-rule:evenodd;clip-rule:evenodd;fill:#005A93;}
	.st23{clip-path:url(#SVGID_2_);fill-rule:evenodd;clip-rule:evenodd;fill:#59595C;}
	.st24{clip-path:url(#SVGID_2_);fill-rule:evenodd;clip-rule:evenodd;fill:#A5A7AA;}
	.st25{clip-path:url(#SVGID_6_);fill-rule:evenodd;clip-rule:evenodd;fill:#6D6F70;}
	.st26{clip-path:url(#SVGID_6_);fill-rule:evenodd;clip-rule:evenodd;fill:#414141;}
	.st27{fill-rule:evenodd;clip-rule:evenodd;fill:#808083;}
	.st28{clip-path:url(#SVGID_8_);fill-rule:evenodd;clip-rule:evenodd;fill:#6D6F70;}
	.st29{clip-path:url(#SVGID_8_);fill-rule:evenodd;clip-rule:evenodd;fill:#414141;}
	.st30{fill-rule:evenodd;clip-rule:evenodd;fill:#82BCEB;}
	.st31{fill-rule:evenodd;clip-rule:evenodd;fill:#005A93;}
	.st32{fill-rule:evenodd;clip-rule:evenodd;fill:#419AE1;}
	.st33{clip-path:url(#SVGID_10_);fill-rule:evenodd;clip-rule:evenodd;fill:#0078D7;}
	.st34{clip-path:url(#SVGID_10_);fill-rule:evenodd;clip-rule:evenodd;fill:#005A93;}
	.st35{fill-rule:evenodd;clip-rule:evenodd;fill:#51ACCB;}
	.st36{clip-path:url(#SVGID_12_);fill-rule:evenodd;clip-rule:evenodd;fill:#0078D7;}
	.st37{clip-path:url(#SVGID_12_);fill-rule:evenodd;clip-rule:evenodd;fill:#185173;}
	.st38{clip-path:url(#SVGID_2_);fill-rule:evenodd;clip-rule:evenodd;fill:#4097AD;}
	.st39{clip-path:url(#SVGID_2_);fill-rule:evenodd;clip-rule:evenodd;fill:#2C6D77;}
	.st40{clip-path:url(#SVGID_14_);fill-rule:evenodd;clip-rule:evenodd;fill:#005A93;}
	.st41{clip-path:url(#SVGID_16_);fill-rule:evenodd;clip-rule:evenodd;fill:#005A93;}
	.st42{clip-path:url(#SVGID_2_);fill-rule:evenodd;clip-rule:evenodd;fill:#106EBE;}
	.st43{clip-path:url(#SVGID_2_);fill:#106EBE;}
	.st44{clip-path:url(#SVGID_2_);fill:#005A93;}
	.st45{fill:#B89E7C;}
	.st46{fill:#8E562E;}
	.st47{fill:#B3D6F2;}
	.st48{fill:#69AFE5;}
	.st49{fill:#2488D8;}
	.st50{fill:#11334B;}
	.st51{fill:#505050;}
	.st52{fill:#737373;}
	.st53{fill:#8562AD;}
	.st54{fill:#333333;}
	.st55{fill:#C7B8FF;}
	.st56{fill:#9E83E3;}
	.st57{fill:#613D30;}
	.st58{fill:#282828;}
	.st59{fill:#F3F3F3;}
	.st60{fill:#2A3282;}
	.st61{fill:#0078D7;}
	.st62{fill:#4B4A4B;}
	.st63{fill:#5D5D5D;}
	.st64{fill:#171717;}
	.st65{fill:#E26C41;}
	.st66{fill:#00B294;}
	.st67{fill:#F0F0F0;}
	.st68{fill:#0048B3;}
	.st69{fill:#F6CBA7;}
	.st70{fill:#DDB694;}
	.st71{fill:#6D6E71;}
	.st72{fill:#3D1A68;}
	.st73{fill-rule:evenodd;clip-rule:evenodd;fill:#8E562E;}
	.st74{fill-rule:evenodd;clip-rule:evenodd;}
	.st75{fill-rule:evenodd;clip-rule:evenodd;fill:#D0B28D;}
	.st76{fill-rule:evenodd;clip-rule:evenodd;fill:#666666;}
	.st77{fill-rule:evenodd;clip-rule:evenodd;fill:#B89E7C;}
	.st78{fill-rule:evenodd;clip-rule:evenodd;fill:#FF8C00;}
	.st79{fill-rule:evenodd;clip-rule:evenodd;fill:#F0AE00;}
	.st80{fill:#D0B28D;}
	.st81{fill:#E81123;}
	.st82{fill:#D9C1A4;}
	.st83{fill-rule:evenodd;clip-rule:evenodd;fill:#D9C1A4;}
	.st84{fill-rule:evenodd;clip-rule:evenodd;fill:#EE4D5A;}
	.st85{fill-rule:evenodd;clip-rule:evenodd;fill:#FFFFFF;}
	.st86{fill-rule:evenodd;clip-rule:evenodd;fill:#939393;}
	.st87{fill-rule:evenodd;clip-rule:evenodd;fill:#394453;}
	.st88{fill:#6597BF;}
	.st89{fill:#A996F0;}
	.st90{fill:#BCBEC0;}
	.st91{fill:#414042;}
	.st92{fill:#C09F81;}
	.st93{fill:#235A89;}
	.st94{fill:#EAEAEA;}
	.st95{fill:#106EBE;}
	.st96{fill:#8C562F;}
	.st97{fill:#451E7C;}
	.st98{fill:#025B56;}
	.st99{fill:#394453;}
	.st100{fill:#99BCD7;}
	.st101{fill:#45779E;}
	.st102{fill:#999999;}
	.st103{fill:#231F20;}
	.st104{fill:#004880;}
	.st105{fill:#854CC7;}
	.st106{fill-rule:evenodd;clip-rule:evenodd;fill:#FFF000;}
	.st107{fill:#002F33;}
	.st108{fill:#EE4D5A;}
	.st109{fill:#F7D7C4;}
	.st110{fill:none;}
	.st111{fill:#C9AD74;}
	.st112{fill:#997A45;}
	.st113{fill:#40C5AF;}
	.st114{fill:#479CDF;}
	.st115{fill:#8FC3EC;}
	.st116{clip-path:url(#SVGID_20_);fill:#8FC3EC;}
	.st117{clip-path:url(#SVGID_20_);fill:#FF8C00;}
	.st118{fill:none;stroke:#C2C2C2;stroke-width:2;stroke-miterlimit:10;}
	.st119{fill:#2E2E2E;stroke:#909090;stroke-width:1.2213;stroke-miterlimit:10;}
	.st120{fill:#2E2E2E;}
	.st121{fill:#C7C7C7;}
	.st122{fill:#767576;}
	.st123{fill:#3097D8;}
	.st124{fill:#A6A8AB;}
	.st125{fill:#FFC316;}
	.st126{fill:#515050;}
	.st127{font-family:'SegoeUI-Semilight';}
	.st128{font-size:48px;}
	.st129{clip-path:url(#SVGID_22_);}
	.st130{fill:#A71E22;}
	.st131{fill:#D8B195;}
	.st132{fill:#B8977C;}
	.st133{fill:#E6CCB9;}
	.st134{clip-path:url(#SVGID_24_);fill:#B498FF;}
	.st135{clip-path:url(#SVGID_24_);fill:#2A3282;}
	.st136{clip-path:url(#SVGID_24_);fill:#BB9167;}
	.st137{clip-path:url(#SVGID_24_);fill:#F9D4BB;}
	.st138{clip-path:url(#SVGID_24_);fill:#72594B;}
	.st139{clip-path:url(#SVGID_24_);fill:#3777BC;}
	.st140{clip-path:url(#SVGID_24_);fill:#675042;}
	.st141{clip-path:url(#SVGID_24_);}
	.st142{clip-path:url(#SVGID_24_);fill:#B6B8BA;}
	.st143{clip-path:url(#SVGID_24_);fill:#4F3F34;}
	.st144{clip-path:url(#SVGID_24_);fill:#CC8D85;}
	.st145{clip-path:url(#SVGID_24_);fill:#004C7A;}
	.st146{fill:#40CDF5;}
	.st147{fill:none;stroke:#90C10C;stroke-width:2;stroke-miterlimit:10;}
	.st148{fill:#323232;}
	.st149{fill:#00BCF2;}
	.st150{fill:#00B0E3;}
	.st151{fill:#006FC8;}
	.st152{fill:#004578;}
	.st153{fill:#FF8C00;}
	.st154{fill:#D2D2D2;}
	.st155{fill:#1C4768;}
	.st156{fill:none;stroke:#3C3C3C;stroke-width:3;stroke-miterlimit:10;}
	.st157{fill:#107C10;}
	.st158{fill:#65AA0D;}
	.st159{fill:#106110;}
	.st160{fill:#E5A500;}
	.st161{fill:#5991C9;}
	.st162{fill:#005A93;}
	.st163{fill:#0064B5;}
	.st164{fill:#008272;}
	.st165{fill:#D1D1D1;}
	.st166{fill-rule:evenodd;clip-rule:evenodd;fill:#D2D2D2;}
	.st167{fill-rule:evenodd;clip-rule:evenodd;fill:#CE9C5F;}
	.st168{fill-rule:evenodd;clip-rule:evenodd;fill:#F3F3F3;}
	.st169{fill-rule:evenodd;clip-rule:evenodd;fill:#002050;}
	.st170{fill-rule:evenodd;clip-rule:evenodd;fill:#FFCB40;}
	.st171{fill-rule:evenodd;clip-rule:evenodd;fill:#409AE1;}
	.st172{fill:#FFB900;}
	.st173{fill:#FFCB40;}
	.st174{fill-rule:evenodd;clip-rule:evenodd;fill:#0078D7;}
	.st175{fill-rule:evenodd;clip-rule:evenodd;fill:#FFA940;}
	.st176{fill:#001129;}
	.st177{fill:#409AE1;}
	.st178{fill-rule:evenodd;clip-rule:evenodd;fill:#0064B5;}
	.st179{fill-rule:evenodd;clip-rule:evenodd;fill:#C2C2C2;}
	.st180{fill:#A80000;}
	.st181{fill-rule:evenodd;clip-rule:evenodd;fill:#A80000;}
	.st182{fill:none;stroke:#505050;stroke-miterlimit:8;}
	.st183{fill-rule:evenodd;clip-rule:evenodd;fill:#FFF2E2;}
	.st184{fill:none;stroke:#FFFFFF;stroke-width:2;stroke-miterlimit:8;}
	.st185{fill:none;stroke:#FFFFFF;stroke-linecap:round;stroke-miterlimit:8;}
	.st186{fill-rule:evenodd;clip-rule:evenodd;fill:#004880;}
	.st187{fill-rule:evenodd;clip-rule:evenodd;fill:#FFB900;}
	.st188{fill-rule:evenodd;clip-rule:evenodd;fill:#E6A600;}
	.st189{fill-rule:evenodd;clip-rule:evenodd;fill:#001129;}
	.st190{fill:none;stroke:#409AE1;stroke-width:2;stroke-miterlimit:8;}
	.st191{fill-rule:evenodd;clip-rule:evenodd;fill:#69AFE5;}
	.st192{fill-rule:evenodd;clip-rule:evenodd;fill:#282828;}
	.st193{fill-rule:evenodd;clip-rule:evenodd;fill:#FFE3C0;}
	.st194{fill:#002050;}
	.st195{fill-rule:evenodd;clip-rule:evenodd;fill:#2139B5;}
	.st196{fill-rule:evenodd;clip-rule:evenodd;fill:#BA8C57;}
	.st197{fill-rule:evenodd;clip-rule:evenodd;fill:#301D19;}
	.st198{fill-rule:evenodd;clip-rule:evenodd;fill:#E81123;}
	.st199{fill-rule:evenodd;clip-rule:evenodd;fill:#CB8C84;}
	.st200{fill:#005291;}
	.st201{fill:#BB9167;}
	.st202{fill:#967552;}
	.st203{fill:#A7C209;}
	.st204{fill:#A8825C;}
	.st205{fill:#001A41;}
	.st206{fill:#1A649C;}
	.st207{fill:#1A86DB;}
	.st208{fill-rule:evenodd;clip-rule:evenodd;fill:#B8977C;}
	.st209{fill:#997961;}
	.st210{fill:#C2C2C2;}
	.st211{fill:#BFC5CC;}
	.st212{fill-rule:evenodd;clip-rule:evenodd;fill:#997961;}
	.st213{fill-rule:evenodd;clip-rule:evenodd;fill:#573522;}
	.st214{fill-rule:evenodd;clip-rule:evenodd;fill:#8A0000;}
	.st215{fill-rule:evenodd;clip-rule:evenodd;fill:#414141;}
	.st216{fill:#252829;}
	.st217{fill:#BAD80A;}
	.st218{fill:#0054A6;}
	.st219{fill:#563F25;}
	.st220{fill-rule:evenodd;clip-rule:evenodd;fill:#563F25;}
	.st221{fill-rule:evenodd;clip-rule:evenodd;fill:#C8C8C8;}
	.st222{fill-rule:evenodd;clip-rule:evenodd;fill:#75411D;}
	.st223{fill-rule:evenodd;clip-rule:evenodd;fill:#B2B2B2;}
	.st224{fill-rule:evenodd;clip-rule:evenodd;fill:#737373;}
	.st225{fill:#E6E6E6;}
	.st226{fill:none;stroke:#C8C8C8;stroke-width:4;stroke-miterlimit:10;}
	.st227{fill:#0089DE;}
	.st228{fill:#EC6401;}
	.st229{clip-path:url(#SVGID_26_);}
	.st230{fill:#502F84;}
	.st231{fill:#5C3D99;}
	.st232{fill:#32145A;}
	.st233{fill:#AF5443;}
	.st234{fill:#5D5F5E;}
	.st235{fill-rule:evenodd;clip-rule:evenodd;fill:#00BCF2;}
	.st236{fill:#2F2F2F;}
	.st237{fill:#00188F;}
	.st238{fill:#D83B01;}
	.st239{fill-rule:evenodd;clip-rule:evenodd;fill:#1AC3F3;}
	.st240{fill:#750000;}
	.st241{fill:#D86E26;}
	.st242{fill:#0872C4;}
	.st243{fill:#BD3604;}
	.st244{fill:#1AC3F3;}
	.st245{fill:#990000;}
	.st246{fill:#C6C6C6;}
	.st247{fill:#FFF100;}
	.st248{fill:#B82F01;}
	.st249{fill:#62402C;}
	.st250{fill:#4F3125;}
	.st251{fill:#00132E;}
	.st252{fill:#92C5ED;}
	.st253{fill:#DEDEDE;}
	.st254{fill-rule:evenodd;clip-rule:evenodd;fill:#505050;}
	.st255{fill-rule:evenodd;clip-rule:evenodd;fill:#2D3D87;}
	.st256{fill-rule:evenodd;clip-rule:evenodd;fill:#004578;}
	.st257{fill-rule:evenodd;clip-rule:evenodd;fill:#2488D8;}
	.st258{clip-path:url(#SVGID_28_);fill:#B3D6F2;}
	.st259{clip-path:url(#SVGID_28_);fill:#69AFE5;}
	.st260{clip-path:url(#SVGID_28_);}
	.st261{clip-path:url(#SVGID_28_);fill:#99BCD7;}
	.st262{clip-path:url(#SVGID_30_);fill:#00A09E;}
	.st263{clip-path:url(#SVGID_30_);fill:#00002B;}
	.st264{clip-path:url(#SVGID_30_);fill:#72594B;}
	.st265{clip-path:url(#SVGID_30_);fill:#BB9167;}
	.st266{clip-path:url(#SVGID_30_);fill:#414042;}
	.st267{clip-path:url(#SVGID_30_);fill:#F9D4BB;}
	.st268{clip-path:url(#SVGID_30_);fill:#8E562E;}
	.st269{clip-path:url(#SVGID_30_);fill:#AB8460;}
	.st270{clip-path:url(#SVGID_30_);fill:#FFFFFF;}
	.st271{clip-path:url(#SVGID_30_);}
	.st272{clip-path:url(#SVGID_30_);fill:#9D9FA2;}
	.st273{clip-path:url(#SVGID_30_);fill:#000D42;}
	.st274{clip-path:url(#SVGID_30_);fill:#EAEBEB;}
	.st275{clip-path:url(#SVGID_30_);fill:#C48074;}
	.st276{clip-path:url(#SVGID_30_);fill:#704322;}
	.st277{clip-path:url(#SVGID_30_);fill:#F6CBA7;}
	.st278{clip-path:url(#SVGID_30_);fill:#8B0304;}
	.st279{clip-path:url(#SVGID_30_);fill:#DDB594;}
	.st280{clip-path:url(#SVGID_30_);fill:#E6A1C0;}
	.st281{clip-path:url(#SVGID_30_);fill:#F7E0CC;}
	.st282{clip-path:url(#SVGID_30_);fill:#D1D3D4;}
	.st283{clip-path:url(#SVGID_30_);fill:#2A3282;}
	.st284{clip-path:url(#SVGID_30_);fill:#3777BC;}
	.st285{clip-path:url(#SVGID_30_);fill:#F6D8C5;}
	.st286{clip-path:url(#SVGID_30_);fill:#FFC20E;}
	.st287{clip-path:url(#SVGID_30_);fill:#E3C6B5;}
	.st288{clip-path:url(#SVGID_30_);fill:#FEE7D9;}
	.st289{clip-path:url(#SVGID_30_);fill:#CD007A;}
	.st290{clip-path:url(#SVGID_30_);fill:#B6B8BA;}
	.st291{clip-path:url(#SVGID_30_);fill:#004C7A;}
	.st292{clip-path:url(#SVGID_32_);fill:#FFC316;}
	.st293{clip-path:url(#SVGID_32_);fill:#D1D3D4;}
	.st294{clip-path:url(#SVGID_32_);fill:#FFFFFF;}
	.st295{clip-path:url(#SVGID_32_);}
	.st296{clip-path:url(#SVGID_32_);fill:#72594B;}
	.st297{clip-path:url(#SVGID_32_);fill:#675042;}
	.st298{clip-path:url(#SVGID_32_);fill:#DC9D96;}
	.st299{clip-path:url(#SVGID_32_);fill:#8F7A70;}
	.st300{clip-path:url(#SVGID_32_);fill:#4F3F34;}
	.st301{clip-path:url(#SVGID_32_);fill:#F26522;}
	.st302{clip-path:url(#SVGID_32_);fill:#17244E;}
	.st303{clip-path:url(#SVGID_32_);fill:#F6CBA7;}
	.st304{clip-path:url(#SVGID_32_);fill:#A71E22;}
	.st305{clip-path:url(#SVGID_32_);fill:#DDB594;}
	.st306{clip-path:url(#SVGID_32_);fill:#AA4611;}
	.st307{clip-path:url(#SVGID_32_);fill:#C09F81;}
	.st308{clip-path:url(#SVGID_32_);fill:#CC8D85;}
	.st309{clip-path:url(#SVGID_32_);fill:#CE9C5E;}
	.st310{clip-path:url(#SVGID_32_);fill:#5C2D91;}
	.st311{clip-path:url(#SVGID_32_);fill:#BA8D57;}
	.st312{clip-path:url(#SVGID_32_);fill:#3A2821;}
	.st313{clip-path:url(#SVGID_32_);fill:#CD007A;}
	.st314{clip-path:url(#SVGID_32_);fill:#D9B07F;}
	.st315{fill:#72594B;}
	.st316{fill:#CFE454;}
	.st317{fill:#FFAE4D;}
	.st318{fill:#4DA1E2;}
	.st319{fill:#003438;}
	.st320{fill:#004B50;}
	.st321{fill:#83503A;}
	.st322{fill:#FF8B00;}
	.st323{fill:#995D44;}
	.st324{fill:#794B37;}
	.st325{fill:#562C85;}
	.st326{fill:#704532;}
	.st327{fill:#D48169;}
	.st328{fill:#D6D6D6;}
	.st329{fill:none;stroke:#F08400;stroke-width:2;stroke-miterlimit:10;}
	.st330{fill:#707070;}
	.st331{fill:#B5B5B5;}
	.st332{fill:#464646;}
	.st333{fill:#9080CF;}
	.st334{fill:#2B6AA9;}
	.st335{fill:#90C10C;}
	.st336{clip-path:url(#SVGID_34_);fill:#505050;}
	.st337{clip-path:url(#SVGID_34_);}
	.st338{fill:#212121;}
	.st339{fill:#937A47;}
	.st340{fill:#BEA15F;}
	.st341{fill:#82693C;}
	.st342{clip-path:url(#SVGID_36_);fill:#008272;}
	.st343{clip-path:url(#SVGID_36_);}
	.st344{clip-path:url(#SVGID_38_);fill:#008272;}
	.st345{clip-path:url(#SVGID_38_);}
	.st346{fill:#8EC3EC;}
	.st347{fill:#BA1121;}
	.st348{fill:#8A0000;}
	.st349{fill:#969696;}
	.st350{fill:#DB9D00;}
	.st351{fill:#CC8E02;}
	.st352{fill:#868686;}
	.st353{clip-path:url(#SVGID_40_);fill:#666666;}
	.st354{fill:#7B7B7B;}
	.st355{fill:#B0B0B0;}
	.st356{fill:#959595;}
	.st357{fill:none;stroke:#939393;stroke-width:2;stroke-miterlimit:10;}
	.st358{fill:none;stroke:#939393;stroke-width:2;stroke-miterlimit:10;stroke-dasharray:1.9688,2.9531;}
	.st359{fill:none;stroke:#939393;stroke-width:2;stroke-miterlimit:10;stroke-dasharray:1.9744,2.9615;}
	.st360{fill:#528BCF;}
	.st361{fill:#D2D2D2;stroke:#737373;stroke-linecap:round;stroke-miterlimit:10;}
	.st362{fill:#F08400;}
	
		.st363{fill:none;stroke:#40CDF5;stroke-width:4;stroke-linecap:round;stroke-linejoin:round;stroke-miterlimit:10;stroke-dasharray:4,8;}
	.st364{fill:#007596;}
	.st365{fill:#F8D5B9;}
	.st366{fill:#5C005C;}
	.st367{fill:none;stroke:#FFFFFF;stroke-width:5.673870e-02;stroke-linecap:round;stroke-linejoin:round;stroke-miterlimit:10;}
	.st368{fill:#D8B094;}
	.st369{clip-path:url(#SVGID_42_);}
	.st370{fill:#8B0304;}
	.st371{fill:#DDB594;}
	.st372{fill:#E6A1C0;}
	.st373{fill:#F7E0CC;}
	.st374{fill:#395B71;}
	.st375{fill:none;stroke:#FFFFFF;stroke-width:2;stroke-miterlimit:10;}
	.st376{fill:#474747;}
	.st377{fill:#ACACAC;}
	.st378{fill:none;stroke:#757575;stroke-width:0.6302;stroke-miterlimit:10;}
	.st379{fill:#565656;}
	.st380{fill:#F0AE00;}
	.st381{fill:#72B4E8;}
	.st382{fill-rule:evenodd;clip-rule:evenodd;fill:#99BCD7;}
	.st383{fill-rule:evenodd;clip-rule:evenodd;fill:#235A89;}
	.st384{fill-rule:evenodd;clip-rule:evenodd;fill:#212121;}
	.st385{fill-rule:evenodd;clip-rule:evenodd;fill:#479CDF;}
	.st386{fill-rule:evenodd;clip-rule:evenodd;fill:#8FC3EC;}
	.st387{fill:#0030A1;}
	.st388{fill:#E4E4E4;}
	.st389{fill:#E6AE80;}
	.st390{fill:#3C3C3C;}
	.st391{fill:#FFC18F;}
	.st392{fill:#A60000;}
	.st393{fill:#BD895E;}
	.st394{fill:#B2D7F0;}
	.st395{fill:#0063B0;}
	.st396{fill:#A07657;}
	.st397{fill:#593A29;}
	.st398{fill:#F0E300;}
	.st399{fill-rule:evenodd;clip-rule:evenodd;fill:#BB9167;}
	.st400{fill-rule:evenodd;clip-rule:evenodd;fill:#A07657;}
	.st401{fill-rule:evenodd;clip-rule:evenodd;fill:none;stroke:#939393;stroke-miterlimit:10;}
	.st402{fill:#CE9C5F;}
	.st403{fill:#BC874D;}
	.st404{fill:#2139B5;}
	.st405{fill:#9C2801;}
	.st406{fill:#E24F01;}
	.st407{fill:#080001;}
	.st408{fill:#A0722A;}
	.st409{fill:#E5AD70;}
	.st410{fill-rule:evenodd;clip-rule:evenodd;fill:#5C2D91;}
	.st411{fill-rule:evenodd;clip-rule:evenodd;fill:#008C74;}
	.st412{fill:#871A1A;}
	.st413{fill-rule:evenodd;clip-rule:evenodd;fill:#32145A;}
	.st414{fill-rule:evenodd;clip-rule:evenodd;fill:#A56B44;}
	.st415{fill-rule:evenodd;clip-rule:evenodd;fill:#7C4622;}
	.st416{fill:#FFB800;}
	.st417{fill:#0078D6;}
	.st418{fill:#F4D11E;}
	.st419{fill:#737374;}
	.st420{fill:#00188E;}
	.st421{fill:#3346A5;}
	.st422{fill:#FFC633;}
	.st423{fill:#3393DE;}
	.st424{fill:#8F8F90;}
	.st425{fill:#5C6BB7;}
	.st426{fill:#5CA9E5;}
	.st427{fill:#FFD15C;}
	.st428{fill:#006CC0;}
	.st429{fill:#E5E5E5;}
	.st430{fill:#FFF9F8;}
	.st431{fill:#787878;}
	.st432{fill:#767676;}
	.st433{fill:#5E5E5E;}
	.st434{fill:#979797;}
	.st435{fill:#373738;}
	.st436{fill:#181818;}
	.st437{fill:#6D6D6D;}
	.st438{fill:#4D4D4D;}
	.st439{fill:#555555;}
	.st440{fill:#545454;}
	.st441{fill:#535353;}
</style>
<g id="Layer_1">
	<path class="st125" d="M205.4,36H79.3c-9.9,0-18,8.1-18,18v82.4c0,9.9,8.1,18,18,18h101.1L199,181l0.2-26.6h6.2c9.9,0,18-8.1,18-18
		V54C223.4,44.1,215.3,36,205.4,36z"/>
	<g>
		<text transform="matrix(1 0 0 1 152.6757 104.8028)" class="st126 st127 st128">C#</text>
	</g>
	<path class="st110" d="M205.4,36H79.3c-9.9,0-18,8.1-18,18v82.4c0,9.9,8.1,18,18,18h101.1L199,181l0.2-26.6h6.2c9.9,0,18-8.1,18-18
		V54C223.4,44.1,215.3,36,205.4,36z"/>
	<path class="st114" d="M255.3,36h126.1c9.9,0,18,8.1,18,18v82.4c0,9.9-8.1,18-18,18H280.3L261.7,181l-0.2-26.6h-6.2
		c-9.9,0-18-8.1-18-18V54C237.3,44.1,245.4,36,255.3,36z"/>
	<g>
		<defs>
			<path id="SVGID_21_" d="M255.3,36h126.1c9.9,0,18,8.1,18,18v82.4c0,9.9-8.1,18-18,18H280.3L261.7,181l-0.2-26.6h-6.2
				c-9.9,0-18-8.1-18-18V54C237.3,44.1,245.4,36,255.3,36z"/>
		</defs>
		<clipPath id="SVGID_2_">
			<use xlink:href="#SVGID_21_"  style="overflow:visible;"/>
		</clipPath>
		<g class="st17">
			<path class="st130" d="M342.2,176.9c-12.8-0.2-24.8-3.9-34.8-10c0-3.7,0-3.7,0-3.7c-0.2-3.5-0.2-3.5-0.2-3.5
				c-0.4-6.9-0.4-6.9-0.4-6.9c-0.6-12.7-0.6-12.7-0.6-12.7c-0.6-11-0.6-11-0.6-11l0,0c0-0.8,0-0.8,0-0.8c8.8-0.6,8.8-0.6,8.8-0.6
				c1.9-0.2,1.9-0.2,1.9-0.2c25.1-1.7,25.1-1.7,25.1-1.7c0.8-0.2,0.8-0.2,0.8-0.2c0.2,0,0.2,0,0.2,0c0.2,0,0.2,0,0.2,0
				c0,51.3,0,51.3,0,51.3C342.4,176.9,342.2,176.9,342.2,176.9z"/>
			<polygon class="st130" points="307.7,139.7 303.6,118.3 340.3,110.8 344.5,132.2 			"/>
			<path class="st130" d="M379.1,128.3c0,0.6,0,0.6,0,0.6l0,0c-0.6,11.2-0.6,11.2-0.6,11.2c-0.8,16.4-0.8,16.4-0.8,16.4
				c-0.4,6.2-0.4,6.2-0.4,6.2c0,0.6,0,0.6,0,0.6c0,4,0,4,0,4c-10.1,6.2-22.1,9.6-34.6,9.6c-0.2,0-0.2,0-0.2,0c-0.2,0-0.4,0-0.4,0
				c0-51.3,0-51.3,0-51.3c0.2,0,0.2,0,0.2,0c0.2,0,0.2,0,0.2,0c0.6,0.2,0.6,0.2,0.6,0.2c25.3,1.7,25.3,1.7,25.3,1.7
				c1.7,0.2,1.7,0.2,1.7,0.2L379.1,128.3z"/>
			<path class="st131" d="M380.1,165.5c-0.8-3.1-1.5-6.2-2.3-9.1c-1.7-6.4-3.4-12.3-5-17.3c-0.2-0.2-0.2-0.2-0.2-0.2
				c0-0.4-0.2-0.8-0.4-1.2c-0.6-2.3-1.1-4.4-1.7-6.3c-0.4-1.2-0.4-2.5-0.4-3.7c0.6-3.3,2.8-6.2,6.3-7.3c1.5-0.4,3-0.4,4.4-0.2
				c3,0.8,5.5,3.1,6.5,6.3c0.6,1.9,1.3,4,1.9,6.4c0.2,0.4,0.2,0.6,0.4,1c1.5,5.4,3.4,11.6,5.1,18.1
				C390.6,157.2,385.6,161.8,380.1,165.5z"/>
			<polygon class="st130" points="376.8,139.7 340.3,132.2 344.5,110.8 381.2,118.3 			"/>
			<path class="st130" d="M398,156c-0.6,0.8-4.4,2.4-5,3c-4.2,5.2-7.4,2.8-13,6.5c-0.6,0.4-1,0.6-1.5,1c-0.4-1.2-0.8-2.5-1.2-3.9
				c-2.3-7.9-4.9-17.5-6.8-23.7c0-0.2,0-0.4-0.2-0.6c-0.8-2.7-1.3-5-1.7-6.3l0,0c1.9-0.6,1.9-0.6,1.9-0.6c8.6-2.5,8.6-2.5,8.6-2.5
				l0,0c8.2-2.3,8.2-2.3,8.2-2.3c2.1-0.6,2.1-0.6,2.1-0.6c0,0.4,0.2,1.2,0.4,1.7c0.4,1.3,1,3.1,1.5,4.8
				C392.7,137.5,396.1,149.9,398,156z"/>
			<path class="st130" d="M368.3,129.5c0.2,6.2,5.3,10.8,11.2,10.6c5.9-0.2,10.7-5.2,10.5-11.2c-0.2-6.2-5.1-10.8-11.2-10.6
				C372.8,118.5,368.1,123.5,368.3,129.5z"/>
			<path class="st131" d="M314,132c-0.8,1.7-1.5,3.9-2.3,6.2c0,0.4-0.2,0.6-0.2,0.8c-0.2,0.2-0.2,0.4-0.2,0.8
				c-1.5,3.9-3,8.3-4.6,13.1c-1.2,3.7-2.5,7.3-3.6,11.2c-5.3-3.9-10.1-8.5-14.1-13.7c1.9-6.2,4-11.8,5.7-16.6c0.2-0.6,0.2-1,0.4-1.3
				c0.8-2.3,1.5-4.2,2.1-6.2l0,0c1.1-3.1,3.6-5.2,6.7-6c1.5-0.2,3-0.2,4.6,0.4c3.2,1.2,5.3,4,5.9,7.1
				C314.6,129.1,314.4,130.4,314,132z"/>
			<path class="st130" d="M315.9,132.5c-0.2,0.2-0.2,0.4-0.2,0.6l0,0c-0.6,1.3-1.1,3.1-1.9,5.4c-1.7,5.6-4.4,13.7-6.7,21.2
				c-0.8,1.9-1.3,3.9-1.9,5.8c-0.8-0.6-1.3-1-2.1-1.6c-5.3-3.9-12.2,0.2-16.2-4.9c-0.4-0.6,7-29.2,8.2-33c0.2-0.2,0.2-0.4,0.2-0.6
				c1.9,0.8,1.9,0.8,1.9,0.8c8.4,2.9,8.4,2.9,8.4,2.9l0,0c8.4,2.9,8.4,2.9,8.4,2.9L315.9,132.5z"/>
			<path class="st130" d="M316.3,128.1c0.6,6-3.8,11.4-9.7,11.9c-5.9,0.6-11.2-3.9-11.8-9.8c-0.6-6,3.8-11.4,9.7-11.9
				C310.4,117.7,315.7,122.1,316.3,128.1z"/>
			<path class="st131" d="M341.2,123.3c-7,0-12.8-4.4-12.8-11.6c0-9.2,0-9.2,0-9.2c25.5,0,25.5,0,25.5,0c0,9.2,0,9.2,0,9.2
				C354,118.9,348.3,123.3,341.2,123.3z"/>
			<path class="st132" d="M341.2,54.9c-11.4,0-19.6,12.3-20,27.8c0-0.4,0.2-0.8,0.4-1.2c1.3-4,7.8-2.3,6.3,1.7
				c-0.8,2.5-2.1,4.8-2.1,7.5c-0.2,1.5,0.2,3.3,0.4,4.8c1.3,0.4,2.5,1.3,2.5,3.3c0,6.7,0,6.7,0,6.7c1.9,1.9,4,3.3,6.3,4.2
				c1.9,1.3,4,2.3,6.3,2.3c2.3,0,4.4-1,6.3-2.3c2.5-1,4.6-2.5,6.5-4.4c0-7.9,0-7.9,0-7.9c0-1.7,1.1-2.7,2.5-3.1c0-1.2,0-2.5,0-3.7
				c0-0.8,0-1.6,0-2.3c0-0.4-0.4-1.2,0-0.4c-1.7-3.5,2.7-6.6,4.9-4.2C361.4,67.8,355.9,54.9,341.2,54.9z"/>
			<path class="st131" d="M361.4,82.8c0,16.2-8.6,27.2-20.2,27.2c-11.6,0-20-11-20-27.2c0-16,8.4-28.9,20-28.9
				C355.9,53.9,361.4,66.8,361.4,82.8z"/>
			<path class="st131" d="M323.2,79.2c-2.7,0-2.7,0-2.7,0c-1.1,0-1.9,1.2-1.9,2.3c0,8.1,0,8.1,0,8.1c0,1.4,0.8,2.3,1.9,2.3
				c1.9,0,1.9,0,1.9,0L323.2,79.2z"/>
			<path class="st131" d="M359.3,79.2c2.7,0,2.7,0,2.7,0c1.1,0,1.9,1.2,1.9,2.3c0,8.1,0,8.1,0,8.1c0,1.4-0.8,2.3-1.9,2.3
				c-1.9,0-1.9,0-1.9,0L359.3,79.2z"/>
			<path d="M332.7,83.6c0.8,0,1.5-0.8,1.5-1.6c0-0.8-0.8-1.5-1.5-1.5c-0.9,0-1.7,0.8-1.7,1.5C331.2,83,331.7,83.6,332.7,83.6z"/>
			<path d="M350.4,83.8c0.8,0,1.5-0.6,1.5-1.5c0-0.8-1-1.5-1.7-1.5c-0.8,0-1.5,0.8-1.5,1.5C348.7,83.2,349.4,84,350.4,83.8z"/>
			<path class="st131" d="M329.4,101.7c23.6,0,23.6,0,23.6,0c-2.9,5.8-7,9.2-11.8,9.2C336.5,111,332.3,107.5,329.4,101.7z"/>
			<path class="st132" d="M345.4,91.7c0,0.6-0.6,1.3-1.5,1.3c-0.2,0-0.4,0.4-0.9,0.8c-0.4,0.4-1,0.8-1.7,0.8c-0.6,0-1.3-0.4-1.7-0.8
				c-0.4-0.4-0.8-0.8-1-0.8c-0.9,0-1.5-0.8-1.5-1.3v-0.2c8.4,0,8.4,0,8.4,0V91.7z"/>
			<path class="st133" d="M341.2,79.7c0,11.8,0,11.8,0,11.8c-4.2,0-4.2,0-4.2,0c0-0.4,0.4-0.8,0.6-1c0.8-0.6,1.3-1.9,1.5-3.5
				c0.2-6.6,0.2-6.6,0.2-6.6C339.3,79,340.9,79.7,341.2,79.7z"/>
			<path d="M361.8,71.3c0,17.5,0,17.5,0,17.5c-1.7,0-1.7,0-1.7,0c-0.9-21-0.9-21-0.9-21c-5.7,0.8-5.7,0.8-5.7,0.8c-8,1-16,1-24,0
				c-5.5-0.8-5.5-0.8-5.5-0.8c-1.1,20.8-1.1,20.8-1.1,20.8c-1.7,0-1.7,0-1.7,0c0-17.3,0-17.3,0-17.3c0-10.4,7-18.9,15.8-18.9
				c9.1,0,9.1,0,9.1,0C354.8,52.4,361.8,60.9,361.8,71.3z"/>
			<path d="M356.1,86.1c-0.6,1.2-1.3,1.7-3,1.9c-1.7,0-2.5,0-4.4,0c-1.9-0.2-3.4-1.3-4.2-3.3c-0.6-1.7-0.8-3.3-0.8-4.2
				c0-0.2,0-0.2,0-0.4c0,0,0,0,0-0.2l0,0c0-0.2,0-0.2,0-0.2c0.2-0.4,0.4-0.6,0.6-1c0.8-0.6,1.7-1,2.8-1c2.5,0,2.5,0,2.5,0
				c2.5,0,2.5,0,2.5,0c1.1,0,3,0.4,3.6,1c0.6,0.6,0.8,1,0.9,1.5c0,0.2,0,0.2,0,0.2c0,1.7,0,2.5-0.2,4c0,0.2,0,0.2,0,0.4
				C356.3,85.5,356.3,85.7,356.1,86.1z M356.9,80.5c0,0,0,0,0-0.2c0-0.6-0.4-1.2-1-1.7c-0.6-0.8-2.7-1-3.8-1c-2.5,0-2.5,0-2.5,0
				c-2.5,0-2.5,0-2.5,0c-1.1,0-2.3,0.2-3,1c-0.6,0.6-0.6,1-0.8,1.5c0,0.2,0,0.2,0,0.4c0,1.3,0.2,2.5,1,4.4c0.8,1.9,2.5,3.1,4.4,3.3
				c1.9,0.2,2.9,0.2,4.4,0c1.5-0.2,2.5-0.6,3-1.5c0.4-0.6,0.6-1.2,0.8-2.1v-0.2C357.1,83,357.1,82.3,356.9,80.5z"/>
			<path d="M338.2,84.8c-0.8,1.9-2.3,3.1-4.2,3.3c-1.9,0-2.7,0-4.2,0c-1.7-0.2-2.5-0.6-3-1.5c-0.4-0.6-0.6-1.2-0.6-1.9
				c-0.2-1.5-0.2-2.3-0.2-4c0,0,0,0,0-0.2c0-0.2,0.2-0.6,0.4-0.8c0-0.2,0.2-0.6,0.6-0.8c0.6-0.6,2.5-1,3.6-1c2.5,0,2.5,0,2.5,0
				c2.5,0,2.5,0,2.5,0c1.2,0,2.3,0.4,2.9,1c0.2,0.4,0.4,0.6,0.6,1v0.2c0,0.2,0,0.2,0,0.2c0,0.2,0,0.2,0,0.4
				C339,81.5,338.8,83,338.2,84.8z M339.3,80.1c0-0.6-0.2-1-0.8-1.5c-0.8-0.8-1.9-1-3-1c-2.5,0-2.5,0-2.5,0c-2.5,0-2.5,0-2.5,0
				c-1.1,0-3.2,0.2-3.8,1c-0.4,0.4-0.6,0.6-0.8,0.8c-0.2,0.4-0.2,0.6-0.2,1c0,0.2,0,0.2,0,0.2c0,1.7-0.2,2.5,0,4
				c0.2,1,0.4,1.7,0.8,2.1l0,0c0.6,1,1.5,1.3,3,1.5c1.7,0.2,2.5,0.2,4.4,0c2.1-0.2,3.6-1.3,4.4-3.3c0.8-1.9,0.9-3.1,0.9-4.4
				C339.3,80.3,339.3,80.3,339.3,80.1z"/>
			<path d="M356.7,77.8c-0.8-0.8-2.3-0.8-3.6-0.8c-1.3-0.2-4-0.2-5.7-0.2c-1.7,0.2-3,0.2-3.6,1.2c-0.4,0.4-0.6,0.8-0.8,1.4
				c0-0.2,0-0.2,0-0.2c-1.3,0-1.3,0-1.3,0c-0.6,0-0.6,0-0.6,0c-1.3,0-1.3,0-1.3,0c0,0.2,0,0.2,0,0.2c-0.2-0.6-0.4-1-0.6-1.4
				c-0.8-1-2.1-1-3.8-1.2c-1.7,0-4.2,0-5.7,0.2c-1.3,0-2.9,0-3.6,0.8c-0.6,0.6-1,1.6-1.2,2.5c0,0.2,1.3,0.2,1.3,0
				c0-0.4,0.4-1.2,0.8-1.5c0.6-0.6,1.9-0.8,3.2-0.8c1.1-0.2,4.2-0.2,5.3,0c1.3,0,2.3,0.2,2.9,0.8c0.2,0.4,0.6,0.8,0.6,1.3
				c0.9,0,0.9,0,0.9,0l0,0c1.1,0,1.1,0,1.1,0c0.6,0,0.6,0,0.6,0c1.1,0,1.1,0,1.1,0l0,0c1,0,1,0,1,0c0-0.6,0.4-1,0.6-1.3
				c0.6-0.6,1.7-0.8,2.8-0.8c1.1-0.2,4.2-0.2,5.3,0c1.3,0,2.7,0.2,3.2,0.8c0.4,0.4,0.8,1,0.8,1.5c0,0.2,1.3,0,1.3,0
				C357.6,79.4,357.2,78.4,356.7,77.8z"/>
			<path class="st130" d="M341.4,102.1c-2.1,0-4.2-0.4-6.7-1c-0.6,0-0.8-0.6-0.8-1.2c0.2-0.4,0.8-0.8,1.1-0.6c4.8,1,7.8,1,12.4,0
				c0.6-0.2,1.1,0.2,1.1,0.6c0.2,0.6-0.2,1.2-0.8,1.2C345.4,101.7,343.5,102.1,341.4,102.1z"/>
		</g>
	</g>
	<text transform="matrix(1 0 0 1 254.2697 105.0496)" class="st5 st127 st128">VB</text>
	<path class="st110" d="M255.3,36h126.1c9.9,0,18,8.1,18,18v82.4c0,9.9-8.1,18-18,18H280.3L261.7,181l-0.2-26.6h-6.2
		c-9.9,0-18-8.1-18-18V54C237.3,44.1,245.4,36,255.3,36z"/>
	<g>
		<defs>
			<path id="SVGID_23_" d="M431.3,36h126.1c9.9,0,18,8.1,18,18v82.4c0,9.9-8.1,18-18,18H456.3L437.7,181l-0.2-26.6h-6.2
				c-9.9,0-18-8.1-18-18V54C413.3,44.1,421.4,36,431.3,36z"/>
		</defs>
		<clipPath id="SVGID_4_">
			<use xlink:href="#SVGID_23_"  style="overflow:visible;"/>
		</clipPath>
		<path style="clip-path:url(#SVGID_4_);fill:#B498FF;" d="M431.3,36h126.1c9.9,0,18,8.1,18,18v82.4c0,9.9-8.1,18-18,18H456.3
			L437.7,181l-0.2-26.6h-6.2c-9.9,0-18-8.1-18-18V54C413.3,44.1,421.4,36,431.3,36z"/>
		<polygon style="clip-path:url(#SVGID_4_);fill:#2A3282;" points="553.8,146.4 517.4,132.5 525.4,111.4 561.8,125.3 		"/>
		<path style="clip-path:url(#SVGID_4_);fill:#BB9167;" d="M554.2,157.4c-0.6,0.4-1,0.6-1.6,1c-0.8-4.7-1.6-9-2.2-12.9
			c0-0.2-0.2-0.4-0.2-0.6c0-0.4,0-0.8-0.2-1.2c-0.4-2.3-0.8-4.5-1-6.3c-0.4-2.3,0-4.3,1-6.1c1.2-2.3,3.7-4.1,6.5-4.5
			c1.6-0.2,3.3,0,4.7,0.4c2.8,1.2,5.1,3.9,5.7,7.2c0.4,1.8,0.6,4.1,1,6.3c0.2,0.6,0.2,1.2,0.4,1.6c0.2,1.2,0.4,2.3,0.6,3.5
			C564.6,150.2,559.7,154.1,554.2,157.4z"/>
		<path style="clip-path:url(#SVGID_4_);fill:#2A3282;" d="M572,154c-0.6,0.6-3.6,0.4-4,1c-4.3,4.5-8.3-0.9-13.8,2.4
			c-0.6,0.4-1,0.6-1.6,1c-1,0.6-2,1-3.1,1.6c-0.6-6.1-1.4-11.9-1.9-16.1c-0.4-2.9-0.6-4.9-0.8-6.1c0,0,0,0,0-0.2
			c2.1-0.2,2.1-0.2,2.1-0.2c6.3-1.2,6.3-1.2,6.3-1.2c2.7-0.4,2.7-0.4,2.7-0.4c9-1.4,9-1.4,9-1.4c2.1-0.4,2.1-0.4,2.1-0.4l0,0
			C569.1,135.5,571.4,149.1,572,154z"/>
		<path style="clip-path:url(#SVGID_4_);fill:#2A3282;" d="M547,132.9c-1.6,5.9,1.8,12.3,8,13.7c5.9,1.6,12.1-1.8,13.7-8
			c1.6-5.9-2-12.1-8-13.7C554.8,123.3,548.7,126.9,547,132.9z"/>
		<path style="clip-path:url(#SVGID_4_);fill:#2A3282;" d="M517,168c-0.2,0-0.2,0-0.4,0c-2.4,0-4.9-0.2-7.3-0.4
			c-1-0.2-2.3-0.2-3.3-0.4c-7.6-1-14.5-3.3-21.1-6.5c-0.4,0-0.6-0.2-0.8-0.4c-1.2-0.6-2.4-1.2-3.7-1.8c-0.6-12.3-0.6-12.3-0.6-12.3
			c-0.2-3.9-0.2-3.9-0.2-3.9c-0.4-6.5-0.4-6.5-0.4-6.5c-0.2-4.1-0.2-4.1-0.2-4.1c8.4-0.4,8.4-0.4,8.4-0.4c13.5-1,13.5-1,13.5-1l0,0
			c4.1-0.4,4.1-0.4,4.1-0.4c2-0.2,2-0.2,2-0.2c4.1-0.2,4.1-0.2,4.1-0.2c1,0,1,0,1,0c1.6-0.2,1.6-0.2,1.6-0.2
			c2.4-0.2,2.4-0.2,2.4-0.2c0.8,0,0.8,0,0.8,0c0.2,0,0.2,0,0.2,0c0.2,0,0.2,0,0.2,0c0,39,0,39,0,39S517.2,168,517,168z"/>
		<polygon style="clip-path:url(#SVGID_4_);fill:#2A3282;" points="481,145.8 472.8,124.7 509.4,111 517.4,131.9 		"/>
		<path style="clip-path:url(#SVGID_4_);fill:#2A3282;" d="M555.4,131.7c-0.2,4.5-0.2,4.5-0.2,4.5c-0.2,7.4-0.2,7.4-0.2,7.4
			c-0.2,3.1-0.2,3.1-0.2,3.1c-0.6,10.8-0.6,10.8-0.6,10.8c-0.6,0.4-1,0.6-1.6,1c-1,0.6-2,1-3.1,1.6c-6.8,3.5-14.3,5.9-22.1,7.1
			c-1,0-2.2,0.2-3.3,0.4c-2.2,0.2-4.5,0.2-6.7,0.4c0,0-0.2,0-0.4,0c0-39,0-39,0-39c0.2,0,0.2,0,0.2,0c0.2,0,0.2,0,0.2,0
			c1.2,0,1.2,0,1.2,0c0.8,0.2,0.8,0.2,0.8,0.2c1.6,0,1.6,0,1.6,0c1.4,0.2,1.4,0.2,1.4,0.2c1.6,0,1.6,0,1.6,0
			c4.3,0.4,4.3,0.4,4.3,0.4c4.1,0.2,4.1,0.2,4.1,0.2l0,0c15.1,1.2,15.1,1.2,15.1,1.2c2.3,0,2.3,0,2.3,0L555.4,131.7z"/>
		<path style="clip-path:url(#SVGID_4_);fill:#2A3282;" d="M488,137.2L488,137.2v0.2c-0.4,1.8-0.6,3.9-1,6.1
			c-0.2,0.6-0.2,1.2-0.4,1.8c-0.8,4.5-1.6,9.6-2.5,14.9c-1.2-0.6-2.4-1.2-3.7-1.8c-6.1-3.5-11.4-7.8-16.4-12.7
			c0-0.2-0.2-0.4-0.2-0.4c0.2-1.4,0.4-2.7,0.6-3.9c0.4-2.9,1-5.3,1.2-7.8c0.2,0,0.2-0.2,0.2-0.2l0,0c11,1.8,11,1.8,11,1.8
			c2.2,0.4,2.2,0.4,2.2,0.4L488,137.2z"/>
		<path style="clip-path:url(#SVGID_4_);fill:#2A3282;" d="M488,137.2L488,137.2v0.2c-0.2,1.2-0.4,3.3-0.8,6.1
			c-0.6,4.5-1.4,10.6-2.2,17.2c-0.4,0-0.6-0.2-0.8-0.4c-1.2-0.6-2.4-1.2-3.7-1.8c-6.1-3.5-14.4,5.5-19.4,0.6
			c0.8-5.5,4.5-23.3,4.7-25.3c0.2,0,0.2-0.2,0.2-0.2l0,0c11,1.8,11,1.8,11,1.8c2.2,0.4,2.2,0.4,2.2,0.4L488,137.2z"/>
		<path style="clip-path:url(#SVGID_4_);fill:#2A3282;" d="M487.8,132.5c1.6,5.9-2,12.1-8,13.7c-5.9,1.6-12.1-2-13.7-8
			c-1.6-6.1,2-12.3,8-13.7C480,122.9,486.1,126.3,487.8,132.5z"/>
		<polygon style="clip-path:url(#SVGID_4_);fill:#2A3282;" points="487.8,119.2 497.2,115.5 499.2,120 		"/>
		<path style="clip-path:url(#SVGID_4_);fill:#F9D4BB;" d="M501.3,122.2c0,0,12.1,11,29.8,0c-27.2-3.3-27.2-3.3-27.2-3.3
			L501.3,122.2z"/>
		<path style="clip-path:url(#SVGID_4_);fill:#72594B;" d="M510,115.9c-9.8,3.7-9.8,3.7-9.8,3.7c0.2,1.6,0.2,3.3,1.2,4.5
			c0.2,0.4,0.4,0.6,0.4,1c14.1,12.7,14.1,12.7,14.1,12.7c15.1-15.5,15.1-15.5,15.1-15.5L510,115.9z"/>
		<path style="clip-path:url(#SVGID_4_);fill:#3777BC;" d="M534.2,115.1c0,0,0,0.2,0,0.6c0,0,0,0,0,0.2c-0.2,1.8-0.8,7.1-1.6,14.1
			c0,0.2,0,0.2,0,0.2v0.2c-0.2,2.3-0.6,4.9-0.8,7.4c-1.2,9.8-2.6,20.8-4.3,29.4c-1,0-2.2,0.2-3.3,0.4c-2.2,0.2-4.5,0.2-6.7,0.4
			c0,0-0.2,0-0.4,0c-0.2,0-0.2,0-0.4,0c-2.4,0-4.9-0.2-7.3-0.4c-1-0.2-2.3-0.2-3.3-0.4c-1.6-8.6-3.1-19.6-4.3-29.4
			c-0.2-2.7-0.6-5.1-0.8-7.6l0,0c-0.8-6.9-1.4-12.3-1.6-14.3v-0.2c0-0.4,0-0.6,0-0.6l0,0c2.9,3.9,2.9,3.9,2.9,3.9c0.8,1,0.8,1,0.8,1
			c4.3,5.7,4.3,5.7,4.3,5.7c0.6,0.8,0.6,0.8,0.6,0.8c0.4,0.4,0.4,0.4,0.4,0.4c16.4,0,16.4,0,16.4,0c0.6-0.8,0.6-0.8,0.6-0.8
			c1-1.2,1-1.2,1-1.2c2.2-2.9,2.2-2.9,2.2-2.9c0.4-0.4,0.4-0.4,0.4-0.4c5.3-6.3,5.3-6.3,5.3-6.3V115.1z"/>
		<path style="clip-path:url(#SVGID_4_);fill:#2A3282;" d="M524.1,167.6c-2.2,0.2-4.5,0.2-6.7,0.4c0,0-0.2,0-0.4,0
			c-0.2,0-0.2,0-0.4,0c-2.4,0-4.9-0.2-7.3-0.4c0.2-10.2,1.6-22.1,1.6-22.1c0.2-3.1,3.3-7,3.3-7c-1-0.8-2.1-2.6-2.9-4.3
			c0-0.4-0.2-0.6-0.2-1c-0.4-0.6-0.6-1.2-0.6-1.6c-0.2-0.6-0.4-1-0.4-1.2v-0.2c0,0,0.4-0.2,1-0.8c0.8-0.6,2.3-1.4,3.9-2.3
			c0.2,0,0.4-0.2,0.4-0.2c0.2,0,0.4,0,0.4,0c0.2-0.2,0.2-0.2,0.4-0.2h0.2c0-0.2,0.2-0.2,0.4-0.2c0,0,0,0,0.2-0.2c0,0,0,0,0.2,0l0,0
			c2.4-0.8,1.2-0.2,0.4,0l0,0c-0.2,0-0.4,0.2-0.4,0.2l0,0c-0.2,0-0.2,0-0.2,0h0.2c0,0,0,0,0.2,0.2l0,0c0.2,0,0.2,0,0.4,0.2
			c0.2,0,0.2,0,0.4,0c0.4,0.2,0.6,0.4,1,0.6c1.2,0.4,2.5,1.2,3.3,1.8c0.4,0.2,0.6,0.6,0.8,0.8l0,0c0,0.2,0,0.2,0,0.2
			c0,0.2-0.2,0.6-0.4,1.2c-0.2,0.6-0.4,1.6-0.8,2.4c-0.8,1.8-1.8,3.7-2.9,4.5c0,0,3.1,3.9,3.3,7
			C522.5,145.6,523.9,157.4,524.1,167.6z"/>
		<path style="clip-path:url(#SVGID_4_);fill:#72594B;" d="M517,126.7c-7.6,0-13.9-4.9-13.9-12.5c0-9.8,0-9.8,0-9.8
			c27.6,0,27.6,0,27.6,0c0,9.8,0,9.8,0,9.8C530.7,121.8,524.6,126.7,517,126.7z"/>
		<path style="clip-path:url(#SVGID_4_);fill:#675042;" d="M534.8,91.4c0.2-6.7-0.6-12.9-2.7-19.6c-0.8-3.5-1.2-8.6-3.3-11.7
			c-1.6-2.7-4.9-2.7-8-2.5c-6.3,0.4-15.3,6.8-17.6,12.9c-1.2,3.1-1.8,7-2.2,10.2c-0.6,3.1-2.3,6.9-1.6,10.2c1.8,0,3.7,1,3.7,3.5
			c0,13.9,0,13.9,0,13.9c3.7,3.7,8.4,5.9,13.9,5.9c5.3,0,10-2.2,13.9-5.9c0-13.5,0-13.5,0-13.5C530.9,92.4,532.9,91.2,534.8,91.4z"
			/>
		<path style="clip-path:url(#SVGID_4_);fill:#72594B;" d="M538.9,83.6c0,17-9.4,28.8-21.9,28.8c-12.7,0-21.7-11.9-21.7-28.8
			c0-17.2,9-31.1,21.7-31.1C532.7,52.5,538.9,66.4,538.9,83.6z"/>
		<path style="clip-path:url(#SVGID_4_);fill:#72594B;" d="M498,79.7c-2.9,0-2.9,0-2.9,0c-1.2,0-2,1-2,2.2c0,8.4,0,8.4,0,8.4
			c0,1.2,0.8,2.3,2,2.3c2.1,0,2.1,0,2.1,0L498,79.7z"/>
		<path style="clip-path:url(#SVGID_4_);fill:#72594B;" d="M536,79.7c2.9,0,2.9,0,2.9,0c1.2,0,2.1,1,2.1,2.2c0,8.4,0,8.4,0,8.4
			c0,1.2-0.8,2.3-2.1,2.3c-2,0-2,0-2,0L536,79.7z"/>
		<path style="clip-path:url(#SVGID_4_);" d="M507.6,84.4c1,0,1.8-0.8,1.8-1.9c-0.2-0.8-1-1.6-1.8-1.6c-0.8,0-1.6,0.8-1.6,1.8
			C506,83.6,506.8,84.4,507.6,84.4z"/>
		<path style="clip-path:url(#SVGID_4_);" d="M527.6,84.6c1,0,1.6-0.8,1.6-1.8c0-0.8-0.8-1.6-1.6-1.6c-0.8,0-1.6,1-1.6,1.8
			C526,83.8,526.8,84.6,527.6,84.6z"/>
		<path style="clip-path:url(#SVGID_4_);" d="M539.1,71.1c0,12.1,0,12.1,0,12.1c0,0.6-0.4,1-1,1l0,0c-0.4,0-0.8-0.4-0.8-0.8
			c-1-14.9-1-14.9-1-14.9c0-0.6-0.4-2.9-1-2.7c-4.9,0.6-4.9,0.6-4.9,0.6c-8.8,1-17.4,1-26.2,0c-4.7-0.6-4.7-0.6-4.7-0.6
			c-0.6-0.2-1,2.1-1.2,2.7C497,83.2,497,83.2,497,83.2c0,0.6-0.4,0.8-0.8,0.8l0,0c-0.6,0-1-0.4-1-0.8c0-12.1,0-12.1,0-12.1
			c0-11,7.6-20,17-20c10,0,10,0,10,0C531.5,51.1,539.1,60.1,539.1,71.1z"/>
		<path style="clip-path:url(#SVGID_4_);" d="M534.8,87.3c0,0,0,0.2-0.2,0.2c-1.2,1.2-3.5,1.6-5.5,1.6c-4.3,0-5.9-1.4-7.8-3.9
			c-4.1-6.1,3.5-7.2,7.8-7.2c2,0,3.7,0.2,4.7,0.6c1.2,0.4,2,1,2.4,2.1l0,0c0,0.6,0.2,1,0.2,1.6c0,0.4,0,0.8-0.2,1.2
			C536.2,84.8,535.8,86.3,534.8,87.3z M512.9,85.3c-1.6,2.5-3.5,3.9-7.6,3.9c-2.1,0-4.5-0.4-5.7-1.6c0,0,0-0.2-0.2-0.2
			c-1.2-1.2-1.4-3.5-1.4-4.9c0-2.2,1-3.5,3.3-3.9c1.2-0.2,2.4-0.4,4.1-0.4C509.4,78.1,517.2,79.1,512.9,85.3z M538.7,78.5
			c-0.2-0.2-0.4-0.2-0.4-0.2s-0.4,0-1.4-0.2c-0.8-0.2-2.1-0.4-3.3-0.4c-1.2-0.2-2.7-0.2-4.1-0.2c-4.1,0-10,1.2-10,1.2
			c-2.2,0-2.2,0-2.2,0c-2.3,0-2.3,0-2.3,0s-6.1-1.2-10.2-1.2c-1,0-2.2,0-3.3,0c-1.4,0.2-3.1,0.4-4.1,0.6c-0.8,0.2-1.4,0.2-1.4,0.2
			s-0.2,0-0.4,0.2c0,0.2,0,0.4,0,0.6c0,1.6,0,1.6,0,1.6c0,0.4,0.6,0.2,1,0.6c0.2,0.2,0.4,0.8,0.4,1.4c0.2,0.8,0.4,1.6,0.6,2.7
			c0,0.2,0.2,0.4,0.2,0.6c0.2,0.8,0.6,1.6,1.4,2.3l0,0c0,0,0.2,0,0.2,0.2c1,0.8,2.9,1.2,5.5,1.2c4.1,0,6.1-0.6,8-3.1
			c0.8-1,1.4-2.2,2-3.1c0.2-0.8,0.6-1.4,1-1.6v-0.2c0.4-0.2,0.6-0.4,1.2-0.4c1.8,0,2,2.9,4.1,5.3c1.8,2.5,3.9,3.1,8.2,3.1
			c2.4,0,4.3-0.4,5.3-1.2c0.2,0,0.2-0.2,0.2-0.2l0,0c0.8-0.6,1.2-1.4,1.4-2.1c0,0,0,0,0-0.2c0.4-0.8,0.6-2.2,0.8-3.1
			c0.2-0.8,0.4-1.4,0.4-1.6c0.4-0.2,1-0.2,1-0.6c0.2,0,0.2,0,0.2,0c0-1.6,0-1.6,0-1.6C538.9,78.7,538.7,78.7,538.7,78.5z"/>
		<path style="clip-path:url(#SVGID_4_);fill:#B6B8BA;" d="M497,79.9c-0.4,0-0.8,0-1-0.2c0.2-0.2,0.6-0.2,1-0.2c0.2,0,0.6,0,0.8,0.2
			C497.6,79.9,497.2,79.9,497,79.9z"/>
		<path style="clip-path:url(#SVGID_4_);fill:#B6B8BA;" d="M537.4,79.9c-0.4,0-0.8,0-1-0.2c0.2-0.2,0.6-0.2,1-0.2
			c0.2,0,0.6,0,0.8,0.2C538.1,79.9,537.6,79.9,537.4,79.9z"/>
		<path style="clip-path:url(#SVGID_4_);fill:#675042;" d="M517.2,81.6c-0.4,0-2.5,0.2-2.5,2.3c0,2.4-0.8,5.9-2.3,5.9
			c-1,0-2,0.8-2,2c6.8,0,6.8,0,6.8,0V81.6z"/>
		<path style="clip-path:url(#SVGID_4_);fill:#4F3F34;" d="M517.2,95.5c-0.6,0-1.2-0.2-1.9-0.6c-0.4-0.6-1.6-0.8-2.9-0.8
			c-1,0-2-1-2-2.2c6.8,0,6.8,0,6.8,0V95.5z"/>
		<path style="clip-path:url(#SVGID_4_);fill:#4F3F34;" d="M517.2,95.5c0.6,0,1.2-0.2,1.8-0.6c0.4-0.6,1.6-0.8,2.7-0.8
			c1.2,0,2.2-1,2.2-2.2c-6.7,0-6.7,0-6.7,0V95.5z"/>
		<path style="clip-path:url(#SVGID_4_);fill:#CC8D85;" d="M523.1,101.2c0.2,0.6-0.2,1-0.8,1.2c-1.2,0.2-1.2,0.2-1.2,0.2
			c-1.2,0.2-2.7,0.4-3.9,0.4c-1.4,0-2.7-0.2-3.9-0.4c-1.4-0.2-1.4-0.2-1.4-0.2c-0.4-0.2-0.8-0.6-0.6-1.2l0,0c0-0.6,0.6-1,1.2-0.8
			c1.2,0.2,1.2,0.2,1.2,0.2c2.2,0.6,4.7,0.6,6.9,0c1.2-0.2,1.2-0.2,1.2-0.2C522.5,100.2,523.1,100.6,523.1,101.2L523.1,101.2z"/>
		<polygon style="clip-path:url(#SVGID_4_);fill:#004C7A;" points="502.1,137.4 517.4,126.5 516.4,126.1 508.4,125.9 501.7,133.7 		
			"/>
		<polygon style="clip-path:url(#SVGID_4_);fill:#004C7A;" points="531.5,137.6 516.2,126.9 517.2,126.3 525.2,126.1 531.9,133.9 		
			"/>
		<path style="clip-path:url(#SVGID_4_);fill:#3777BC;" d="M501.1,114.1c0,0,9.6,11.2,16.2,11.9c0,1,0,1,0,1s-10.2,4.3-15.3,9.6
			c0,0-2.3-13.5-2.7-21.9L501.1,114.1z"/>
		<path style="clip-path:url(#SVGID_4_);fill:#3777BC;" d="M532.7,114.1c0,0-10,11.2-16.6,11.9c0,1,0,1,0,1s0.4,0,1,0.4
			c2.6,1.2,10.2,4.9,14.3,9.2c0,0,2.5-13.5,2.7-21.9L532.7,114.1z"/>
		<polygon style="clip-path:url(#SVGID_4_);fill:#72594B;" points="503.7,113.3 503.3,113.3 501.1,114.1 503.3,116.5 504.5,114.7 		
			"/>
		<path style="clip-path:url(#SVGID_4_);fill:#72594B;" d="M532.7,114.1c-2.4-0.8-2.4-0.8-2.4-0.8s0.2,2.5,0,3.3L532.7,114.1z"/>
		<g style="clip-path:url(#SVGID_4_);">
			<text transform="matrix(1 0 0 1 434.3224 106.3161)" class="st5 st127 st128">F#</text>
		</g>
	</g>
	<g>
		<path class="st0" d="M475,273.4c0,4.1-3.4,7.6-7.8,7.6c-304.4,0-304.4,0-304.4,0c-4.3,0-7.8-3.5-7.8-7.6c0-75.8,0-75.8,0-75.8
			c0-4.1,3.4-7.6,7.8-7.6c304.4,0,304.4,0,304.4,0c4.4,0,7.8,3.5,7.8,7.6V273.4z"/>
		<path class="st7" d="M478,270.4c0,4.1-3.4,7.6-7.8,7.6c-304.4,0-304.4,0-304.4,0c-4.3,0-7.8-3.5-7.8-7.6c0-75.8,0-75.8,0-75.8
			c0-4.1,3.4-7.6,7.8-7.6c304.4,0,304.4,0,304.4,0c4.4,0,7.8,3.5,7.8,7.6V270.4z"/>
		<path class="st6" d="M179,201c0,0.7-0.3,1-0.6,1h-9.4c-0.5,0-0.9-0.4-0.9-0.9v-5.1c0-0.5,0.4-0.9,0.9-0.9h9.4c0.3,0,0.6,0.3,0.6,1
			V201z"/>
		<path class="st6" d="M179,214c0,0.6-0.3,1-0.6,1h-9.4c-0.5,0-0.9-0.4-0.9-0.9V205c0-0.7,0.3-1,0.9-1c9.4,0,9.4,0,9.4,0
			c0.3,0,0.6,0.3,0.6,1V214z"/>
		<path class="st6" d="M193,214c0,0.6-0.7,1-1,1c-9.4,0-9.4,0-9.4,0c-0.3,0-0.6-0.3-0.6-1c0-9,0-9,0-9c0-0.7,0.3-1,0.6-1
			c9.4,0,9.4,0,9.4,0c0.3,0,1,0.3,1,1V214z"/>
		<path class="st6" d="M200,228.4c0,0.3-0.3,0.6-0.6,0.6h-9.4c-0.6,0-0.9-0.3-0.9-0.6c0-8.8,0-8.8,0-8.8c0-0.3,0.3-0.6,0.9-0.6h9.4
			c0.3,0,0.6,0.3,0.6,0.6V228.4z"/>
		<path class="st6" d="M213.4,229h-9.8c-0.3,0-0.6-0.3-0.6-0.6v-8.8c0-0.3,0.3-0.6,0.6-0.6h9.8c0.3,0,0.6,0.3,0.6,0.6v8.8
			C214,228.7,213.7,229,213.4,229z"/>
		<path class="st6" d="M228,228.4c0,0.3-0.3,0.6-0.9,0.6h-9.4c-0.3,0-0.6-0.3-0.6-0.6v-8.8c0-0.3,0.3-0.6,0.6-0.6h9.4
			c0.6,0,0.9,0.3,0.9,0.6V228.4z"/>
		<path class="st6" d="M241,228.4c0,0.3-0.3,0.6-0.6,0.6h-9.4c-0.6,0-0.9-0.3-0.9-0.6c0-8.8,0-8.8,0-8.8c0-0.3,0.3-0.6,0.9-0.6h9.4
			c0.3,0,0.6,0.3,0.6,0.6V228.4z"/>
		<path class="st6" d="M254.4,229h-9.8c-0.3,0-0.6-0.3-0.6-0.6v-8.8c0-0.3,0.3-0.6,0.6-0.6h9.8c0.3,0,0.6,0.3,0.6,0.6v8.8
			C255,228.7,254.7,229,254.4,229z"/>
		<path class="st6" d="M269,228.4c0,0.3-0.3,0.6-0.9,0.6h-9.4c-0.3,0-0.6-0.3-0.6-0.6v-8.8c0-0.3,0.3-0.6,0.6-0.6h9.4
			c0.6,0,0.9,0.3,0.9,0.6V228.4z"/>
		<path class="st6" d="M283,228.4c0,0.3-0.3,0.6-0.6,0.6h-9.4c-0.6,0-0.9-0.3-0.9-0.6c0-8.8,0-8.8,0-8.8c0-0.3,0.3-0.6,0.9-0.6h9.4
			c0.3,0,0.6,0.3,0.6,0.6V228.4z"/>
		<path class="st6" d="M296.4,229h-9.8c-0.3,0-0.6-0.3-0.6-0.6v-8.8c0-0.3,0.3-0.6,0.6-0.6h9.8c0.3,0,0.6,0.3,0.6,0.6v8.8
			C297,228.7,296.7,229,296.4,229z"/>
		<path class="st6" d="M310,228.4c0,0.3-0.3,0.6-1,0.6h-9.4c-0.3,0-0.6-0.3-0.6-0.6v-8.8c0-0.3,0.3-0.6,0.6-0.6h9.4
			c0.6,0,1,0.3,1,0.6V228.4z"/>
		<path class="st6" d="M324,228.4c0,0.3-0.3,0.6-0.6,0.6h-9.4c-0.6,0-0.9-0.3-0.9-0.6c0-8.8,0-8.8,0-8.8c0-0.3,0.3-0.6,0.9-0.6h9.4
			c0.3,0,0.6,0.3,0.6,0.6V228.4z"/>
		<path class="st6" d="M207,214c0,0.5-0.4,1-1,1h-9.4c-0.3,0-0.6-0.3-0.6-1c0-9,0-9,0-9c0-0.7,0.3-1,0.6-1c9.4,0,9.4,0,9.4,0
			c0.6,0,0.9,0.3,0.9,1V214z"/>
		<path class="st6" d="M221,214c0,0.6-0.3,1-0.7,1h-9.4c-0.5,0-0.9-0.4-0.9-0.9V205c0-0.7,0.3-1,0.9-1c9.4,0,9.4,0,9.4,0
			c0.3,0,0.7,0.3,0.7,1V214z"/>
		<path class="st6" d="M235,214c0,0.6-0.3,1-0.6,1c-9.7,0-9.7,0-9.7,0c-0.3,0-0.6-0.3-0.6-1c0-9,0-9,0-9c0-0.7,0.3-1,0.6-1
			c9.7,0,9.7,0,9.7,0c0.3,0,0.6,0.3,0.6,1V214z"/>
		<path class="st6" d="M248,214c0,0.5-0.4,1-1,1h-9.4c-0.3,0-0.6-0.3-0.6-1c0-9,0-9,0-9c0-0.7,0.3-1,0.6-1c9.4,0,9.4,0,9.4,0
			c0.6,0,0.9,0.3,0.9,1V214z"/>
		<path class="st6" d="M262,214c0,0.6-0.3,1-0.6,1h-9.4c-0.5,0-0.9-0.4-0.9-0.9V205c0-0.7,0.3-1,0.9-1c9.4,0,9.4,0,9.4,0
			c0.3,0,0.6,0.3,0.6,1V214z"/>
		<path class="st6" d="M276,214c0,0.6-0.3,1-0.6,1c-9.4,0-9.4,0-9.4,0c-0.3,0-1-0.3-1-1c0-9,0-9,0-9c0-0.7,0.6-1,1-1
			c9.4,0,9.4,0,9.4,0c0.3,0,0.6,0.3,0.6,1V214z"/>
		<path class="st6" d="M290,214c0,0.5-0.4,1-1,1h-9.4c-0.3,0-0.6-0.3-0.6-1c0-9,0-9,0-9c0-0.7,0.3-1,0.6-1c9.4,0,9.4,0,9.4,0
			c0.6,0,0.9,0.3,0.9,1V214z"/>
		<path class="st6" d="M303,215h-9.1c-0.5,0-0.9-0.4-0.9-0.9V205c0-0.7,0.3-1,0.9-1c9.1,0,9.1,0,9.1,0c0.6,0,0.9,0.3,0.9,1v9.1
			C304,214.6,303.6,215,303,215z"/>
		<path class="st6" d="M317,214c0,0.6-0.3,1-0.6,1h-9.4c-0.5,0-0.9-0.4-0.9-0.9V205c0-0.7,0.3-1,0.9-1c9.4,0,9.4,0,9.4,0
			c0.3,0,0.6,0.3,0.6,1V214z"/>
		<path class="st6" d="M331,214c0,0.6-0.6,1-0.9,1c-9.4,0-9.4,0-9.4,0c-0.3,0-0.6-0.3-0.6-1c0-9,0-9,0-9c0-0.7,0.3-1,0.6-1
			c9.4,0,9.4,0,9.4,0c0.3,0,0.9,0.3,0.9,1V214z"/>
		<path class="st6" d="M338,228.4c0,0.3-0.3,0.6-0.7,0.6h-9.7c-0.3,0-0.6-0.3-0.6-0.6v-8.8c0-0.3,0.3-0.6,0.6-0.6h9.7
			c0.3,0,0.7,0.3,0.7,0.6V228.4z"/>
		<path class="st6" d="M352,228.4c0,0.3-0.3,0.6-0.9,0.6h-9.4c-0.3,0-0.6-0.3-0.6-0.6v-8.8c0-0.3,0.3-0.6,0.6-0.6h9.4
			c0.6,0,0.9,0.3,0.9,0.6V228.4z"/>
		<path class="st6" d="M203,242c0,0.6-0.3,1-1,1c-9.4,0-9.4,0-9.4,0c-0.3,0-0.6-0.3-0.6-1c0-9.1,0-9.1,0-9.1c0-0.3,0.3-1,0.6-1
			c9.4,0,9.4,0,9.4,0c0.7,0,1,0.6,1,1V242z"/>
		<path class="st6" d="M217,242c0,0.6-0.3,1-0.6,1c-9.4,0-9.4,0-9.4,0c-0.3,0-0.9-0.3-0.9-1c0-9.1,0-9.1,0-9.1c0-0.3,0.6-1,0.9-1
			c9.4,0,9.4,0,9.4,0c0.3,0,0.6,0.6,0.6,1V242z"/>
		<path class="st6" d="M231,242.1c0,0.5-0.4,0.9-0.9,0.9H221c-0.7,0-1-0.3-1-1c0-9.1,0-9.1,0-9.1c0-0.3,0.3-1,1-1c9.1,0,9.1,0,9.1,0
			c0.6,0,0.9,0.6,0.9,1V242.1z"/>
		<path class="st6" d="M245,242c0,0.6-0.6,1-0.9,1c-9.4,0-9.4,0-9.4,0c-0.3,0-0.6-0.3-0.6-1c0-9.1,0-9.1,0-9.1c0-0.3,0.3-1,0.6-1
			c9.4,0,9.4,0,9.4,0c0.3,0,0.9,0.6,0.9,1V242z"/>
		<path class="st6" d="M258,242c0,0.6-0.3,1-0.6,1h-9.4c-0.5,0-0.9-0.4-0.9-0.9V233c0-0.3,0.3-1,0.9-1c9.4,0,9.4,0,9.4,0
			c0.3,0,0.6,0.6,0.6,1V242z"/>
		<path class="st6" d="M272,242.1c0,0.5-0.4,0.9-0.9,0.9h-9.4c-0.3,0-0.6-0.3-0.6-1c0-9.1,0-9.1,0-9.1c0-0.3,0.3-1,0.6-1
			c9.4,0,9.4,0,9.4,0c0.6,0,0.9,0.6,0.9,1V242.1z"/>
		<path class="st6" d="M286,242c0,0.6-0.3,1-0.6,1c-9.4,0-9.4,0-9.4,0c-0.3,0-0.9-0.3-0.9-1c0-9.1,0-9.1,0-9.1c0-0.3,0.6-1,0.9-1
			c9.4,0,9.4,0,9.4,0c0.3,0,0.6,0.6,0.6,1V242z"/>
		<path class="st6" d="M300,242c0,0.6-0.3,1-0.6,1h-9.4c-0.5,0-0.9-0.4-0.9-0.9V233c0-0.3,0.3-1,0.9-1c9.4,0,9.4,0,9.4,0
			c0.3,0,0.6,0.6,0.6,1V242z"/>
		<path class="st6" d="M314,242c0,0.6-0.6,1-0.9,1c-9.4,0-9.4,0-9.4,0c-0.3,0-0.6-0.3-0.6-1c0-9.1,0-9.1,0-9.1c0-0.3,0.3-1,0.6-1
			c9.4,0,9.4,0,9.4,0c0.3,0,0.9,0.6,0.9,1V242z"/>
		<path class="st6" d="M210,255.4c0,0.3-0.3,0.6-0.6,0.6c-9.4,0-9.4,0-9.4,0c-0.6,0-0.9-0.3-0.9-0.6v-8.4c0-0.5,0.4-0.9,0.9-0.9h9.4
			c0.3,0,0.6,0.3,0.6,0.9V255.4z"/>
		<path class="st6" d="M224,255.4c0,0.3-0.3,0.6-0.6,0.6c-9.7,0-9.7,0-9.7,0c-0.3,0-0.6-0.3-0.6-0.6c0-8.5,0-8.5,0-8.5
			c0-0.6,0.3-0.9,0.6-0.9c9.7,0,9.7,0,9.7,0c0.3,0,0.6,0.3,0.6,0.9V255.4z"/>
		<path class="st6" d="M238,255.4c0,0.3-0.3,0.6-0.9,0.6c-9.4,0-9.4,0-9.4,0c-0.3,0-0.6-0.3-0.6-0.6c0-8.5,0-8.5,0-8.5
			c0-0.6,0.3-0.9,0.6-0.9h9.4c0.5,0,0.9,0.4,0.9,0.9V255.4z"/>
		<path class="st6" d="M252,255.4c0,0.3-0.3,0.6-0.6,0.6c-9.4,0-9.4,0-9.4,0c-0.3,0-0.9-0.3-0.9-0.6c0-8.5,0-8.5,0-8.5
			c0-0.6,0.6-0.9,0.9-0.9c9.4,0,9.4,0,9.4,0c0.3,0,0.6,0.3,0.6,0.9V255.4z"/>
		<path class="st6" d="M266,255.4c0,0.3-0.3,0.6-1,0.6c-9.4,0-9.4,0-9.4,0c-0.3,0-0.6-0.3-0.6-0.6c0-8.5,0-8.5,0-8.5
			c0-0.6,0.3-0.9,0.6-0.9h9.4c0.5,0,1,0.4,1,1V255.4z"/>
		<path class="st6" d="M279,255.4c0,0.3-0.3,0.6-0.6,0.6c-9.4,0-9.4,0-9.4,0c-0.6,0-0.9-0.3-0.9-0.6c0-8.5,0-8.5,0-8.5
			c0-0.6,0.3-0.9,0.9-0.9c9.4,0,9.4,0,9.4,0c0.3,0,0.6,0.3,0.6,0.9V255.4z"/>
		<path class="st6" d="M293,255.4c0,0.3-0.3,0.6-0.9,0.6c-9.4,0-9.4,0-9.4,0c-0.3,0-0.6-0.3-0.6-0.6c0-8.5,0-8.5,0-8.5
			c0-0.6,0.3-0.9,0.6-0.9h9.4c0.5,0,0.9,0.4,0.9,0.9V255.4z"/>
		<path class="st6" d="M328,242c0,0.6-0.3,1-0.6,1h-9.4c-0.5,0-0.9-0.4-0.9-0.9V233c0-0.3,0.3-1,0.9-1c9.4,0,9.4,0,9.4,0
			c0.3,0,0.6,0.6,0.6,1V242z"/>
		<path class="st6" d="M342,242.1c0,0.5-0.4,0.9-0.9,0.9h-9.4c-0.3,0-0.6-0.3-0.6-1c0-9.1,0-9.1,0-9.1c0-0.3,0.3-1,0.6-1
			c9.4,0,9.4,0,9.4,0c0.6,0,0.9,0.6,0.9,1V242.1z"/>
		<path class="st6" d="M426,242.1c0,0.5-0.4,0.9-0.9,0.9h-9.4c-0.3,0-0.6-0.3-0.6-1c0-9.1,0-9.1,0-9.1c0-0.3,0.3-1,0.6-1
			c9.4,0,9.4,0,9.4,0c0.6,0,0.9,0.6,0.9,1V242.1z"/>
		<path class="st6" d="M440,242c0,0.6-0.3,1-0.6,1c-9.7,0-9.7,0-9.7,0c-0.3,0-0.6-0.3-0.6-1c0-9.1,0-9.1,0-9.1c0-0.3,0.3-1,0.6-1
			c9.7,0,9.7,0,9.7,0c0.3,0,0.6,0.6,0.6,1V242z"/>
		<path class="st6" d="M454,242c0,0.6-0.3,1-0.6,1h-9.4c-0.5,0-0.9-0.4-0.9-0.9V233c0-0.3,0.3-1,0.9-1c9.4,0,9.4,0,9.4,0
			c0.3,0,0.6,0.6,0.6,1V242z"/>
		<path class="st6" d="M321,255.4c0,0.3-0.6,0.6-0.9,0.6c-9.4,0-9.4,0-9.4,0c-0.3,0-0.6-0.3-0.6-0.6c0-8.5,0-8.5,0-8.5
			c0-0.6,0.3-0.9,0.6-0.9c9.4,0,9.4,0,9.4,0c0.3,0,0.9,0.3,0.9,0.9V255.4z"/>
		<path class="st6" d="M307,255.4c0,0.3-0.3,0.6-0.6,0.6c-9.4,0-9.4,0-9.4,0c-0.6,0-0.9-0.3-0.9-0.6c0-8.5,0-8.5,0-8.5
			c0-0.6,0.3-0.9,0.9-0.9c9.4,0,9.4,0,9.4,0c0.3,0,0.6,0.3,0.6,0.9V255.4z"/>
		<path class="st6" d="M335,255.4c0,0.3-0.3,0.6-0.6,0.6c-9.4,0-9.4,0-9.4,0c-0.6,0-0.9-0.3-0.9-0.6v-8.4c0-0.5,0.4-0.9,0.9-0.9h9.4
			c0.3,0,0.6,0.3,0.6,0.9V255.4z"/>
		<path class="st6" d="M440,255.4c0,0.3-0.3,0.6-0.6,0.6c-9.4,0-9.4,0-9.4,0c-0.3,0-0.9-0.3-0.9-0.6c0-8.5,0-8.5,0-8.5
			c0-0.6,0.6-0.9,0.9-0.9c9.4,0,9.4,0,9.4,0c0.3,0,0.6,0.3,0.6,0.9V255.4z"/>
		<path class="st6" d="M426,255.4c0,0.3-0.3,0.6-0.9,0.6c-9.4,0-9.4,0-9.4,0c-0.3,0-0.6-0.3-0.6-0.6c0-8.5,0-8.5,0-8.5
			c0-0.6,0.3-0.9,0.6-0.9h9.4c0.5,0,0.9,0.4,0.9,0.9V255.4z"/>
		<path class="st6" d="M454,255.4c0,0.3-0.3,0.6-0.9,0.6c-9.4,0-9.4,0-9.4,0c-0.3,0-0.6-0.3-0.6-0.6c0-8.5,0-8.5,0-8.5
			c0-0.6,0.3-0.9,0.6-0.9h9.4c0.5,0,0.9,0.4,0.9,0.9V255.4z"/>
		<path class="st6" d="M366,228.4c0,0.3-0.3,0.6-0.6,0.6H356c-0.7,0-1-0.3-1-0.6c0-8.8,0-8.8,0-8.8c0-0.3,0.3-0.6,1-0.6h9.4
			c0.3,0,0.6,0.3,0.6,0.6V228.4z"/>
		<path class="st6" d="M426,228.4c0,0.3-0.3,0.6-0.6,0.6h-9.4c-0.6,0-0.9-0.3-0.9-0.6c0-8.8,0-8.8,0-8.8c0-0.3,0.3-0.6,0.9-0.6h9.4
			c0.3,0,0.6,0.3,0.6,0.6V228.4z"/>
		<path class="st6" d="M439.4,229h-9.8c-0.3,0-0.6-0.3-0.6-0.6v-8.8c0-0.3,0.3-0.6,0.6-0.6h9.8c0.3,0,0.6,0.3,0.6,0.6v8.8
			C440,228.7,439.7,229,439.4,229z"/>
		<path class="st6" d="M454,228.4c0,0.3-0.3,0.6-0.9,0.6h-9.4c-0.3,0-0.6-0.3-0.6-0.6v-8.8c0-0.3,0.3-0.6,0.6-0.6h9.4
			c0.6,0,0.9,0.3,0.9,0.6V228.4z"/>
		<path class="st6" d="M345,214c0,0.5-0.4,1-1,1h-9.4c-0.3,0-0.6-0.3-0.6-1c0-9,0-9,0-9c0-0.7,0.3-1,0.6-1c9.4,0,9.4,0,9.4,0
			c0.6,0,0.9,0.3,0.9,1V214z"/>
		<path class="st6" d="M426,214c0,0.5-0.4,1-1,1h-9.4c-0.3,0-0.6-0.3-0.6-1c0-9,0-9,0-9c0-0.7,0.3-1,0.6-1c9.4,0,9.4,0,9.4,0
			c0.6,0,0.9,0.3,0.9,1V214z"/>
		<path class="st6" d="M440,214c0,0.6-0.3,1-0.6,1H430c-0.5,0-1-0.4-1-1V205c0-0.7,0.3-1,0.9-1c9.4,0,9.4,0,9.4,0
			c0.3,0,0.6,0.3,0.6,1V214z"/>
		<path class="st6" d="M454,214c0,0.6-0.3,1-0.6,1c-9.7,0-9.7,0-9.7,0c-0.3,0-0.6-0.3-0.6-1c0-9,0-9,0-9c0-0.7,0.3-1,0.6-1
			c9.7,0,9.7,0,9.7,0c0.3,0,0.6,0.3,0.6,1V214z"/>
		<path class="st6" d="M381.4,229h-9.8c-0.3,0-0.6-0.3-0.6-0.6v-8.8c0-0.3,0.3-0.6,0.6-0.6h9.4c0.5,0,0.9,0.4,0.9,0.9v8.4
			C382,228.7,381.7,229,381.4,229z"/>
		<path class="st6" d="M396,228.4c0,0.3-0.3,0.6-0.9,0.6h-9.4c-0.3,0-0.6-0.3-0.6-0.6v-8.8c0-0.3,0.3-0.6,0.6-0.6h9.4
			c0.6,0,0.9,0.3,0.9,0.6V228.4z"/>
		<path class="st6" d="M409,228.4c0,0.3-0.3,0.6-0.6,0.6h-9.4c-0.6,0-0.9-0.3-0.9-0.6c0-8.8,0-8.8,0-8.8c0-0.3,0.3-0.6,0.9-0.6h9.4
			c0.3,0,0.6,0.3,0.6,0.6V228.4z"/>
		<path class="st6" d="M382,214c0,0.6-0.3,1-0.6,1h-9.4c-0.5,0-0.9-0.4-0.9-0.9V205c0-0.7,0.3-1,0.9-1c9.4,0,9.4,0,9.4,0
			c0.3,0,0.6,0.3,0.6,1V214z"/>
		<path class="st6" d="M396,214c0,0.6-0.6,1-0.9,1c-9.4,0-9.4,0-9.4,0c-0.3,0-0.6-0.3-0.6-1c0-9,0-9,0-9c0-0.7,0.3-1,0.6-1
			c9.4,0,9.4,0,9.4,0c0.3,0,0.9,0.3,0.9,1V214z"/>
		<path class="st6" d="M409,214c0,0.5-0.4,1-1,1h-9.4c-0.3,0-0.6-0.3-0.6-1c0-9,0-9,0-9c0-0.7,0.3-1,0.6-1c9.4,0,9.4,0,9.4,0
			c0.6,0,0.9,0.3,0.9,1V214z"/>
		<path class="st6" d="M381.1,272h-9.5c-0.3,0-0.6-0.3-0.6-0.6V262c0-0.6,0.3-1,0.6-1c9.4,0,9.4,0,9.4,0c0.3,0,0.9,0.3,0.9,1v9.1
			C382,271.6,381.6,272,381.1,272z"/>
		<path class="st6" d="M396,271c0,0.3-0.3,1-0.9,1h-9.4c-0.3,0-0.6-0.3-0.6-0.6V262c0-0.6,0.3-1,0.6-1h9.4c0.5,0,0.9,0.4,0.9,0.9
			V271z"/>
		<path class="st6" d="M409,271.1c0,0.5-0.4,0.9-0.9,0.9h-9.1c-0.6,0-0.9-0.6-0.9-1v-9.1c0-0.5,0.4-0.9,0.9-0.9h9.4
			c0.3,0,0.6,0.3,0.6,1V271.1z"/>
		<path class="st6" d="M396,257.1c0,0.6-0.6,0.9-0.9,0.9c-9.4,0-9.4,0-9.4,0c-0.3,0-0.6-0.3-0.6-0.9c0-8.5,0-8.5,0-8.5
			c0-0.3,0.3-0.6,0.6-0.6c9.4,0,9.4,0,9.4,0c0.3,0,0.9,0.3,0.9,0.6V257.1z"/>
		<path class="st6" d="M467,214c0,0.5-0.4,1-1,1h-9.4c-0.3,0-0.6-0.3-0.6-1c0-9,0-9,0-9c0-0.7,0.3-1,0.6-1c9.4,0,9.4,0,9.4,0
			c0.6,0,0.9,0.3,0.9,1V214z"/>
		<path class="st6" d="M467,269.4c0,0.3-0.3,0.6-0.9,0.6h-9.4c-0.3,0-0.6-0.3-0.6-0.6v-22.5c0-0.6,0.3-0.9,0.6-0.9h9.4
			c0.5,0,0.9,0.4,0.9,0.9V269.4z"/>
		<path class="st6" d="M467,241.1c0,0.5-0.4,0.9-0.9,0.9h-9.4c-0.3,0-0.6-0.3-0.6-0.9c0-21.2,0-21.2,0-21.2c0-0.6,0.3-0.9,0.6-0.9
			h9.4c0.5,0,0.9,0.4,0.9,0.9V241.1z"/>
		<path class="st6" d="M194,201c0,0.7-0.3,1-0.7,1h-9.4c-0.5,0-0.9-0.4-0.9-0.9v-5.1c0-0.5,0.4-0.9,0.9-0.9h9.4c0.3,0,0.7,0.3,0.7,1
			V201z"/>
		<path class="st6" d="M208,201c0,0.7-0.3,1-0.6,1h-9.4c-0.5,0-0.9-0.4-0.9-0.9v-5.1c0-0.5,0.4-0.9,0.9-0.9h9.4c0.3,0,0.6,0.3,0.6,1
			V201z"/>
		<path class="st6" d="M222,201c0,0.7-0.3,1-0.6,1h-9.4c-0.5,0-0.9-0.4-0.9-0.9v-5.1c0-0.5,0.4-0.9,0.9-0.9h9.4c0.3,0,0.6,0.3,0.6,1
			V201z"/>
		<path class="st6" d="M237,201c0,0.7-0.3,1-0.6,1h-9.4c-0.5,0-0.9-0.4-0.9-0.9v-5.1c0-0.5,0.4-0.9,0.9-0.9h9.4c0.3,0,0.6,0.3,0.6,1
			V201z"/>
		<path class="st6" d="M251,201c0,0.7-0.3,1-0.6,1h-9.4c-0.5,0-0.9-0.4-0.9-0.9v-5.1c0-0.5,0.4-0.9,0.9-0.9h9.4c0.3,0,0.6,0.3,0.6,1
			V201z"/>
		<path class="st6" d="M265,201c0,0.7-0.3,1-0.6,1h-9.4c-0.5,0-0.9-0.4-0.9-0.9v-5.1c0-0.5,0.4-0.9,0.9-0.9h9.4c0.3,0,0.6,0.3,0.6,1
			V201z"/>
		<path class="st6" d="M280,201c0,0.7-0.3,1-0.6,1h-9.4c-0.5,0-0.9-0.4-0.9-0.9v-5.1c0-0.5,0.4-0.9,0.9-0.9h9.4c0.3,0,0.6,0.3,0.6,1
			V201z"/>
		<path class="st6" d="M294,201c0,0.7-0.3,1-0.6,1H284c-0.5,0-1-0.4-1-1v-5.1c0-0.5,0.4-0.9,0.9-0.9h9.4c0.3,0,0.6,0.3,0.6,1V201z"
			/>
		<path class="st6" d="M308,201c0,0.7-0.3,1-0.6,1h-9.4c-0.5,0-0.9-0.4-0.9-0.9v-5.1c0-0.5,0.4-0.9,0.9-0.9h9.4c0.3,0,0.6,0.3,0.6,1
			V201z"/>
		<path class="st6" d="M323,201c0,0.7-0.3,1-0.6,1h-9.4c-0.5,0-0.9-0.4-0.9-0.9v-5.1c0-0.5,0.4-0.9,0.9-0.9h9.4c0.3,0,0.6,0.3,0.6,1
			V201z"/>
		<path class="st6" d="M336.1,202h-9.1c-0.5,0-0.9-0.4-0.9-0.9v-5.1c0-0.5,0.4-0.9,0.9-0.9h9.1c0.5,0,0.9,0.4,0.9,0.9v5.1
			C337,201.6,336.6,202,336.1,202z"/>
		<path class="st6" d="M350.1,202h-9.1c-0.5,0-0.9-0.4-0.9-0.9v-5.1c0-0.5,0.4-0.9,0.9-0.9h9.1c0.5,0,0.9,0.4,0.9,0.9v5.1
			C351,201.6,350.6,202,350.1,202z"/>
		<path class="st6" d="M366,201c0,0.7-0.3,1-0.6,1c-9.4,0-9.4,0-9.4,0c-0.7,0-1-0.3-1-1c0-5,0-5,0-5c0-0.7,0.3-1,1-1
			c9.4,0,9.4,0,9.4,0c0.3,0,0.6,0.3,0.6,1V201z"/>
		<path class="st6" d="M365,214c0,0.6-0.3,1-1,1c-15.4,0-15.4,0-15.4,0c-0.3,0-0.6-0.3-0.6-1c0-9,0-9,0-9c0-0.7,0.3-1,0.6-1H364
			c0.5,0,1,0.4,1,1V214z"/>
		<path class="st6" d="M365,242c0,0.6-0.3,1-0.7,1h-18.4c-0.5,0-0.9-0.4-0.9-0.9V233c0-0.3,0.3-1,1-1h18.4c0.4,0,0.7,0.3,0.7,0.7
			V242z"/>
		<path class="st6" d="M189,242c0,0.6-0.6,1-0.9,1h-18.1c-0.5,0-0.9-0.4-0.9-0.9V233c0-0.3,0.3-1,0.9-1c18.1,0,18.1,0,18.1,0
			c0.3,0,0.9,0.6,0.9,1V242z"/>
		<path class="st6" d="M365,255.4c0,0.3-0.3,0.6-0.6,0.6c-24.4,0-24.4,0-24.4,0c-0.6,0-0.9-0.3-0.9-0.6v-8.4c0-0.5,0.4-0.9,0.9-0.9
			h24.4c0.3,0,0.6,0.3,0.6,0.9V255.4z"/>
		<path class="st6" d="M195,255.4c0,0.3-0.3,0.6-0.9,0.6c-24.2,0-24.2,0-24.2,0c-0.3,0-0.9-0.3-0.9-0.6c0-8.5,0-8.5,0-8.5
			c0-0.6,0.6-0.9,0.9-0.9h24.2c0.5,0,0.9,0.4,0.9,0.9V255.4z"/>
		<path class="st6" d="M186,228.4c0,0.3-0.3,0.6-0.9,0.6c-15.2,0-15.2,0-15.2,0c-0.6,0-0.9-0.3-0.9-0.6c0-8.8,0-8.8,0-8.8
			c0-0.3,0.3-0.6,0.9-0.6c15.2,0,15.2,0,15.2,0c0.6,0,0.9,0.3,0.9,0.6V228.4z"/>
		<path class="st6" d="M179,270.3c0,0.3-0.3,0.7-0.9,0.7c-9.4,0-9.4,0-9.4,0c-0.3,0-0.6-0.3-0.6-0.7c0-10.4,0-10.4,0-10.4
			c0-0.6,0.3-1,0.6-1h9.4c0.5,0,0.9,0.4,0.9,0.9V270.3z"/>
		<path class="st6" d="M193,270.3c0,0.3-0.3,0.7-0.9,0.7c-9.4,0-9.4,0-9.4,0c-0.3,0-0.6-0.3-0.6-0.7c0-10.4,0-10.4,0-10.4
			c0-0.6,0.3-1,0.6-1h9.4c0.5,0,0.9,0.4,0.9,0.9V270.3z"/>
		<path class="st6" d="M221,270.4c0,0.4-0.3,0.6-0.6,0.6h-9.7c-0.3,0-0.6-0.3-0.6-0.7c0-10.4,0-10.4,0-10.4c0-0.6,0.3-1,0.6-1
			c9.7,0,9.7,0,9.7,0c0.3,0,0.7,0.3,0.7,1V270.4z"/>
		<path class="st6" d="M290,270.3c0,0.3-0.3,0.7-0.6,0.7c-61.8,0-61.8,0-61.8,0c-0.3,0-0.6-0.3-0.6-0.7c0-10.4,0-10.4,0-10.4
			c0-0.6,0.3-1,0.6-1c61.8,0,61.8,0,61.8,0c0.3,0,0.6,0.3,0.6,1V270.3z"/>
		<path class="st6" d="M207,270.3c0,0.3-0.6,0.7-0.9,0.7c-9.4,0-9.4,0-9.4,0c-0.3,0-0.6-0.3-0.6-0.7c0-10.4,0-10.4,0-10.4
			c0-0.6,0.3-1,0.6-1c9.4,0,9.4,0,9.4,0c0.3,0,0.9,0.3,0.9,1V270.3z"/>
		<path class="st6" d="M335,270.3c0,0.3-0.3,0.7-0.6,0.7c-9.4,0-9.4,0-9.4,0c-0.6,0-0.9-0.3-0.9-0.7v-10.4c0-0.5,0.4-0.9,0.9-0.9
			h9.4c0.3,0,0.6,0.3,0.6,1V270.3z"/>
		<path class="st6" d="M454,270.3c0,0.3-0.3,0.7-0.9,0.7c-9.4,0-9.4,0-9.4,0c-0.3,0-0.6-0.3-0.6-0.7c0-10.4,0-10.4,0-10.4
			c0-0.6,0.3-1,0.6-1h9.4c0.5,0,0.9,0.4,0.9,0.9V270.3z"/>
		<path class="st6" d="M439,270.3c0,0.3-0.3,0.7-0.6,0.7c-21.5,0-21.5,0-21.5,0c-0.6,0-0.9-0.3-0.9-0.7v-10.4c0-0.5,0.4-0.9,0.9-0.9
			h21.5c0.3,0,0.6,0.3,0.6,1V270.3z"/>
		<path class="st6" d="M357,270.3c0,0.3-0.3,0.7-0.6,0.7h-9.7c-0.4,0-0.7-0.3-0.7-0.7V260c0-0.6,0.3-1,0.6-1c9.8,0,9.8,0,9.8,0
			c0.3,0,0.6,0.3,0.6,1V270.3z"/>
		<path class="st6" d="M321,270.3c0,0.3-0.3,0.7-0.9,0.7c-9.4,0-9.4,0-9.4,0c-0.3,0-0.6-0.3-0.6-0.7c0-10.4,0-10.4,0-10.4
			c0-0.6,0.3-1,0.6-1h9.4c0.5,0,0.9,0.4,0.9,0.9V270.3z"/>
		<path class="st6" d="M307,270.3c0,0.3-0.6,0.7-0.9,0.7c-9.4,0-9.4,0-9.4,0c-0.3,0-0.6-0.3-0.6-0.7c0-10.4,0-10.4,0-10.4
			c0-0.6,0.3-1,0.6-1c9.4,0,9.4,0,9.4,0c0.3,0,0.9,0.3,0.9,1V270.3z"/>
		<path class="st6" d="M344,271c-6,0-6,0-6,0c-0.7,0-1-0.3-1-0.7v-10.4c0-0.5,0.4-0.9,0.9-0.9h6.1V271z"/>
		<path class="st6" d="M359,271c6.3,0,6.3,0,6.3,0c0.3,0,0.7-0.3,0.7-0.7c0-10.4,0-10.4,0-10.4c0-0.6-0.3-1-0.7-1
			c-6.3,0-6.3,0-6.3,0V271z"/>
		<path class="st6" d="M448,265h-0.3c0-0.3,0.3-0.3,0.3-0.3S448,264.7,448,265L448,265z"/>
	</g>
	<g>
		<defs>
			<path id="SVGID_41_" d="M205.4,36H79.3c-9.9,0-18,8.1-18,18v82.4c0,9.9,8.1,18,18,18h101.1L199,181l0.2-26.6h6.2
				c9.9,0,18-8.1,18-18V54C223.4,44.1,215.3,36,205.4,36z"/>
		</defs>
		<clipPath id="SVGID_6_">
			<use xlink:href="#SVGID_41_"  style="overflow:visible;"/>
		</clipPath>
		<g style="clip-path:url(#SVGID_6_);">
			<polygon points="145.4,139.2 115.1,127.3 121.7,109.5 152,121.3 			"/>
			<path d="M162.9,155.2c0,0.3-0.4,0.4-0.5,0.2c-0.9-1.6-19.3,0.7-19.3,0.7c-0.6-3.8-3.5-23.3-3.5-23.8l0,0
				c-0.2-0.2,18.3-3.6,18.3-3.6c0.2,0.2,0.2,0.4,0.2,0.6l0,0C158.4,131.9,161.8,147.2,162.9,155.2z"/>
			<polygon points="84.5,138.8 77.8,121 108.2,109.2 114.9,127 			"/>
			<path class="st370" d="M128.2,55.7c-0.2,3.2-0.2,3.2-0.2,3.2c-3-1.1-6.8-1.7-11.8-1.7c-10,0-20.8,1.1-24,12.6
				c-0.4,12.8-1.5,43.3,0.6,45.2c-1.1-0.2,31.6,15.2,43.4-2.3c3.7-5.1,0-11.8,1.5-18.9C141.3,76.5,138.3,57,128.2,55.7z"/>
			<path class="st69" d="M125,94.9c0.7,15.6,0.7,15.6,0.7,15.6c9.8,4.5,9.8,4.5,9.8,4.5c-2.8,1.5-14.9,6.2-21.2,6.2
				c-6.3,0-18.8-4.3-21.6-5.8c9.8-4.7,9.8-4.7,9.8-4.7c0.9-15.7,0.9-15.7,0.9-15.7H125z"/>
			<path class="st69" d="M129.8,91c3.9,0,6.6-3.2,6.3-8.4c-0.6-4.9-3.9-9.9-7.6-9.9L129.8,91z"/>
			<path class="st69" d="M98.8,91c-4.1,0-6.8-3.2-6.3-8.4c0.6-4.9,3.9-9.9,7.6-9.9L98.8,91z"/>
			<path class="st69" d="M114.3,106.9c3.7,0,4.8-0.9,5-1.7c10.9-4.1,12.7-17.6,14-27c-2-12-2-12-2-12c-1.3-6.2-11.1-11.6-17-11.6
				c-6.1,0-15.7,5.4-17,11.6c-2.2,12-2.2,12-2.2,12c1.3,9.4,3.1,22.9,14,27C109.5,106,110.7,106.9,114.3,106.9z"/>
			<path d="M122.8,80.5c-0.7,0-1.5-0.6-1.5-1.5c0.2-0.6,0.7-1.3,1.5-1.3c0.7,0,1.5,0.8,1.5,1.5S123.6,80.5,122.8,80.5z"/>
			<path d="M105.9,80.5c0.7,0,1.3-0.6,1.3-1.5c0-0.6-0.7-1.3-1.5-1.3c-0.6,0-1.3,0.8-1.3,1.5S105.1,80.5,105.9,80.5z"/>
			<path class="st370" d="M139.1,76.7c-0.4-9-2.8-16.7-7.4-19.7c-1.3-0.9-2.4-1.5-3.5-1.5c0,0-2-5.4-14-5.4
				c-10.5,0-22.3,5.1-22.1,23.8c-0.2,4.1,6.6,10.5,6.5-0.6c1.1-12.2,2-17.1,15.9-15.6c1.5,0.2,3.1-0.6,4.8-0.6
				c0.2-0.2,0.4-0.2,0.6-0.2c13.5,1.7,8.3,22.5,16.4,26.3c0,0,1.7,0.8,2.4-2.6C138.7,79.2,139.1,76.7,139.1,76.7z"/>
			<path class="st371" d="M125.2,101.3L125.2,101.3c-1.7,1.5-2.8,2.4-3.9,3c-0.2,0-0.4,0.2-0.6,0.4c-0.2,0-0.4,0-0.5,0.2
				c-0.2,0-0.6,0.2-0.9,0.4c-0.2,0.7-1.3,1.7-5,1.7c-3.7,0-4.8-0.9-5.2-1.7c-0.2-0.2-0.4-0.2-0.6-0.4c-0.2,0-0.6-0.2-0.7-0.2
				c-0.2-0.2-0.4-0.2-0.6-0.4c-1.1-0.6-2.2-1.5-3.7-2.8c-0.2,0-0.4-0.2-0.6-0.4c0,1.3,0,1.3,0,1.3c2.8,2.4,4.4,3.4,6.1,4.1
				c0.4,0.7,1.5,1.7,5.2,1.7c3.7,0,4.8-0.9,5-1.7c1.8-0.7,3.5-1.7,6.1-3.9L125.2,101.3z"/>
			<path class="st372" d="M114.3,98.7c-1.9,0-3.7-0.2-5.9-0.8c-0.6-0.2-0.9-0.6-0.7-1.1c0.2-0.4,0.6-0.8,0.9-0.6
				c4.4,0.9,7,0.9,11.5,0c0.4-0.2,0.9,0.2,0.9,0.6c0.2,0.6-0.2,0.9-0.6,1.1C118,98.5,116.2,98.7,114.3,98.7z"/>
			<path class="st373" d="M114.3,78.8c0,11.1,0,11.1,0,11.1c-4.2,0-4.2,0-4.2,0c0-0.4,0.4-0.9,0.6-1.1c0.7-0.6,1.3-1.9,1.7-3.4
				c0.2-4.7,0.2-4.7,0.2-4.7C112.5,79.2,114,78.8,114.3,78.8z"/>
			<path class="st371" d="M118.6,89.8c0,0.7-0.6,1.3-1.5,1.3c-0.4,0-0.5,0.4-0.9,0.8c-0.5,0.4-1.1,0.7-1.8,0.7
				c-0.6,0-1.3-0.4-1.9-0.7c-0.4-0.4-0.5-0.8-0.7-0.8c-1.1,0-1.7-0.6-1.7-1.3l0,0C118.6,89.8,118.6,89.8,118.6,89.8L118.6,89.8z"/>
			<path class="st5" d="M96.3,92.1c0-0.9,0-1.9,0-2.8c0-0.6-0.7-0.6-0.7,0c0,0.9,0,1.9,0,2.8C95.5,92.5,96.3,92.5,96.3,92.1z"/>
			<path d="M94.6,93c0,0.7,0.6,1.3,1.3,1.3c0.7,0,1.5-0.6,1.5-1.3c0-0.8-0.7-1.5-1.5-1.5C95.2,91.5,94.6,92.3,94.6,93z"/>
			<path class="st5" d="M133,91.9c0-0.9,0-1.9,0-2.8c0-0.6-0.6-0.6-0.6,0c0,0.9,0,1.9,0,2.8C132.4,92.3,133,92.3,133,91.9z"/>
			<path d="M131.3,92.8c0,0.7,0.5,1.3,1.3,1.3c0.7,0,1.5-0.6,1.5-1.3c0-0.9-0.7-1.5-1.5-1.5C131.9,91.3,131.3,91.9,131.3,92.8z"/>
			<path class="st370" d="M97.9,73.5c0,0,19-9.6,21.2-16.3c-7.4-2.6-7.4-2.6-7.4-2.6c-11.6,3.8-11.6,3.8-11.6,3.8
				c-2.2,10.9-2.2,10.9-2.2,10.9V73.5z"/>
			<path class="st370" d="M132.1,71.7c0,0-16.4-8.2-18.3-14.1c6.3-2.3,6.3-2.3,6.3-2.3c10,3.2,10,3.2,10,3.2c2,9.4,2,9.4,2,9.4V71.7
				z"/>
			<path d="M139.6,127.7c-1.3,5.1,1.6,10.3,6.6,11.6c5,1.5,10.2-1.5,11.6-6.8c1.3-5.1-1.7-10.1-6.8-11.6
				C146.1,119.7,140.9,122.7,139.6,127.7z"/>
			<path d="M115.1,124.5c0,43.9,0,43.9,0,43.9c-0.4,0-0.4,0-0.4,0c-3.1,0-6.1-0.2-9-0.6c-0.9-0.2-1.9-0.4-2.8-0.6
				c-2.4-0.4-4.8-0.9-7.2-1.7c-3.9-1.3-7.7-2.8-11.3-4.7c0-3.9,0-3.9,0-3.9c0-0.6,0-0.6,0-0.6c-0.2-0.6-0.2-0.6-0.2-0.6
				C83.5,139,83.5,139,83.5,139c-0.2-3.2-0.2-3.2-0.2-3.2c-0.2-5.6-0.2-5.6-0.2-5.6C83,129,83,129,83,129c0-2.2,0-2.2,0-2.2
				c4.8-0.4,4.8-0.4,4.8-0.4c0.7,0,0.7,0,0.7,0c1.3-0.2,1.3-0.2,1.3-0.2c0.6,0,0.6,0,0.6,0c9.4-0.6,9.4-0.6,9.4-0.6
				c3-0.4,3-0.4,3-0.4c8.5-0.6,8.5-0.6,8.5-0.6c2.8-0.2,2.8-0.2,2.8-0.2c0.7,0,0.7,0,0.7,0c0.2,0,0.2,0,0.2,0H115.1z"/>
			<path d="M146.8,126.8c-0.2,3.8-0.2,3.8-0.2,3.8c-0.4,6.2-0.4,6.2-0.4,6.2c0,2.6,0,2.6,0,2.6c-0.9,16.5-0.9,16.5-0.9,16.5
				c0,0.2,0,0.2,0,0.2c0,0.9,0,0.9,0,0.9c0,3.9,0,3.9,0,3.9c-3.7,1.9-7.6,3.6-11.5,4.7c-1.6,0.6-3.3,0.9-5,1.3
				c-1.7,0.4-3.3,0.7-5.2,0.9c-2.8,0.4-5.7,0.6-8.7,0.6c-0.4,0-0.4,0-0.4,0c0-43.9,0-43.9,0-43.9c0.2,0,0.2,0,0.2,0
				c0.2,0,0.2,0,0.2,0c0.9,0,0.9,0,0.9,0c1.1,0.2,1.1,0.2,1.1,0.2c9.6,0.6,9.6,0.6,9.6,0.6c3.9,0.4,3.9,0.4,3.9,0.4
				c9.6,0.8,9.6,0.8,9.6,0.8c0.9,0,0.9,0,0.9,0c1.3,0,1.3,0,1.3,0L146.8,126.8z"/>
			<path d="M90.3,131.3c0,0.2,0,0.4,0,0.4c0,0.2,0,0.2,0,0.2c-0.2,0.6-3.1,20.8-3.5,24.2c-2.4-0.2-2.4-0.2-2.4-0.2
				c-0.2,0-0.2,0-0.2,0c-9.4-1.1-15.9,1.6-16.2,1.2c0.9-6.9,2.9-23.3,3.9-28.4c0,0,0-0.2,0-0.4C73.9,128.5,90.3,131.3,90.3,131.3z"
				/>
			<path d="M90.2,127.3c1.5,5.1-1.7,10.3-6.6,11.6c-5,1.3-10.1-1.7-11.4-6.8c-1.3-5.1,1.7-10.3,6.6-11.6
				C83.7,119.3,88.9,122.3,90.2,127.3z"/>
			<path class="st7" d="M131,116.7c-0.2,0.4-0.2,0.4-0.2,0.4c0,0.7,0,0.7,0,0.7c-0.2,7.9-0.2,7.9-0.2,7.9c-0.4,7.7-0.4,7.7-0.4,7.7
				c-1.3,33.6-1.3,33.6-1.3,33.6c-1.7,0.4-3.3,0.7-5.2,0.9c-2.8,0.4-5.7,0.6-8.7,0.6c-0.4,0-0.4,0-0.4,0c-3.1,0-6.1-0.2-9-0.6
				c-0.9-0.2-1.9-0.4-2.8-0.6c-4.6-31.1-4.6-31.1-4.6-31.1c0.4-3,0.4-3,0.4-3c1.1-7.5,1.1-7.5,1.1-7.5c0.4-3.2,0.4-3.2,0.4-3.2
				c0.6-4.1,0.6-4.1,0.6-4.1c0-0.2,0-0.2,0-0.2c0.2-1.1,0.2-1.1,0.2-1.1s0.7,0.2,1.9,0.6c0.4,0,0.9,0.2,1.7,0.4h0.2
				c1.5,0.4,3.1,0.6,5,0.9c0.2,0,0.4,0,0.6,0c0.6,0,1.3,0.2,1.8,0.2c1.8,0.2,3.9,0.2,6.1,0l0,0c2.8-0.2,5.5-0.4,8.5-1.1
				C128,117.6,129.5,117.2,131,116.7z"/>
			<path d="M142.8,137.7c0,0,0,0.2,0,0.4c-0.2,0-0.2,0-0.2,0c0,0.4,0,0.4,0,0.4c-1.3,4.3-1.3,4.3-1.3,4.3
				c-7.4,22.9-7.4,22.9-7.4,22.9c-1.6,0.6-3.3,0.9-5,1.3c-1.7,0.4-3.3,0.7-5.2,0.9c0.7-9.2,1.7-20.1,2.2-26.3c0-0.2,0-0.2,0-0.2l0,0
				c0-0.4,0-0.4,0-0.4c0.5-9.2,0.5-9.2,0.5-9.2c0.2-1.5,0.2-1.5,0.2-1.5s0-2.3,0-5.1c0-1.7-0.2-3.6-0.2-5.4c0-0.6,0-0.9,0-1.3
				c0-0.2,0-0.4,0-0.6c0-2.8-0.2-5.2-0.4-6.6c-0.2-0.6-0.2-0.9-0.4-0.9c3.9,1.7,3.9,1.7,3.9,1.7c0,0.2,0,0.2,0,0.2
				c4.4,1.7,4.4,1.7,4.4,1.7c0.7,0.4,0.7,0.4,0.7,0.4c2.9,1.5,2.9,1.5,2.9,1.5c0.4,0,0.4,0,0.4,0c2.6,9.4,2.6,9.4,2.6,9.4
				c0.4,1.1,0.4,1.1,0.4,1.1c0.6,2.1,0.6,2.1,0.6,2.1c0.2,0.6,0.2,0.6,0.2,0.6c-0.4,0.2-0.4,0.2-0.4,0.2c-2,1.7-2,1.7-2,1.7
				c-3,2.1-3,2.1-3,2.1c3.5,1.5,3.5,1.5,3.5,1.5c0.5,0.4,0.5,0.4,0.5,0.4c1.3,0.6,1.3,0.6,1.3,0.6s0,0,0.2,0.2
				C142.4,136,142.9,136.5,142.8,137.7z"/>
			<polygon class="st69" points="110.1,118.9 114.2,142.7 118,119.1 117.5,117 			"/>
			<path d="M105.7,167.9c-0.9-0.2-1.9-0.4-2.8-0.6c-2.4-0.4-4.8-0.9-7.2-1.7c-7.2-22.5-7.2-22.5-7.2-22.5c-1.3-4.3-1.3-4.3-1.3-4.3
				c-0.4-0.9-0.4-0.9-0.4-0.9c0-0.2,0-0.2,0-0.2v-0.2c-0.4-1.7,0.9-2.4,0.9-2.4l0,0c1.7-0.7,1.7-0.7,1.7-0.7
				c0.6-0.2,0.6-0.2,0.6-0.2c3.1-1.3,3.1-1.3,3.1-1.3c-2.6-2.1-2.6-2.1-2.6-2.1c-2-1.5-2-1.5-2-1.5c-0.7-0.4-0.7-0.4-0.7-0.4
				c0.4-1.1,0.4-1.1,0.4-1.1c0.2-0.7,0.2-0.7,0.2-0.7c0.2-0.6,0.2-0.6,0.2-0.6c0.6-1.7,0.6-1.7,0.6-1.7c3.3-9.4,3.3-9.4,3.3-9.4
				c0.6-0.2,0.6-0.2,0.6-0.2c0.2-0.2,0.2-0.2,0.2-0.2c9.4-4.3,9.4-4.3,9.4-4.3c0,0.8,0,0.8,0,0.8c0.2,6.2,0.2,6.2,0.2,6.2
				c0,1.1,0,1.1,0,1.1c0,0.2,0,0.2,0,0.2c0,2.6,0,2.6,0,2.6c0,3.8,0,3.8,0,3.8c0,0.9,0,0.9,0,0.9c0.2,3.8,0.2,3.8,0.2,3.8
				c0.2,1.7,0.2,1.7,0.2,1.7c0.6,9.6,0.6,9.6,0.6,9.6C104.2,147.4,104.9,158.5,105.7,167.9z"/>
			<path d="M130.4,83.3c-0.4,0.6-0.6,1.1-1.1,1.5c-0.4,0.2-0.7,0.6-1.3,0.8c-1.3,0.4-2.8,0.6-4.2,0.6c-1.3-0.2-3,0-4.3-0.9
				c-0.9-0.7-1.5-2.2-1.8-3.4c-0.4-1.1-0.7-2.4-0.2-3.6c0.9-1.1,2.4-1.3,3.5-1.5c1.5-0.2,3-0.4,4.4-0.4c0.9-0.2,2.2-0.2,3.3,0
				c0.4,0,0.6,0.2,0.9,0.2C132.4,77.3,131.1,81.4,130.4,83.3z M111.4,81.8c-0.4,1.1-0.9,2.6-2,3.4c-1.1,0.9-2.8,0.8-4.1,0.9
				c-1.5,0-2.9-0.2-4.2-0.6c-0.7-0.4-1.3-0.6-1.7-1.1c-0.4-0.4-0.6-0.8-0.7-1.1c-0.6-1.3-1.3-3.8-0.8-5.2v-0.2
				c0.2-0.6,0.8-1.1,1.5-1.3c0.2,0,0.4,0,0.6-0.2c1.1-0.2,2.6-0.2,3.7,0c1.5,0,3,0.2,4.2,0.4c1.3,0.2,2.8,0.4,3.5,1.5
				C112.1,79.3,111.6,80.6,111.4,81.8z M133.2,76.1c0-0.2,0-0.4-0.2-0.4c-0.2,0-0.4,0-0.4-0.2c-0.6,0-0.9,0-1.3,0l0,0
				c-0.9-0.2-1.9-0.2-2.6-0.2c-0.9-0.2-1.7-0.2-2.6-0.2c-1.7,0-3.5,0.2-5.2,0.6c-1.9,0.2-3.7,0.6-5.5,0.8c0,0-0.5,0-0.9,0
				c-0.4,0-1.1,0-1.1,0c-1.8-0.2-3.5-0.6-5.4-0.8c-1.8-0.4-3.5-0.6-5.3-0.6c-0.9,0-1.9,0-2.8,0.2c-0.6,0-1.1,0-1.7,0
				c-0.2,0-0.4,0-0.6,0.2c-0.4,0-0.9,0-1.3,0c-0.4,0.2-0.6,0.2-0.7,0.6c0,0.4,0,2.3,0,2.8c0,0.2,0.2,0.4,0.4,0.6c0.2,0,0.2,0,0.2,0
				c0.2,0.4,0.4,0.8,0.6,1.1c0.2,0.7,0.4,1.5,0.7,2.3c0.4,1.1,0.7,2.1,1.7,2.6c0.2,0.2,0.6,0.4,0.7,0.4c1.7,0.7,3.3,0.9,5.2,0.9
				c1.5,0,3.1,0,4.4-0.9c1.3-0.8,2.2-2.4,2.8-3.9c0,0,0,0,0-0.2c0.2-0.4,0.4-0.8,0.6-1.1c0-0.4,0.2-0.8,0-1.1l0,0
				c-0.2-0.9,0.9-1.1,1.7-1.1c0.5,0,1.6,0.2,1.5,1.1c0,0.4,0,0.8,0.2,1.1c0.2,0.6,0.4,0.9,0.6,1.3c0.6,1.5,1.3,3.2,2.8,3.9
				c1.3,0.9,3,0.9,4.4,0.9c1.7,0,3.5-0.2,5-0.9c0.2,0,0.4,0,0.5-0.2c1.1-0.6,1.7-1.5,2-2.8c0.2-0.7,0.4-1.5,0.7-2.3
				c0.2-0.4,0.2-0.8,0.5-0.9c0-0.2,0-0.2,0-0.2c0.2-0.2,0.4-0.4,0.4-0.6c0.2-0.4,0.2-0.7,0.2-1.3C133.3,76.9,133.3,76.3,133.2,76.1z
				"/>
		</g>
	</g>
</g>
<g id="continents">
</g>
</svg>
