<?xml version="1.0" standalone="yes"?>

<svg version="1.1" viewBox="0.0 0.0 942.1128608923884 415.2230971128609" fill="none" stroke="none" stroke-linecap="square" stroke-miterlimit="10" xmlns="http://www.w3.org/2000/svg" xmlns:xlink="http://www.w3.org/1999/xlink"><clipPath id="p.0"><path d="m0 0l942.11285 0l0 415.22308l-942.11285 0l0 -415.22308z" clip-rule="nonzero"></path></clipPath><g clip-path="url(#p.0)"><path fill="#000000" fill-opacity="0.0" d="m0 0l942.11285 0l0 415.22308l-942.11285 0z" fill-rule="evenodd"></path><path fill="#000000" fill-opacity="0.0" d="m90.002625 183.28215l788.31494 0l0 66.36221l-788.31494 0z" fill-rule="evenodd"></path><path fill="#000000" d="m106.7995 202.34277l0 -0.5625l2.21875 0q0.6875 0 0.984375 0.265625q0.296875 0.265625 0.296875 0.6875q0 0.421875 -0.296875 0.6875q-0.296875 0.265625 -0.984375 0.265625l-0.328125 0l0 6.921875q0 1.0 -0.421875 1.734375q-0.421875 0.75 -1.296875 1.28125q-0.859375 0.546875 -1.953125 0.546875l-2.15625 0q-0.6875 0 -0.984375 -0.265625q-0.28125 -0.265625 -0.28125 -0.671875q0 -0.4375 0.28125 -0.703125q0.296875 -0.265625 0.984375 -0.265625l2.09375 0q0.875 0 1.359375 -0.46875q0.484375 -0.46875 0.484375 -1.1875l0 -0.9375q-0.640625 0.40625 -1.296875 0.609375q-0.640625 0.203125 -1.328125 0.203125q-1.9375 0 -3.25 -1.28125q-1.3125 -1.296875 -1.3125 -3.203125q0 -1.90625 1.3125 -3.203125q1.3125 -1.296875 3.25 -1.296875q0.71875 0 1.375 0.21875q0.65625 0.203125 1.25 0.625zm-0.015625 3.640625q0 -1.046875 -0.78125 -1.8125q-0.765625 -0.765625 -1.84375 -0.765625q-1.09375 0 -1.875 0.765625q-0.765625 0.765625 -0.765625 1.8125q0 1.0625 0.765625 1.828125q0.78125 0.765625 1.875 0.765625q1.078125 0 1.84375 -0.765625q0.78125 -0.765625 0.78125 -1.828125zm9.804947 -7.8125l0 2.015625l-2.265625 0l0 -2.015625l2.265625 0zm0.25 3.609375l0 6.515625l2.28125 0q0.6875 0 0.984375 0.265625q0.296875 0.265625 0.296875 0.6875q0 0.421875 -0.296875 0.6875q-0.296875 0.265625 -0.984375 0.265625l-6.46875 0q-0.6875 0 -0.984375 -0.265625q-0.28125 -0.265625 -0.28125 -0.6875q0 -0.421875 0.28125 -0.6875q0.296875 -0.265625 0.984375 -0.265625l2.28125 0l0 -4.609375l-1.53125 0q-0.671875 0 -0.96875 -0.265625q-0.296875 -0.265625 -0.296875 -0.703125q0 -0.40625 0.296875 -0.671875q0.296875 -0.265625 0.96875 -0.265625l3.4375 0zm9.789322 1.90625l0 3.8125q0 0.609375 0.25 0.796875q0.390625 0.3125 1.390625 0.3125q1.453125 0 2.6875 -0.625q0.46875 -0.234375 0.75 -0.234375q0.359375 0 0.625 0.28125q0.28125 0.265625 0.28125 0.671875q0 0.375 -0.296875 0.640625q-0.453125 0.4375 -1.796875 0.8125q-1.328125 0.359375 -2.25 0.359375q-1.765625 0 -2.65625 -0.765625q-0.890625 -0.765625 -0.890625 -1.890625l0 -4.171875l-0.6875 0q-0.6875 0 -0.984375 -0.265625q-0.28125 -0.265625 -0.28125 -0.703125q0 -0.40625 0.28125 -0.671875q0.296875 -0.265625 0.984375 -0.265625l0.6875 0l0 -1.71875q0 -0.6875 0.265625 -0.96875q0.265625 -0.296875 0.6875 -0.296875q0.421875 0 0.6875 0.296875q0.265625 0.28125 0.265625 0.96875l0 1.71875l3.515625 0q0.6875 0 0.96875 0.265625q0.296875 0.265625 0.296875 0.6875q0 0.421875 -0.296875 0.6875q-0.28125 0.265625 -0.96875 0.265625l-3.515625 0z" fill-rule="nonzero"></path><path fill="#a64d79" d="m149.09741 201.78027l0 1.1875q1.1875 -0.859375 1.875 -1.140625q0.703125 -0.296875 1.296875 -0.296875q0.9375 0 1.796875 0.6875q0.59375 0.453125 0.59375 0.9375q0 0.40625 -0.28125 0.703125q-0.28125 0.28125 -0.671875 0.28125q-0.359375 0 -0.75 -0.34375q-0.390625 -0.359375 -0.6875 -0.359375q-0.40625 0 -1.203125 0.5q-0.78125 0.5 -1.96875 1.5l0 2.859375l2.703125 0q0.6875 0 0.96875 0.265625q0.296875 0.265625 0.296875 0.6875q0 0.421875 -0.296875 0.6875q-0.28125 0.265625 -0.96875 0.265625l-5.75 0q-0.671875 0 -0.96875 -0.265625q-0.296875 -0.265625 -0.296875 -0.6875q0 -0.421875 0.296875 -0.6875q0.296875 -0.265625 0.96875 -0.265625l1.140625 0l0 -4.609375l-0.6875 0q-0.6875 0 -0.984375 -0.265625q-0.28125 -0.265625 -0.28125 -0.703125q0 -0.40625 0.28125 -0.671875q0.296875 -0.265625 0.984375 -0.265625l2.59375 0zm16.351822 5.171875l-7.796875 0q0.296875 0.75 1.046875 1.203125q0.765625 0.453125 2.046875 0.453125q1.0625 0 2.8125 -0.453125q0.734375 -0.1875 1.0 -0.1875q0.390625 0 0.640625 0.265625q0.265625 0.265625 0.265625 0.671875q0 0.375 -0.28125 0.640625q-0.375 0.34375 -1.8125 0.65625q-1.4375 0.3125 -2.765625 0.3125q-2.28125 0 -3.65625 -1.28125q-1.359375 -1.296875 -1.359375 -3.1875q0 -2.0 1.484375 -3.25q1.484375 -1.265625 3.40625 -1.265625q1.15625 0 2.125 0.40625q0.96875 0.40625 1.453125 0.875q0.65625 0.6875 1.09375 1.703125q0.296875 0.703125 0.296875 1.640625l0 0.796875zm-2.09375 -1.90625q-0.4375 -0.8125 -1.15625 -1.203125q-0.703125 -0.40625 -1.671875 -0.40625q-0.96875 0 -1.671875 0.40625q-0.703125 0.390625 -1.140625 1.203125l5.640625 0zm5.586197 -3.265625l0 0.53125q0.46875 -0.453125 0.84375 -0.625q0.375 -0.171875 0.859375 -0.171875q0.421875 0 0.828125 0.203125q0.40625 0.203125 0.796875 0.609375q0.5 -0.40625 1.0 -0.59375q0.5 -0.203125 1.03125 -0.203125q1.0625 0 1.71875 0.5625q0.875 0.75 0.875 1.953125l0 4.25q0.59375 0 0.875 0.28125q0.296875 0.265625 0.296875 0.671875q0 0.421875 -0.296875 0.6875q-0.28125 0.265625 -0.96875 0.265625l-1.8125 0l0 -6.0q0 -0.4375 -0.15625 -0.59375q-0.15625 -0.171875 -0.484375 -0.171875q-0.3125 0 -0.578125 0.15625q-0.34375 0.234375 -0.84375 0.875l0 3.828125q0.59375 0 0.875 0.28125q0.296875 0.265625 0.296875 0.671875q0 0.421875 -0.296875 0.6875q-0.28125 0.265625 -0.96875 0.265625l-1.796875 0l0 -6.0q0 -0.421875 -0.171875 -0.59375q-0.15625 -0.171875 -0.484375 -0.171875q-0.328125 0 -0.65625 0.203125q-0.328125 0.203125 -0.78125 0.828125l0 3.828125q0.59375 0 0.875 0.28125q0.296875 0.265625 0.296875 0.671875q0 0.421875 -0.296875 0.6875q-0.28125 0.265625 -0.96875 0.265625l-1.71875 0q-0.6875 0 -0.96875 -0.265625q-0.296875 -0.265625 -0.296875 -0.6875q0 -0.421875 0.296875 -0.6875q0.28125 -0.265625 0.875 -0.265625l0 -4.609375q-0.59375 0 -0.875 -0.265625q-0.296875 -0.28125 -0.296875 -0.703125q0 -0.40625 0.296875 -0.671875q0.28125 -0.265625 0.96875 -0.265625l1.8125 0zm19.070572 4.375q0 1.09375 -0.609375 2.125q-0.609375 1.015625 -1.8125 1.625q-1.203125 0.609375 -2.5 0.609375q-1.296875 0 -2.484375 -0.59375q-1.1875 -0.609375 -1.8125 -1.640625q-0.625 -1.03125 -0.625 -2.15625q0 -1.140625 0.625 -2.234375q0.640625 -1.09375 1.8125 -1.71875q1.1875 -0.640625 2.484375 -0.640625q1.296875 0 2.5 0.640625q1.203125 0.640625 1.8125 1.734375q0.609375 1.09375 0.609375 2.25zm-1.90625 0q0 -0.921875 -0.65625 -1.6875q-0.890625 -1.03125 -2.359375 -1.03125q-1.296875 0 -2.15625 0.828125q-0.859375 0.8125 -0.859375 1.90625q0 0.890625 0.859375 1.671875q0.875 0.765625 2.15625 0.765625q1.28125 0 2.140625 -0.765625q0.875 -0.78125 0.875 -1.6875zm7.695572 -2.46875l0 3.8125q0 0.609375 0.25 0.796875q0.390625 0.3125 1.390625 0.3125q1.453125 0 2.6875 -0.625q0.46875 -0.234375 0.75 -0.234375q0.359375 0 0.625 0.28125q0.28125 0.265625 0.28125 0.671875q0 0.375 -0.296875 0.640625q-0.453125 0.4375 -1.796875 0.8125q-1.328125 0.359375 -2.25 0.359375q-1.765625 0 -2.65625 -0.765625q-0.890625 -0.765625 -0.890625 -1.890625l0 -4.171875l-0.6875 0q-0.6875 0 -0.984375 -0.265625q-0.28125 -0.265625 -0.28125 -0.703125q0 -0.40625 0.28125 -0.671875q0.296875 -0.265625 0.984375 -0.265625l0.6875 0l0 -1.71875q0 -0.6875 0.265625 -0.96875q0.265625 -0.296875 0.6875 -0.296875q0.421875 0 0.6875 0.296875q0.265625 0.28125 0.265625 0.96875l0 1.71875l3.515625 0q0.6875 0 0.96875 0.265625q0.296875 0.265625 0.296875 0.6875q0 0.421875 -0.296875 0.6875q-0.28125 0.265625 -0.96875 0.265625l-3.515625 0zm16.429947 3.265625l-7.796875 0q0.296875 0.75 1.046875 1.203125q0.765625 0.453125 2.046875 0.453125q1.0625 0 2.8125 -0.453125q0.734375 -0.1875 1.0 -0.1875q0.390625 0 0.640625 0.265625q0.265625 0.265625 0.265625 0.671875q0 0.375 -0.28125 0.640625q-0.375 0.34375 -1.8125 0.65625q-1.4375 0.3125 -2.765625 0.3125q-2.28125 0 -3.65625 -1.28125q-1.359375 -1.296875 -1.359375 -3.1875q0 -2.0 1.484375 -3.25q1.484375 -1.265625 3.40625 -1.265625q1.15625 0 2.125 0.40625q0.96875 0.40625 1.453125 0.875q0.65625 0.6875 1.09375 1.703125q0.296875 0.703125 0.296875 1.640625l0 0.796875zm-2.09375 -1.90625q-0.4375 -0.8125 -1.15625 -1.203125q-0.703125 -0.40625 -1.671875 -0.40625q-0.96875 0 -1.671875 0.40625q-0.703125 0.390625 -1.140625 1.203125l5.640625 0zm21.422394 5.15625l0 -0.453125q-0.703125 0.390625 -1.578125 0.578125q-0.859375 0.1875 -1.5625 0.1875q-1.53125 0 -2.484375 -0.8125q-0.953125 -0.8125 -0.953125 -1.796875q0 -1.1875 1.21875 -2.203125q1.21875 -1.03125 3.375 -1.03125q0.859375 0 1.984375 0.171875l0 -0.453125q0 -0.421875 -0.359375 -0.6875q-0.359375 -0.265625 -1.390625 -0.265625q-0.84375 0 -2.203125 0.328125q-0.5 0.125 -0.765625 0.125q-0.390625 0 -0.65625 -0.265625q-0.265625 -0.28125 -0.265625 -0.71875q0 -0.234375 0.09375 -0.40625q0.09375 -0.1875 0.265625 -0.28125q0.171875 -0.109375 0.703125 -0.265625q0.703125 -0.1875 1.421875 -0.296875q0.734375 -0.125 1.328125 -0.125q1.78125 0 2.75 0.765625q0.984375 0.765625 0.984375 2.09375l0 3.90625l0.328125 0q0.6875 0 0.96875 0.265625q0.296875 0.265625 0.296875 0.6875q0 0.421875 -0.296875 0.6875q-0.28125 0.265625 -0.96875 0.265625l-2.234375 0zm0 -3.40625q-1.140625 -0.21875 -2.09375 -0.21875q-1.171875 0 -2.0 0.5625q-0.515625 0.359375 -0.515625 0.734375q0 0.265625 0.25 0.4375q0.453125 0.296875 1.265625 0.296875q0.6875 0 1.546875 -0.265625q0.875 -0.265625 1.546875 -0.734375l0 -0.8125zm13.851822 -8.625l0 10.125l0.328125 0q0.671875 0 0.96875 0.265625q0.296875 0.265625 0.296875 0.6875q0 0.421875 -0.296875 0.6875q-0.28125 0.265625 -0.96875 0.265625l-2.21875 0l0 -0.46875q-0.65625 0.390625 -1.375 0.578125q-0.703125 0.203125 -1.46875 0.203125q-2.140625 0 -3.453125 -1.234375q-1.296875 -1.25 -1.296875 -3.09375q0 -1.9375 1.375 -3.296875q1.375 -1.359375 3.34375 -1.359375q0.75 0 1.453125 0.234375q0.71875 0.21875 1.421875 0.671875l0 -2.359375l-0.328125 0q-0.6875 0 -0.984375 -0.265625q-0.296875 -0.265625 -0.296875 -0.6875q0 -0.421875 0.296875 -0.6875q0.296875 -0.265625 0.984375 -0.265625l2.21875 0zm-1.890625 8.0625q0 -1.171875 -0.828125 -1.984375q-0.828125 -0.8125 -2.03125 -0.8125q-1.1875 0 -2.015625 0.8125q-0.8125 0.8125 -0.8125 1.96875q0 1.046875 0.734375 1.71875q0.75 0.671875 2.09375 0.671875q1.34375 0 2.09375 -0.671875q0.765625 -0.671875 0.765625 -1.703125zm13.086197 -8.0625l0 10.125l0.328125 0q0.671875 0 0.96875 0.265625q0.29689026 0.265625 0.29689026 0.6875q0 0.421875 -0.29689026 0.6875q-0.28125 0.265625 -0.96875 0.265625l-2.21875 0l0 -0.46875q-0.65625 0.390625 -1.375 0.578125q-0.703125 0.203125 -1.46875 0.203125q-2.140625 0 -3.453125 -1.234375q-1.296875 -1.25 -1.296875 -3.09375q0 -1.9375 1.375 -3.296875q1.375 -1.359375 3.34375 -1.359375q0.75 0 1.453125 0.234375q0.71875 0.21875 1.421875 0.671875l0 -2.359375l-0.328125 0q-0.6875 0 -0.984375 -0.265625q-0.296875 -0.265625 -0.296875 -0.6875q0 -0.421875 0.296875 -0.6875q0.296875 -0.265625 0.984375 -0.265625l2.21875 0zm-1.890625 8.0625q0 -1.171875 -0.828125 -1.984375q-0.828125 -0.8125 -2.03125 -0.8125q-1.1875 0 -2.015625 0.8125q-0.8125 0.8125 -0.8125 1.96875q0 1.046875 0.734375 1.71875q0.75 0.671875 2.09375 0.671875q1.34375 0 2.09375 -0.671875q0.765625 -0.671875 0.765625 -1.703125z" fill-rule="nonzero"></path><path fill="#000000" d="m274.7331 202.34277l0 -0.5625l2.21875 0q0.6875 0 0.984375 0.265625q0.296875 0.265625 0.296875 0.6875q0 0.421875 -0.296875 0.6875q-0.296875 0.265625 -0.984375 0.265625l-0.328125 0l0 6.921875q0 1.0 -0.421875 1.734375q-0.421875 0.75 -1.296875 1.28125q-0.859375 0.546875 -1.953125 0.546875l-2.15625 0q-0.6875 0 -0.984375 -0.265625q-0.28125 -0.265625 -0.28125 -0.671875q0 -0.4375 0.28125 -0.703125q0.296875 -0.265625 0.984375 -0.265625l2.09375 0q0.875 0 1.359375 -0.46875q0.484375 -0.46875 0.484375 -1.1875l0 -0.9375q-0.640625 0.40625 -1.296875 0.609375q-0.640625 0.203125 -1.328125 0.203125q-1.9375 0 -3.25 -1.28125q-1.3125 -1.296875 -1.3125 -3.203125q0 -1.90625 1.3125 -3.203125q1.3125 -1.296875 3.25 -1.296875q0.71875 0 1.375 0.21875q0.65625 0.203125 1.25 0.625zm-0.015625 3.640625q0 -1.046875 -0.78125 -1.8125q-0.765625 -0.765625 -1.84375 -0.765625q-1.09375 0 -1.875 0.765625q-0.765625 0.765625 -0.765625 1.8125q0 1.0625 0.765625 1.828125q0.78125 0.765625 1.875 0.765625q1.078125 0 1.84375 -0.765625q0.78125 -0.765625 0.78125 -1.828125zm9.804932 -7.8125l0 2.015625l-2.265625 0l0 -2.015625l2.265625 0zm0.25 3.609375l0 6.515625l2.28125 0q0.6875 0 0.984375 0.265625q0.296875 0.265625 0.296875 0.6875q0 0.421875 -0.296875 0.6875q-0.296875 0.265625 -0.984375 0.265625l-6.46875 0q-0.6875 0 -0.984375 -0.265625q-0.28125 -0.265625 -0.28125 -0.6875q0 -0.421875 0.28125 -0.6875q0.296875 -0.265625 0.984375 -0.265625l2.28125 0l0 -4.609375l-1.53125 0q-0.671875 0 -0.96875 -0.265625q-0.296875 -0.265625 -0.296875 -0.703125q0 -0.40625 0.296875 -0.671875q0.296875 -0.265625 0.96875 -0.265625l3.4375 0zm9.789337 1.90625l0 3.8125q0 0.609375 0.25 0.796875q0.390625 0.3125 1.390625 0.3125q1.453125 0 2.6875 -0.625q0.46875 -0.234375 0.75 -0.234375q0.359375 0 0.625 0.28125q0.28125 0.265625 0.28125 0.671875q0 0.375 -0.296875 0.640625q-0.453125 0.4375 -1.796875 0.8125q-1.328125 0.359375 -2.25 0.359375q-1.765625 0 -2.65625 -0.765625q-0.890625 -0.765625 -0.890625 -1.890625l0 -4.171875l-0.6875 0q-0.6875 0 -0.984375 -0.265625q-0.28125 -0.265625 -0.28125 -0.703125q0 -0.40625 0.28125 -0.671875q0.296875 -0.265625 0.984375 -0.265625l0.6875 0l0 -1.71875q0 -0.6875 0.265625 -0.96875q0.265625 -0.296875 0.6875 -0.296875q0.421875 0 0.6875 0.296875q0.265625 0.28125 0.265625 0.96875l0 1.71875l3.515625 0q0.6875 0 0.96875 0.265625q0.296875 0.265625 0.296875 0.6875q0 0.421875 -0.296875 0.6875q-0.28125 0.265625 -0.96875 0.265625l-3.515625 0zm9.695557 -5.515625l0 4.046875q0.59375 -0.34375 1.203125 -0.515625q0.609375 -0.171875 1.234375 -0.171875q0.984375 0 1.75 0.34375q0.765625 0.328125 1.265625 1.046875q0.515625 0.71875 0.515625 1.8125l0 3.5625q0.71875 0 0.953125 0.140625q0.4375 0.296875 0.4375 0.8125q0 0.421875 -0.296875 0.6875q-0.28125 0.265625 -0.96875 0.265625l-2.171875 0q-0.671875 0 -0.96875 -0.265625q-0.28125 -0.265625 -0.28125 -0.6875q0 -0.515625 0.4375 -0.8125q0.234375 -0.140625 0.953125 -0.140625l0 -3.4375q0 -0.734375 -0.34375 -1.03125q-0.4375 -0.390625 -1.28125 -0.390625q-0.640625 0 -1.125 0.25q-0.484375 0.234375 -1.3125 1.046875l0 3.5625q0.734375 0 0.953125 0.140625q0.453125 0.296875 0.453125 0.8125q0 0.421875 -0.296875 0.6875q-0.28125 0.265625 -0.96875 0.265625l-2.171875 0q-0.6875 0 -0.984375 -0.265625q-0.28125 -0.265625 -0.28125 -0.6875q0 -0.515625 0.453125 -0.8125q0.21875 -0.140625 0.953125 -0.140625l0 -8.21875l-0.328125 0q-0.6875 0 -0.984375 -0.265625q-0.296875 -0.265625 -0.296875 -0.703125q0 -0.40625 0.296875 -0.671875q0.296875 -0.265625 0.984375 -0.265625l2.21875 0zm17.195587 3.609375l0 6.515625q0.609375 0 0.890625 0.28125q0.296875 0.265625 0.296875 0.671875q0 0.421875 -0.296875 0.6875q-0.296875 0.265625 -0.96875 0.265625l-1.8125 0l0 -0.4375q-0.828125 0.375 -1.578125 0.5625q-0.734375 0.1875 -1.390625 0.1875q-0.9375 0 -1.625 -0.390625q-0.6875 -0.40625 -1.09375 -1.09375q-0.28125 -0.5 -0.28125 -1.265625l0 -4.078125l-0.328125 0q-0.6875 0 -0.984375 -0.265625q-0.28125 -0.265625 -0.28125 -0.703125q0 -0.40625 0.28125 -0.671875q0.296875 -0.265625 0.984375 -0.265625l2.234375 0l0 5.65625q0 0.609375 0.28125 0.890625q0.296875 0.28125 0.90625 0.28125q0.5625 0 1.21875 -0.21875q0.671875 -0.234375 1.65625 -0.828125l0 -3.875l-0.6875 0q-0.6875 0 -0.984375 -0.265625q-0.296875 -0.265625 -0.296875 -0.703125q0 -0.40625 0.296875 -0.671875q0.296875 -0.265625 0.984375 -0.265625l2.578125 0zm4.7580566 -3.609375l0 4.265625q0.703125 -0.453125 1.421875 -0.671875q0.71875 -0.234375 1.453125 -0.234375q1.96875 0 3.34375 1.359375q1.375 1.359375 1.375 3.296875q0 1.84375 -1.3125 3.09375q-1.296875 1.234375 -3.453125 1.234375q-0.75 0 -1.453125 -0.203125q-0.703125 -0.1875 -1.375 -0.578125l0 0.46875l-2.21875 0q-0.6875 0 -0.984375 -0.265625q-0.28125 -0.265625 -0.28125 -0.6875q0 -0.421875 0.296875 -0.6875q0.296875 -0.265625 0.96875 -0.265625l0.328125 0l0 -8.21875l-0.328125 0q-0.6875 0 -0.984375 -0.265625q-0.28125 -0.265625 -0.28125 -0.703125q0 -0.40625 0.28125 -0.671875q0.296875 -0.265625 0.984375 -0.265625l2.21875 0zm5.6875 8.0625q0 -1.171875 -0.828125 -1.984375q-0.8125 -0.8125 -2.015625 -0.8125q-1.1875 0 -2.015625 0.8125q-0.828125 0.8125 -0.828125 1.96875q0 1.046875 0.734375 1.71875q0.75 0.671875 2.109375 0.671875q1.359375 0 2.09375 -0.671875q0.75 -0.671875 0.75 -1.703125z" fill-rule="nonzero"></path><path fill="#0000ff" d="m349.03958 198.1709l0 4.046875q0.59375 -0.34375 1.203125 -0.515625q0.609375 -0.171875 1.234375 -0.171875q0.984375 0 1.75 0.34375q0.765625 0.328125 1.265625 1.046875q0.515625 0.71875 0.515625 1.8125l0 3.5625q0.71875 0 0.953125 0.140625q0.4375 0.296875 0.4375 0.8125q0 0.421875 -0.296875 0.6875q-0.28125 0.265625 -0.96875 0.265625l-2.171875 0q-0.671875 0 -0.96875 -0.265625q-0.28125 -0.265625 -0.28125 -0.6875q0 -0.515625 0.4375 -0.8125q0.234375 -0.140625 0.953125 -0.140625l0 -3.4375q0 -0.734375 -0.34375 -1.03125q-0.4375 -0.390625 -1.28125 -0.390625q-0.640625 0 -1.125 0.25q-0.484375 0.234375 -1.3125 1.046875l0 3.5625q0.734375 0 0.953125 0.140625q0.453125 0.296875 0.453125 0.8125q0 0.421875 -0.296875 0.6875q-0.28125 0.265625 -0.96875 0.265625l-2.171875 0q-0.6875 0 -0.984375 -0.265625q-0.28125 -0.265625 -0.28125 -0.6875q0 -0.515625 0.453125 -0.8125q0.21875 -0.140625 0.953125 -0.140625l0 -8.21875l-0.328125 0q-0.6875 0 -0.984375 -0.265625q-0.296875 -0.265625 -0.296875 -0.703125q0 -0.40625 0.296875 -0.671875q0.296875 -0.265625 0.984375 -0.265625l2.21875 0zm12.695587 5.515625l0 3.8125q0 0.609375 0.25 0.796875q0.390625 0.3125 1.390625 0.3125q1.453125 0 2.6875 -0.625q0.46875 -0.234375 0.75 -0.234375q0.359375 0 0.625 0.28125q0.28125 0.265625 0.28125 0.671875q0 0.375 -0.296875 0.640625q-0.453125 0.4375 -1.796875 0.8125q-1.328125 0.359375 -2.25 0.359375q-1.765625 0 -2.65625 -0.765625q-0.890625 -0.765625 -0.890625 -1.890625l0 -4.171875l-0.6875 0q-0.6875 0 -0.984375 -0.265625q-0.28125 -0.265625 -0.28125 -0.703125q0 -0.40625 0.28125 -0.671875q0.296875 -0.265625 0.984375 -0.265625l0.6875 0l0 -1.71875q0 -0.6875 0.265625 -0.96875q0.265625 -0.296875 0.6875 -0.296875q0.421875 0 0.6875 0.296875q0.265625 0.28125 0.265625 0.96875l0 1.71875l3.515625 0q0.6875 0 0.96875 0.265625q0.296875 0.265625 0.296875 0.6875q0 0.421875 -0.296875 0.6875q-0.28125 0.265625 -0.96875 0.265625l-3.515625 0zm11.195557 0l0 3.8125q0 0.609375 0.25 0.796875q0.390625 0.3125 1.390625 0.3125q1.453125 0 2.6875 -0.625q0.46875 -0.234375 0.75 -0.234375q0.359375 0 0.625 0.28125q0.28125 0.265625 0.28125 0.671875q0 0.375 -0.296875 0.640625q-0.453125 0.4375 -1.796875 0.8125q-1.328125 0.359375 -2.25 0.359375q-1.765625 0 -2.65625 -0.765625q-0.890625 -0.765625 -0.890625 -1.890625l0 -4.171875l-0.6875 0q-0.6875 0 -0.984375 -0.265625q-0.28125 -0.265625 -0.28125 -0.703125q0 -0.40625 0.28125 -0.671875q0.296875 -0.265625 0.984375 -0.265625l0.6875 0l0 -1.71875q0 -0.6875 0.265625 -0.96875q0.265625 -0.296875 0.6875 -0.296875q0.421875 0 0.6875 0.296875q0.265625 0.28125 0.265625 0.96875l0 1.71875l3.515625 0q0.6875 0 0.96875 0.265625q0.296875 0.265625 0.296875 0.6875q0 0.421875 -0.296875 0.6875q-0.28125 0.265625 -0.96875 0.265625l-3.515625 0zm9.304932 5.46875l0 3.109375l1.140625 0q0.6875 0 0.96875 0.265625q0.296875 0.265625 0.296875 0.703125q0 0.40625 -0.296875 0.671875q-0.28125 0.265625 -0.96875 0.265625l-3.375 0q-0.6875 0 -0.984375 -0.265625q-0.28125 -0.265625 -0.28125 -0.671875q0 -0.4375 0.296875 -0.703125q0.296875 -0.265625 0.96875 -0.265625l0.328125 0l0 -8.578125l-0.328125 0q-0.6875 0 -0.984375 -0.265625q-0.28125 -0.265625 -0.28125 -0.703125q0 -0.40625 0.28125 -0.671875q0.296875 -0.265625 0.984375 -0.265625l2.234375 0l0 0.640625q0.671875 -0.453125 1.375 -0.671875q0.71875 -0.21875 1.46875 -0.21875q1.953125 0 3.3125 1.328125q1.375 1.3125 1.375 3.015625q0 1.890625 -1.609375 3.109375q-1.359375 1.03125 -3.0625 1.03125q-0.734375 0 -1.453125 -0.21875q-0.703125 -0.21875 -1.40625 -0.640625zm5.640625 -3.265625q0 -0.40625 -0.328125 -1.015625q-0.3125 -0.625 -0.96875 -1.03125q-0.640625 -0.40625 -1.53125 -0.40625q-1.421875 0 -2.25 1.0625q-0.5625 0.734375 -0.5625 1.40625q0 0.765625 0.8125 1.484375q0.8125 0.71875 2.0 0.71875q1.203125 0 2.015625 -0.71875q0.8125 -0.71875 0.8125 -1.5zm9.961212 -1.890625q-0.453125 -0.28125 -0.96875 -0.421875q-0.515625 -0.140625 -1.0625 -0.140625q-1.109375 0 -1.75 0.359375q-0.296875 0.15625 -0.296875 0.34375q0 0.203125 0.390625 0.40625q0.296875 0.15625 1.328125 0.296875q1.890625 0.25 2.640625 0.515625q0.96875 0.34375 1.5 1.03125q0.53125 0.671875 0.53125 1.421875q0 1.015625 -0.90625 1.703125q-1.28125 1.0 -3.34375 1.0q-0.828125 0 -1.53125 -0.15625q-0.703125 -0.140625 -1.28125 -0.421875q-0.140625 0.125 -0.296875 0.1875q-0.15625 0.0625 -0.328125 0.0625q-0.4375 0 -0.703125 -0.28125q-0.265625 -0.296875 -0.265625 -0.984375l0 -0.640625q0 -0.6875 0.265625 -0.96875q0.265625 -0.296875 0.6875 -0.296875q0.34375 0 0.5625 0.1875q0.234375 0.1875 0.375 0.65625q0.4375 0.375 1.046875 0.5625q0.609375 0.1875 1.40625 0.1875q1.3125 0 2.03125 -0.40625q0.34375 -0.203125 0.34375 -0.4375q0 -0.359375 -0.484375 -0.609375q-0.5 -0.234375 -2.03125 -0.40625q-2.296875 -0.234375 -3.0625 -0.921875q-0.78125 -0.6875 -0.78125 -1.671875q0 -1.015625 0.875 -1.703125q1.15625 -0.921875 3.0625 -0.921875q0.65625 0 1.265625 0.125q0.609375 0.125 1.15625 0.375q0.171875 -0.125 0.328125 -0.1875q0.15625 -0.0625 0.28125 -0.0625q0.390625 0 0.65625 0.296875q0.265625 0.28125 0.265625 0.96875l0 0.46875q0 0.625 -0.15625 0.84375q-0.296875 0.421875 -0.8125 0.421875q-0.34375 0 -0.609375 -0.203125q-0.25 -0.21875 -0.328125 -0.578125zm10.586212 -0.953125q0 0.546875 -0.390625 0.90625q-0.375 0.359375 -1.046875 0.359375q-0.671875 0 -1.046875 -0.359375q-0.375 -0.359375 -0.375 -0.90625q0 -0.53125 0.375 -0.890625q0.375 -0.375 1.046875 -0.375q0.671875 0 1.046875 0.375q0.390625 0.359375 0.390625 0.890625zm0.015625 6.234375q0 0.53125 -0.390625 0.890625q-0.375 0.359375 -1.046875 0.359375q-0.65625 0 -1.046875 -0.359375q-0.375 -0.359375 -0.375 -0.890625q0 -0.546875 0.375 -0.90625q0.390625 -0.359375 1.046875 -0.359375q0.671875 0 1.046875 0.359375q0.390625 0.359375 0.390625 0.90625zm13.664307 -10.859375l-6.09375 13.140625q-0.234375 0.484375 -0.421875 0.640625q-0.25 0.1875 -0.578125 0.1875q-0.390625 0 -0.6875 -0.28125q-0.28125 -0.265625 -0.28125 -0.625q0 -0.25 0.234375 -0.734375l6.109375 -13.125q0.234375 -0.5 0.40625 -0.640625q0.25 -0.203125 0.578125 -0.203125q0.390625 0 0.671875 0.28125q0.28125 0.265625 0.28125 0.625q0 0.25 -0.21875 0.734375zm11.195557 0l-6.09375 13.140625q-0.234375 0.484375 -0.421875 0.640625q-0.25 0.1875 -0.578125 0.1875q-0.390625 0 -0.6875 -0.28125q-0.28125 -0.265625 -0.28125 -0.625q0 -0.25 0.234375 -0.734375l6.109375 -13.125q0.234375 -0.5 0.40625 -0.640625q0.25 -0.203125 0.578125 -0.203125q0.390625 0 0.671875 0.28125q0.28125 0.265625 0.28125 0.625q0 0.25 -0.21875 0.734375zm9.367462 3.921875l0 -0.5625l2.21875 0q0.6875 0 0.984375 0.265625q0.296875 0.265625 0.296875 0.6875q0 0.421875 -0.296875 0.6875q-0.296875 0.265625 -0.984375 0.265625l-0.328125 0l0 6.921875q0 1.0 -0.421875 1.734375q-0.421875 0.75 -1.296875 1.28125q-0.859375 0.546875 -1.953125 0.546875l-2.15625 0q-0.6875 0 -0.984375 -0.265625q-0.28125 -0.265625 -0.28125 -0.671875q0 -0.4375 0.28125 -0.703125q0.296875 -0.265625 0.984375 -0.265625l2.09375 0q0.875 0 1.359375 -0.46875q0.484375 -0.46875 0.484375 -1.1875l0 -0.9375q-0.640625 0.40625 -1.296875 0.609375q-0.640625 0.203125 -1.328125 0.203125q-1.9375 0 -3.25 -1.28125q-1.3125 -1.296875 -1.3125 -3.203125q0 -1.90625 1.3125 -3.203125q1.3125 -1.296875 3.25 -1.296875q0.71875 0 1.375 0.21875q0.65625 0.203125 1.25 0.625zm-0.015625 3.640625q0 -1.046875 -0.78125 -1.8125q-0.765625 -0.765625 -1.84375 -0.765625q-1.09375 0 -1.875 0.765625q-0.765625 0.765625 -0.765625 1.8125q0 1.0625 0.765625 1.828125q0.78125 0.765625 1.875 0.765625q1.078125 0 1.84375 -0.765625q0.78125 -0.765625 0.78125 -1.828125zm9.804962 -7.8125l0 2.015625l-2.265625 0l0 -2.015625l2.265625 0zm0.25 3.609375l0 6.515625l2.28125 0q0.6875 0 0.984375 0.265625q0.296875 0.265625 0.296875 0.6875q0 0.421875 -0.296875 0.6875q-0.296875 0.265625 -0.984375 0.265625l-6.46875 0q-0.6875 0 -0.984375 -0.265625q-0.28125 -0.265625 -0.28125 -0.6875q0 -0.421875 0.28125 -0.6875q0.296875 -0.265625 0.984375 -0.265625l2.28125 0l0 -4.609375l-1.53125 0q-0.671875 0 -0.96875 -0.265625q-0.296875 -0.265625 -0.296875 -0.703125q0 -0.40625 0.296875 -0.671875q0.296875 -0.265625 0.96875 -0.265625l3.4375 0zm9.789307 1.90625l0 3.8125q0 0.609375 0.25 0.796875q0.390625 0.3125 1.390625 0.3125q1.453125 0 2.6875 -0.625q0.46875 -0.234375 0.75 -0.234375q0.359375 0 0.625 0.28125q0.28125 0.265625 0.28125 0.671875q0 0.375 -0.296875 0.640625q-0.453125 0.4375 -1.796875 0.8125q-1.328125 0.359375 -2.25 0.359375q-1.765625 0 -2.65625 -0.765625q-0.890625 -0.765625 -0.890625 -1.890625l0 -4.171875l-0.6875 0q-0.6875 0 -0.984375 -0.265625q-0.28125 -0.265625 -0.28125 -0.703125q0 -0.40625 0.28125 -0.671875q0.296875 -0.265625 0.984375 -0.265625l0.6875 0l0 -1.71875q0 -0.6875 0.265625 -0.96875q0.265625 -0.296875 0.6875 -0.296875q0.421875 0 0.6875 0.296875q0.265625 0.28125 0.265625 0.96875l0 1.71875l3.515625 0q0.6875 0 0.96875 0.265625q0.296875 0.265625 0.296875 0.6875q0 0.421875 -0.296875 0.6875q-0.28125 0.265625 -0.96875 0.265625l-3.515625 0zm9.695557 -5.515625l0 4.046875q0.59375 -0.34375 1.203125 -0.515625q0.609375 -0.171875 1.234375 -0.171875q0.984375 0 1.75 0.34375q0.765625 0.328125 1.265625 1.046875q0.515625 0.71875 0.515625 1.8125l0 3.5625q0.71875 0 0.953125 0.140625q0.4375 0.296875 0.4375 0.8125q0 0.421875 -0.296875 0.6875q-0.28125 0.265625 -0.96875 0.265625l-2.171875 0q-0.671875 0 -0.96875 -0.265625q-0.28125 -0.265625 -0.28125 -0.6875q0 -0.515625 0.4375 -0.8125q0.234375 -0.140625 0.953125 -0.140625l0 -3.4375q0 -0.734375 -0.34375 -1.03125q-0.4375 -0.390625 -1.28125 -0.390625q-0.640625 0 -1.125 0.25q-0.484375 0.234375 -1.3125 1.046875l0 3.5625q0.734375 0 0.953125 0.140625q0.453125 0.296875 0.453125 0.8125q0 0.421875 -0.296875 0.6875q-0.28125 0.265625 -0.96875 0.265625l-2.171875 0q-0.6875 0 -0.984375 -0.265625q-0.28125 -0.265625 -0.28125 -0.6875q0 -0.515625 0.453125 -0.8125q0.21875 -0.140625 0.953125 -0.140625l0 -8.21875l-0.328125 0q-0.6875 0 -0.984375 -0.265625q-0.296875 -0.265625 -0.296875 -0.703125q0 -0.40625 0.296875 -0.671875q0.296875 -0.265625 0.984375 -0.265625l2.21875 0zm17.195587 3.609375l0 6.515625q0.609375 0 0.890625 0.28125q0.296875 0.265625 0.296875 0.671875q0 0.421875 -0.296875 0.6875q-0.296875 0.265625 -0.96875 0.265625l-1.8125 0l0 -0.4375q-0.828125 0.375 -1.578125 0.5625q-0.734375 0.1875 -1.390625 0.1875q-0.9375 0 -1.625 -0.390625q-0.6875 -0.40625 -1.09375 -1.09375q-0.28125 -0.5 -0.28125 -1.265625l0 -4.078125l-0.328125 0q-0.6875 0 -0.984375 -0.265625q-0.28125 -0.265625 -0.28125 -0.703125q0 -0.40625 0.28125 -0.671875q0.296875 -0.265625 0.984375 -0.265625l2.234375 0l0 5.65625q0 0.609375 0.28125 0.890625q0.296875 0.28125 0.90625 0.28125q0.5625 0 1.21875 -0.21875q0.671875 -0.234375 1.65625 -0.828125l0 -3.875l-0.6875 0q-0.6875 0 -0.984375 -0.265625q-0.296875 -0.265625 -0.296875 -0.703125q0 -0.40625 0.296875 -0.671875q0.296875 -0.265625 0.984375 -0.265625l2.578125 0zm4.758087 -3.609375l0 4.265625q0.703125 -0.453125 1.421875 -0.671875q0.71875 -0.234375 1.453125 -0.234375q1.96875 0 3.34375 1.359375q1.375 1.359375 1.375 3.296875q0 1.84375 -1.3125 3.09375q-1.296875 1.234375 -3.453125 1.234375q-0.75 0 -1.453125 -0.203125q-0.703125 -0.1875 -1.375 -0.578125l0 0.46875l-2.21875 0q-0.6875 0 -0.984375 -0.265625q-0.28125 -0.265625 -0.28125 -0.6875q0 -0.421875 0.296875 -0.6875q0.296875 -0.265625 0.96875 -0.265625l0.328125 0l0 -8.21875l-0.328125 0q-0.6875 0 -0.984375 -0.265625q-0.28125 -0.265625 -0.28125 -0.703125q0 -0.40625 0.28125 -0.671875q0.296875 -0.265625 0.984375 -0.265625l2.21875 0zm5.6875 8.0625q0 -1.171875 -0.828125 -1.984375q-0.8125 -0.8125 -2.015625 -0.8125q-1.1875 0 -2.015625 0.8125q-0.828125 0.8125 -0.828125 1.96875q0 1.046875 0.734375 1.71875q0.75 0.671875 2.109375 0.671875q1.359375 0 2.09375 -0.671875q0.75 -0.671875 0.75 -1.703125zm9.367432 3.015625q0 0.53125 -0.390625 0.90625q-0.375 0.359375 -1.046875 0.359375q-0.65625 0 -1.046875 -0.359375q-0.375 -0.375 -0.375 -0.90625q0 -0.546875 0.375 -0.90625q0.390625 -0.359375 1.046875 -0.359375q0.671875 0 1.046875 0.359375q0.390625 0.359375 0.390625 0.90625zm12.711182 -7.125q0.34375 -0.328125 0.703125 -0.328125q0.40625 0 0.671875 0.296875q0.265625 0.28125 0.265625 0.96875l0 1.21875q0 0.6875 -0.265625 0.984375q-0.265625 0.28125 -0.6875 0.28125q-0.390625 0 -0.671875 -0.21875q-0.1875 -0.171875 -0.296875 -0.6875q-0.109375 -0.515625 -0.546875 -0.765625q-0.75 -0.4375 -1.921875 -0.4375q-1.34375 0 -2.15625 0.78125q-0.8125 0.78125 -0.8125 2.0q0 1.109375 0.78125 1.75q0.78125 0.640625 2.59375 0.640625q1.1875 0 1.9375 -0.234375q0.453125 -0.140625 0.84375 -0.5q0.40625 -0.359375 0.71875 -0.359375q0.390625 0 0.671875 0.296875q0.296875 0.28125 0.296875 0.671875q0 0.625 -0.875 1.1875q-1.28125 0.84375 -3.75 0.84375q-2.203125 0 -3.4375 -0.921875q-1.671875 -1.234375 -1.671875 -3.375q0 -2.03125 1.34375 -3.359375q1.359375 -1.328125 3.546875 -1.328125q0.78125 0 1.453125 0.15625q0.6875 0.140625 1.265625 0.4375zm13.164368 4.03125q0 1.09375 -0.609375 2.125q-0.609375 1.015625 -1.8125 1.625q-1.203125 0.609375 -2.5 0.609375q-1.296875 0 -2.484375 -0.59375q-1.1875 -0.609375 -1.8125 -1.640625q-0.625 -1.03125 -0.625 -2.15625q0 -1.140625 0.625 -2.234375q0.640625 -1.09375 1.8125 -1.71875q1.1875 -0.640625 2.484375 -0.640625q1.296875 0 2.5 0.640625q1.203125 0.640625 1.8125 1.734375q0.609375 1.09375 0.609375 2.25zm-1.90625 0q0 -0.921875 -0.65625 -1.6875q-0.890625 -1.03125 -2.359375 -1.03125q-1.296875 0 -2.15625 0.828125q-0.859375 0.8125 -0.859375 1.90625q0 0.890625 0.859375 1.671875q0.875 0.765625 2.15625 0.765625q1.28125 0 2.140625 -0.765625q0.875 -0.78125 0.875 -1.6875zm5.2268066 -4.375l0 0.53125q0.46875 -0.453125 0.84375 -0.625q0.375 -0.171875 0.859375 -0.171875q0.421875 0 0.828125 0.203125q0.40625 0.203125 0.796875 0.609375q0.5 -0.40625 1.0 -0.59375q0.5 -0.203125 1.03125 -0.203125q1.0625 0 1.71875 0.5625q0.875 0.75 0.875 1.953125l0 4.25q0.59375 0 0.875 0.28125q0.296875 0.265625 0.296875 0.671875q0 0.421875 -0.296875 0.6875q-0.28125 0.265625 -0.96875 0.265625l-1.8125 0l0 -6.0q0 -0.4375 -0.15625 -0.59375q-0.15625 -0.171875 -0.484375 -0.171875q-0.3125 0 -0.578125 0.15625q-0.34375 0.234375 -0.84375 0.875l0 3.828125q0.59375 0 0.875 0.28125q0.296875 0.265625 0.296875 0.671875q0 0.421875 -0.296875 0.6875q-0.28125 0.265625 -0.96875 0.265625l-1.796875 0l0 -6.0q0 -0.421875 -0.171875 -0.59375q-0.15625 -0.171875 -0.484375 -0.171875q-0.328125 0 -0.65625 0.203125q-0.328125 0.203125 -0.78125 0.828125l0 3.828125q0.59375 0 0.875 0.28125q0.296875 0.265625 0.296875 0.671875q0 0.421875 -0.296875 0.6875q-0.28125 0.265625 -0.96875 0.265625l-1.71875 0q-0.6875 0 -0.96875 -0.265625q-0.296875 -0.265625 -0.296875 -0.6875q0 -0.421875 0.296875 -0.6875q0.28125 -0.265625 0.875 -0.265625l0 -4.609375q-0.59375 0 -0.875 -0.265625q-0.296875 -0.28125 -0.296875 -0.703125q0 -0.40625 0.296875 -0.671875q0.28125 -0.265625 0.96875 -0.265625l1.8125 0zm18.054932 -3.359375l-6.09375 13.140625q-0.234375 0.484375 -0.421875 0.640625q-0.25 0.1875 -0.578125 0.1875q-0.390625 0 -0.6875 -0.28125q-0.28125 -0.265625 -0.28125 -0.625q0 -0.25 0.234375 -0.734375l6.109375 -13.125q0.234375 -0.5 0.40625 -0.640625q0.25 -0.203125 0.578125 -0.203125q0.390625 0 0.671875 0.28125q0.28125 0.265625 0.28125 0.625q0 0.25 -0.21875 0.734375zm4.9143066 10.734375l0 3.109375l1.140625 0q0.6875 0 0.96875 0.265625q0.296875 0.265625 0.296875 0.703125q0 0.40625 -0.296875 0.671875q-0.28125 0.265625 -0.96875 0.265625l-3.375 0q-0.6875 0 -0.984375 -0.265625q-0.28125 -0.265625 -0.28125 -0.671875q0 -0.4375 0.296875 -0.703125q0.296875 -0.265625 0.96875 -0.265625l0.328125 0l0 -8.578125l-0.328125 0q-0.6875 0 -0.984375 -0.265625q-0.28125 -0.265625 -0.28125 -0.703125q0 -0.40625 0.28125 -0.671875q0.296875 -0.265625 0.984375 -0.265625l2.234375 0l0 0.640625q0.671875 -0.453125 1.375 -0.671875q0.71875 -0.21875 1.46875 -0.21875q1.953125 0 3.3125 1.328125q1.375 1.3125 1.375 3.015625q0 1.890625 -1.609375 3.109375q-1.359375 1.03125 -3.0625 1.03125q-0.734375 0 -1.453125 -0.21875q-0.703125 -0.21875 -1.40625 -0.640625zm5.640625 -3.265625q0 -0.40625 -0.328125 -1.015625q-0.3125 -0.625 -0.96875 -1.03125q-0.640625 -0.40625 -1.53125 -0.40625q-1.421875 0 -2.25 1.0625q-0.5625 0.734375 -0.5625 1.40625q0 0.765625 0.8125 1.484375q0.8125 0.71875 2.0 0.71875q1.203125 0 2.015625 -0.71875q0.8125 -0.71875 0.8125 -1.5zm12.679993 1.0625l-7.796875 0q0.296875 0.75 1.046875 1.203125q0.765625 0.453125 2.046875 0.453125q1.0625 0 2.8125 -0.453125q0.734375 -0.1875 1.0 -0.1875q0.390625 0 0.640625 0.265625q0.265625 0.265625 0.265625 0.671875q0 0.375 -0.28125 0.640625q-0.375 0.34375 -1.8125 0.65625q-1.4375 0.3125 -2.765625 0.3125q-2.28125 0 -3.65625 -1.28125q-1.359375 -1.296875 -1.359375 -3.1875q0 -2.0 1.484375 -3.25q1.484375 -1.265625 3.40625 -1.265625q1.15625 0 2.125 0.40625q0.96875 0.40625 1.453125 0.875q0.65625 0.6875 1.09375 1.703125q0.296875 0.703125 0.296875 1.640625l0 0.796875zm-2.09375 -1.90625q-0.4375 -0.8125 -1.15625 -1.203125q-0.703125 -0.40625 -1.671875 -0.40625q-0.96875 0 -1.671875 0.40625q-0.703125 0.390625 -1.140625 1.203125l5.640625 0zm8.054932 -1.359375l0 3.8125q0 0.609375 0.25 0.796875q0.390625 0.3125 1.390625 0.3125q1.453125 0 2.6875 -0.625q0.46875 -0.234375 0.75 -0.234375q0.359375 0 0.625 0.28125q0.28125 0.265625 0.28125 0.671875q0 0.375 -0.296875 0.640625q-0.453125 0.4375 -1.796875 0.8125q-1.328125 0.359375 -2.25 0.359375q-1.765625 0 -2.65625 -0.765625q-0.890625 -0.765625 -0.890625 -1.890625l0 -4.171875l-0.6875 0q-0.6875 0 -0.984375 -0.265625q-0.28125 -0.265625 -0.28125 -0.703125q0 -0.40625 0.28125 -0.671875q0.296875 -0.265625 0.984375 -0.265625l0.6875 0l0 -1.71875q0 -0.6875 0.265625 -0.96875q0.265625 -0.296875 0.6875 -0.296875q0.421875 0 0.6875 0.296875q0.265625 0.28125 0.265625 0.96875l0 1.71875l3.515625 0q0.6875 0 0.96875 0.265625q0.296875 0.265625 0.296875 0.6875q0 0.421875 -0.296875 0.6875q-0.28125 0.265625 -0.96875 0.265625l-3.515625 0zm13.367432 6.515625l0 -0.453125q-0.703125 0.390625 -1.578125 0.578125q-0.859375 0.1875 -1.5625 0.1875q-1.53125 0 -2.484375 -0.8125q-0.953125 -0.8125 -0.953125 -1.796875q0 -1.1875 1.21875 -2.203125q1.21875 -1.03125 3.375 -1.03125q0.859375 0 1.984375 0.171875l0 -0.453125q0 -0.421875 -0.359375 -0.6875q-0.359375 -0.265625 -1.390625 -0.265625q-0.84375 0 -2.203125 0.328125q-0.5 0.125 -0.765625 0.125q-0.390625 0 -0.65625 -0.265625q-0.265625 -0.28125 -0.265625 -0.71875q0 -0.234375 0.09375 -0.40625q0.09375 -0.1875 0.265625 -0.28125q0.171875 -0.109375 0.703125 -0.265625q0.703125 -0.1875 1.421875 -0.296875q0.734375 -0.125 1.328125 -0.125q1.78125 0 2.75 0.765625q0.984375 0.765625 0.984375 2.09375l0 3.90625l0.328125 0q0.6875 0 0.96875 0.265625q0.296875 0.265625 0.296875 0.6875q0 0.421875 -0.296875 0.6875q-0.28125 0.265625 -0.96875 0.265625l-2.234375 0zm0 -3.40625q-1.140625 -0.21875 -2.09375 -0.21875q-1.171875 0 -2.0 0.5625q-0.515625 0.359375 -0.515625 0.734375q0 0.265625 0.25 0.4375q0.453125 0.296875 1.265625 0.296875q0.6875 0 1.546875 -0.265625q0.875 -0.265625 1.546875 -0.734375l0 -0.8125zm7.5706177 -5.015625l0 0.640625q0.515625 -0.453125 1.140625 -0.671875q0.625 -0.21875 1.359375 -0.21875q1.6875 0 2.671875 1.046875q0.78125 0.828125 0.78125 2.1875l0 3.53125q0.59375 0 0.875 0.265625q0.296875 0.265625 0.296875 0.6875q0 0.421875 -0.296875 0.6875q-0.28125 0.265625 -0.96875 0.265625l-1.71875 0q-0.6875 0 -0.984375 -0.265625q-0.28125 -0.265625 -0.28125 -0.6875q0 -0.421875 0.28125 -0.6875q0.296875 -0.265625 0.890625 -0.265625l0 -3.59375q0 -0.609375 -0.328125 -0.90625q-0.4375 -0.359375 -1.3125 -0.359375q-0.65625 0 -1.15625 0.25q-0.5 0.25 -1.25 1.078125l0 3.53125q0.734375 0 0.9375 0.140625q0.453125 0.28125 0.453125 0.8125q0 0.421875 -0.296875 0.6875q-0.28125 0.265625 -0.96875 0.265625l-2.15625 0q-0.6875 0 -0.984375 -0.265625q-0.296875 -0.265625 -0.296875 -0.6875q0 -0.515625 0.453125 -0.8125q0.21875 -0.140625 0.953125 -0.140625l0 -4.609375q-0.609375 0 -0.890625 -0.265625q-0.28125 -0.28125 -0.28125 -0.703125q0 -0.40625 0.28125 -0.671875q0.296875 -0.265625 0.984375 -0.265625l1.8125 0zm13.804932 -3.609375l0 2.015625l-2.265625 0l0 -2.015625l2.265625 0zm0.25 3.609375l0 6.515625l2.28125 0q0.6875 0 0.984375 0.265625q0.296875 0.265625 0.296875 0.6875q0 0.421875 -0.296875 0.6875q-0.296875 0.265625 -0.984375 0.265625l-6.46875 0q-0.6875 0 -0.984375 -0.265625q-0.28125 -0.265625 -0.28125 -0.6875q0 -0.421875 0.28125 -0.6875q0.296875 -0.265625 0.984375 -0.265625l2.28125 0l0 -4.609375l-1.53125 0q-0.671875 0 -0.96875 -0.265625q-0.296875 -0.265625 -0.296875 -0.703125q0 -0.40625 0.296875 -0.671875q0.296875 -0.265625 0.96875 -0.265625l3.4375 0zm8.695557 5.265625l0 3.15625l-2.234375 0q-0.6875 0 -0.984375 -0.265625q-0.28125 -0.265625 -0.28125 -0.6875q0 -0.421875 0.296875 -0.6875q0.296875 -0.265625 0.96875 -0.265625l0.328125 0l0 -8.21875l-0.328125 0q-0.6875 0 -0.984375 -0.265625q-0.28125 -0.265625 -0.28125 -0.703125q0 -0.40625 0.28125 -0.671875q0.296875 -0.265625 0.984375 -0.265625l2.234375 0l0 6.40625l1.484375 -1.1875q-0.234375 -0.40625 -0.234375 -0.65625q0 -0.421875 0.28125 -0.6875q0.296875 -0.265625 0.984375 -0.265625l2.171875 0q0.6875 0 0.96875 0.265625q0.296875 0.265625 0.296875 0.6875q0 0.421875 -0.296875 0.6875q-0.28125 0.265625 -0.96875 0.265625l-0.53125 0l-2.3125 1.875l3.109375 2.734375l0.5625 0q0.671875 0 0.96875 0.265625q0.296875 0.265625 0.296875 0.6875q0 0.421875 -0.296875 0.6875q-0.296875 0.265625 -0.96875 0.265625l-2.203125 0q-0.6875 0 -0.984375 -0.265625q-0.28125 -0.265625 -0.28125 -0.6875q0 -0.359375 0.3125 -0.71875l-2.015625 -1.78125l-0.34375 0.296875zm17.695557 -0.890625q0 1.09375 -0.609375 2.125q-0.609375 1.015625 -1.8125 1.625q-1.203125 0.609375 -2.5 0.609375q-1.296875 0 -2.484375 -0.59375q-1.1875 -0.609375 -1.8125 -1.640625q-0.625 -1.03125 -0.625 -2.15625q0 -1.140625 0.625 -2.234375q0.640625 -1.09375 1.8125 -1.71875q1.1875 -0.640625 2.484375 -0.640625q1.296875 0 2.5 0.640625q1.203125 0.640625 1.8125 1.734375q0.609375 1.09375 0.609375 2.25zm-1.90625 0q0 -0.921875 -0.65625 -1.6875q-0.890625 -1.03125 -2.359375 -1.03125q-1.296875 0 -2.15625 0.828125q-0.859375 0.8125 -0.859375 1.90625q0 0.890625 0.859375 1.671875q0.875 0.765625 2.15625 0.765625q1.28125 0 2.140625 -0.765625q0.875 -0.78125 0.875 -1.6875zm12.523682 -7.984375l0 10.125l0.328125 0q0.671875 0 0.96875 0.265625q0.296875 0.265625 0.296875 0.6875q0 0.421875 -0.296875 0.6875q-0.28125 0.265625 -0.96875 0.265625l-2.21875 0l0 -0.46875q-0.65625 0.390625 -1.375 0.578125q-0.703125 0.203125 -1.46875 0.203125q-2.140625 0 -3.453125 -1.234375q-1.296875 -1.25 -1.296875 -3.09375q0 -1.9375 1.375 -3.296875q1.375 -1.359375 3.34375 -1.359375q0.75 0 1.453125 0.234375q0.71875 0.21875 1.421875 0.671875l0 -2.359375l-0.328125 0q-0.6875 0 -0.984375 -0.265625q-0.296875 -0.265625 -0.296875 -0.6875q0 -0.421875 0.296875 -0.6875q0.296875 -0.265625 0.984375 -0.265625l2.21875 0zm-1.890625 8.0625q0 -1.171875 -0.828125 -1.984375q-0.828125 -0.8125 -2.03125 -0.8125q-1.1875 0 -2.015625 0.8125q-0.8125 0.8125 -0.8125 1.96875q0 1.046875 0.734375 1.71875q0.75 0.671875 2.09375 0.671875q1.34375 0 2.09375 -0.671875q0.765625 -0.671875 0.765625 -1.703125zm13.492432 0.71875l-7.796875 0q0.296875 0.75 1.046875 1.203125q0.765625 0.453125 2.046875 0.453125q1.0625 0 2.8125 -0.453125q0.734375 -0.1875 1.0 -0.1875q0.390625 0 0.640625 0.265625q0.265625 0.265625 0.265625 0.671875q0 0.375 -0.28125 0.640625q-0.375 0.34375 -1.8125 0.65625q-1.4375 0.3125 -2.765625 0.3125q-2.28125 0 -3.65625 -1.28125q-1.359375 -1.296875 -1.359375 -3.1875q0 -2.0 1.484375 -3.25q1.484375 -1.265625 3.40625 -1.265625q1.15625 0 2.125 0.40625q0.96875 0.40625 1.453125 0.875q0.65625 0.6875 1.09375 1.703125q0.296875 0.703125 0.296875 1.640625l0 0.796875zm-2.09375 -1.90625q-0.4375 -0.8125 -1.15625 -1.203125q-0.703125 -0.40625 -1.671875 -0.40625q-0.96875 0 -1.671875 0.40625q-0.703125 0.390625 -1.140625 1.203125l5.640625 0zm12.445557 -6.625l-6.09375 13.140625q-0.234375 0.484375 -0.421875 0.640625q-0.25 0.1875 -0.578125 0.1875q-0.390625 0 -0.6875 -0.28125q-0.28125 -0.265625 -0.28125 -0.625q0 -0.25 0.234375 -0.734375l6.109375 -13.125q0.234375 -0.5 0.40625 -0.640625q0.25 -0.203125 0.578125 -0.203125q0.390625 0 0.671875 0.28125q0.28125 0.265625 0.28125 0.625q0 0.25 -0.21875 0.734375zm4.8674316 -0.25l0 4.265625q0.703125 -0.453125 1.421875 -0.671875q0.71875 -0.234375 1.453125 -0.234375q1.96875 0 3.34375 1.359375q1.375 1.359375 1.375 3.296875q0 1.84375 -1.3125 3.09375q-1.296875 1.234375 -3.453125 1.234375q-0.75 0 -1.453125 -0.203125q-0.703125 -0.1875 -1.375 -0.578125l0 0.46875l-2.21875 0q-0.6875 0 -0.984375 -0.265625q-0.28125 -0.265625 -0.28125 -0.6875q0 -0.421875 0.296875 -0.6875q0.296875 -0.265625 0.96875 -0.265625l0.328125 0l0 -8.21875l-0.328125 0q-0.6875 0 -0.984375 -0.265625q-0.28125 -0.265625 -0.28125 -0.703125q0 -0.40625 0.28125 -0.671875q0.296875 -0.265625 0.984375 -0.265625l2.21875 0zm5.6875 8.0625q0 -1.171875 -0.828125 -1.984375q-0.8125 -0.8125 -2.015625 -0.8125q-1.1875 0 -2.015625 0.8125q-0.828125 0.8125 -0.828125 1.96875q0 1.046875 0.734375 1.71875q0.75 0.671875 2.109375 0.671875q1.359375 0 2.09375 -0.671875q0.75 -0.671875 0.75 -1.703125zm12.679932 0.71875l-7.796875 0q0.296875 0.75 1.046875 1.203125q0.765625 0.453125 2.046875 0.453125q1.0625 0 2.8125 -0.453125q0.734375 -0.1875 1.0 -0.1875q0.390625 0 0.640625 0.265625q0.265625 0.265625 0.265625 0.671875q0 0.375 -0.28125 0.640625q-0.375 0.34375 -1.8125 0.65625q-1.4375 0.3125 -2.765625 0.3125q-2.28125 0 -3.65625 -1.28125q-1.359375 -1.296875 -1.359375 -3.1875q0 -2.0 1.484375 -3.25q1.484375 -1.265625 3.40625 -1.265625q1.15625 0 2.125 0.40625q0.96875 0.40625 1.453125 0.875q0.65625 0.6875 1.09375 1.703125q0.296875 0.703125 0.296875 1.640625l0 0.796875zm-2.09375 -1.90625q-0.4375 -0.8125 -1.15625 -1.203125q-0.703125 -0.40625 -1.671875 -0.40625q-0.96875 0 -1.671875 0.40625q-0.703125 0.390625 -1.140625 1.203125l5.640625 0zm9.476807 -6.875l0 10.125l2.28125 0q0.6875 0 0.96875 0.265625q0.296875 0.265625 0.296875 0.6875q0 0.421875 -0.296875 0.6875q-0.28125 0.265625 -0.96875 0.265625l-6.46875 0q-0.6875 0 -0.984375 -0.265625q-0.28125 -0.265625 -0.28125 -0.6875q0 -0.421875 0.28125 -0.6875q0.296875 -0.265625 0.984375 -0.265625l2.28125 0l0 -8.21875l-1.53125 0q-0.671875 0 -0.96875 -0.265625q-0.296875 -0.265625 -0.296875 -0.703125q0 -0.40625 0.28125 -0.671875q0.296875 -0.265625 0.984375 -0.265625l3.4375 0zm11.945557 12.03125l0 -0.453125q-0.703125 0.390625 -1.578125 0.578125q-0.859375 0.1875 -1.5625 0.1875q-1.53125 0 -2.484375 -0.8125q-0.953125 -0.8125 -0.953125 -1.796875q0 -1.1875 1.21875 -2.203125q1.21875 -1.03125 3.375 -1.03125q0.859375 0 1.984375 0.171875l0 -0.453125q0 -0.421875 -0.359375 -0.6875q-0.359375 -0.265625 -1.390625 -0.265625q-0.84375 0 -2.203125 0.328125q-0.5 0.125 -0.765625 0.125q-0.390625 0 -0.65625 -0.265625q-0.265625 -0.28125 -0.265625 -0.71875q0 -0.234375 0.09375 -0.40625q0.09375 -0.1875 0.265625 -0.28125q0.171875 -0.109375 0.703125 -0.265625q0.703125 -0.1875 1.421875 -0.296875q0.734375 -0.125 1.328125 -0.125q1.78125 0 2.75 0.765625q0.984375 0.765625 0.984375 2.09375l0 3.90625l0.328125 0q0.6875 0 0.96875 0.265625q0.296875 0.265625 0.296875 0.6875q0 0.421875 -0.296875 0.6875q-0.28125 0.265625 -0.96875 0.265625l-2.234375 0zm0 -3.40625q-1.140625 -0.21875 -2.09375 -0.21875q-1.171875 0 -2.0 0.5625q-0.515625 0.359375 -0.515625 0.734375q0 0.265625 0.25 0.4375q0.453125 0.296875 1.265625 0.296875q0.6875 0 1.546875 -0.265625q0.875 -0.265625 1.546875 -0.734375l0 -0.8125zm11.398682 -8.625l0 2.015625l-2.265625 0l0 -2.015625l2.265625 0zm-0.765625 5.515625l-3.890625 0q-0.6875 0 -0.984375 -0.265625q-0.28125 -0.265625 -0.28125 -0.703125q0 -0.40625 0.28125 -0.671875q0.296875 -0.265625 0.984375 -0.265625l5.78125 0l0 8.828125q0 1.0 -0.421875 1.734375q-0.421875 0.75 -1.296875 1.28125q-0.859375 0.546875 -1.953125 0.546875l-2.15625 0q-0.6875 0 -0.984375 -0.265625q-0.28125 -0.265625 -0.28125 -0.671875q0 -0.4375 0.28125 -0.703125q0.296875 -0.265625 0.984375 -0.265625l2.09375 0q0.875 0 1.359375 -0.46875q0.484375 -0.46875 0.484375 -1.1875l0 -6.921875zm11.758057 6.515625l0 -0.453125q-0.703125 0.390625 -1.578125 0.578125q-0.859375 0.1875 -1.5625 0.1875q-1.53125 0 -2.484375 -0.8125q-0.953125 -0.8125 -0.953125 -1.796875q0 -1.1875 1.21875 -2.203125q1.21875 -1.03125 3.375 -1.03125q0.859375 0 1.984375 0.171875l0 -0.453125q0 -0.421875 -0.359375 -0.6875q-0.359375 -0.265625 -1.390625 -0.265625q-0.84375 0 -2.203125 0.328125q-0.5 0.125 -0.765625 0.125q-0.390625 0 -0.65625 -0.265625q-0.265625 -0.28125 -0.265625 -0.71875q0 -0.234375 0.09375 -0.40625q0.09375 -0.1875 0.265625 -0.28125q0.171875 -0.109375 0.703125 -0.265625q0.703125 -0.1875 1.421875 -0.296875q0.734375 -0.125 1.328125 -0.125q1.78125 0 2.75 0.765625q0.984375 0.765625 0.984375 2.09375l0 3.90625l0.328125 0q0.6875 0 0.96875 0.265625q0.296875 0.265625 0.296875 0.6875q0 0.421875 -0.296875 0.6875q-0.28125 0.265625 -0.96875 0.265625l-2.234375 0zm0 -3.40625q-1.140625 -0.21875 -2.09375 -0.21875q-1.171875 0 -2.0 0.5625q-0.515625 0.359375 -0.515625 0.734375q0 0.265625 0.25 0.4375q0.453125 0.296875 1.265625 0.296875q0.6875 0 1.546875 -0.265625q0.875 -0.265625 1.546875 -0.734375l0 -0.8125zm9.101807 -5.015625l0 1.1875q1.1875 -0.859375 1.875 -1.140625q0.703125 -0.296875 1.296875 -0.296875q0.9375 0 1.796875 0.6875q0.59375 0.453125 0.59375 0.9375q0 0.40625 -0.28125 0.703125q-0.28125 0.28125 -0.671875 0.28125q-0.359375 0 -0.75 -0.34375q-0.390625 -0.359375 -0.6875 -0.359375q-0.40625 0 -1.203125 0.5q-0.78125 0.5 -1.96875 1.5l0 2.859375l2.703125 0q0.6875 0 0.96875 0.265625q0.296875 0.265625 0.296875 0.6875q0 0.421875 -0.296875 0.6875q-0.28125 0.265625 -0.96875 0.265625l-5.75 0q-0.671875 0 -0.96875 -0.265625q-0.296875 -0.265625 -0.296875 -0.6875q0 -0.421875 0.296875 -0.6875q0.296875 -0.265625 0.96875 -0.265625l1.140625 0l0 -4.609375l-0.6875 0q-0.6875 0 -0.984375 -0.265625q-0.28125 -0.265625 -0.28125 -0.703125q0 -0.40625 0.28125 -0.671875q0.296875 -0.265625 0.984375 -0.265625l2.59375 0zm15.570557 3.890625l-7.9375 0l0 -1.734375l7.9375 0l0 1.734375zm9.304932 -3.328125l0 -0.5625l2.21875 0q0.6875 0 0.984375 0.265625q0.296875 0.265625 0.296875 0.6875q0 0.421875 -0.296875 0.6875q-0.296875 0.265625 -0.984375 0.265625l-0.328125 0l0 6.921875q0 1.0 -0.421875 1.734375q-0.421875 0.75 -1.296875 1.28125q-0.859375 0.546875 -1.953125 0.546875l-2.15625 0q-0.6875 0 -0.984375 -0.265625q-0.28125 -0.265625 -0.28125 -0.671875q0 -0.4375 0.28125 -0.703125q0.296875 -0.265625 0.984375 -0.265625l2.09375 0q0.875 0 1.359375 -0.46875q0.484375 -0.46875 0.484375 -1.1875l0 -0.9375q-0.640625 0.40625 -1.296875 0.609375q-0.640625 0.203125 -1.328125 0.203125q-1.9375 0 -3.25 -1.28125q-1.3125 -1.296875 -1.3125 -3.203125q0 -1.90625 1.3125 -3.203125q1.3125 -1.296875 3.25 -1.296875q0.71875 0 1.375 0.21875q0.65625 0.203125 1.25 0.625zm-0.015625 3.640625q0 -1.046875 -0.78125 -1.8125q-0.765625 -0.765625 -1.84375 -0.765625q-1.09375 0 -1.875 0.765625q-0.765625 0.765625 -0.765625 1.8125q0 1.0625 0.765625 1.828125q0.78125 0.765625 1.875 0.765625q1.078125 0 1.84375 -0.765625q0.78125 -0.765625 0.78125 -1.828125zm9.804932 -7.8125l0 2.015625l-2.265625 0l0 -2.015625l2.265625 0zm0.25 3.609375l0 6.515625l2.28125 0q0.6875 0 0.984375 0.265625q0.296875 0.265625 0.296875 0.6875q0 0.421875 -0.296875 0.6875q-0.296875 0.265625 -0.984375 0.265625l-6.46875 0q-0.6875 0 -0.984375 -0.265625q-0.28125 -0.265625 -0.28125 -0.6875q0 -0.421875 0.28125 -0.6875q0.296875 -0.265625 0.984375 -0.265625l2.28125 0l0 -4.609375l-1.53125 0q-0.671875 0 -0.96875 -0.265625q-0.296875 -0.265625 -0.296875 -0.703125q0 -0.40625 0.296875 -0.671875q0.296875 -0.265625 0.96875 -0.265625l3.4375 0zm9.789307 1.90625l0 3.8125q0 0.609375 0.25 0.796875q0.390625 0.3125 1.390625 0.3125q1.453125 0 2.6875 -0.625q0.46875 -0.234375 0.75 -0.234375q0.359375 0 0.625 0.28125q0.28125 0.265625 0.28125 0.671875q0 0.375 -0.296875 0.640625q-0.453125 0.4375 -1.796875 0.8125q-1.328125 0.359375 -2.25 0.359375q-1.765625 0 -2.65625 -0.765625q-0.890625 -0.765625 -0.890625 -1.890625l0 -4.171875l-0.6875 0q-0.6875 0 -0.984375 -0.265625q-0.28125 -0.265625 -0.28125 -0.703125q0 -0.40625 0.28125 -0.671875q0.296875 -0.265625 0.984375 -0.265625l0.6875 0l0 -1.71875q0 -0.6875 0.265625 -0.96875q0.265625 -0.296875 0.6875 -0.296875q0.421875 0 0.6875 0.296875q0.265625 0.28125 0.265625 0.96875l0 1.71875l3.515625 0q0.6875 0 0.96875 0.265625q0.296875 0.265625 0.296875 0.6875q0 0.421875 -0.296875 0.6875q-0.28125 0.265625 -0.96875 0.265625l-3.515625 0zm13.117432 5.5625q0 0.53125 -0.390625 0.90625q-0.375 0.359375 -1.046875 0.359375q-0.65625 0 -1.046875 -0.359375q-0.375 -0.375 -0.375 -0.90625q0 -0.546875 0.375 -0.90625q0.390625 -0.359375 1.046875 -0.359375q0.671875 0 1.046875 0.359375q0.390625 0.359375 0.390625 0.90625zm11.836182 -6.90625l0 -0.5625l2.21875 0q0.6875 0 0.984375 0.265625q0.296875 0.265625 0.296875 0.6875q0 0.421875 -0.296875 0.6875q-0.296875 0.265625 -0.984375 0.265625l-0.328125 0l0 6.921875q0 1.0 -0.421875 1.734375q-0.421875 0.75 -1.296875 1.28125q-0.859375 0.546875 -1.953125 0.546875l-2.15625 0q-0.6875 0 -0.984375 -0.265625q-0.28125 -0.265625 -0.28125 -0.671875q0 -0.4375 0.28125 -0.703125q0.296875 -0.265625 0.984375 -0.265625l2.09375 0q0.875 0 1.359375 -0.46875q0.484375 -0.46875 0.484375 -1.1875l0 -0.9375q-0.640625 0.40625 -1.296875 0.609375q-0.640625 0.203125 -1.328125 0.203125q-1.9375 0 -3.25 -1.28125q-1.3125 -1.296875 -1.3125 -3.203125q0 -1.90625 1.3125 -3.203125q1.3125 -1.296875 3.25 -1.296875q0.71875 0 1.375 0.21875q0.65625 0.203125 1.25 0.625zm-0.015625 3.640625q0 -1.046875 -0.78125 -1.8125q-0.765625 -0.765625 -1.84375 -0.765625q-1.09375 0 -1.875 0.765625q-0.765625 0.765625 -0.765625 1.8125q0 1.0625 0.765625 1.828125q0.78125 0.765625 1.875 0.765625q1.078125 0 1.84375 -0.765625q0.78125 -0.765625 0.78125 -1.828125zm9.804932 -7.8125l0 2.015625l-2.265625 0l0 -2.015625l2.265625 0zm0.25 3.609375l0 6.515625l2.28125 0q0.6875 0 0.984375 0.265625q0.296875 0.265625 0.296875 0.6875q0 0.421875 -0.296875 0.6875q-0.296875 0.265625 -0.984375 0.265625l-6.46875 0q-0.6875 0 -0.984375 -0.265625q-0.28125 -0.265625 -0.28125 -0.6875q0 -0.421875 0.28125 -0.6875q0.296875 -0.265625 0.984375 -0.265625l2.28125 0l0 -4.609375l-1.53125 0q-0.671875 0 -0.96875 -0.265625q-0.296875 -0.265625 -0.296875 -0.703125q0 -0.40625 0.296875 -0.671875q0.296875 -0.265625 0.96875 -0.265625l3.4375 0zm9.789307 1.90625l0 3.8125q0 0.609375 0.25 0.796875q0.390625 0.3125 1.390625 0.3125q1.453125 0 2.6875 -0.625q0.46875 -0.234375 0.75 -0.234375q0.359375 0 0.625 0.28125q0.28125 0.265625 0.28125 0.671875q0 0.375 -0.296875 0.640625q-0.453125 0.4375 -1.796875 0.8125q-1.328125 0.359375 -2.25 0.359375q-1.765625 0 -2.65625 -0.765625q-0.890625 -0.765625 -0.890625 -1.890625l0 -4.171875l-0.6875 0q-0.6875 0 -0.984375 -0.265625q-0.28125 -0.265625 -0.28125 -0.703125q0 -0.40625 0.28125 -0.671875q0.296875 -0.265625 0.984375 -0.265625l0.6875 0l0 -1.71875q0 -0.6875 0.265625 -0.96875q0.265625 -0.296875 0.6875 -0.296875q0.421875 0 0.6875 0.296875q0.265625 0.28125 0.265625 0.96875l0 1.71875l3.515625 0q0.6875 0 0.96875 0.265625q0.296875 0.265625 0.296875 0.6875q0 0.421875 -0.296875 0.6875q-0.28125 0.265625 -0.96875 0.265625l-3.515625 0z" fill-rule="nonzero"></path><path fill="#000000" fill-opacity="0.0" d="m189.85564 129.41077l0 56.503937" fill-rule="evenodd"></path><path stroke="#000000" stroke-width="1.0" stroke-linejoin="round" stroke-linecap="butt" d="m189.85564 129.41077l0 50.503937" fill-rule="evenodd"></path><path fill="#000000" stroke="#000000" stroke-width="1.0" stroke-linecap="butt" d="m188.2039 179.9147l1.6517334 4.538086l1.6517334 -4.538086z" fill-rule="evenodd"></path><path fill="#000000" fill-opacity="0.0" d="m298.90552 292.33203l-1.3228455 -63.05513" fill-rule="evenodd"></path><path stroke="#000000" stroke-width="1.0" stroke-linejoin="round" stroke-linecap="butt" d="m298.90552 292.33203l-1.196991 -57.056442" fill-rule="evenodd"></path><path fill="#000000" stroke="#000000" stroke-width="1.0" stroke-linecap="butt" d="m299.3599 235.24094l-1.7465515 -4.5024567l-1.5561829 4.571747z" fill-rule="evenodd"></path><path fill="#000000" fill-opacity="0.0" d="m532.7743 146.49213l1.322815 39.433075" fill-rule="evenodd"></path><path stroke="#000000" stroke-width="1.0" stroke-linejoin="round" stroke-linecap="butt" d="m532.7743 146.49213l1.1216431 33.436447" fill-rule="evenodd"></path><path fill="#000000" stroke="#000000" stroke-width="1.0" stroke-linecap="butt" d="m532.2451 179.98395l1.8029785 4.4801636l1.4986572 -4.590912z" fill-rule="evenodd"></path><path fill="#000000" fill-opacity="0.0" d="m72.92388 99.185036l249.63779 0l0 39.433067l-249.63779 0z" fill-rule="evenodd"></path><path fill="#000000" d="m82.78326 123.56316l0 -9.3125l1.03125 0l0 0.875q0.375 -0.515625 0.828125 -0.765625q0.46875 -0.265625 1.140625 -0.265625q0.859375 0 1.515625 0.453125q0.65625 0.4375 0.984375 1.25q0.34375 0.796875 0.34375 1.765625q0 1.03125 -0.375 1.859375q-0.359375 0.828125 -1.078125 1.28125q-0.703125 0.4375 -1.484375 0.4375q-0.5625 0 -1.015625 -0.234375q-0.453125 -0.25 -0.75 -0.625l0 3.28125l-1.140625 0zm1.03125 -5.90625q0 1.296875 0.53125 1.921875q0.53125 0.625 1.265625 0.625q0.765625 0 1.3125 -0.640625q0.546875 -0.65625 0.546875 -2.0q0 -1.296875 -0.53125 -1.9375q-0.53125 -0.640625 -1.265625 -0.640625q-0.734375 0 -1.296875 0.6875q-0.5625 0.671875 -0.5625 1.984375zm10.990601 1.15625l1.1875 0.140625q-0.28125 1.046875 -1.046875 1.625q-0.75 0.5625 -1.921875 0.5625q-1.484375 0 -2.359375 -0.90625q-0.859375 -0.921875 -0.859375 -2.5625q0 -1.703125 0.875 -2.640625q0.890625 -0.9375 2.28125 -0.9375q1.359375 0 2.203125 0.921875q0.859375 0.921875 0.859375 2.578125q0 0.109375 0 0.3125l-5.03125 0q0.0625 1.109375 0.625 1.703125q0.5625 0.59375 1.40625 0.59375q0.640625 0 1.078125 -0.328125q0.453125 -0.34375 0.703125 -1.0625zm-3.75 -1.84375l3.765625 0q-0.078125 -0.859375 -0.4375 -1.28125q-0.546875 -0.65625 -1.40625 -0.65625q-0.796875 0 -1.328125 0.53125q-0.53125 0.515625 -0.59375 1.40625zm6.5374756 4.015625l0 -6.734375l1.03125 0l0 1.015625q0.390625 -0.71875 0.71875 -0.9375q0.34375 -0.234375 0.734375 -0.234375q0.578125 0 1.171875 0.359375l-0.390625 1.0625q-0.421875 -0.25 -0.828125 -0.25q-0.375 0 -0.6875 0.234375q-0.296875 0.21875 -0.421875 0.625q-0.1875 0.609375 -0.1875 1.328125l0 3.53125l-1.140625 0zm4.4539948 -7.984375l0 -1.328125l1.140625 0l0 1.328125l-1.140625 0zm0 7.984375l0 -6.734375l1.140625 0l0 6.734375l-1.140625 0zm2.96109 0l0 -6.734375l1.03125 0l0 0.953125q0.734375 -1.109375 2.140625 -1.109375q0.609375 0 1.109375 0.21875q0.515625 0.21875 0.765625 0.578125q0.265625 0.34375 0.359375 0.84375q0.0625 0.3125 0.0625 1.109375l0 4.140625l-1.140625 0l0 -4.09375q0 -0.703125 -0.140625 -1.046875q-0.125 -0.34375 -0.46875 -0.546875q-0.328125 -0.21875 -0.78125 -0.21875q-0.734375 0 -1.265625 0.46875q-0.53125 0.453125 -0.53125 1.75l0 3.6875l-1.140625 0zm9.912476 -1.015625l0.15625 1.0q-0.484375 0.109375 -0.859375 0.109375q-0.625 0 -0.96875 -0.203125q-0.34375 -0.203125 -0.484375 -0.515625q-0.140625 -0.328125 -0.140625 -1.34375l0 -3.890625l-0.828125 0l0 -0.875l0.828125 0l0 -1.671875l1.140625 -0.6875l0 2.359375l1.15625 0l0 0.875l-1.15625 0l0 3.953125q0 0.484375 0.0625 0.625q0.0625 0.140625 0.1875 0.21875q0.140625 0.078125 0.390625 0.078125q0.203125 0 0.515625 -0.03125zm5.5936127 0.1875q-0.625 0.53125 -1.21875 0.765625q-0.578125 0.21875 -1.25 0.21875q-1.125 0 -1.71875 -0.546875q-0.59375 -0.546875 -0.59375 -1.390625q0 -0.484375 0.21875 -0.890625q0.234375 -0.421875 0.59375 -0.671875q0.375 -0.25 0.828125 -0.375q0.328125 -0.078125 1.015625 -0.171875q1.375 -0.15625 2.03125 -0.390625q0.015625 -0.234375 0.015625 -0.296875q0 -0.703125 -0.328125 -0.984375q-0.4375 -0.390625 -1.296875 -0.390625q-0.8125 0 -1.203125 0.28125q-0.375 0.28125 -0.5625 1.0l-1.109375 -0.140625q0.140625 -0.71875 0.484375 -1.15625q0.359375 -0.453125 1.015625 -0.6875q0.671875 -0.234375 1.53125 -0.234375q0.875 0 1.40625 0.203125q0.546875 0.203125 0.796875 0.515625q0.25 0.296875 0.359375 0.765625q0.046875 0.296875 0.046875 1.0625l0 1.515625q0 1.59375 0.078125 2.015625q0.078125 0.421875 0.28125 0.8125l-1.1875 0q-0.171875 -0.359375 -0.234375 -0.828125zm-0.09375 -2.5625q-0.625 0.265625 -1.859375 0.4375q-0.703125 0.109375 -1.0 0.234375q-0.296875 0.125 -0.453125 0.375q-0.15625 0.234375 -0.15625 0.53125q0 0.453125 0.34375 0.765625q0.34375 0.296875 1.015625 0.296875q0.65625 0 1.171875 -0.28125q0.515625 -0.296875 0.765625 -0.796875q0.171875 -0.375 0.171875 -1.140625l0 -0.421875zm3.1156006 3.390625l0 -9.3125l1.140625 0l0 3.34375q0.796875 -0.921875 2.015625 -0.921875q0.75 0 1.296875 0.296875q0.5625076 0.296875 0.7968826 0.8125q0.234375 0.515625 0.234375 1.515625l0 4.265625l-1.1406326 0l0 -4.265625q0 -0.859375 -0.375 -1.25q-0.359375 -0.390625 -1.046875 -0.390625q-0.5 0 -0.953125 0.265625q-0.453125 0.25 -0.640625 0.703125q-0.1875 0.453125 -0.1875 1.25l0 3.6875l-1.140625 0zm15.537346 0l0 -0.984375q-0.796875 1.140625 -2.140625 1.140625q-0.59375 0 -1.125 -0.234375q-0.515625 -0.234375 -0.765625 -0.578125q-0.25 -0.34375 -0.34375 -0.84375q-0.078125 -0.328125 -0.078125 -1.0625l0 -4.171875l1.140625 0l0 3.734375q0 0.890625 0.078125 1.203125q0.109375 0.453125 0.453125 0.71875q0.34375 0.25 0.859375 0.25q0.515625 0 0.96875 -0.265625q0.453125 -0.265625 0.640625 -0.71875q0.1875 -0.453125 0.1875 -1.3125l0 -3.609375l1.140625 0l0 6.734375l-1.015625 0zm2.9906006 0l0 -6.734375l1.03125 0l0 0.953125q0.734375 -1.109375 2.140625 -1.109375q0.609375 0 1.109375 0.21875q0.515625 0.21875 0.765625 0.578125q0.265625 0.34375 0.359375 0.84375q0.0625 0.3125 0.0625 1.109375l0 4.140625l-1.140625 0l0 -4.09375q0 -0.703125 -0.140625 -1.046875q-0.125 -0.34375 -0.46875 -0.546875q-0.328125 -0.21875 -0.78125 -0.21875q-0.734375 0 -1.265625 0.46875q-0.53125 0.453125 -0.53125 1.75l0 3.6875l-1.140625 0zm9.912476 -1.015625l0.15625 1.0q-0.484375 0.109375 -0.859375 0.109375q-0.625 0 -0.96875 -0.203125q-0.34375 -0.203125 -0.484375 -0.515625q-0.140625 -0.328125 -0.140625 -1.34375l0 -3.890625l-0.828125 0l0 -0.875l0.828125 0l0 -1.671875l1.140625 -0.6875l0 2.359375l1.15625 0l0 0.875l-1.15625 0l0 3.953125q0 0.484375 0.0625 0.625q0.0625 0.140625 0.1875 0.21875q0.140625 0.078125 0.390625 0.078125q0.203125 0 0.515625 -0.03125zm5.6248627 1.015625l0 -0.984375q-0.796875 1.140625 -2.140625 1.140625q-0.59375 0 -1.125 -0.234375q-0.515625 -0.234375 -0.765625 -0.578125q-0.25 -0.34375 -0.34375 -0.84375q-0.078125 -0.328125 -0.078125 -1.0625l0 -4.171875l1.140625 0l0 3.734375q0 0.890625 0.078125 1.203125q0.109375 0.453125 0.453125 0.71875q0.34375 0.25 0.859375 0.25q0.515625 0 0.96875 -0.265625q0.453125 -0.265625 0.640625 -0.71875q0.1875 -0.453125 0.1875 -1.3125l0 -3.609375l1.140625 0l0 6.734375l-1.015625 0zm2.9906006 0l0 -9.3125l1.140625 0l0 5.3125l2.703125 -2.734375l1.484375 0l-2.578125 2.5l2.84375 4.234375l-1.40625 0l-2.234375 -3.453125l-0.8125 0.78125l0 2.671875l-1.140625 0zm10.36705 0l0 -6.734375l1.015625 0l0 0.9375q0.328125 -0.5 0.84375 -0.796875q0.53125 -0.296875 1.203125 -0.296875q0.75 0 1.21875 0.3125q0.484375 0.3125 0.6875 0.859375q0.796875 -1.171875 2.078125 -1.171875q1.0 0 1.53125 0.5625q0.546875 0.546875 0.546875 1.703125l0 4.625l-1.125 0l0 -4.25q0 -0.6875 -0.109375 -0.984375q-0.109375 -0.296875 -0.40625 -0.484375q-0.296875 -0.1875 -0.6875 -0.1875q-0.71875 0 -1.1875 0.484375q-0.46875 0.46875 -0.46875 1.5l0 3.921875l-1.140625 0l0 -4.375q0 -0.765625 -0.28125 -1.140625q-0.28125 -0.390625 -0.90625 -0.390625q-0.484375 0 -0.890625 0.265625q-0.40625 0.25 -0.59375 0.734375q-0.1875 0.484375 -0.1875 1.40625l0 3.5l-1.140625 0zm15.711807 -2.171875l1.1875 0.140625q-0.28125 1.046875 -1.046875 1.625q-0.75 0.5625 -1.921875 0.5625q-1.484375 0 -2.359375 -0.90625q-0.859375 -0.921875 -0.859375 -2.5625q0 -1.703125 0.875 -2.640625q0.890625 -0.9375 2.28125 -0.9375q1.359375 0 2.203125 0.921875q0.859375 0.921875 0.859375 2.578125q0 0.109375 0 0.3125l-5.03125 0q0.0625 1.109375 0.625 1.703125q0.5625 0.59375 1.40625 0.59375q0.640625 0 1.078125 -0.328125q0.453125 -0.34375 0.703125 -1.0625zm-3.75 -1.84375l3.765625 0q-0.078125 -0.859375 -0.4375 -1.28125q-0.546875 -0.65625 -1.40625 -0.65625q-0.796875 0 -1.328125 0.53125q-0.53125 0.515625 -0.59375 1.40625zm6.5531006 4.015625l0 -6.734375l1.03125 0l0 0.953125q0.734375 -1.109375 2.140625 -1.109375q0.609375 0 1.109375 0.21875q0.515625 0.21875 0.765625 0.578125q0.265625 0.34375 0.359375 0.84375q0.0625 0.3125 0.0625 1.109375l0 4.140625l-1.140625 0l0 -4.09375q0 -0.703125 -0.140625 -1.046875q-0.125 -0.34375 -0.46875 -0.546875q-0.328125 -0.21875 -0.78125 -0.21875q-0.734375 0 -1.265625 0.46875q-0.53125 0.453125 -0.53125 1.75l0 3.6875l-1.140625 0zm11.803101 -0.828125q-0.625 0.53125 -1.21875 0.765625q-0.578125 0.21875 -1.25 0.21875q-1.125 0 -1.71875 -0.546875q-0.59375 -0.546875 -0.59375 -1.390625q0 -0.484375 0.21875 -0.890625q0.234375 -0.421875 0.59375 -0.671875q0.375 -0.25 0.828125 -0.375q0.328125 -0.078125 1.015625 -0.171875q1.375 -0.15625 2.03125 -0.390625q0.015625 -0.234375 0.015625 -0.296875q0 -0.703125 -0.328125 -0.984375q-0.4375 -0.390625 -1.296875 -0.390625q-0.8125 0 -1.203125 0.28125q-0.375 0.28125 -0.5625 1.0l-1.109375 -0.140625q0.140625 -0.71875 0.484375 -1.15625q0.359375 -0.453125 1.015625 -0.6875q0.671875 -0.234375 1.53125 -0.234375q0.875 0 1.40625 0.203125q0.546875 0.203125 0.796875 0.515625q0.25 0.296875 0.359375 0.765625q0.046875 0.296875 0.046875 1.0625l0 1.515625q0 1.59375 0.078125 2.015625q0.078125 0.421875 0.28125 0.8125l-1.1875 0q-0.171875 -0.359375 -0.234375 -0.828125zm-0.09375 -2.5625q-0.625 0.265625 -1.859375 0.4375q-0.703125 0.109375 -1.0 0.234375q-0.296875 0.125 -0.453125 0.375q-0.15625 0.234375 -0.15625 0.53125q0 0.453125 0.34375 0.765625q0.34375 0.296875 1.015625 0.296875q0.65625 0 1.171875 -0.28125q0.515625 -0.296875 0.765625 -0.796875q0.171875 -0.375 0.171875 -1.140625l0 -0.421875zm3.1156006 3.390625l0 -6.734375l1.015625 0l0 0.9375q0.328125 -0.5 0.84375 -0.796875q0.53125 -0.296875 1.203125 -0.296875q0.75 0 1.21875 0.3125q0.484375 0.3125 0.6875 0.859375q0.796875 -1.171875 2.078125 -1.171875q1.0 0 1.53125 0.5625q0.546875 0.546875 0.546875 1.703125l0 4.625l-1.125 0l0 -4.25q0 -0.6875 -0.109375 -0.984375q-0.109375 -0.296875 -0.40625 -0.484375q-0.296875 -0.1875 -0.6875 -0.1875q-0.71875 0 -1.1875 0.484375q-0.46875 0.46875 -0.46875 1.5l0 3.921875l-1.140625 0l0 -4.375q0 -0.765625 -0.28125 -1.140625q-0.28125 -0.390625 -0.90625 -0.390625q-0.484375 0 -0.890625 0.265625q-0.40625 0.25 -0.59375 0.734375q-0.1875 0.484375 -0.1875 1.40625l0 3.5l-1.140625 0zm12.149307 0l-1.0625 0l0 -9.3125l1.15625 0l0 3.328125q0.71875 -0.90625 1.84375 -0.90625q0.625 0 1.171875 0.25q0.5625 0.25 0.921875 0.703125q0.359375 0.453125 0.5625 1.09375q0.203125 0.640625 0.203125 1.375q0 1.734375 -0.859375 2.6875q-0.859375 0.9375 -2.0625 0.9375q-1.1875 0 -1.875 -1.0l0 0.84375zm-0.015625 -3.421875q0 1.21875 0.34375 1.75q0.53125 0.890625 1.453125 0.890625q0.75 0 1.296875 -0.65625q0.546875 -0.65625 0.546875 -1.9375q0 -1.328125 -0.53125 -1.953125q-0.515625 -0.625 -1.265625 -0.625q-0.75 0 -1.296875 0.65625q-0.546875 0.640625 -0.546875 1.875zm10.771851 2.59375q-0.625 0.53125 -1.21875 0.765625q-0.578125 0.21875 -1.25 0.21875q-1.125 0 -1.71875 -0.546875q-0.59375 -0.546875 -0.59375 -1.390625q0 -0.484375 0.21875 -0.890625q0.234375 -0.421875 0.59375 -0.671875q0.375 -0.25 0.828125 -0.375q0.328125 -0.078125 1.015625 -0.171875q1.375 -0.15625 2.03125 -0.390625q0.015625 -0.234375 0.015625 -0.296875q0 -0.703125 -0.328125 -0.984375q-0.4375 -0.390625 -1.296875 -0.390625q-0.8125 0 -1.203125 0.28125q-0.375 0.28125 -0.5625 1.0l-1.109375 -0.140625q0.140625 -0.71875 0.484375 -1.15625q0.359375 -0.453125 1.015625 -0.6875q0.671875 -0.234375 1.53125 -0.234375q0.875 0 1.40625 0.203125q0.546875 0.203125 0.796875 0.515625q0.25 0.296875 0.359375 0.765625q0.046875 0.296875 0.046875 1.0625l0 1.515625q0 1.59375 0.078125 2.015625q0.078125 0.421875 0.28125 0.8125l-1.1875 0q-0.171875 -0.359375 -0.234375 -0.828125zm-0.09375 -2.5625q-0.625 0.265625 -1.859375 0.4375q-0.703125 0.109375 -1.0 0.234375q-0.296875 0.125 -0.453125 0.375q-0.15625 0.234375 -0.15625 0.53125q0 0.453125 0.34375 0.765625q0.34375 0.296875 1.015625 0.296875q0.65625 0 1.171875 -0.28125q0.515625 -0.296875 0.765625 -0.796875q0.171875 -0.375 0.171875 -1.140625l0 -0.421875zm3.1156006 3.390625l0 -9.3125l1.140625 0l0 3.34375q0.796875 -0.921875 2.015625 -0.921875q0.75 0 1.296875 0.296875q0.5625 0.296875 0.796875 0.8125q0.234375 0.515625 0.234375 1.515625l0 4.265625l-1.140625 0l0 -4.265625q0 -0.859375 -0.375 -1.25q-0.359375 -0.390625 -1.046875 -0.390625q-0.5 0 -0.953125 0.265625q-0.453125 0.25 -0.640625 0.703125q-0.1875 0.453125 -0.1875 1.25l0 3.6875l-1.140625 0zm7.4124756 0l0 -9.3125l1.140625 0l0 5.3125l2.703125 -2.734375l1.484375 0l-2.578125 2.5l2.84375 4.234375l-1.40625 0l-2.234375 -3.453125l-0.8125 0.78125l0 2.671875l-1.140625 0zm11.0546875 -0.828125q-0.625 0.53125 -1.21875 0.765625q-0.578125 0.21875 -1.25 0.21875q-1.125 0 -1.71875 -0.546875q-0.59375 -0.546875 -0.59375 -1.390625q0 -0.484375 0.21875 -0.890625q0.234375 -0.421875 0.59375 -0.671875q0.375 -0.25 0.828125 -0.375q0.328125 -0.078125 1.015625 -0.171875q1.375 -0.15625 2.03125 -0.390625q0.015625 -0.234375 0.015625 -0.296875q0 -0.703125 -0.328125 -0.984375q-0.4375 -0.390625 -1.296875 -0.390625q-0.8125 0 -1.203125 0.28125q-0.375 0.28125 -0.5625 1.0l-1.109375 -0.140625q0.140625 -0.71875 0.484375 -1.15625q0.359375 -0.453125 1.015625 -0.6875q0.671875 -0.234375 1.53125 -0.234375q0.875 0 1.40625 0.203125q0.546875 0.203125 0.796875 0.515625q0.25 0.296875 0.359375 0.765625q0.046875 0.296875 0.046875 1.0625l0 1.515625q0 1.59375 0.078125 2.015625q0.078125 0.421875 0.28125 0.8125l-1.1875 0q-0.171875 -0.359375 -0.234375 -0.828125zm-0.09375 -2.5625q-0.625 0.265625 -1.859375 0.4375q-0.703125 0.109375 -1.0 0.234375q-0.296875 0.125 -0.453125 0.375q-0.15625 0.234375 -0.15625 0.53125q0 0.453125 0.34375 0.765625q0.34375 0.296875 1.015625 0.296875q0.65625 0 1.171875 -0.28125q0.515625 -0.296875 0.765625 -0.796875q0.171875 -0.375 0.171875 -1.140625l0 -0.421875zm3.1156006 3.390625l0 -6.734375l1.03125 0l0 0.953125q0.734375 -1.109375 2.140625 -1.109375q0.609375 0 1.109375 0.21875q0.51560974 0.21875 0.76560974 0.578125q0.265625 0.34375 0.359375 0.84375q0.0625 0.3125 0.0625 1.109375l0 4.140625l-1.140625 0l0 -4.09375q0 -0.703125 -0.14060974 -1.046875q-0.125 -0.34375 -0.46875 -0.546875q-0.328125 -0.21875 -0.78125 -0.21875q-0.734375 0 -1.265625 0.46875q-0.53125 0.453125 -0.53125 1.75l0 3.6875l-1.140625 0zm11.099838 0l0 -6.734375l1.03125 0l0 1.015625q0.390625 -0.71875 0.71875 -0.9375q0.34375 -0.234375 0.734375 -0.234375q0.578125 0 1.171875 0.359375l-0.390625 1.0625q-0.421875 -0.25 -0.828125 -0.25q-0.375 0 -0.6875 0.234375q-0.296875 0.21875 -0.421875 0.625q-0.1875 0.609375 -0.1875 1.328125l0 3.53125l-1.140625 0zm9.0633545 -2.171875l1.1875 0.140625q-0.28125 1.046875 -1.046875 1.625q-0.75 0.5625 -1.921875 0.5625q-1.484375 0 -2.359375 -0.90625q-0.859375 -0.921875 -0.859375 -2.5625q0 -1.703125 0.875 -2.640625q0.890625 -0.9375 2.28125 -0.9375q1.359375 0 2.203125 0.921875q0.859375 0.921875 0.859375 2.578125q0 0.109375 0 0.3125l-5.03125 0q0.0625 1.109375 0.625 1.703125q0.5625 0.59375 1.40625 0.59375q0.640625 0 1.078125 -0.328125q0.453125 -0.34375 0.703125 -1.0625zm-3.75 -1.84375l3.765625 0q-0.078125 -0.859375 -0.4375 -1.28125q-0.546875 -0.65625 -1.40625 -0.65625q-0.796875 0 -1.328125 0.53125q-0.53125 0.515625 -0.59375 1.40625zm6.5531006 4.015625l0 -6.734375l1.015625 0l0 0.9375q0.328125 -0.5 0.84375 -0.796875q0.53125 -0.296875 1.203125 -0.296875q0.75 0 1.21875 0.3125q0.484375 0.3125 0.6875 0.859375q0.796875 -1.171875 2.078125 -1.171875q1.0 0 1.53125 0.5625q0.546875 0.546875 0.546875 1.703125l0 4.625l-1.125 0l0 -4.25q0 -0.6875 -0.109375 -0.984375q-0.109375 -0.296875 -0.40625 -0.484375q-0.296875 -0.1875 -0.6875 -0.1875q-0.71875 0 -1.1875 0.484375q-0.46875 0.46875 -0.46875 1.5l0 3.921875l-1.140625 0l0 -4.375q0 -0.765625 -0.28125 -1.140625q-0.28125 -0.390625 -0.90625 -0.390625q-0.484375 0 -0.890625 0.265625q-0.40625 0.25 -0.59375 0.734375q-0.1875 0.484375 -0.1875 1.40625l0 3.5l-1.140625 0zm10.6805725 -3.375q0 -1.875 1.03125 -2.765625q0.875 -0.75 2.125 -0.75q1.390625 0 2.265625 0.90625q0.890625 0.90625 0.890625 2.515625q0 1.296875 -0.390625 2.046875q-0.390625 0.75 -1.140625 1.171875q-0.75 0.40625 -1.625 0.40625q-1.421875 0 -2.296875 -0.90625q-0.859375 -0.90625 -0.859375 -2.625zm1.171875 0q0 1.296875 0.5625 1.953125q0.5625 0.640625 1.421875 0.640625q0.84375 0 1.40625 -0.640625q0.578125 -0.65625 0.578125 -1.984375q0 -1.25 -0.578125 -1.890625q-0.5625 -0.65625 -1.40625 -0.65625q-0.859375 0 -1.421875 0.640625q-0.5625 0.640625 -0.5625 1.9375zm9.162476 2.359375l0.15625 1.0q-0.484375 0.109375 -0.859375 0.109375q-0.625 0 -0.96875 -0.203125q-0.34375 -0.203125 -0.484375 -0.515625q-0.140625 -0.328125 -0.140625 -1.34375l0 -3.890625l-0.828125 0l0 -0.875l0.828125 0l0 -1.671875l1.140625 -0.6875l0 2.359375l1.15625 0l0 0.875l-1.15625 0l0 3.953125q0 0.484375 0.0625 0.625q0.0625 0.140625 0.1875 0.21875q0.140625 0.078125 0.390625 0.078125q0.203125 0 0.515625 -0.03125zm5.8123474 -1.15625l1.1875 0.140625q-0.28125 1.046875 -1.046875 1.625q-0.75 0.5625 -1.921875 0.5625q-1.484375 0 -2.359375 -0.90625q-0.859375 -0.921875 -0.859375 -2.5625q0 -1.703125 0.875 -2.640625q0.890625 -0.9375 2.28125 -0.9375q1.359375 0 2.203125 0.921875q0.859375 0.921875 0.859375 2.578125q0 0.109375 0 0.3125l-5.03125 0q0.0625 1.109375 0.625 1.703125q0.5625 0.59375 1.40625 0.59375q0.640625 0 1.078125 -0.328125q0.453125 -0.34375 0.703125 -1.0625zm-3.75 -1.84375l3.765625 0q-0.078125 -0.859375 -0.4375 -1.28125q-0.546875 -0.65625 -1.40625 -0.65625q-0.796875 0 -1.328125 0.53125q-0.53125 0.515625 -0.59375 1.40625z" fill-rule="nonzero"></path><path fill="#000000" fill-opacity="0.0" d="m482.3176 99.185036l102.23624 0l0 39.433067l-102.23624 0z" fill-rule="evenodd"></path><path fill="#000000" d="m498.42697 111.67254l1.234375 0l0 5.390625q0 1.390625 -0.328125 2.21875q-0.3125 0.828125 -1.140625 1.34375q-0.828125 0.515625 -2.171875 0.515625q-1.3125 0 -2.140625 -0.453125q-0.828125 -0.453125 -1.1875 -1.296875q-0.359375 -0.859375 -0.359375 -2.328125l0 -5.390625l1.234375 0l0 5.375q0 1.21875 0.21875 1.796875q0.234375 0.5625 0.78125 0.875q0.546875 0.3125 1.34375 0.3125q1.359375 0 1.9375 -0.609375q0.578125 -0.625 0.578125 -2.375l0 -5.375zm3.5314026 9.3125l0 -9.3125l4.125 0q1.25 0 1.890625 0.265625q0.65625 0.25 1.046875 0.890625q0.390625 0.625 0.390625 1.390625q0 0.984375 -0.65625 1.671875q-0.640625 0.671875 -1.96875 0.859375q0.484375 0.234375 0.734375 0.46875q0.546875 0.484375 1.03125 1.234375l1.609375 2.53125l-1.546875 0l-1.234375 -1.9375q-0.53125 -0.84375 -0.890625 -1.28125q-0.34375 -0.4375 -0.625 -0.609375q-0.265625 -0.1875 -0.546875 -0.265625q-0.21875 -0.03125 -0.6875 -0.03125l-1.4375 0l0 4.125l-1.234375 0zm1.234375 -5.203125l2.65625 0q0.84375 0 1.3125 -0.171875q0.484375 -0.171875 0.71875 -0.546875q0.25 -0.390625 0.25 -0.84375q0 -0.65625 -0.484375 -1.078125q-0.46875 -0.4375 -1.5 -0.4375l-2.953125 0l0 3.078125zm8.328278 5.203125l0 -9.3125l1.2343445 0l0 8.21875l4.578125 0l0 1.09375l-5.8124695 0zm11.006073 0l0 -6.734375l1.03125 0l0 1.015625q0.390625 -0.71875 0.71875 -0.9375q0.34375 -0.234375 0.734375 -0.234375q0.578125 0 1.171875 0.359375l-0.390625 1.0625q-0.421875 -0.25 -0.828125 -0.25q-0.375 0 -0.6875 0.234375q-0.296875 0.21875 -0.421875 0.625q-0.1875 0.609375 -0.1875 1.328125l0 3.53125l-1.140625 0zm9.0633545 -2.171875l1.1875 0.140625q-0.28125 1.046875 -1.046875 1.625q-0.75 0.5625 -1.921875 0.5625q-1.484375 0 -2.359375 -0.90625q-0.859375 -0.921875 -0.859375 -2.5625q0 -1.703125 0.875 -2.640625q0.890625 -0.9375 2.28125 -0.9375q1.359375 0 2.203125 0.921875q0.859375 0.921875 0.859375 2.578125q0 0.109375 0 0.3125l-5.03125 0q0.0625 1.109375 0.625 1.703125q0.5625 0.59375 1.40625 0.59375q0.640625 0 1.078125 -0.328125q0.453125 -0.34375 0.703125 -1.0625zm-3.75 -1.84375l3.765625 0q-0.078125 -0.859375 -0.4375 -1.28125q-0.546875 -0.65625 -1.40625 -0.65625q-0.796875 0 -1.328125 0.53125q-0.53125 0.515625 -0.59375 1.40625zm6.5531006 4.015625l0 -6.734375l1.015625 0l0 0.9375q0.328125 -0.5 0.84375 -0.796875q0.53125 -0.296875 1.203125 -0.296875q0.75 0 1.21875 0.3125q0.484375 0.3125 0.6875 0.859375q0.796875 -1.171875 2.078125 -1.171875q1.0 0 1.53125 0.5625q0.546875 0.546875 0.546875 1.703125l0 4.625l-1.125 0l0 -4.25q0 -0.6875 -0.109375 -0.984375q-0.109375 -0.296875 -0.40625 -0.484375q-0.296875 -0.1875 -0.6875 -0.1875q-0.71875 0 -1.1875 0.484375q-0.46875 0.46875 -0.46875 1.5l0 3.921875l-1.140625 0l0 -4.375q0 -0.765625 -0.28125 -1.140625q-0.28125 -0.390625 -0.90625 -0.390625q-0.484375 0 -0.890625 0.265625q-0.40625 0.25 -0.59375 0.734375q-0.1875 0.484375 -0.1875 1.40625l0 3.5l-1.140625 0zm10.680603 -3.375q0 -1.875 1.03125 -2.765625q0.875 -0.75 2.125 -0.75q1.390625 0 2.265625 0.90625q0.890625 0.90625 0.890625 2.515625q0 1.296875 -0.390625 2.046875q-0.390625 0.75 -1.140625 1.171875q-0.75 0.40625 -1.625 0.40625q-1.421875 0 -2.296875 -0.90625q-0.859375 -0.90625 -0.859375 -2.625zm1.171875 0q0 1.296875 0.5625 1.953125q0.5625 0.640625 1.421875 0.640625q0.84375 0 1.40625 -0.640625q0.578125 -0.65625 0.578125 -1.984375q0 -1.25 -0.578125 -1.890625q-0.5625 -0.65625 -1.40625 -0.65625q-0.859375 0 -1.421875 0.640625q-0.5625 0.640625 -0.5625 1.9375zm9.162476 2.359375l0.15625 1.0q-0.484375 0.109375 -0.859375 0.109375q-0.625 0 -0.96875 -0.203125q-0.34375 -0.203125 -0.484375 -0.515625q-0.140625 -0.328125 -0.140625 -1.34375l0 -3.890625l-0.828125 0l0 -0.875l0.828125 0l0 -1.671875l1.140625 -0.6875l0 2.359375l1.15625 0l0 0.875l-1.15625 0l0 3.953125q0 0.484375 0.0625 0.625q0.0625 0.140625 0.1875 0.21875q0.140625 0.078125 0.390625 0.078125q0.203125 0 0.515625 -0.03125zm5.812317 -1.15625l1.1875 0.140625q-0.28125 1.046875 -1.046875 1.625q-0.75 0.5625 -1.921875 0.5625q-1.484375 0 -2.359375 -0.90625q-0.859375 -0.921875 -0.859375 -2.5625q0 -1.703125 0.875 -2.640625q0.890625 -0.9375 2.28125 -0.9375q1.359375 0 2.203125 0.921875q0.859375 0.921875 0.859375 2.578125q0 0.109375 0 0.3125l-5.03125 0q0.0625 1.109375 0.625 1.703125q0.5625 0.59375 1.40625 0.59375q0.640625 0 1.078125 -0.328125q0.453125 -0.34375 0.703125 -1.0625zm-3.75 -1.84375l3.765625 0q-0.078125 -0.859375 -0.4375 -1.28125q-0.546875 -0.65625 -1.40625 -0.65625q-0.796875 0 -1.328125 0.53125q-0.53125 0.515625 -0.59375 1.40625z" fill-rule="nonzero"></path><path fill="#000000" fill-opacity="0.0" d="m247.12599 292.33203l102.23622 0l0 39.433075l-102.23622 0z" fill-rule="evenodd"></path><path fill="#000000" d="m256.98535 314.13202l0 -6.734375l1.03125 0l0 0.953125q0.734375 -1.109375 2.140625 -1.109375q0.609375 0 1.109375 0.21875q0.515625 0.21875 0.765625 0.578125q0.265625 0.34375 0.359375 0.84375q0.0625 0.3125 0.0625 1.109375l0 4.140625l-1.140625 0l0 -4.09375q0 -0.703125 -0.140625 -1.046875q-0.125 -0.34375 -0.46875 -0.546875q-0.328125 -0.21875 -0.78125 -0.21875q-0.734375 0 -1.265625 0.46875q-0.53125 0.453125 -0.53125 1.75l0 3.6875l-1.140625 0zm11.803101 -0.828125q-0.625 0.53125 -1.21875 0.765625q-0.578125 0.21875 -1.25 0.21875q-1.125 0 -1.71875 -0.546875q-0.59375 -0.546875 -0.59375 -1.390625q0 -0.484375 0.21875 -0.890625q0.234375 -0.421875 0.59375 -0.671875q0.375 -0.25 0.828125 -0.375q0.328125 -0.078125 1.015625 -0.171875q1.375 -0.15625 2.03125 -0.390625q0.015625 -0.234375 0.015625 -0.296875q0 -0.703125 -0.328125 -0.984375q-0.4375 -0.390625 -1.296875 -0.390625q-0.8125 0 -1.203125 0.28125q-0.375 0.28125 -0.5625 1.0l-1.109375 -0.140625q0.140625 -0.71875 0.484375 -1.15625q0.359375 -0.453125 1.015625 -0.6875q0.671875 -0.234375 1.53125 -0.234375q0.875 0 1.40625 0.203125q0.546875 0.203125 0.796875 0.515625q0.25 0.296875 0.359375 0.765625q0.046875 0.296875 0.046875 1.0625l0 1.515625q0 1.59375 0.078125 2.015625q0.078125 0.421875 0.28125 0.8125l-1.1875 0q-0.171875 -0.359375 -0.234375 -0.828125zm-0.09375 -2.5625q-0.625 0.265625 -1.859375 0.4375q-0.703125 0.109375 -1.0 0.234375q-0.296875 0.125 -0.453125 0.375q-0.15625 0.234375 -0.15625 0.53125q0 0.453125 0.34375 0.765625q0.34375 0.296875 1.015625 0.296875q0.65625 0 1.171875 -0.28125q0.515625 -0.296875 0.765625 -0.796875q0.171875 -0.375 0.171875 -1.140625l0 -0.421875zm3.1156006 3.390625l0 -6.734375l1.015625 0l0 0.9375q0.328125 -0.5 0.84375 -0.796875q0.53125 -0.296875 1.203125 -0.296875q0.75 0 1.21875 0.3125q0.484375 0.3125 0.6875 0.859375q0.796875 -1.171875 2.078125 -1.171875q1.0 0 1.53125 0.5625q0.546875 0.546875 0.546875 1.703125l0 4.625l-1.125 0l0 -4.25q0 -0.6875 -0.109375 -0.984375q-0.109375 -0.296875 -0.40625 -0.484375q-0.296875 -0.1875 -0.6875 -0.1875q-0.71875 0 -1.1875 0.484375q-0.46875 0.46875 -0.46875 1.5l0 3.921875l-1.140625 0l0 -4.375q0 -0.765625 -0.28125 -1.140625q-0.28125 -0.390625 -0.90625 -0.390625q-0.484375 0 -0.890625 0.265625q-0.40625 0.25 -0.59375 0.734375q-0.1875 0.484375 -0.1875 1.40625l0 3.5l-1.140625 0zm15.4930725 -0.828125q-0.625 0.53125 -1.21875 0.765625q-0.578125 0.21875 -1.25 0.21875q-1.125 0 -1.71875 -0.546875q-0.59375 -0.546875 -0.59375 -1.390625q0 -0.484375 0.21875 -0.890625q0.234375 -0.421875 0.59375 -0.671875q0.375 -0.25 0.828125 -0.375q0.328125 -0.078125 1.015625 -0.171875q1.375 -0.15625 2.03125 -0.390625q0.015625 -0.234375 0.015625 -0.296875q0 -0.703125 -0.328125 -0.984375q-0.4375 -0.390625 -1.296875 -0.390625q-0.8125 0 -1.203125 0.28125q-0.375 0.28125 -0.5625 1.0l-1.109375 -0.140625q0.140625 -0.71875 0.484375 -1.15625q0.359375 -0.453125 1.015625 -0.6875q0.671875 -0.234375 1.53125 -0.234375q0.875 0 1.40625 0.203125q0.546875 0.203125 0.796875 0.515625q0.25 0.296875 0.359375 0.765625q0.046875 0.296875 0.046875 1.0625l0 1.515625q0 1.59375 0.078125 2.015625q0.078125 0.421875 0.28125 0.8125l-1.1875 0q-0.171875 -0.359375 -0.234375 -0.828125zm-0.09375 -2.5625q-0.625 0.265625 -1.859375 0.4375q-0.703125 0.109375 -1.0 0.234375q-0.296875 0.125 -0.453125 0.375q-0.15625 0.234375 -0.15625 0.53125q0 0.453125 0.34375 0.765625q0.34375 0.296875 1.015625 0.296875q0.65625 0 1.171875 -0.28125q0.515625 -0.296875 0.765625 -0.796875q0.171875 -0.375 0.171875 -1.140625l0 -0.421875zm6.802948 3.390625l0 -6.734375l1.03125 0l0 1.015625q0.390625 -0.71875 0.71875 -0.9375q0.34375 -0.234375 0.734375 -0.234375q0.578125 0 1.171875 0.359375l-0.390625 1.0625q-0.421875 -0.25 -0.828125 -0.25q-0.375 0 -0.6875 0.234375q-0.296875 0.21875 -0.421875 0.625q-0.1875 0.609375 -0.1875 1.328125l0 3.53125l-1.140625 0zm9.063385 -2.171875l1.1875 0.140625q-0.28125 1.046875 -1.046875 1.625q-0.75 0.5625 -1.921875 0.5625q-1.484375 0 -2.359375 -0.90625q-0.859375 -0.921875 -0.859375 -2.5625q0 -1.703125 0.875 -2.640625q0.890625 -0.9375 2.28125 -0.9375q1.359375 0 2.203125 0.921875q0.859375 0.921875 0.859375 2.578125q0 0.109375 0 0.3125l-5.03125 0q0.0625 1.109375 0.625 1.703125q0.5625 0.59375 1.40625 0.59375q0.640625 0 1.078125 -0.328125q0.453125 -0.34375 0.703125 -1.0625zm-3.75 -1.84375l3.765625 0q-0.078125 -0.859375 -0.4375 -1.28125q-0.546875 -0.65625 -1.40625 -0.65625q-0.796875 0 -1.328125 0.53125q-0.53125 0.515625 -0.59375 1.40625zm6.5531006 4.015625l0 -6.734375l1.015625 0l0 0.9375q0.328125 -0.5 0.84375 -0.796875q0.53125 -0.296875 1.203125 -0.296875q0.75 0 1.21875 0.3125q0.484375 0.3125 0.6875 0.859375q0.796875 -1.171875 2.078125 -1.171875q1.0 0 1.53125 0.5625q0.546875 0.546875 0.546875 1.703125l0 4.625l-1.125 0l0 -4.25q0 -0.6875 -0.109375 -0.984375q-0.109375 -0.296875 -0.40625 -0.484375q-0.296875 -0.1875 -0.6875 -0.1875q-0.71875 0 -1.1875 0.484375q-0.46875 0.46875 -0.46875 1.5l0 3.921875l-1.140625 0l0 -4.375q0 -0.765625 -0.28125 -1.140625q-0.28125 -0.390625 -0.90625 -0.390625q-0.484375 0 -0.890625 0.265625q-0.40625 0.25 -0.59375 0.734375q-0.1875 0.484375 -0.1875 1.40625l0 3.5l-1.140625 0zm10.680542 -3.375q0 -1.875 1.03125 -2.765625q0.875 -0.75 2.125 -0.75q1.390625 0 2.265625 0.90625q0.890625 0.90625 0.890625 2.515625q0 1.296875 -0.390625 2.046875q-0.390625 0.75 -1.140625 1.171875q-0.75 0.40625 -1.625 0.40625q-1.421875 0 -2.296875 -0.90625q-0.859375 -0.90625 -0.859375 -2.625zm1.171875 0q0 1.296875 0.5625 1.953125q0.5625 0.640625 1.421875 0.640625q0.84375 0 1.40625 -0.640625q0.578125 -0.65625 0.578125 -1.984375q0 -1.25 -0.578125 -1.890625q-0.5625 -0.65625 -1.40625 -0.65625q-0.859375 0 -1.421875 0.640625q-0.5625 0.640625 -0.5625 1.9375zm9.162476 2.359375l0.15625 1.0q-0.484375 0.109375 -0.859375 0.109375q-0.625 0 -0.96875 -0.203125q-0.34375 -0.203125 -0.484375 -0.515625q-0.140625 -0.328125 -0.140625 -1.34375l0 -3.890625l-0.828125 0l0 -0.875l0.828125 0l0 -1.671875l1.140625 -0.6875l0 2.359375l1.15625 0l0 0.875l-1.15625 0l0 3.953125q0 0.484375 0.0625 0.625q0.0625 0.140625 0.1875 0.21875q0.140625 0.078125 0.390625 0.078125q0.203125 0 0.515625 -0.03125zm5.812378 -1.15625l1.1875 0.140625q-0.28125 1.046875 -1.046875 1.625q-0.75 0.5625 -1.921875 0.5625q-1.484375 0 -2.359375 -0.90625q-0.859375 -0.921875 -0.859375 -2.5625q0 -1.703125 0.875 -2.640625q0.890625 -0.9375 2.28125 -0.9375q1.359375 0 2.203125 0.921875q0.859375 0.921875 0.859375 2.578125q0 0.109375 0 0.3125l-5.03125 0q0.0625 1.109375 0.625 1.703125q0.5625 0.59375 1.40625 0.59375q0.640625 0 1.078125 -0.328125q0.453125 -0.34375 0.703125 -1.0625zm-3.75 -1.84375l3.765625 0q-0.078125 -0.859375 -0.4375 -1.28125q-0.546875 -0.65625 -1.40625 -0.65625q-0.796875 0 -1.328125 0.53125q-0.53125 0.515625 -0.59375 1.40625z" fill-rule="nonzero"></path><path fill="#000000" fill-opacity="0.0" d="m612.6168 271.542l147.46454 0l0 39.433075l-147.46454 0z" fill-rule="evenodd"></path><path fill="#d9d9d9" d="m623.7106 293.34198l-2.0625 -6.734375l1.1875 0l1.078125 3.890625l0.390625 1.4375q0.03125 -0.109375 0.359375 -1.390625l1.0625 -3.9375l1.171875 0l1.015625 3.90625l0.34375 1.28125l0.375 -1.296875l1.15625 -3.890625l1.109375 0l-2.109375 6.734375l-1.171875 0l-1.078125 -4.03125l-0.265625 -1.15625l-1.359375 5.1875l-1.203125 0zm9.625122 0l-2.0625 -6.734375l1.1875 0l1.078125 3.890625l0.390625 1.4375q0.03125 -0.109375 0.359375 -1.390625l1.0625 -3.9375l1.171875 0l1.015625 3.90625l0.34375 1.28125l0.375 -1.296875l1.15625 -3.890625l1.109375 0l-2.109375 6.734375l-1.171875 0l-1.078125 -4.03125l-0.265625 -1.15625l-1.359375 5.1875l-1.203125 0zm9.625183 0l-2.0625 -6.734375l1.1875 0l1.078125 3.890625l0.390625 1.4375q0.03125 -0.109375 0.359375 -1.390625l1.0625 -3.9375l1.171875 0l1.015625 3.90625l0.34375 1.28125l0.375 -1.296875l1.15625 -3.890625l1.109375 0l-2.109375 6.734375l-1.171875 0l-1.078125 -4.03125l-0.265625 -1.15625l-1.359375 5.1875l-1.203125 0zm8.718872 0l0 -1.296875l1.296875 0l0 1.296875l-1.296875 0zm3.374878 2.578125l0 -9.3125l1.03125 0l0 0.875q0.375 -0.515625 0.828125 -0.765625q0.46875 -0.265625 1.140625 -0.265625q0.859375 0 1.515625 0.453125q0.65625 0.4375 0.984375 1.25q0.34375 0.796875 0.34375 1.765625q0 1.03125 -0.375 1.859375q-0.359375 0.828125 -1.078125 1.28125q-0.703125 0.4375 -1.484375 0.4375q-0.5625 0 -1.015625 -0.234375q-0.453125 -0.25 -0.75 -0.625l0 3.28125l-1.140625 0zm1.03125 -5.90625q0 1.296875 0.53125 1.921875q0.53125 0.625 1.265625 0.625q0.765625 0 1.3125 -0.640625q0.546875 -0.65625 0.546875 -2.0q0 -1.296875 -0.53125 -1.9375q-0.53125 -0.640625 -1.265625 -0.640625q-0.734375 0 -1.296875 0.6875q-0.5625 0.671875 -0.5625 1.984375zm10.990601 1.15625l1.1875 0.140625q-0.28125 1.046875 -1.046875 1.625q-0.75 0.5625 -1.921875 0.5625q-1.484375 0 -2.359375 -0.90625q-0.859375 -0.921875 -0.859375 -2.5625q0 -1.703125 0.875 -2.640625q0.890625 -0.9375 2.28125 -0.9375q1.359375 0 2.203125 0.921875q0.859375 0.921875 0.859375 2.578125q0 0.109375 0 0.3125l-5.03125 0q0.0625 1.109375 0.625 1.703125q0.5625 0.59375 1.40625 0.59375q0.640625 0 1.078125 -0.328125q0.453125 -0.34375 0.703125 -1.0625zm-3.75 -1.84375l3.765625 0q-0.078125 -0.859375 -0.4375 -1.28125q-0.546875 -0.65625 -1.40625 -0.65625q-0.796875 0 -1.328125 0.53125q-0.53125 0.515625 -0.59375 1.40625zm9.053101 3.0l0.15625 1.0q-0.484375 0.109375 -0.859375 0.109375q-0.625 0 -0.96875 -0.203125q-0.34375 -0.203125 -0.484375 -0.515625q-0.140625 -0.328125 -0.140625 -1.34375l0 -3.890625l-0.828125 0l0 -0.875l0.828125 0l0 -1.671875l1.140625 -0.6875l0 2.359375l1.15625 0l0 0.875l-1.15625 0l0 3.953125q0 0.484375 0.0625 0.625q0.0625 0.140625 0.1875 0.21875q0.140625 0.078125 0.390625 0.078125q0.203125 0 0.515625 -0.03125zm5.593628 0.1875q-0.625 0.53125 -1.21875 0.765625q-0.578125 0.21875 -1.25 0.21875q-1.125 0 -1.71875 -0.546875q-0.59375 -0.546875 -0.59375 -1.390625q0 -0.484375 0.21875 -0.890625q0.234375 -0.421875 0.59375 -0.671875q0.375 -0.25 0.828125 -0.375q0.328125 -0.078125 1.015625 -0.171875q1.375 -0.15625 2.03125 -0.390625q0.015625 -0.234375 0.015625 -0.296875q0 -0.703125 -0.328125 -0.984375q-0.4375 -0.390625 -1.296875 -0.390625q-0.8125 0 -1.203125 0.28125q-0.375 0.28125 -0.5625 1.0l-1.109375 -0.140625q0.140625 -0.71875 0.484375 -1.15625q0.359375 -0.453125 1.015625 -0.6875q0.671875 -0.234375 1.53125 -0.234375q0.875 0 1.40625 0.203125q0.546875 0.203125 0.796875 0.515625q0.25 0.296875 0.359375 0.765625q0.046875 0.296875 0.046875 1.0625l0 1.515625q0 1.59375 0.078125 2.015625q0.078125 0.421875 0.28125 0.8125l-1.1875 0q-0.171875 -0.359375 -0.234375 -0.828125zm-0.09375 -2.5625q-0.625 0.265625 -1.859375 0.4375q-0.703125 0.109375 -1.0 0.234375q-0.296875 0.125 -0.453125 0.375q-0.15625 0.234375 -0.15625 0.53125q0 0.453125 0.34375 0.765625q0.34375 0.296875 1.015625 0.296875q0.65625 0 1.171875 -0.28125q0.515625 -0.296875 0.765625 -0.796875q0.171875 -0.375 0.171875 -1.140625l0 -0.421875zm3.1156006 3.390625l0 -6.734375l1.03125 0l0 0.953125q0.734375 -1.109375 2.140625 -1.109375q0.609375 0 1.109375 0.21875q0.515625 0.21875 0.765625 0.578125q0.265625 0.34375 0.359375 0.84375q0.0625 0.3125 0.0625 1.109375l0 4.140625l-1.140625 0l0 -4.09375q0 -0.703125 -0.140625 -1.046875q-0.125 -0.34375 -0.46875 -0.546875q-0.328125 -0.21875 -0.78125 -0.21875q-0.734375 0 -1.265625 0.46875q-0.53125 0.453125 -0.53125 1.75l0 3.6875l-1.140625 0zm7.4124756 -7.984375l0 -1.328125l1.140625 0l0 1.328125l-1.140625 0zm0 7.984375l0 -6.734375l1.140625 0l0 6.734375l-1.140625 0zm2.9610596 0l0 -9.3125l1.140625 0l0 5.3125l2.703125 -2.734375l1.484375 0l-2.578125 2.5l2.84375 4.234375l-1.40625 0l-2.234375 -3.453125l-0.8125 0.78125l0 2.671875l-1.140625 0zm6.2421875 -3.375q0 -1.875 1.03125 -2.765625q0.875 -0.75 2.125 -0.75q1.390625 0 2.265625 0.90625q0.890625 0.90625 0.890625 2.515625q0 1.296875 -0.390625 2.046875q-0.390625 0.75 -1.140625 1.171875q-0.75 0.40625 -1.625 0.40625q-1.421875 0 -2.296875 -0.90625q-0.859375 -0.90625 -0.859375 -2.625zm1.171875 0q0 1.296875 0.5625 1.953125q0.5625 0.640625 1.421875 0.640625q0.84375 0 1.40625 -0.640625q0.578125 -0.65625 0.578125 -1.984375q0 -1.25 -0.578125 -1.890625q-0.5625 -0.65625 -1.40625 -0.65625q-0.859375 0 -1.421875 0.640625q-0.5625 0.640625 -0.5625 1.9375zm11.037476 3.375l0 -0.84375q-0.640625 1.0 -1.890625 1.0q-0.796875 0 -1.484375 -0.4375q-0.671875 -0.453125 -1.046875 -1.25q-0.375 -0.796875 -0.375 -1.828125q0 -1.015625 0.34375 -1.828125q0.34375 -0.828125 1.015625 -1.265625q0.671875 -0.4375 1.5 -0.4375q0.609375 0 1.078125 0.265625q0.484375 0.25 0.78125 0.65625l0 -3.34375l1.140625 0l0 9.3125l-1.0625 0zm-3.609375 -3.359375q0 1.296875 0.53125 1.9375q0.546875 0.640625 1.296875 0.640625q0.75 0 1.265625 -0.609375q0.53125 -0.625 0.53125 -1.875q0 -1.390625 -0.53125 -2.03125q-0.53125 -0.65625 -1.3125 -0.65625q-0.765625 0 -1.28125 0.625q-0.5 0.625 -0.5 1.96875zm11.256226 1.1875l1.1875 0.140625q-0.28125 1.046875 -1.046875 1.625q-0.75 0.5625 -1.921875 0.5625q-1.484375 0 -2.359375 -0.90625q-0.859375 -0.921875 -0.859375 -2.5625q0 -1.703125 0.875 -2.640625q0.890625 -0.9375 2.28125 -0.9375q1.359375 0 2.203125 0.921875q0.859375 0.921875 0.859375 2.578125q0 0.109375 0 0.3125l-5.03125 0q0.0625 1.109375 0.625 1.703125q0.5625 0.59375 1.40625 0.59375q0.640625 0 1.078125 -0.328125q0.453125 -0.34375 0.703125 -1.0625zm-3.75 -1.84375l3.765625 0q-0.078125 -0.859375 -0.4375 -1.28125q-0.546875 -0.65625 -1.40625 -0.65625q-0.796875 0 -1.328125 0.53125q-0.53125 0.515625 -0.59375 1.40625zm6.8812256 4.015625l0 -1.296875l1.296875 0l0 1.296875l-1.296875 0zm7.765503 -2.46875l1.125 0.140625q-0.171875 1.171875 -0.9375 1.828125q-0.765625 0.65625 -1.859375 0.65625q-1.390625 0 -2.234375 -0.90625q-0.828125 -0.90625 -0.828125 -2.59375q0 -1.09375 0.359375 -1.90625q0.359375 -0.828125 1.09375 -1.234375q0.734375 -0.40625 1.609375 -0.40625q1.09375 0 1.796875 0.5625q0.703125 0.546875 0.890625 1.5625l-1.109375 0.171875q-0.15625 -0.671875 -0.5625 -1.015625q-0.390625 -0.34375 -0.96875 -0.34375q-0.859375 0 -1.40625 0.625q-0.53125 0.609375 -0.53125 1.953125q0 1.359375 0.515625 1.984375q0.515625 0.609375 1.359375 0.609375q0.671875 0 1.125 -0.40625q0.453125 -0.421875 0.5625 -1.28125zm1.8515625 -0.90625q0 -1.875 1.03125 -2.765625q0.875 -0.75 2.125 -0.75q1.390625 0 2.265625 0.90625q0.890625 0.90625 0.890625 2.515625q0 1.296875 -0.390625 2.046875q-0.390625 0.75 -1.140625 1.171875q-0.75 0.40625 -1.625 0.40625q-1.421875 0 -2.296875 -0.90625q-0.859375 -0.90625 -0.859375 -2.625zm1.171875 0q0 1.296875 0.5625 1.953125q0.5625 0.640625 1.421875 0.640625q0.84375 0 1.40625 -0.640625q0.578125 -0.65625 0.578125 -1.984375q0 -1.25 -0.578125 -1.890625q-0.5625 -0.65625 -1.40625 -0.65625q-0.859375 0 -1.421875 0.640625q-0.5625 0.640625 -0.5625 1.9375zm6.6624756 3.375l0 -6.734375l1.015625 0l0 0.9375q0.328125 -0.5 0.84375 -0.796875q0.53125 -0.296875 1.203125 -0.296875q0.75 0 1.21875 0.3125q0.484375 0.3125 0.6875 0.859375q0.796875 -1.171875 2.078125 -1.171875q1.0 0 1.53125 0.5625q0.546875 0.546875 0.546875 1.703125l0 4.625l-1.125 0l0 -4.25q0 -0.6875 -0.109375 -0.984375q-0.109375 -0.296875 -0.40625 -0.484375q-0.296875 -0.1875 -0.6875 -0.1875q-0.71875 0 -1.1875 0.484375q-0.46875 0.46875 -0.46875 1.5l0 3.921875l-1.140625 0l0 -4.375q0 -0.765625 -0.28125 -1.140625q-0.28125 -0.390625 -0.90625 -0.390625q-0.484375 0 -0.890625 0.265625q-0.40625 0.25 -0.59375 0.734375q-0.1875 0.484375 -0.1875 1.40625l0 3.5l-1.140625 0z" fill-rule="nonzero"></path></g></svg>

